<svg version="1.1" viewBox="0 0 30 30" xmlns="http://www.w3.org/2000/svg" xmlns:xlink="http://www.w3.org/1999/xlink"><g fill="#000"><path d="M17.411 21h-4.822c-.15 0-.293-.067-.388-.185 -.095-.116-.133-.27-.102-.417l1.249-6.017c-.754-.539-1.225-1.439-1.225-2.391 0-1.582 1.291-2.868 2.877-2.868 1.585 0 2.875 1.296 2.875 2.889 0 .938-.471 1.83-1.225 2.367l1.249 6.02c.031.147-.007.301-.102.417 -.093.118-.235.185-.386.185Zm-4.208-1h3.594l-1.195-5.761c-.046-.219.06-.441.258-.545 .617-.322 1.017-.982 1.017-1.683 0-1.042-.841-1.889-1.875-1.889 -1.035 0-1.877.838-1.877 1.868 0 .714.399 1.384 1.017 1.707 .198.104.304.326.258.545l-1.197 5.758Z"></path><path d="M15.001 26.946c-6.588 0-11.947-5.359-11.947-11.946 -4.44089e-16-6.587 5.359-11.946 11.947-11.946 6.587 0 11.945 5.359 11.945 11.946 0 6.587-5.358 11.946-11.945 11.946Zm0-22.892c-6.036 8.88178e-16-10.947 4.91-10.947 10.946 -8.88178e-16 6.036 4.911 10.946 10.947 10.946 6.035 0 10.945-4.91 10.945-10.946 0-6.036-4.91-10.946-10.945-10.946Z"></path></g></svg>