<svg xmlns="http://www.w3.org/2000/svg" xmlns:xlink="http://www.w3.org/1999/xlink" viewBox="0 0 36.05 32.41"><defs><linearGradient id="a" x1="469.64" y1="-238.25" x2="438.62" y2="-262.46" gradientTransform="matrix(0.58, 0, 0, -0.58, -234.16, -123.68)" gradientUnits="userSpaceOnUse"><stop offset="0.18" stop-color="#161616"/><stop offset="1" stop-color="#333"/></linearGradient></defs><title>bitbucket</title><path d="M1.17,0A1.15,1.15,0,0,0,0,1.14a1.34,1.34,0,0,0,0,.2L4.92,31.09A1.57,1.57,0,0,0,6.46,32.4H30a1.14,1.14,0,0,0,1.15-1L36,1.35a1.15,1.15,0,0,0-1-1.32l-.2,0ZM21.81,21.5H14.3l-2-10.62H23.63Z" fill="#333"/><path d="M34.46,10.89H23.63L21.81,21.51H14.3L5.44,32a1.51,1.51,0,0,0,1,.38H30a1.14,1.14,0,0,0,1.15-1Z" fill="url(#a)"/></svg>