<svg version="1.1" viewBox="0 0 30 30" xmlns="http://www.w3.org/2000/svg" xmlns:xlink="http://www.w3.org/1999/xlink"><g fill="#000"><path d="M9.4 26.813c-.086 0-.173-.022-.25-.067l-5.6-3.232c-.154-.089-.25-.254-.25-.433v-6.463c0-.179.096-.344.25-.433l5.6-3.234c.154-.09.346-.09.5 0l5.6 3.234c.154.089.25.254.25.433v6.463c0 .179-.096.344-.25.433l-5.6 3.232c-.077.045-.164.067-.25.067Zm-5.099-4.021l5.1 2.944 5.1-2.944v-5.885l-5.1-2.946 -5.1 2.946v5.885Z"></path><path d="M9.4 20.351c-.086 0-.173-.022-.25-.067l-5.6-3.232c-.154-.089-.25-.254-.25-.433 0-.179.096-.344.25-.433l5.6-3.234c.154-.09.346-.09.5 0l5.6 3.234c.154.089.25.254.25.433 0 .179-.096.344-.25.433l-5.6 3.232c-.077.044-.164.067-.25.067Zm-4.599-3.733l4.6 2.655 4.6-2.655 -4.6-2.657 -4.6 2.657Z"></path><rect width="1" height="6.16" x="8.9" y="19.851"></rect><path d="M20.6 26.813c-.086 0-.173-.022-.25-.067l-5.6-3.232c-.154-.089-.25-.254-.25-.433v-6.463c0-.179.096-.344.25-.433l5.6-3.234c.154-.09.346-.09.5 0l5.6 3.234c.154.089.25.254.25.433v6.463c0 .179-.096.344-.25.433l-5.6 3.232c-.078.045-.164.067-.25.067Zm-5.1-4.021l5.1 2.944 5.1-2.944v-5.885l-5.1-2.946 -5.1 2.946v5.885Z"></path><path d="M20.6 20.351c-.086 0-.173-.022-.25-.067l-5.6-3.232c-.154-.089-.25-.254-.25-.433 0-.179.096-.344.25-.433l5.6-3.234c.154-.09.346-.09.5 0l5.6 3.234c.154.089.25.254.25.433 0 .179-.096.344-.25.433l-5.6 3.232c-.078.044-.164.067-.25.067Zm-4.6-3.733l4.6 2.655 4.6-2.655 -4.6-2.657 -4.6 2.657Z"></path><rect width="1" height="6.16" x="20.1" y="19.851"></rect><path d="M15 17.118c-.086 0-.173-.022-.25-.067l-5.6-3.234c-.154-.089-.25-.254-.25-.433v-6.465c0-.179.096-.344.25-.433l5.6-3.232c.154-.09.346-.09.5 0l5.6 3.232c.154.089.25.254.25.433v6.465c0 .179-.096.344-.25.433l-5.6 3.234c-.077.045-.164.067-.25.067Zm-5.1-4.023l5.1 2.946 5.1-2.946v-5.887l-5.1-2.944 -5.1 2.944v5.887Z"></path><path d="M15 10.653c-.086 0-.173-.022-.25-.067l-5.6-3.234c-.154-.089-.25-.254-.25-.433 0-.179.096-.344.25-.433l5.6-3.232c.154-.09.346-.09.5 0l5.6 3.232c.154.089.25.254.25.433 0 .179-.096.344-.25.433l-5.6 3.234c-.077.045-.164.067-.25.067Zm-4.6-3.734l4.6 2.657 4.6-2.657 -4.6-2.655 -4.6 2.655Z"></path><rect width="1" height="6.162" x="14.5" y="10.153"></rect></g></svg>