<svg version="1.1" viewBox="0 0 30 30" xmlns="http://www.w3.org/2000/svg" xmlns:xlink="http://www.w3.org/1999/xlink"><g fill="#000"><circle cx="8.647" cy="16.97" r="1.098"></circle><path d="M13.832 17.47h-5.185c-.276 0-.5-.224-.5-.5 0-.276.224-.5.5-.5h5.185c.276 0 .5.224.5.5 0 .276-.224.5-.5.5Z"></path><path d="M18.598 18.068c-.276 0-.5-.224-.5-.5v-1.195c0-.276.224-.5.5-.5 .276 0 .5.224.5.5v1.195c0 .276-.224.5-.5.5Z"></path><path d="M20.274 18.068c-.276 0-.5-.224-.5-.5v-1.195c0-.276.224-.5.5-.5 .276 0 .5.224.5.5v1.195c0 .276-.223.5-.5.5Z"></path><path d="M21.95 18.068c-.276 0-.5-.224-.5-.5v-1.195c0-.276.224-.5.5-.5 .276 0 .5.224.5.5v1.195c0 .276-.223.5-.5.5Z"></path><path d="M20.657 15.339h-9.765c-.025 0-.088-.006-.113-.01 -2.4-.084-4.299-2.05-4.299-4.475 0-2.219 1.646-4.102 3.809-4.431 .674-2.014 2.563-3.392 4.71-3.392 2.198 0 4.11 1.428 4.749 3.508 1.272.427 2.137 1.609 2.137 2.972 0 .124-.009.249-.027.377 .998.462 1.662 1.467 1.662 2.586 -3.55271e-15 1.581-1.285 2.865-2.863 2.865Zm-5.658-11.307c-1.808 0-3.387 1.224-3.841 2.977 -.054.208-.234.357-.448.373 -1.811.132-3.23 1.658-3.23 3.473 0 1.883 1.475 3.411 3.357 3.477l9.819.007c1.027 0 1.862-.836 1.862-1.863 0-.83-.565-1.564-1.373-1.785 -.129-.035-.238-.12-.303-.236 -.066-.116-.083-.253-.046-.381 .06-.213.088-.392.088-.561 0-.998-.682-1.854-1.657-2.082 -.184-.042-.328-.185-.373-.368 -.435-1.785-2.021-3.031-3.855-3.031Z"></path><path d="M23.832 20.636h-17.663c-.877 0-1.591-.714-1.591-1.591v-4.149c0-.877.714-1.591 1.591-1.591h2.145c.123 0 .242.045.333.127 .625.56 1.383.871 2.191.899l9.819.007c.616 0 1.192-.305 1.54-.816 .093-.137.248-.218.413-.218h1.222c.876 0 1.59.714 1.59 1.591v4.149c-7.10543e-15.878-.714 1.592-1.59 1.592Zm-17.663-6.331c-.326 0-.591.265-.591.591v4.149c0 .326.265.591.591.591h17.663c.325 0 .59-.265.59-.591v-4.149c0-.326-.265-.591-.59-.591h-.973c-.542.652-1.346 1.034-2.202 1.034h-9.765c-.025 0-.088-.006-.113-.01 -.945-.033-1.886-.396-2.651-1.024h-1.959Z"></path><path d="M23.832 26.968h-17.663c-.877 0-1.591-.714-1.591-1.591v-4.15c0-.877.714-1.591 1.591-1.591h17.663c.876 0 1.59.714 1.59 1.591v4.15c-3.55271e-15.877-.714 1.591-1.59 1.591Zm-17.663-6.332c-.326 0-.591.265-.591.591v4.15c0 .326.265.591.591.591h17.663c.325 0 .59-.265.59-.591v-4.15c0-.326-.265-.591-.59-.591h-17.663Z"></path><circle cx="8.647" cy="23.302" r="1.098"></circle><path d="M13.832 23.802h-5.185c-.276 0-.5-.224-.5-.5 0-.276.224-.5.5-.5h5.185c.276 0 .5.224.5.5 0 .276-.224.5-.5.5Z"></path><path d="M18.598 24.4c-.276 0-.5-.224-.5-.5v-1.195c0-.276.224-.5.5-.5 .276 0 .5.224.5.5v1.195c0 .276-.224.5-.5.5Z"></path><path d="M20.274 24.4c-.276 0-.5-.224-.5-.5v-1.195c0-.276.224-.5.5-.5 .276 0 .5.224.5.5v1.195c0 .276-.223.5-.5.5Z"></path><path d="M21.95 24.4c-.276 0-.5-.224-.5-.5v-1.195c0-.276.224-.5.5-.5 .276 0 .5.224.5.5v1.195c0 .276-.223.5-.5.5Z"></path></g></svg>