<svg version="1.1" viewBox="0 0 30 30" xmlns="http://www.w3.org/2000/svg" xmlns:xlink="http://www.w3.org/1999/xlink"><g fill="#000"><path d="M15 26.751c-6.479 0-11.75-5.271-11.75-11.75 0-6.48 5.271-11.752 11.75-11.752 6.479-4.44089e-16 11.751 5.272 11.751 11.752 -.001 6.478-5.272 11.75-11.751 11.75Zm0-22.502c-5.928 1.77636e-15-10.75 4.823-10.75 10.752 0 5.928 4.822 10.75 10.75 10.75 5.928 0 10.751-4.822 10.751-10.75 -.001-5.929-4.823-10.752-10.751-10.752Z"></path><path d="M18.981 18.611c-.001 0-.001 0-.002 0 -.694 0-1.346-.271-1.836-.762l-1.011-1.011 .707-.707 1.012 1.011c.302.302.702.469 1.129.469 0 0 0 0 .001 0 .427 0 .829-.166 1.131-.469l1.012-1.011c.302-.302.469-.704.469-1.131 0-.427-.167-.83-.469-1.132l-1.011-1.011c-.302-.302-.704-.469-1.131-.469 0 0-.001 0-.001 0 -.427 0-.828.167-1.129.468l-1.012 1.011 -.707-.707 1.012-1.011c.489-.491 1.142-.761 1.835-.762 0 0 .001 0 .002 0 .694 0 1.347.271 1.838.762l1.012 1.011c.491.492.762 1.145.762 1.839 0 .695-.271 1.348-.762 1.838l-1.012 1.013c-.491.491-1.144.761-1.839.761Z"></path><path d="M11.017 18.611c-.001 0-.001 0-.002 0 -.694 0-1.346-.271-1.836-.762l-1.011-1.011c-.492-.489-.762-1.143-.762-1.838 0-.695.271-1.349.762-1.839l1.012-1.01c.489-.491 1.142-.761 1.835-.762 0 0 .001 0 .002 0 .694 0 1.347.271 1.838.762l1.012 1.011 -.707.707 -1.012-1.011c-.302-.302-.704-.469-1.131-.469 0 0-.001 0-.001 0 -.427 0-.828.167-1.129.468l-1.012 1.011c-.303.302-.469.704-.469 1.132 0 .428.167.83.469 1.132l1.012 1.011c.302.302.702.469 1.129.469 0 0 0 0 .001 0 .427 0 .829-.166 1.131-.469l4.094-4.092 .707.707 -4.094 4.092c-.491.491-1.144.761-1.838.761Z"></path></g></svg>