<svg version="1.1" viewBox="0 0 30 30" xmlns="http://www.w3.org/2000/svg" xmlns:xlink="http://www.w3.org/1999/xlink"><g fill="#000"><path d="M15 18.6c-.1 0-.2 0-.2-.1l-11.5-6.6c-.2-.1-.3-.4-.2-.7 .1-.3.4-.3.7-.2l11.2 6.6 11.2-6.5c.2-.1.5-.1.7.2 .1.2.1.5-.2.7l-11.5 6.6c0 0-.1 0-.2 0Z"></path><path d="M15 26.4c-.3 0-.5-.2-.5-.5v-7.7c0-.3.2-.5.5-.5 .3 0 .5.2.5.5v7.7c0 .2-.2.5-.5.5Z"></path><path d="M8.8 11.9c-2.2 0-3.9-1-3.9-2.4 0-1.3 1.7-2.4 3.9-2.4 2.2 0 3.9 1 3.9 2.4 .1 1.4-1.7 2.4-3.9 2.4Zm0-3.8c-1.7 0-2.9.7-2.9 1.4 0 .7 1.3 1.4 2.9 1.4 1.7 0 2.9-.7 2.9-1.4 .1-.6-1.2-1.4-2.9-1.4Z"></path><path d="M15 8.4c-2.2 0-3.9-1-3.9-2.4 0-1.3 1.7-2.4 3.9-2.4 2.2 0 3.9 1 3.9 2.4 0 1.4-1.7 2.4-3.9 2.4Zm0-3.8c-1.7 0-2.9.7-2.9 1.4 0 .7 1.3 1.4 2.9 1.4 1.7 0 2.9-.7 2.9-1.4 0-.6-1.2-1.4-2.9-1.4Z"></path><path d="M15 15.4c-2.2 0-3.9-1-3.9-2.4 0-1.4 1.7-2.4 3.9-2.4 2.2 0 3.9 1 3.9 2.4 0 1.4-1.7 2.4-3.9 2.4Zm0-3.8c-1.7 0-2.9.7-2.9 1.4 0 .7 1.3 1.4 2.9 1.4 1.7 0 2.9-.7 2.9-1.4 0-.7-1.2-1.4-2.9-1.4Z"></path><path d="M21.2 11.9c-2.2 0-3.9-1-3.9-2.4 0-1.3 1.7-2.4 3.9-2.4 2.2 0 3.9 1 3.9 2.4 3.55271e-15 1.4-1.7 2.4-3.9 2.4Zm0-3.8c-1.7 0-2.9.7-2.9 1.4 0 .7 1.3 1.4 2.9 1.4 1.7 0 2.9-.7 2.9-1.4 3.55271e-15-.6-1.3-1.4-2.9-1.4Z"></path><path d="M15 26.4c-.1 0-.2 0-.2-.1l-11.5-6.6c-.2-.1-.3-.3-.3-.5v-7.7c0-.2.1-.3.2-.4l2.2-1.2c.3-.2.5-.1.7.1 .4.5 1.4.9 2.8.9 1.7 0 2.9-.7 2.9-1.4 0-.5-.8-1-1.8-1.3 -.3 0-.4-.2-.5-.4 -.1-.2.1-.4.2-.5l1.8-1c.2-.1.5-.1.7.1 .4.5 1.4 1 2.8 1 1.4 0 2.4-.5 2.8-1 .2-.2.4-.3.7-.1l1.8 1c.2.1.3.3.2.5 0 .2-.2.4-.4.4 -1.1.3-1.9.8-1.9 1.3 0 .7 1.3 1.4 2.9 1.4 1.4 0 2.4-.5 2.8-.9 .2-.2.4-.2.6-.1l2.2 1.2c.2.1.2.3.2.4v7.7c0 .2-.1.3-.2.4l-11.5 6.6c0 .1-.1.2-.2.2Zm-11-7.4l11 6.3 11-6.3v-7.1l-1.6-.9c-.7.6-1.9 1-3.2 1 -2.2 0-3.9-1-3.9-2.4 0-.8.6-1.5 1.5-1.9l-.5-.3c-.7.7-1.9 1-3.3 1 -1.3 0-2.6-.4-3.3-1l-.5.3c.9.4 1.5 1.1 1.5 1.9 0 1.3-1.7 2.4-3.9 2.4 -1.3 0-2.5-.4-3.2-1l-1.6.8v7.2Zm11-3.6c-2.2 0-3.9-1-3.9-2.4 0-1.4 1.7-2.4 3.9-2.4 2.2 0 3.9 1 3.9 2.4 0 1.4-1.7 2.4-3.9 2.4Zm0-3.8c-1.7 0-2.9.7-2.9 1.4 0 .7 1.3 1.4 2.9 1.4 1.7 0 2.9-.7 2.9-1.4 0-.7-1.2-1.4-2.9-1.4Z"></path></g></svg>