<svg version="1.1" viewBox="0 0 30 30" xmlns="http://www.w3.org/2000/svg" xmlns:xlink="http://www.w3.org/1999/xlink"><g fill="#000"><path d="M22.2 27h-14.4c-1.3 0-2.3-1-2.3-2.3v-14.8c0-.1.1-.3.1-.4l6.4-6.3c.1-.1.3-.2.4-.2h9.8c1.3 0 2.3 1 2.3 2.3v19.4c-3.55271e-15 1.3-1.1 2.3-2.3 2.3Zm-15.7-16.9v14.6c0 .7.6 1.3 1.3 1.3h14.4c.7 0 1.3-.6 1.3-1.3v-19.4c0-.7-.6-1.3-1.3-1.3h-9.6l-6.1 6.1Z"></path><path d="M10.6 10.4h-4.6c-.2 0-.4-.1-.5-.3 -.1-.2 0-.4.1-.5l6.4-6.4c.2-.2.4-.2.6-.1 .2.1.3.3.3.5v4.6c0 1.1-1 2.2-2.3 2.2Zm-3.3-1h3.4c.7 0 1.3-.6 1.3-1.3v-3.4l-4.7 4.7Z"></path><path d="M14.1 17.5c-.3 0-.5-.2-.5-.5v-2.7c0-.3.2-.5.5-.5 .3 0 .5.2.5.5v2.7c0 .3-.2.5-.5.5Z"></path><path d="M14.1 20.2h-2.7c-.3 0-.5-.2-.5-.5 0-.3.2-.5.5-.5h2.2v-2.2c0-.3.2-.5.5-.5 .3 0 .5.2.5.5v2.7c1.77636e-15.2-.2.5-.5.5Z"></path><path d="M18.6 17.5h-2.7c-.3 0-.5-.2-.5-.5v-2.7c0-.3.2-.5.5-.5h2.7c.3 0 .5.2.5.5 0 .3-.2.5-.5.5h-2.2v1.7h2.2c.3 0 .5.2.5.5 0 .3-.3.5-.5.5Z"></path><path d="M18.6 20.2h-2.7c-.3 0-.5-.2-.5-.5 0-.3.2-.5.5-.5h2.2v-1.7h-2.2c-.3 0-.5-.2-.5-.5 0-.3.2-.5.5-.5h2.7c.3 0 .5.2.5.5v2.7c0 .2-.3.5-.5.5Z"></path></g></svg>