<svg version="1.1" viewBox="0 0 60 60" xmlns="http://www.w3.org/2000/svg" xmlns:xlink="http://www.w3.org/1999/xlink"><path d="M54.7 21.3c-1.3 0-2.5.8-3.1 2.1 -.7 1.6.4 3.3.5 3.4 .2.3.6.4 1 .2 .3-.2.5-.6.4-.9 -.1-.3-.1-.5.1-.7 .2-.2.5-.4.8-.4 .7 0 .8.8.8 1.3 0 .7-.3 1.5-1 2.2 -1 1-2.5 1.7-3.9 1.7 -1.1 0-2.7-.4-4-2.3 -2.6-3.9-6.1-6.1-9.9-6.1 -1.2 0-2.3.2-3.4.6 -1.3.5-2.3 1.5-3 2.8 -.6-1.3-1.7-2.3-3-2.8 -1.1-.4-2.3-.6-3.4-.6 -3.8 0-7.3 2.2-9.9 6.1 -1.3 1.9-2.9 2.3-4 2.3 -1.4 0-2.9-.6-3.9-1.7 -.7-.7-1-1.5-1-2.2 0-.5.1-1.3.8-1.3 .3 0 .6.2.8.4 .2.2.2.5.1.7 -.1.4 0 .7.4.9 .3.2.7.1 1-.2 .1-.1 1.2-1.8.5-3.4 -.6-1.3-1.7-2.1-3.1-2.1 -1.2 0-2.4.6-3.4 1.6 -1.2 1.2-1.7 2.9-1.6 4.7 0 .1.6 10.7 15.3 11.2 .2 0 .5 0 .7 0 5.1 0 9.4-1.8 12.6-5.4 .5-.5.8-1.1 1.1-1.7 .3.6.7 1.2 1.1 1.7 3.2 3.6 7.5 5.4 12.6 5.4 .2 0 .5 0 .7 0 14.7-.5 15.3-11.1 15.3-11.1 .1-1.8-.4-3.5-1.6-4.7 -.9-1.1-2.2-1.7-3.4-1.7Zm-27 11.1c-2.9 3.2-6.8 4.9-11.5 4.9 -.2 0-.4 0-.7 0 -13.2-.5-13.7-9.4-13.7-9.8 -.1-1.4.3-2.6 1.2-3.6 .7-.7 1.5-1.1 2.3-1.1 .7 0 1.2.3 1.6 1 -.4-.2-.8-.3-1.2-.3 -1 0-2.3.7-2.3 2.7 0 1.1.5 2.3 1.4 3.2 1.3 1.3 3.2 2.1 5 2.1 2.1 0 4-1.1 5.3-3 2.3-3.5 5.4-5.4 8.6-5.4 1 0 2 .2 2.9.5 1.2.5 2.2 1.6 2.5 3.2 .4 1.9-.1 4.1-1.4 5.6Zm16.7 4.8c-.2 0-.4 0-.7 0 -4.7 0-8.6-1.6-11.5-4.9 -1.3-1.4-1.8-3.6-1.3-5.6 .4-1.6 1.3-2.7 2.5-3.2 .9-.3 1.9-.5 2.9-.5 3.3 0 6.3 1.9 8.6 5.4 1.3 1.9 3.1 3 5.3 3 1.8 0 3.7-.8 5-2.1 1-1 1.5-2.1 1.4-3.2 -.1-2-1.3-2.7-2.3-2.7 -.4 0-.9.1-1.2.3 .4-.6.9-1 1.6-1 .8 0 1.6.4 2.3 1.1 .9.9 1.3 2.2 1.2 3.6 1.42109e-14.5-.5 9.4-13.8 9.8Z" fill="#000"></path></svg>