<svg version="1.1" viewBox="0 0 30 30" xmlns="http://www.w3.org/2000/svg" xmlns:xlink="http://www.w3.org/1999/xlink"><g fill="#000"><path d="M26.5 26.3h-23c-.3 0-.5-.2-.5-.5 0-.3.2-.5.5-.5h23.1c.3 0 .5.2.5.5 0 .3-.3.5-.6.5Z"></path><circle cx="25.9" cy="25.8" r="1.1"></circle><circle cx="4.1" cy="25.8" r="1.1"></circle><path d="M8.9 26.3h-2.8c-.3 0-.5-.2-.5-.5v-3.2c0-.3.2-.5.5-.5h2.8c.3 0 .5.2.5.5v3.2c1.77636e-15.3-.2.5-.5.5Zm-2.3-1h1.8v-2.2h-1.8v2.2Z"></path><path d="M13.9 26.3h-2.8c-.3 0-.5-.2-.5-.5v-11.1c0-.3.2-.5.5-.5h2.8c.3 0 .5.2.5.5v11.2c-1.77636e-15.2-.2.4-.5.4Zm-2.3-1h1.8v-10.1h-1.8v10.1Z"></path><path d="M18.9 26.3h-2.8c-.3 0-.5-.2-.5-.5v-8.2c0-.3.2-.5.5-.5h2.8c.3 0 .5.2.5.5v8.2c0 .3-.2.5-.5.5Zm-2.3-1h1.8v-7.2h-1.8v7.2Z"></path><path d="M23.9 26.3h-2.8c-.3 0-.5-.2-.5-.5v-18.1c0-.3.2-.5.5-.5h2.8c.3 0 .5.2.5.5v18.2c0 .2-.2.4-.5.4Zm-2.3-1h1.8v-17.1h-1.8v17.1Z"></path><path d="M4.1 20.7c-.1 0-.2 0-.3-.1 -.2-.1-.3-.4-.2-.7l4.8-8c.1-.1.2-.2.4-.2l6.9-.8 4.5-7.3c.1-.2.5-.3.7-.2 .2.1.3.5.2.7l-4.7 7.5c-.1.1-.2.2-.4.2l-6.9.8 -4.7 7.8c2.66454e-15.3-.2.3-.3.3Z"></path><circle cx="8.9" cy="12.3" r="1.1"></circle><circle cx="4.1" cy="20.1" r="1.1"></circle><circle cx="16.1" cy="11.4" r="1.1"></circle><circle cx="20.5" cy="4.2" r="1.1"></circle></g></svg>