<svg version="1.1" viewBox="0 0 24 24" xmlns="http://www.w3.org/2000/svg" xmlns:xlink="http://www.w3.org/1999/xlink"><g fill="#000"><path d="M21 23.6h-18c-1.4 0-2.5-1.1-2.5-2.5v-18.1c0-1.4 1.1-2.5 2.5-2.5h18c1.4 0 2.5 1.1 2.5 2.5v18c.1 1.4-1.1 2.6-2.5 2.6Zm-18-22.2c-.9 1.33227e-15-1.6.7-1.6 1.6v18c0 .8.7 1.5 1.5 1.5h18.1c.9 0 1.5-.7 1.5-1.5v-18c0-.8-.7-1.5-1.5-1.5h-18Z"></path><path d="M4.2 4.1c-.2 0-.3-.1-.4-.2 -.1-.1-.1-.2-.1-.3 0-.1.1-.3.1-.3 .2-.3.5-.3.7-.1 .1.1.1.2.1.4 0 .1-.1.3-.1.4 -.1 0-.2.1-.3.1Z"></path><path d="M6.4 4.1c-.2 0-.3-.1-.4-.2 -.1-.1-.1-.2-.1-.3 0-.1.1-.3.1-.3 .2-.3.5-.3.7-.1 .1.1.1.2.1.4 0 .1 0 .2-.1.4 -.1 0-.2.1-.3.1Z"></path><path d="M8.6 4.1c-.1 0-.3 0-.4-.1 -.1-.2-.1-.3-.1-.4 0-.1.1-.3.1-.3 .2-.3.6-.3.7-.1 .1.1.2.2.2.4 0 .1 0 .3-.1.4 -.2 0-.3.1-.4.1Z"></path><path d="M20.7 21.2h-17.4c-.3 0-.5-.2-.5-.5v-14.5c0-.3.2-.5.5-.5h17.4c.3 0 .5.2.5.5v14.5c0 .3-.2.5-.5.5Zm-16.9-1h16.4v-13.5h-16.4v13.5Z"></path><path d="M10 15.5c-1.1 0-1.9-.9-1.9-1.9 0-1.1.9-1.9 1.9-1.9 1.1 0 1.9.9 1.9 1.9 0 1-.8 1.9-1.9 1.9Zm0-2.9c-.5 0-.9.4-.9.9 0 .5.4.9.9.9 .5 0 .9-.4.9-.9 0-.5-.4-.9-.9-.9Z"></path><path d="M13.9 19.3c-1.1 0-1.9-.9-1.9-1.9 0-1.1.9-1.9 1.9-1.9 1.1 0 1.9.9 1.9 1.9 0 1-.9 1.9-1.9 1.9Zm0-2.9c-.5 0-.9.4-.9.9 0 .5.4.9.9.9 .5 0 .9-.4.9-.9 0-.4-.4-.9-.9-.9Z"></path><path d="M14 11.5c-1.1 0-1.9-.9-1.9-1.9 0-1 .9-1.9 1.9-1.9 1.1 0 1.9.9 1.9 1.9 0 1-.8 1.9-1.9 1.9Zm0-2.9c-.5 0-1 .4-1 .9 0 .5.4.9.9.9 .5 0 .9-.4.9-.9 0-.5-.3-.9-.8-.9Z"></path><path d="M11 12.8c-.1 0-.3 0-.4-.1 -.2-.2-.2-.5 0-.7l2-2c.2-.2.5-.2.7 0 .2.2.2.5 0 .7l-2 2c-.1-1.77636e-15-.2.1-.3.1Z"></path><path d="M12.9 17.1c-.1 0-.3 0-.4-.1l-2-2c-.2-.2-.2-.5 0-.7 .2-.2.5-.2.7 0l2 2c.2.2.2.5 0 .7 0 .1-.1.1-.3.1Z"></path></g></svg>