<svg version="1.1" viewBox="0 0 24 24" xmlns="http://www.w3.org/2000/svg" xmlns:xlink="http://www.w3.org/1999/xlink"><g fill="#000"><path d="M12 23.6c-6.4 0-11.6-5.2-11.6-11.6 -3.33067e-16-6.4 5.2-11.6 11.6-11.6 6.4-3.33067e-16 11.6 5.2 11.6 11.6 0 6.4-5.2 11.6-11.6 11.6Zm0-22.2c-5.9 1.33227e-15-10.6 4.7-10.6 10.6 -4.44089e-16 5.9 4.7 10.6 10.6 10.6 5.9 0 10.6-4.8 10.6-10.6 0-5.8-4.7-10.6-10.6-10.6Z"></path><path d="M12 20.7c-2.7 0-5.3-1.2-7.1-3.3 -.1-.2-.2-.4-.1-.6 .6-1.1 1.7-1.7 2.9-1.7h.6c.6 0 1.2-.5 1.2-1.1 -.7-.5-1.2-1.3-1.2-2.2v-2.8c0-1.5 1.2-2.7 2.7-2.7h1.8c1.5 0 2.7 1.2 2.7 2.7v2.7c0 .9-.4 1.7-1.2 2.2 0 .6.5 1.1 1.2 1.1h.6c1.2 0 2.3.7 2.9 1.7 .1.2.1.4-.1.6 -1.6 2.2-4.2 3.4-6.9 3.4Zm-6.1-3.7c1.6 1.7 3.8 2.7 6.1 2.7 2.3 0 4.5-1 6.1-2.7 -.4-.6-1.1-.9-1.8-.9h-.6c-1.2 0-2.2-1-2.2-2.2v-.2c0-.2.1-.3.2-.4 .6-.3.9-.9.9-1.5v-2.8c0-.9-.8-1.7-1.7-1.7h-1.8c-1 0-1.7.8-1.7 1.7v2.7c0 .6.3 1.2.9 1.5 .2.1.3.3.3.4v.2c0 1.2-1 2.2-2.2 2.2h-.6c-.8.1-1.4.4-1.9 1Z"></path></g></svg>