<svg xmlns="http://www.w3.org/2000/svg" xmlns:xlink="http://www.w3.org/1999/xlink" viewBox="0 0 70 70"><defs><linearGradient id="a" x1="0.8" y1="31.9" x2="33.3" y2="31.9" gradientTransform="matrix(1, 0, 0, -1, 0, 72)" gradientUnits="userSpaceOnUse"><stop offset="0.26" stop-color="#f97a12"/><stop offset="0.46" stop-color="#b07b58"/><stop offset="0.72" stop-color="#577bae"/><stop offset="0.91" stop-color="#1e7ce5"/><stop offset="1" stop-color="#087cfa"/></linearGradient><linearGradient id="b" x1="25.76" y1="47.1" x2="79.41" y2="17.41" gradientTransform="matrix(1, 0, 0, -1, 0, 72)" gradientUnits="userSpaceOnUse"><stop offset="0" stop-color="#f97a12"/><stop offset="0.07" stop-color="#cb7a3e"/><stop offset="0.15" stop-color="#9e7b6a"/><stop offset="0.24" stop-color="#757b91"/><stop offset="0.33" stop-color="#537bb1"/><stop offset="0.43" stop-color="#387ccc"/><stop offset="0.54" stop-color="#237ce0"/><stop offset="0.66" stop-color="#147cef"/><stop offset="0.79" stop-color="#0b7cf7"/><stop offset="1" stop-color="#087cfa"/></linearGradient><linearGradient id="c" x1="63.24" y1="29.09" x2="48.3" y2="73.72" gradientTransform="matrix(1, 0, 0, -1, 0, 72)" gradientUnits="userSpaceOnUse"><stop offset="0" stop-color="#fe315d"/><stop offset="0.08" stop-color="#cb417e"/><stop offset="0.16" stop-color="#9e4e9b"/><stop offset="0.25" stop-color="#755bb4"/><stop offset="0.34" stop-color="#5365ca"/><stop offset="0.44" stop-color="#386ddb"/><stop offset="0.54" stop-color="#2374e9"/><stop offset="0.66" stop-color="#1478f3"/><stop offset="0.79" stop-color="#0b7bf8"/><stop offset="1" stop-color="#087cfa"/></linearGradient><linearGradient id="d" x1="10.69" y1="55.51" x2="55.49" y2="-18.6" gradientTransform="matrix(1, 0, 0, -1, 0, 72)" gradientUnits="userSpaceOnUse"><stop offset="0" stop-color="#fe315d"/><stop offset="0.04" stop-color="#f63462"/><stop offset="0.1" stop-color="#df3a71"/><stop offset="0.17" stop-color="#c24383"/><stop offset="0.29" stop-color="#ad4a91"/><stop offset="0.55" stop-color="#755bb4"/><stop offset="0.92" stop-color="#1d76ed"/><stop offset="1" stop-color="#087cfa"/></linearGradient></defs><title>intellij</title><polygon points="17.7 54.6 0.8 41.2 9.2 25.6 33.3 35 17.7 54.6" fill="url(#a)"/><polygon points="70 18.7 68.7 59.2 41.8 70 25.6 59.6 49.3 35 38.9 12.3 48.2 1.1 70 18.7" fill="url(#b)"/><polygon points="70 18.7 48.7 43.9 38.9 12.3 48.2 1.1 70 18.7" fill="url(#c)"/><polygon points="33.7 58.1 5.6 68.3 10.1 52.5 16 33.1 0 27.7 10.1 0 32.1 2.7 53.7 27.4 33.7 58.1" fill="url(#d)"/><rect x="13.7" y="13.5" width="43.2" height="43.2"/><rect x="17.7" y="48.6" width="16.2" height="2.7" fill="#fff"/><polygon points="29.4 22.4 29.4 19.1 20.4 19.1 20.4 22.4 23 22.4 23 33.7 20.4 33.7 20.4 37 29.4 37 29.4 33.7 26.9 33.7 26.9 22.4 29.4 22.4" fill="#fff"/><path d="M38,37.3a7.24,7.24,0,0,1-3.5-.8,8.65,8.65,0,0,1-2.3-1.9l2.5-2.8a5.8,5.8,0,0,0,1.5,1.3,3.37,3.37,0,0,0,1.7.5,2.41,2.41,0,0,0,1.8-.7,3.52,3.52,0,0,0,.6-2.3V19.1h4V30.8a7.89,7.89,0,0,1-.4,2.8,5.33,5.33,0,0,1-1.3,2,4.48,4.48,0,0,1-2,1.2,7.08,7.08,0,0,1-2.6.5" fill="#fff"/></svg>