<!--style="fill-rule:nonzero;clip-rule:evenodd;stroke-linejoin:round;stroke-miterlimit:1.41421;stroke:none;"-->
<svg class="stacklane-logo" xmlns="http://www.w3.org/2000/svg"  viewBox="0 0 214 33" version="1.1"
     >
	<!-- Stack -->
    <path class="logo-primary" d="M47.821,12.083c-0.431,0.354 -0.646,0.822 -0.646,1.406c0,0.583 0.263,1.047 0.79,1.391c0.525,0.345 1.74,0.751 3.643,1.22c1.903,0.468 3.381,1.171 4.433,2.108c1.052,0.938 1.578,2.306 1.578,4.104c0,1.797 -0.674,3.256 -2.023,4.375c-1.348,1.119 -3.123,1.678 -5.322,1.678c-3.175,0 -6.035,-1.176 -8.579,-3.529l2.668,-3.271c2.162,1.894 4.161,2.841 5.997,2.841c0.822,0 1.468,-0.177 1.937,-0.531c0.468,-0.354 0.703,-0.832 0.703,-1.435c0,-0.602 -0.249,-1.08 -0.746,-1.434c-0.498,-0.354 -1.483,-0.713 -2.955,-1.076c-2.334,-0.555 -4.041,-1.277 -5.122,-2.166c-1.081,-0.889 -1.621,-2.286 -1.621,-4.189c0,-1.903 0.683,-3.371 2.052,-4.405c1.367,-1.032 3.074,-1.549 5.121,-1.549c1.339,0 2.677,0.23 4.017,0.689c1.338,0.459 2.505,1.109 3.5,1.951l-2.267,3.271c-1.741,-1.32 -3.538,-1.98 -5.393,-1.98c-0.746,0 -1.335,0.177 -1.765,0.531" />
	<path class="logo-primary" d="M69.755,11.953l0,16.182l-4.476,0l0,-16.182l-5.681,0l0,-3.874l15.838,0l0,3.874l-5.681,0Z" />
	<path class="logo-primary" d="M85.478,14.048l-2.525,5.824l5.021,0l-2.496,-5.824ZM91.532,28.135l-1.865,-4.332l-8.407,0l-1.865,4.332l-4.763,0l8.665,-20.055l4.333,0l8.664,20.055l-4.762,0Z" />
	<path class="logo-primary" d="M107.828,24.176c2.2,0 3.998,-0.87 5.394,-2.611l2.869,2.955c-2.277,2.564 -4.959,3.844 -8.048,3.844c-3.089,0 -5.633,-0.975 -7.631,-2.925c-2,-1.951 -2.999,-4.414 -2.999,-7.388c0,-2.975 1.019,-5.457 3.057,-7.446c2.036,-1.989 4.527,-2.984 7.472,-2.984c3.29,0 6.044,1.253 8.264,3.759l-2.782,3.156c-1.417,-1.76 -3.177,-2.64 -5.281,-2.64c-1.683,0 -3.123,0.55 -4.317,1.65c-1.195,1.1 -1.793,2.582 -1.793,4.447c0,1.865 0.563,3.362 1.692,4.49c1.128,1.129 2.496,1.693 4.104,1.693" />
    <path class="logo-primary" d="M119.621,8.08l4.476,0l0,8.235l7.574,-8.235l5.538,0l-7.978,8.866c0.69,0.957 1.962,2.74 3.817,5.351c1.854,2.611 3.243,4.557 4.161,5.839l-5.223,0l-5.882,-7.919l-2.007,2.238l0,5.681l-4.476,0l0,-20.056Z" />
	<!-- Lane -->
	<path class="logo-secondary" d="M151.666,25.955l0,2.18l-11.102,0l0,-20.08l2.295,0l0,17.9l8.807,0Z" />
	<path class="logo-secondary" d="M162.827,10.665l-4.476,10.184l9.008,0l-4.532,-10.184ZM157.377,23.058l-2.238,5.077l-2.439,0l9.008,-20.08l2.381,0l8.979,20.08l-2.496,0l-2.237,-5.077l-10.958,0Z" />
	<path class="logo-secondary" d="M190.571,28.136l-12.048,-16.122l0,16.122l-2.295,0l0,-20.081l2.381,0l12.048,16.151l0,-16.151l2.267,0l0,20.081l-2.353,0Z" />
	<path class="logo-secondary" d="M201.332,10.264l0,6.598l10.126,0l0,2.209l-10.126,0l0,6.884l11.704,0l0,2.181l-13.999,0l0,-20.081l13.626,0l0,2.209l-11.331,0Z" />
	<!-- Logo -->
    <path class="logo-secondary logo-graphic" d="M18.709,12.045l0.301,1.265c0.126,0.495 0.217,1.005 0.278,1.522c0.077,0.622 0.094,1.256 0.064,1.89l13.538,0l0,-8.9l-14.54,0c-0.094,1.389 0.056,2.831 0.359,4.223" />
	<path class="logo-primary logo-graphic" d="M15.245,14.037l-0.195,-1.319c-0.215,-1.628 -0.255,-3.273 -0.046,-4.896l-15.004,0l0,8.89l15.166,0c0.106,-0.517 0.175,-1.047 0.163,-1.599c-0.005,-0.354 -0.029,-0.713 -0.084,-1.076" />
	<path class="logo-primary logo-graphic" d="M6.309,27.474c1.141,-0.738 2.341,-1.632 3.513,-2.736c1.17,-1.097 2.31,-2.427 3.243,-4.024c0.33,-0.558 0.622,-1.159 0.894,-1.779l-13.959,0l0,11.497c0.173,-0.054 0.354,-0.114 0.55,-0.183c1.412,-0.513 3.477,-1.279 5.759,-2.775" />
	<path class="logo-secondary logo-graphic" d="M12.827,31.394c-0.35,0.431 -0.699,0.839 -1.048,1.23l21.01,0l0,-13.678l-14.014,0c-0.458,2.347 -1.207,4.506 -2.081,6.344c-1.171,2.454 -2.528,4.429 -3.867,6.104" />
	<path class="logo-primary logo-graphic" d="M19.143,2.093c0.67,-0.373 1.355,-0.717 2.08,-0.992c1.29,-0.516 2.628,-0.854 3.9,-1.101l-25.123,0l0,5.498l15.643,0c0.405,-0.758 0.953,-1.48 1.688,-2.108c0.531,-0.485 1.175,-0.903 1.812,-1.297" />
	<path class="logo-secondary logo-graphic" d="M26.151,1.81c-1.18,0.233 -2.42,0.552 -3.543,1.014c-1.127,0.457 -2.173,1.034 -2.896,1.75c-0.345,0.321 -0.612,0.671 -0.825,1.035l14.002,0l0,-4.203c-0.223,-0.018 -0.463,-0.033 -0.735,-0.042c-1.444,-0.055 -3.62,-0.017 -6.003,0.446" />
</svg>