<svg viewBox="0 0 323 45" version="1.1" xmlns="http://www.w3.org/2000/svg"><path d="M11.445,13.378l0.18,0.42c0.75,1.365 2.138,1.845 3.503,2.317c3.157,1.013 6.487,1.725 9.577,3c1.27,0.539 2.485,1.197 3.63,1.965c1.646,1.102 2.994,2.594 3.923,4.343c1.638,3.315 1.593,7.222 -0.12,10.5c-1.722,3.226 -4.519,5.75 -7.905,7.132c-3.38,1.341 -7.028,1.87 -10.65,1.545c-4.428,-0.274 -8.724,-1.621 -12.518,-3.922c1.313,-2.588 4.673,-10.23 4.673,-10.23c3.14,3.117 7.412,4.833 11.835,4.755c2.377,-0.06 5.25,-1.125 4.815,-3.923c-0.04,-0.184 -0.1,-0.362 -0.18,-0.532c-0.833,-1.845 -2.558,-2.558 -4.223,-3.098c-2.617,-0.892 -5.355,-1.425 -7.965,-2.317c-2.61,-0.893 -5.175,-2.138 -7.02,-4.223c-1.952,-2.122 -3.025,-4.909 -3,-7.792c0.059,-2.893 1.18,-5.666 3.15,-7.785c2.078,-2.385 5.055,-3.81 8.145,-4.643c3.831,-1.049 7.857,-1.173 11.745,-0.36c3.165,0.608 5.003,1.2 7.343,2.783c0,0.045 -4.23,9.87 -4.365,9.997c-2.885,-3.194 -7.287,-4.583 -11.483,-3.622c-1.725,0.42 -3.682,1.612 -3.09,3.69Z"/><path d="M66.053,1.963l-4.463,10.11l-11.407,0l0,31.455l-10.11,0l0,-31.455l-9.353,0l4.673,-10.215l30.66,0.105Z"/><path d="M85.83,38.413l-16.95,0l-1.987,5.115l-10.913,0l15.998,-41.565l10.702,0l16.058,41.565l-10.943,0l-1.965,-5.115Zm-3.862,-10.133l-4.643,-12l-4.575,12l9.218,0Z"/><path d="M107.295,22.715c0.047,6.082 5.063,11.06 11.145,11.06c2.985,0 5.849,-1.2 7.943,-3.327l7.26,7.02c-3.997,4.128 -9.503,6.461 -15.25,6.461c-11.643,0 -21.225,-9.581 -21.225,-21.225c0,-11.643 9.582,-21.225 21.225,-21.225c6.207,0 12.112,2.723 16.142,7.444l-7.642,6.607c-2.106,-2.489 -5.207,-3.927 -8.468,-3.927c-6.085,0 -11.092,5.007 -11.092,11.093c0,0.009 0,0.018 0,0.027l-0.038,-0.008Z"/><path d="M158.303,18.973l16.057,24.555l-12.067,0l-10.83,-16.5l-2.82,3.3l0,13.2l-10.14,0l0,-41.445l10.14,0l0,12.607l10.822,-12.787l13.26,0l-14.422,17.07Z"/><path d="M276.818,2.083l10.11,0l0,41.445l-11.063,0l-16.297,-24.75l0,24.63l-10.11,0l0,-41.505l11.122,0l16.238,24.622l0,-24.442Z"/><path d="M290.115,1.963l32.528,0l-4.688,10.17l-17.73,0l0,5.527l17.543,0l0,10.11l-17.543,0l0,5.535l22.418,0l0,10.103l-32.528,0l0,-41.445Z"/><path d="M205.478,33.358l-18.458,0l0,-31.395l-10.11,0l0,41.565l24.825,0l3.743,-10.17Z"/><path d="M230.858,1.963l-10.703,0l-16.012,41.565l10.942,0l1.965,-5.115l16.95,0l1.958,5.115l10.935,0l-16.035,-41.565Zm-9.93,26.317l4.582,-12l4.635,12l-9.217,0Z"/></svg>