<svg xmlns="http://www.w3.org/2000/svg" xmlns:xlink="http://www.w3.org/1999/xlink" viewBox="0 0 70 70"><defs><linearGradient id="a" x1="25.06" y1="70.54" x2="43.17" y2="5.32" gradientTransform="matrix(1, 0, 0, -1, 0, 72)" gradientUnits="userSpaceOnUse"><stop offset="0.28" stop-color="#00cdd7"/><stop offset="0.94" stop-color="#2086d7"/></linearGradient><linearGradient id="b" x1="30.74" y1="62.28" x2="61.39" y2="17.34" gradientTransform="matrix(1, 0, 0, -1, 0, 72)" gradientUnits="userSpaceOnUse"><stop offset="0.14" stop-color="#fff045"/><stop offset="0.37" stop-color="#00cdd7"/></linearGradient><linearGradient id="c" x1="61.09" y1="56.71" x2="65.12" y2="42.46" xlink:href="#a"/></defs><title>webstorm</title><polygon points="9.4 63.3 0 7.3 17.5 0.1 28.6 6.7 38.8 1.2 60.1 9.4 48.1 70 9.4 63.3" fill="url(#a)"/><polygon points="70 23.7 61 1.4 44.6 0 19.3 24.3 26.1 55.6 38.8 64.6 70 46 62.3 31.7 70 23.7" fill="url(#b)"/><polygon points="56 20.4 62.3 31.7 70 23.7 64.4 9.8 56 20.4" fill="url(#c)"/><rect x="13.4" y="13.4" width="43.2" height="43.2"/><rect x="17.5" y="48.5" width="16.2" height="2.7" fill="#fff"/><path d="M38.7,34.3,41,31.5a8.36,8.36,0,0,0,5.3,2.2c1.6,0,2.5-.6,2.5-1.7v-.1c0-1-.6-1.5-3.6-2.3-3.6-.9-5.8-1.9-5.8-5.5V24c0-3.3,2.6-5.4,6.2-5.4a10,10,0,0,1,6.6,2.3l-2,3a8.37,8.37,0,0,0-4.6-1.8c-1.5,0-2.3.7-2.3,1.6v.1c0,1.2.8,1.6,3.8,2.4,3.6,1,5.6,2.3,5.6,5.4v.1c0,3.6-2.7,5.6-6.5,5.6a11.84,11.84,0,0,1-7.5-3" fill="#fff"/><polygon points="35.2 19 32.5 29.4 29.5 19 26.5 19 23.4 29.4 20.7 19 16.6 19 21.7 36.9 25 36.9 28 26.5 30.9 36.9 34.3 36.9 39.4 19 35.2 19" fill="#fff"/></svg>