<?xml version="1.0" encoding="utf-8"?>
<!-- Generator: Adobe Illustrator 16.0.0, SVG Export Plug-In . SVG Version: 6.00 Build 0)  -->
<!DOCTYPE svg PUBLIC "-//W3C//DTD SVG 1.1//EN" "http://www.w3.org/Graphics/SVG/1.1/DTD/svg11.dtd">
<svg version="1.1" id="Layer_1" xmlns="http://www.w3.org/2000/svg" xmlns:xlink="http://www.w3.org/1999/xlink" x="0px" y="0px"
	 width="30px" height="30px" viewBox="0 0 30 30" enable-background="new 0 0 30 30" xml:space="preserve">
<g>
	<g>
		<g>
			<g>
				<path d="M15,17.2c-0.1,0-0.2,0-0.2-0.1L9,13.8c-0.2-0.1-0.2-0.3-0.2-0.4V8.4C8.8,8.2,8.9,8.1,9,8l5.7-3.3c0.2-0.1,0.3-0.1,0.5,0
					L21,8c0.2,0.1,0.2,0.3,0.2,0.4v4.9c0,0.2-0.1,0.3-0.2,0.4l-5.7,3.3C15.2,17.1,15.1,17.2,15,17.2z M9.8,13.1l5.2,3l5.2-3V8.7
					l-5.2-3l-5.2,3V13.1z"/>
			</g>
			<g>
				<path d="M15,12.2c-0.1,0-0.2,0-0.2-0.1L9,8.8C8.8,8.7,8.7,8.4,8.8,8.2C9,7.9,9.3,7.8,9.5,8l5.5,3.2L20.5,8
					c0.2-0.1,0.5-0.1,0.7,0.2c0.1,0.2,0.1,0.5-0.2,0.7l-5.7,3.3C15.2,12.2,15.1,12.2,15,12.2z"/>
			</g>
			<g>
				<path d="M15,17.2c-0.3,0-0.5-0.2-0.5-0.5v-4.9c0-0.3,0.2-0.5,0.5-0.5s0.5,0.2,0.5,0.5v4.9C15.5,16.9,15.3,17.2,15,17.2z"/>
			</g>
			<path d="M15.4,8c-0.1-0.1-0.2-0.2-0.4-0.2c-0.1,0-0.2,0-0.2,0.1c-0.2,0.1-0.4,0.3-0.4,0.5C14.4,8.7,14.7,9,15,9
				c0.3,0,0.6-0.3,0.6-0.6C15.6,8.2,15.5,8.1,15.4,8z"/>
		</g>
	</g>
	<g>
		<g>
			<g>
				<path d="M9.3,25.4c-0.1,0-0.2,0-0.2-0.1L3.3,22C3.1,21.9,3,21.8,3,21.6v-4.9c0-0.2,0.1-0.3,0.2-0.4L9,12.9
					c0.2-0.1,0.3-0.1,0.5,0l5.7,3.3c0.2,0.1,0.2,0.3,0.2,0.4v4.9c0,0.2-0.1,0.3-0.2,0.4l-5.7,3.3C9.4,25.4,9.3,25.4,9.3,25.4z
					 M4,21.3l5.2,3l5.2-3v-4.4l-5.2-3l-5.2,3V21.3z"/>
			</g>
			<g>
				<path d="M9.3,20.5c-0.1,0-0.2,0-0.2-0.1l-5.7-3.3C3,17,2.9,16.6,3.1,16.4c0.1-0.2,0.4-0.3,0.7-0.2l5.5,3.2l5.5-3.2
					c0.2-0.1,0.5-0.1,0.7,0.2c0.1,0.2,0.1,0.5-0.2,0.7l-5.7,3.3C9.4,20.5,9.3,20.5,9.3,20.5z"/>
			</g>
			<g>
				<path d="M9.3,25.4c-0.3,0-0.5-0.2-0.5-0.5V20c0-0.3,0.2-0.5,0.5-0.5s0.5,0.2,0.5,0.5v4.9C9.8,25.2,9.5,25.4,9.3,25.4z"/>
			</g>
		</g>
	</g>
	<g>
		<g>
			<g>
				<path d="M20.7,25.4c-0.1,0-0.2,0-0.2-0.1L14.8,22c-0.2-0.1-0.2-0.3-0.2-0.4v-4.9c0-0.2,0.1-0.3,0.2-0.4l5.7-3.3
					c0.2-0.1,0.3-0.1,0.5,0l5.7,3.3c0.2,0.1,0.2,0.3,0.2,0.4v4.9c0,0.2-0.1,0.3-0.2,0.4L21,25.3C20.9,25.4,20.8,25.4,20.7,25.4z
					 M15.5,21.3l5.2,3l5.2-3v-4.4l-5.2-3l-5.2,3V21.3z"/>
			</g>
			<g>
				<path d="M20.7,20.5c-0.1,0-0.2,0-0.2-0.1l-5.7-3.3c-0.2-0.1-0.3-0.4-0.2-0.7c0.1-0.2,0.4-0.3,0.7-0.2l5.5,3.2l5.5-3.2
					c0.2-0.1,0.5-0.1,0.7,0.2c0.1,0.2,0.1,0.5-0.2,0.7L21,20.4C20.9,20.5,20.8,20.5,20.7,20.5z"/>
			</g>
			<g>
				<path d="M20.7,25.4c-0.3,0-0.5-0.2-0.5-0.5V20c0-0.3,0.2-0.5,0.5-0.5s0.5,0.2,0.5,0.5v4.9C21.2,25.2,21,25.4,20.7,25.4z"/>
			</g>
		</g>
	</g>
</g>
</svg>
