<?xml version="1.0" encoding="utf-8"?>
<!-- Generator: Adobe Illustrator 16.0.0, SVG Export Plug-In . SVG Version: 6.00 Build 0)  -->
<!DOCTYPE svg PUBLIC "-//W3C//DTD SVG 1.1//EN" "http://www.w3.org/Graphics/SVG/1.1/DTD/svg11.dtd">
<svg version="1.1" id="Layer_1" xmlns="http://www.w3.org/2000/svg" xmlns:xlink="http://www.w3.org/1999/xlink" x="0px" y="0px"
	 width="30px" height="30px" viewBox="0 0 30 30" enable-background="new 0 0 30 30" xml:space="preserve">
<g>
	<g>
		<path d="M22.77,20.527H8.979c-0.277,0-0.5-0.224-0.5-0.5V6.235c0-0.276,0.223-0.5,0.5-0.5H22.77c0.275,0,0.5,0.224,0.5,0.5v13.792
			C23.27,20.304,23.045,20.527,22.77,20.527z M9.479,19.527H22.27V6.735H9.479V19.527z"/>
	</g>
	<g>
		<path d="M24.799,22.557H6.949c-0.277,0-0.5-0.224-0.5-0.5V4.207c0-0.276,0.223-0.5,0.5-0.5h17.85c0.277,0,0.5,0.224,0.5,0.5v17.85
			C25.299,22.333,25.076,22.557,24.799,22.557z M7.449,21.557h16.85V4.707H7.449V21.557z"/>
	</g>
	<g>
		<path d="M14.256,10.127c-0.275,0-0.5-0.224-0.5-0.5V6.506c0-0.276,0.225-0.5,0.5-0.5c0.277,0,0.5,0.224,0.5,0.5v3.121
			C14.756,9.903,14.533,10.127,14.256,10.127z"/>
	</g>
	<g>
		<path d="M14.256,15.678c-0.275,0-0.5-0.224-0.5-0.5v-3.121c0-0.276,0.225-0.5,0.5-0.5c0.277,0,0.5,0.224,0.5,0.5v3.121
			C14.756,15.454,14.533,15.678,14.256,15.678z"/>
	</g>
	<g>
		<path d="M14.256,15.678H8.979c-0.277,0-0.5-0.224-0.5-0.5s0.223-0.5,0.5-0.5h5.277c0.277,0,0.5,0.224,0.5,0.5
			S14.533,15.678,14.256,15.678z"/>
	</g>
	<g>
		<path d="M15.102,10.424h-1.689c-0.277,0-0.5-0.224-0.5-0.5s0.223-0.5,0.5-0.5h1.689c0.275,0,0.5,0.224,0.5,0.5
			S15.377,10.424,15.102,10.424z"/>
	</g>
	<g>
		<path d="M15.102,12.481h-1.689c-0.277,0-0.5-0.224-0.5-0.5s0.223-0.5,0.5-0.5h1.689c0.275,0,0.5,0.224,0.5,0.5
			S15.377,12.481,15.102,12.481z"/>
	</g>
	<g>
		<path d="M22.77,10.245c-2.211,0-4.01-1.799-4.01-4.01c0-0.276,0.223-0.5,0.5-0.5c0.275,0,0.5,0.224,0.5,0.5
			c0,1.659,1.35,3.01,3.01,3.01c0.275,0,0.5,0.224,0.5,0.5S23.045,10.245,22.77,10.245z"/>
	</g>
	<g>
		<path d="M19.26,23.316c-0.277,0-0.5-0.224-0.5-0.5V21.32c0-0.276,0.223-0.5,0.5-0.5c0.275,0,0.5,0.224,0.5,0.5v1.496
			C19.76,23.093,19.535,23.316,19.26,23.316z"/>
	</g>
	<g>
		<path d="M22.77,23.316c-0.277,0-0.5-0.224-0.5-0.5V21.32c0-0.276,0.223-0.5,0.5-0.5c0.275,0,0.5,0.224,0.5,0.5v1.496
			C23.27,23.093,23.045,23.316,22.77,23.316z"/>
	</g>
	<g>
		<path d="M14.256,20.479c-0.275,0-0.5-0.224-0.5-0.5v-2.312H8.979c-0.277,0-0.5-0.224-0.5-0.5s0.223-0.5,0.5-0.5h5.277
			c0.277,0,0.5,0.224,0.5,0.5v2.812C14.756,20.255,14.533,20.479,14.256,20.479z"/>
	</g>
	<g>
		<g>
			<g>
				<path d="M5.174,4.645c-0.127,0-0.256-0.049-0.354-0.146l-0.68-0.679l-0.68,0.679c-0.195,0.195-0.512,0.195-0.707,0
					s-0.195-0.512,0-0.707l1.033-1.032c0.195-0.195,0.512-0.195,0.707,0l1.033,1.032c0.195,0.195,0.195,0.512,0,0.707
					C5.43,4.596,5.303,4.645,5.174,4.645z"/>
			</g>
			<g>
				<path d="M4.141,23.651c-0.127,0-0.256-0.049-0.354-0.146l-1.033-1.033c-0.195-0.195-0.195-0.512,0-0.707s0.512-0.195,0.707,0
					l0.68,0.68l0.68-0.68c0.195-0.195,0.512-0.195,0.707,0s0.195,0.512,0,0.707l-1.033,1.033C4.396,23.603,4.27,23.651,4.141,23.651
					z"/>
			</g>
			<g>
				<path d="M4.141,23.135c-0.275,0-0.5-0.224-0.5-0.5V3.271c0-0.276,0.225-0.5,0.5-0.5c0.277,0,0.5,0.224,0.5,0.5v19.364
					C4.641,22.911,4.418,23.135,4.141,23.135z"/>
			</g>
		</g>
	</g>
	<g>
		<g>
			<g>
				<path d="M6.887,26.388c-0.129,0-0.256-0.049-0.354-0.146l-1.031-1.032c-0.195-0.195-0.195-0.511-0.001-0.706l1.031-1.035
					c0.194-0.196,0.511-0.195,0.707-0.002c0.195,0.195,0.196,0.512,0.001,0.707l-0.68,0.682l0.68,0.68
					c0.195,0.195,0.195,0.512,0,0.707C7.143,26.339,7.014,26.388,6.887,26.388z"/>
			</g>
			<g>
				<path d="M24.859,26.388c-0.127,0-0.256-0.049-0.354-0.146c-0.195-0.195-0.195-0.512,0-0.707l0.68-0.68l-0.68-0.681
					c-0.195-0.196-0.195-0.513,0.001-0.708c0.195-0.193,0.513-0.194,0.707,0.001l1.032,1.035c0.195,0.196,0.195,0.512,0,0.707
					l-1.033,1.032C25.115,26.339,24.988,26.388,24.859,26.388z"/>
			</g>
			<g>
				<path d="M25.377,25.355H6.012c-0.277,0-0.5-0.224-0.5-0.5s0.223-0.5,0.5-0.5h19.365c0.275,0,0.5,0.224,0.5,0.5
					S25.652,25.355,25.377,25.355z"/>
			</g>
		</g>
	</g>
</g>
</svg>
