<?xml version="1.0" encoding="utf-8"?>
<!-- Generator: Adobe Illustrator 16.0.0, SVG Export Plug-In . SVG Version: 6.00 Build 0)  -->
<!DOCTYPE svg PUBLIC "-//W3C//DTD SVG 1.1//EN" "http://www.w3.org/Graphics/SVG/1.1/DTD/svg11.dtd">
<svg version="1.1" id="Layer_1" xmlns="http://www.w3.org/2000/svg" xmlns:xlink="http://www.w3.org/1999/xlink" x="0px" y="0px"
	 width="30px" height="30px" viewBox="0 0 30 30" enable-background="new 0 0 30 30" xml:space="preserve">
<g>
	<g>
		<g>
			<circle cx="8.647" cy="16.97" r="1.098"/>
		</g>
		<g>
			<path d="M13.832,17.47H8.647c-0.276,0-0.5-0.224-0.5-0.5s0.224-0.5,0.5-0.5h5.185c0.276,0,0.5,0.224,0.5,0.5
				S14.108,17.47,13.832,17.47z"/>
		</g>
		<g>
			<path d="M18.598,18.068c-0.276,0-0.5-0.224-0.5-0.5v-1.195c0-0.276,0.224-0.5,0.5-0.5s0.5,0.224,0.5,0.5v1.195
				C19.098,17.844,18.874,18.068,18.598,18.068z"/>
		</g>
		<g>
			<path d="M20.274,18.068c-0.276,0-0.5-0.224-0.5-0.5v-1.195c0-0.276,0.224-0.5,0.5-0.5s0.5,0.224,0.5,0.5v1.195
				C20.774,17.844,20.551,18.068,20.274,18.068z"/>
		</g>
		<g>
			<path d="M21.95,18.068c-0.276,0-0.5-0.224-0.5-0.5v-1.195c0-0.276,0.224-0.5,0.5-0.5s0.5,0.224,0.5,0.5v1.195
				C22.45,17.844,22.227,18.068,21.95,18.068z"/>
		</g>
	</g>
	<g>
		<path d="M20.657,15.339h-9.765c-0.025,0-0.088-0.006-0.113-0.01c-2.4-0.084-4.299-2.05-4.299-4.475
			c0-2.219,1.646-4.102,3.809-4.431c0.674-2.014,2.563-3.392,4.71-3.392c2.198,0,4.11,1.428,4.749,3.508
			c1.272,0.427,2.137,1.609,2.137,2.972c0,0.124-0.009,0.249-0.027,0.377c0.998,0.462,1.662,1.467,1.662,2.586
			C23.52,14.055,22.235,15.339,20.657,15.339z M14.999,4.032c-1.808,0-3.387,1.224-3.841,2.977
			c-0.054,0.208-0.234,0.357-0.448,0.373C8.899,7.514,7.48,9.04,7.48,10.855c0,1.883,1.475,3.411,3.357,3.477l9.819,0.007
			c1.027,0,1.862-0.836,1.862-1.863c0-0.83-0.565-1.564-1.373-1.785c-0.129-0.035-0.238-0.12-0.303-0.236
			c-0.066-0.116-0.083-0.253-0.046-0.381c0.06-0.213,0.088-0.392,0.088-0.561c0-0.998-0.682-1.854-1.657-2.082
			c-0.184-0.042-0.328-0.185-0.373-0.368C18.419,5.278,16.833,4.032,14.999,4.032z"/>
	</g>
	<g>
		<path d="M23.832,20.636H6.169c-0.877,0-1.591-0.714-1.591-1.591v-4.149c0-0.877,0.714-1.591,1.591-1.591h2.145
			c0.123,0,0.242,0.045,0.333,0.127c0.625,0.56,1.383,0.871,2.191,0.899l9.819,0.007c0.616,0,1.192-0.305,1.54-0.816
			c0.093-0.137,0.248-0.218,0.413-0.218h1.222c0.876,0,1.59,0.714,1.59,1.591v4.149C25.422,19.922,24.708,20.636,23.832,20.636z
			 M6.169,14.305c-0.326,0-0.591,0.265-0.591,0.591v4.149c0,0.326,0.265,0.591,0.591,0.591h17.663c0.325,0,0.59-0.265,0.59-0.591
			v-4.149c0-0.326-0.265-0.591-0.59-0.591h-0.973c-0.542,0.652-1.346,1.034-2.202,1.034h-9.765c-0.025,0-0.088-0.006-0.113-0.01
			c-0.945-0.033-1.886-0.396-2.651-1.024H6.169z"/>
	</g>
	<g>
		<g>
			<path d="M23.832,26.968H6.169c-0.877,0-1.591-0.714-1.591-1.591v-4.15c0-0.877,0.714-1.591,1.591-1.591h17.663
				c0.876,0,1.59,0.714,1.59,1.591v4.15C25.422,26.254,24.708,26.968,23.832,26.968z M6.169,20.636
				c-0.326,0-0.591,0.265-0.591,0.591v4.15c0,0.326,0.265,0.591,0.591,0.591h17.663c0.325,0,0.59-0.265,0.59-0.591v-4.15
				c0-0.326-0.265-0.591-0.59-0.591H6.169z"/>
		</g>
		<g>
			<g>
				<circle cx="8.647" cy="23.302" r="1.098"/>
			</g>
			<g>
				<path d="M13.832,23.802H8.647c-0.276,0-0.5-0.224-0.5-0.5s0.224-0.5,0.5-0.5h5.185c0.276,0,0.5,0.224,0.5,0.5
					S14.108,23.802,13.832,23.802z"/>
			</g>
			<g>
				<path d="M18.598,24.4c-0.276,0-0.5-0.224-0.5-0.5v-1.195c0-0.276,0.224-0.5,0.5-0.5s0.5,0.224,0.5,0.5V23.9
					C19.098,24.176,18.874,24.4,18.598,24.4z"/>
			</g>
			<g>
				<path d="M20.274,24.4c-0.276,0-0.5-0.224-0.5-0.5v-1.195c0-0.276,0.224-0.5,0.5-0.5s0.5,0.224,0.5,0.5V23.9
					C20.774,24.176,20.551,24.4,20.274,24.4z"/>
			</g>
			<g>
				<path d="M21.95,24.4c-0.276,0-0.5-0.224-0.5-0.5v-1.195c0-0.276,0.224-0.5,0.5-0.5s0.5,0.224,0.5,0.5V23.9
					C22.45,24.176,22.227,24.4,21.95,24.4z"/>
			</g>
		</g>
	</g>
</g>
</svg>
