<?xml version="1.0" encoding="utf-8"?>
<!-- Generator: Adobe Illustrator 16.0.0, SVG Export Plug-In . SVG Version: 6.00 Build 0)  -->
<!DOCTYPE svg PUBLIC "-//W3C//DTD SVG 1.1//EN" "http://www.w3.org/Graphics/SVG/1.1/DTD/svg11.dtd">
<svg version="1.1" id="Layer_1" xmlns="http://www.w3.org/2000/svg" xmlns:xlink="http://www.w3.org/1999/xlink" x="0px" y="0px"
	 width="30px" height="30px" viewBox="0 0 30 30" enable-background="new 0 0 30 30" xml:space="preserve">
<g>
	<g>
		<g>
			<path d="M24.3,24.7H5.7c-1.4,0-2.6-1.2-2.6-2.6V7.9c0-1.4,1.2-2.6,2.6-2.6h5.5c1,0,1.8,0.5,2.3,1.4l0.8,1.6h10
				c1.4,0,2.6,1.2,2.6,2.6v11.1C26.9,23.5,25.7,24.7,24.3,24.7z M5.7,6.3c-0.9,0-1.6,0.7-1.6,1.6v14.1c0,0.9,0.7,1.6,1.6,1.6h18.6
				c0.9,0,1.6-0.7,1.6-1.6V10.9c0-0.9-0.7-1.6-1.6-1.6H14c-0.2,0-0.4-0.1-0.4-0.3l-1-1.9c-0.3-0.5-0.8-0.8-1.4-0.8H5.7z"/>
		</g>
	</g>
	<g>
		<path d="M15.8,9.3h-4.6c-0.3,0-0.5-0.2-0.5-0.5s0.2-0.5,0.5-0.5h4.6c0.3,0,0.5,0.2,0.5,0.5S16.1,9.3,15.8,9.3z"/>
	</g>
	<g>
		<path d="M9.3,9.3H9c-0.3,0-0.5-0.2-0.5-0.5S8.8,8.3,9,8.3h0.3c0.3,0,0.5,0.2,0.5,0.5S9.6,9.3,9.3,9.3z"/>
	</g>
	<g>
		<path d="M7.5,9.3H7.2C7,9.3,6.7,9.1,6.7,8.8S7,8.3,7.2,8.3h0.3C7.8,8.3,8,8.6,8,8.8S7.8,9.3,7.5,9.3z"/>
	</g>
	<g>
		<path d="M5.7,9.3H5.4c-0.3,0-0.5-0.2-0.5-0.5s0.2-0.5,0.5-0.5h0.3c0.3,0,0.5,0.2,0.5,0.5S6,9.3,5.7,9.3z"/>
	</g>
	<g>
		<g>
			<path d="M12.8,20.5c-0.1,0-0.3,0-0.4-0.1l-3-3c-0.1-0.1-0.1-0.2-0.1-0.4s0.1-0.3,0.1-0.4l3-3c0.2-0.2,0.5-0.2,0.7,0
				s0.2,0.5,0,0.7L10.5,17l2.6,2.6c0.2,0.2,0.2,0.5,0,0.7C13.1,20.4,12.9,20.5,12.8,20.5z"/>
		</g>
		<g>
			<path d="M17.2,20.5c-0.1,0-0.3,0-0.4-0.1c-0.2-0.2-0.2-0.5,0-0.7l2.6-2.6l-2.6-2.6c-0.2-0.2-0.2-0.5,0-0.7s0.5-0.2,0.7,0l3,3
				c0.1,0.1,0.1,0.2,0.1,0.4s-0.1,0.3-0.1,0.4l-3,3C17.5,20.4,17.3,20.5,17.2,20.5z"/>
		</g>
	</g>
</g>
</svg>
