<?xml version="1.0" encoding="utf-8"?>
<!-- Generator: Adobe Illustrator 16.0.0, SVG Export Plug-In . SVG Version: 6.00 Build 0)  -->
<!DOCTYPE svg PUBLIC "-//W3C//DTD SVG 1.1//EN" "http://www.w3.org/Graphics/SVG/1.1/DTD/svg11.dtd">
<svg version="1.1" id="Layer_1" xmlns="http://www.w3.org/2000/svg" xmlns:xlink="http://www.w3.org/1999/xlink" x="0px" y="0px"
	 width="30px" height="30px" viewBox="0 0 30 30" enable-background="new 0 0 30 30" xml:space="preserve">
<g>
	<g>
		<path d="M15,26.9c-3.2,0-6.2-1.2-8.4-3.5c-2.2-2.3-3.5-5.2-3.5-8.4C3.1,8.4,8.4,3.1,15,3.1S26.9,8.4,26.9,15
			C26.9,21.6,21.6,26.9,15,26.9z M15,4.1C9,4.1,4.1,9,4.1,15c0,2.9,1.1,5.7,3.2,7.7c2.1,2.1,4.8,3.2,7.7,3.2c6,0,10.9-4.9,10.9-10.9
			C25.9,9,21,4.1,15,4.1z"/>
	</g>
	<g>
		<path d="M15,26.9c-3.4,0-6-5.2-6-11.9s2.6-11.9,6-11.9c3.4,0,6,5.2,6,11.9C21,21.7,18.4,26.9,15,26.9z M15,4.1c-2.7,0-5,5-5,10.9
			s2.3,10.9,5,10.9c2.7,0,5-5,5-10.9C20,9.1,17.7,4.1,15,4.1z"/>
	</g>
	<g>
		<path d="M15,21L15,21c-6.7,0-11.9-2.6-11.9-6c0-3.4,5.2-6,11.9-6s11.9,2.6,11.9,6C26.9,18.4,21.7,21,15,21z M15,10
			c-5.9,0-10.9,2.3-10.9,5c0,2.7,5,5,10.9,5c5.9,0,10.9-2.3,10.9-5C25.9,12.3,20.9,10,15,10z"/>
	</g>
	<g>
		<path d="M15,17.6c-1.4,0-2.6-1.1-2.6-2.6s1.1-2.6,2.6-2.6s2.6,1.1,2.6,2.6S16.4,17.6,15,17.6z M15,13.4c-0.9,0-1.6,0.7-1.6,1.6
			s0.7,1.6,1.6,1.6s1.6-0.7,1.6-1.6S15.9,13.4,15,13.4z"/>
	</g>
	<g>
		<g>
			<g>
				<path d="M10,11.4c-0.8,0-1.5-0.7-1.5-1.5c0-0.8,0.7-1.5,1.5-1.5c0.8,0,1.5,0.7,1.5,1.5C11.5,10.8,10.8,11.4,10,11.4z M10,9.5
					c-0.3,0-0.5,0.2-0.5,0.5c0,0.3,0.2,0.5,0.5,0.5c0.3,0,0.5-0.2,0.5-0.5C10.5,9.7,10.2,9.5,10,9.5z"/>
			</g>
			<g>
				<path d="M20,11.4c-0.8,0-1.5-0.7-1.5-1.5c0-0.8,0.7-1.5,1.5-1.5c0.8,0,1.5,0.7,1.5,1.5C21.5,10.8,20.8,11.4,20,11.4z M20,9.5
					c-0.3,0-0.5,0.2-0.5,0.5c0,0.3,0.2,0.5,0.5,0.5c0.3,0,0.5-0.2,0.5-0.5C20.5,9.7,20.3,9.5,20,9.5z"/>
			</g>
		</g>
		<g>
			<g>
				<path d="M10,21.5c-0.8,0-1.5-0.7-1.5-1.5c0-0.8,0.7-1.5,1.5-1.5c0.8,0,1.5,0.7,1.5,1.5C11.5,20.9,10.8,21.5,10,21.5z M10,19.6
					c-0.3,0-0.5,0.2-0.5,0.5c0,0.3,0.2,0.5,0.5,0.5c0.3,0,0.5-0.2,0.5-0.5C10.5,19.8,10.2,19.6,10,19.6z"/>
			</g>
			<g>
				<path d="M20,21.5c-0.8,0-1.5-0.7-1.5-1.5c0-0.8,0.7-1.5,1.5-1.5c0.8,0,1.5,0.7,1.5,1.5C21.5,20.9,20.8,21.5,20,21.5z M20,19.6
					c-0.3,0-0.5,0.2-0.5,0.5c0,0.3,0.2,0.5,0.5,0.5c0.3,0,0.5-0.2,0.5-0.5C20.5,19.8,20.3,19.6,20,19.6z"/>
			</g>
		</g>
	</g>
</g>
</svg>
