<?xml version="1.0" encoding="utf-8"?>
<!-- Generator: Adobe Illustrator 16.0.0, SVG Export Plug-In . SVG Version: 6.00 Build 0)  -->
<!DOCTYPE svg PUBLIC "-//W3C//DTD SVG 1.1//EN" "http://www.w3.org/Graphics/SVG/1.1/DTD/svg11.dtd">
<svg version="1.1" id="Layer_1" xmlns="http://www.w3.org/2000/svg" xmlns:xlink="http://www.w3.org/1999/xlink" x="0px" y="0px"
	 width="30px" height="30px" viewBox="0 0 30 30" enable-background="new 0 0 30 30" xml:space="preserve">
<g>
	<g>
		<g>
			<path d="M15,27c-0.5,0-0.9-0.1-1.3-0.3l-6.8-3.9c-0.7-0.4-1.2-1.1-1.3-1.9L3.5,6C3.4,5.2,3.6,4.5,4.1,3.9C4.6,3.3,5.3,3,6.1,3
				h17.8c0.7,0,1.5,0.3,2,0.9c0.5,0.6,0.7,1.3,0.6,2.1l-2.1,14.8c-0.1,0.8-0.6,1.5-1.3,1.9l-6.8,3.9C15.9,26.9,15.5,27,15,27z
				 M6.1,4C5.6,4,5.2,4.2,4.9,4.6C4.6,4.9,4.5,5.4,4.5,5.8l2.1,14.8c0.1,0.5,0.4,0.9,0.8,1.2l6.8,3.9c0.5,0.3,1.1,0.3,1.6,0l6.8-3.9
				c0.4-0.2,0.7-0.7,0.8-1.2l2.1-14.8c0.1-0.5-0.1-0.9-0.4-1.3C24.8,4.2,24.4,4,23.9,4H6.1z"/>
		</g>
	</g>
	<g>
		<path d="M15,21.2c-0.1,0-0.2,0-0.2-0.1l-4.5-2.6c-0.1-0.1-0.2-0.2-0.2-0.4L8.6,8.3c0-0.1,0-0.3,0.1-0.4c0.1-0.1,0.2-0.2,0.4-0.2
			h11.9c0.1,0,0.3,0.1,0.4,0.2c0.1,0.1,0.1,0.3,0.1,0.4L20,18.2c0,0.2-0.1,0.3-0.2,0.4l-4.5,2.6C15.2,21.2,15.1,21.2,15,21.2z
			 M10.9,17.8l4.1,2.4l4.1-2.4l1.3-9.1H9.6L10.9,17.8z"/>
	</g>
</g>
</svg>
