<?xml version="1.0" encoding="utf-8"?>
<!-- Generator: Adobe Illustrator 16.0.0, SVG Export Plug-In . SVG Version: 6.00 Build 0)  -->
<!DOCTYPE svg PUBLIC "-//W3C//DTD SVG 1.1//EN" "http://www.w3.org/Graphics/SVG/1.1/DTD/svg11.dtd">
<svg version="1.1" id="Layer_1" xmlns="http://www.w3.org/2000/svg" xmlns:xlink="http://www.w3.org/1999/xlink" x="0px" y="0px"
	 width="30px" height="30px" viewBox="0 0 30 30" enable-background="new 0 0 30 30" xml:space="preserve">
<g>
	<g>
		<path d="M14.998,15.256c-0.073,0-0.146-0.016-0.214-0.048L3.483,9.854C3.309,9.771,3.197,9.595,3.197,9.401
			s0.111-0.369,0.286-0.452l11.301-5.354c0.135-0.064,0.293-0.064,0.428,0l11.305,5.354c0.175,0.083,0.286,0.259,0.286,0.452
			s-0.111,0.369-0.286,0.452l-11.305,5.354C15.145,15.24,15.071,15.256,14.998,15.256z M4.865,9.401l10.133,4.801l10.137-4.801
			l-10.137-4.8L4.865,9.401z"/>
	</g>
	<g>
		<path d="M14.998,18.972c-0.073,0-0.146-0.016-0.214-0.048L3.483,13.568c-0.175-0.083-0.286-0.259-0.286-0.452
			s0.111-0.369,0.286-0.452l3.922-1.857c0.135-0.064,0.293-0.064,0.428,0l7.165,3.396l7.169-3.396c0.135-0.064,0.293-0.064,0.428,0
			l3.922,1.857c0.175,0.083,0.286,0.259,0.286,0.452s-0.111,0.369-0.286,0.452l-11.305,5.355
			C15.145,18.956,15.071,18.972,14.998,18.972z M4.865,13.116l10.133,4.802l10.137-4.802l-2.754-1.304l-7.169,3.396
			c-0.135,0.064-0.293,0.064-0.428,0l-7.165-3.396L4.865,13.116z"/>
	</g>
	<g>
		<path d="M14.998,22.712c-0.073,0-0.146-0.016-0.214-0.048L3.483,17.31c-0.175-0.083-0.286-0.259-0.286-0.452
			s0.111-0.369,0.286-0.452l3.922-1.857c0.135-0.064,0.293-0.064,0.428,0l7.165,3.396l7.169-3.396c0.135-0.064,0.293-0.064,0.428,0
			l3.922,1.857c0.175,0.083,0.286,0.259,0.286,0.452s-0.111,0.369-0.286,0.452l-11.305,5.354
			C15.145,22.696,15.071,22.712,14.998,22.712z M4.865,16.857l10.133,4.801l10.137-4.801l-2.754-1.304l-7.169,3.396
			c-0.135,0.064-0.293,0.064-0.428,0l-7.165-3.396L4.865,16.857z"/>
	</g>
	<g>
		<path d="M14.998,26.452c-0.073,0-0.146-0.016-0.214-0.048L3.483,21.051c-0.175-0.083-0.286-0.259-0.286-0.452
			s0.111-0.369,0.286-0.452l3.922-1.857c0.135-0.064,0.293-0.064,0.428,0l7.165,3.395l7.169-3.395c0.135-0.064,0.293-0.064,0.428,0
			l3.922,1.857c0.175,0.083,0.286,0.259,0.286,0.452s-0.111,0.369-0.286,0.452l-11.305,5.354
			C15.145,26.437,15.071,26.452,14.998,26.452z M4.865,20.599l10.133,4.8l10.137-4.8l-2.754-1.304l-7.169,3.395
			c-0.135,0.064-0.293,0.064-0.428,0l-7.165-3.395L4.865,20.599z"/>
	</g>
</g>
</svg>
