<svg xmlns="http://www.w3.org/2000/svg" viewBox="0 0 39.5 39.5"><title>book</title><path d="M11.32,4.93S3.52,20.17,16,23.69s18.39-3.17,18.39-3.17,3.73,12.59-5.05,11.33l-9.59,1.84H17L2.52,30.5.6,30V6.92S-1.17-.64,11.32,4.93Z" fill="#9ad3ef"/><path d="M1.61,21.33h0a1.17,1.17,0,0,1,.58-.28h0a2.65,2.65,0,0,1,2.33.84h0a13.73,13.73,0,0,1,1.69,2.8h0A9,9,0,0,0,12.33,29h0a3.52,3.52,0,0,0,1.85-.07c.92-.34,1.53-1.26,2.45-1.58,1.77-.61,1.52,3.76,1.43,4.67h0a2.43,2.43,0,0,1-.86,1.9h0a2.67,2.67,0,0,1-2,.12h0A108,108,0,0,1,1.61,29.85h0a17.06,17.06,0,0,1-.38-3.11h0a18.29,18.29,0,0,1-.13-3.39C1.14,22.69,1.12,21.78,1.61,21.33Z" fill="#399ed1"/><polyline points="18 30.5 18 6.5 32.87 3" fill="none" stroke="#2a6482" stroke-linecap="round" stroke-linejoin="round" stroke-width="2"/><line x1="21.5" y1="33.68" x2="18" y2="34.5" fill="none" stroke="#2a6482" stroke-linecap="round" stroke-linejoin="round" stroke-width="2"/><path d="M21.52,33.69l11.9-2.82h0a2,2,0,0,0,1.58-2V5.32l3.5-.82v28l-17,4" fill="none" stroke="#2a6482" stroke-linecap="round" stroke-linejoin="round" stroke-width="2"/><path d="M18,34.5,2.58,30.87h0a2,2,0,0,1-1.58-2V5.09H1A2,2,0,0,1,2.93,3a2.32,2.32,0,0,1,.59.07L18,6.5" fill="none" stroke="#2a6482" stroke-linecap="round" stroke-linejoin="round" stroke-width="2"/><line x1="4.67" y1="10.56" x2="14.32" y2="12.83" fill="none" stroke="#2a6482" stroke-linecap="round" stroke-linejoin="round" stroke-width="2"/><line x1="4.67" y1="15.36" x2="14.32" y2="17.64" fill="none" stroke="#2a6482" stroke-linecap="round" stroke-linejoin="round" stroke-width="2"/><line x1="4.67" y1="20.17" x2="14.32" y2="22.44" fill="none" stroke="#2a6482" stroke-linecap="round" stroke-linejoin="round" stroke-width="2"/><line x1="4.67" y1="24.97" x2="14.32" y2="27.24" fill="none" stroke="#2a6482" stroke-linecap="round" stroke-linejoin="round" stroke-width="2"/><line x1="31.32" y1="10.56" x2="21.67" y2="12.83" fill="none" stroke="#2a6482" stroke-linecap="round" stroke-linejoin="round" stroke-width="2"/><line x1="31.32" y1="15.36" x2="21.67" y2="17.64" fill="none" stroke="#2a6482" stroke-linecap="round" stroke-linejoin="round" stroke-width="2"/></svg>