<svg xmlns="http://www.w3.org/2000/svg" viewBox="0 0 38 38"><title>browser-coding</title><path d="M28.5,36.72c-1.5.9-22.5,0-22.5,0S1.38,37.5,1.5,31c.1-5.34-.13-16.06-.09-20V2.68L5.31,1s4.63.5,4.63.48c0,1.13,1.41,3,2,3.91,1.48,2.4,6.23,5.14,6,8.17-.44,5-.09,15.07,8.43,20.65C26.31,34.21,30,35.81,28.5,36.72Z" fill="#a4d9fa"/><path d="M7.75,9.52H33.8A3.2,3.2,0,0,0,37,6.32h0v-1h0A4.34,4.34,0,0,0,32.69,1H5.31A4.34,4.34,0,0,0,1,5.3V32.68H1A4.34,4.34,0,0,0,5.31,37H32.69A4.34,4.34,0,0,0,37,32.68V14.24" fill="none" stroke="#074870" stroke-linecap="round" stroke-linejoin="round" stroke-width="2"/><line x1="19.63" y1="5" x2="17" y2="5" fill="none" stroke="#074870" stroke-linecap="round" stroke-linejoin="round" stroke-width="2"/><line x1="26.31" y1="5" x2="23.69" y2="5" fill="none" stroke="#074870" stroke-linecap="round" stroke-linejoin="round" stroke-width="2"/><line x1="33" y1="5" x2="30.38" y2="5" fill="none" stroke="#074870" stroke-linecap="round" stroke-linejoin="round" stroke-width="2"/><circle cx="5" cy="9.52" r="1" fill="#074870"/><line x1="22.38" y1="15.25" x2="15.88" y2="32" fill="none" stroke="#074870" stroke-linecap="round" stroke-linejoin="round" stroke-width="2"/><polyline points="26.56 19.36 30.69 23.5 26.31 27.86" fill="none" stroke="#074870" stroke-linecap="round" stroke-linejoin="round" stroke-width="2"/><polyline points="11.88 19.43 7.75 23.55 12.13 27.93" fill="none" stroke="#074870" stroke-linecap="round" stroke-linejoin="round" stroke-width="2"/></svg>