<svg xmlns="http://www.w3.org/2000/svg" viewBox="0 0 41.13 41.13"><title>cloud-distribution</title><path d="M2,21.78H2A4.89,4.89,0,0,0,6.56,27h.53a6.63,6.63,0,0,0,4.24-1.17v-.1h24.4a1.37,1.37,0,0,0,1-.5c.6-.68,1.6-1.38,1.6-2.11h0a7.86,7.86,0,0,0-7.86-7.86h0a8.05,8.05,0,0,0-1.76.2h0a1.36,1.36,0,0,1-1.6-1.07,1.33,1.33,0,0,1,0-.28h0a11.17,11.17,0,0,0-8.63-11h0a11.74,11.74,0,0,0-5.74.13h.18S4.27,9.83,11,18.93h0a.89.89,0,0,1-.13,1.18h0a.92.92,0,0,1-1.17.15h0a7.27,7.27,0,0,0-5.56-2.57H3.87A5.5,5.5,0,0,0,2,21.78Z" fill="#abd9ef"/><path d="M5.33,27.12h0a.92.92,0,0,0,.9-.9h0a.91.91,0,1,0-1.81,0h0A.92.92,0,0,0,5.33,27.12Z" fill="#2a6482"/><path d="M23.47,2.85h0a10.11,10.11,0,0,0-12.86,15h0a5.33,5.33,0,0,1,1.51,1.59h0a9.88,9.88,0,0,1-1.51-1.59h0a5.17,5.17,0,0,0-3-.91S1.68,16.48,1,22.66" fill="none" stroke="#2a6482" stroke-linecap="round" stroke-linejoin="round" stroke-width="2"/><path d="M8.33,26.22h24.8a6.49,6.49,0,1,0-5.25-10.3h0a9.5,9.5,0,0,1-.78,1.39h0a5.92,5.92,0,0,1,.78-1.39h0a10.15,10.15,0,0,0-.72-9.66" fill="none" stroke="#2a6482" stroke-linecap="round" stroke-linejoin="round" stroke-width="2"/><ellipse cx="2.78" cy="36.85" rx="2.25" ry="2.51" fill="#39a0d3"/><circle cx="4.4" cy="36.33" r="3.16" fill="none" stroke="#2a6482" stroke-linecap="round" stroke-linejoin="round" stroke-width="2"/><path d="M7.56,36.33H9.08a2.77,2.77,0,0,0,2.77-2.77h0V29.75" fill="none" stroke="#2a6482" stroke-linecap="round" stroke-linejoin="round" stroke-width="2"/><ellipse cx="35.34" cy="36.85" rx="2.25" ry="2.51" fill="#39a0d3"/><path d="M39.84,35h0a3.16,3.16,0,1,1-4.19-1.55A3,3,0,0,1,37,33.18" fill="none" stroke="#2a6482" stroke-linecap="round" stroke-linejoin="round" stroke-width="2"/><path d="M33.81,36.33H32.33a2.77,2.77,0,0,1-2.81-2.73V29.75" fill="none" stroke="#2a6482" stroke-linecap="round" stroke-linejoin="round" stroke-width="2"/><ellipse cx="19.06" cy="36.85" rx="2.25" ry="2.51" fill="#39a0d3"/><circle cx="20.68" cy="36.33" r="3.16" fill="none" stroke="#2a6482" stroke-linecap="round" stroke-linejoin="round" stroke-width="2"/><line x1="20.68" y1="33.17" x2="20.68" y2="29.75" fill="none" stroke="#2a6482" stroke-linecap="round" stroke-linejoin="round" stroke-width="2"/></svg>