<svg xmlns="http://www.w3.org/2000/svg" viewBox="0 0 40.62 40.62"><title>cloud_ladder</title><path d="M38.33,24.06c0,.58-.58,1.13-1.09,1.66h0a5.92,5.92,0,0,0-.41.45h0a1.31,1.31,0,0,1-1,.5h-11V18.55h0a18.43,18.43,0,0,0-8.63.6l-.29,7.52H11.33v.1h0a2.45,2.45,0,0,1-.53.38h0a7.65,7.65,0,0,1-3.7.79h0a6,6,0,0,1-1.2-.12h0a4.65,4.65,0,0,1-1.49-.57h0A5,5,0,0,1,2,22.71H2a5.53,5.53,0,0,1,1.29-3.56h0a4.42,4.42,0,0,1,.47-.5h.32a7.31,7.31,0,0,1,5.51,2.56h0a.89.89,0,0,0,1.17-.15h0a.89.89,0,0,0,.12-1.17c-.36-.48-.67-1-1-1.42h0a10.11,10.11,0,0,1,0-11h0a13,13,0,0,1,2.92-3.32h-.18a7.51,7.51,0,0,1,.94-.21h0A12,12,0,0,1,18.41,4h0A11.19,11.19,0,0,1,27,15h0a1.4,1.4,0,0,0,1,1.34h0a.22.22,0,0,0,.16,0h0a1,1,0,0,0,.43,0h0a8.71,8.71,0,0,1,1.76-.2h0a7.86,7.86,0,0,1,8,7.75v.15Z" fill="#abd9ef"/><path d="M5.33,28.05h0a.91.91,0,0,0,.9-.9h0a.91.91,0,0,0-1.81,0h0A.91.91,0,0,0,5.33,28.05Z" fill="#2a6482"/><path d="M15.33,39.05h0a.91.91,0,0,0,.9-.9h0a.91.91,0,0,0-1.81,0h0A.91.91,0,0,0,15.33,39.05Z" fill="#2a6482"/><path d="M23.47,3.78h0a10.11,10.11,0,0,0-12.86,15h0a5.33,5.33,0,0,1,1.51,1.59h0a9.48,9.48,0,0,1-1.51-1.59h0a5.25,5.25,0,0,0-3-.91S1.68,17.41,1,23.59" fill="none" stroke="#2a6482" stroke-linecap="round" stroke-linejoin="round" stroke-width="2"/><path d="M27.88,16.84h0a10.13,10.13,0,0,0-.73-9.69" fill="none" stroke="#2a6482" stroke-linecap="round" stroke-linejoin="round" stroke-width="2"/><path d="M25.08,27.15h8.05a6.49,6.49,0,1,0-5.25-10.3" fill="none" stroke="#2a6482" stroke-linecap="round" stroke-linejoin="round" stroke-width="2"/><polyline points="8.29 27.14 12.96 27.14 15.33 27.14" fill="none" stroke="#2a6482" stroke-linecap="round" stroke-linejoin="round" stroke-width="2"/><line x1="15.33" y1="35.73" x2="15.33" y2="16.06" fill="none" stroke="#2a6482" stroke-linecap="round" stroke-linejoin="round" stroke-width="2"/><polyline points="24.71 16.06 24.71 18.55 24.71 26.67 24.71 29.07 24.71 37.74" fill="none" stroke="#2a6482" stroke-linecap="round" stroke-linejoin="round" stroke-width="2"/><line x1="24.08" y1="18.57" x2="18.63" y2="18.57" fill="none" stroke="#2a6482" stroke-linecap="round" stroke-linejoin="round" stroke-width="2"/><line x1="24.08" y1="22.89" x2="18.63" y2="22.89" fill="none" stroke="#2a6482" stroke-linecap="round" stroke-linejoin="round" stroke-width="2"/><line x1="24.08" y1="27.14" x2="18.63" y2="27.14" fill="none" stroke="#2a6482" stroke-linecap="round" stroke-linejoin="round" stroke-width="2"/><line x1="24.08" y1="31.52" x2="18.63" y2="31.52" fill="none" stroke="#2a6482" stroke-linecap="round" stroke-linejoin="round" stroke-width="2"/><path d="M24.83,18.57l-.09,8.1V18.55Z" fill="#2a6482"/></svg>