<svg xmlns="http://www.w3.org/2000/svg" viewBox="0 0 38 49.36"><title>coin-stack</title><ellipse cx="17.99" cy="6.72" rx="11.72" ry="5.64" fill="#fff"/><ellipse cx="25.42" cy="16.32" rx="11.72" ry="5.64" fill="#fff"/><polygon points="33.31 15.42 36.76 14.95 36.25 22.31 31.08 25.99 30.73 17.67 33.31 15.42" fill="#fff"/><polygon points="26.95 36.93 30.41 36.47 29.9 43.82 24.73 47.5 24.38 39.19 26.95 36.93" fill="#fff"/><polygon points="27.54 7.18 31 6.71 30.49 14.07 25.32 17.75 24.97 9.43 27.54 7.18" fill="#fff"/><path d="M31.93,14.72h0a2.68,2.68,0,0,1-.64,1.75h0a2.65,2.65,0,0,1-1.63.91h0A38.31,38.31,0,0,1,18,17.57c-2.88-.5-5.34-1.69-6.34-4h0a2.46,2.46,0,0,1-.18-1V6.7l.32.94h0A6.38,6.38,0,0,0,14,10.77h0a10.07,10.07,0,0,0,5.07,2.11h0a24.6,24.6,0,0,0,9.54-.81h0a2.67,2.67,0,0,1,3.23,2v0a2.71,2.71,0,0,1,.08.69Z" transform="translate(-5.68)" fill="#a4d9fa"/><path d="M18.77,16.15s1.91,8.15,16.82,4.45h0a2.67,2.67,0,0,1,3.23,2v0a2.82,2.82,0,0,1,.08.65h0a2.69,2.69,0,0,1-2.23,2.66c-4.77.72-15.58,1.7-18-3.78h0a2.46,2.46,0,0,1-.18-1v-5.9Z" transform="translate(-5.68)" fill="#a4d9fa"/><path d="M12.21,33.07S14.15,41.22,29,37.53h0a2.67,2.67,0,0,1,3.23,2v0a2.82,2.82,0,0,1,.08.65h0a2.67,2.67,0,0,1-2.27,2.66c-4.77.72-15.58,1.7-18-3.78h0a2.46,2.46,0,0,1-.18-1v-5.9Z" transform="translate(-5.68)" fill="#a4d9fa"/><path d="M19.68,16.38h0a2.66,2.66,0,0,1-1.61,1.19c-2.93-.5-5.39-1.69-6.39-4h0a2.46,2.46,0,0,1-.18-1V9.4h0A21.64,21.64,0,0,0,14,10.77h0a32.92,32.92,0,0,0,4.2,1.64h0a2.62,2.62,0,0,1,.87.47h0A2.68,2.68,0,0,1,19.68,16.38Z" transform="translate(-5.68)" fill="#34abf3"/><path d="M13.77,25.39s3,7.86,18.73,2.31h0a2.88,2.88,0,0,1,3.73,1.63,2.66,2.66,0,0,1,.16.55h0a2.76,2.76,0,0,1-2.16,2.92c-5.08,1.32-16.68,3.65-19.92-1.49h0a2.21,2.21,0,0,1-.31-1l-.68-5.87Z" transform="translate(-5.68)" fill="#a4d9fa"/><path d="M11.79,28.66s1.94,8.15,16.82,4.46h0a2.67,2.67,0,0,1,3.23,2v0a2.82,2.82,0,0,1,.08.65h0a2.68,2.68,0,0,1-2.25,2.66c-4.79.68-15.6,1.68-18-3.78h0a2.46,2.46,0,0,1-.18-1v-5.9Z" transform="translate(-5.68)" fill="#a4d9fa"/><path d="M11.79,37.53S13.73,45.68,28.61,42h0a2.67,2.67,0,0,1,3.23,2v0a2.82,2.82,0,0,1,.08.65h0a2.68,2.68,0,0,1-2.25,2.66c-4.77.72-15.58,1.7-18-3.78h0a2.46,2.46,0,0,1-.18-1v-5.9Z" transform="translate(-5.68)" fill="#a4d9fa"/><path d="M7,20.07s2.13,8.15,18.46,4.46h0a2.86,2.86,0,0,1,3.53,2,2.77,2.77,0,0,1,.11.64h0a2.77,2.77,0,0,1-2.45,2.7c-5.24.72-17.1,1.7-19.75-3.78h0a2.29,2.29,0,0,1-.2-1V19.17Z" transform="translate(-5.68)" fill="#a4d9fa"/><path d="M26.55,25.29h0a2.66,2.66,0,0,1-1.61,1.19c-2.88-.52-5.35-1.69-6.36-4h0a2.46,2.46,0,0,1-.18-1v-3.2h0a21.64,21.64,0,0,0,2.5,1.37h0a32.92,32.92,0,0,0,4.2,1.64h0a2.62,2.62,0,0,1,.87.47h0A2.67,2.67,0,0,1,26.55,25.29Z" transform="translate(-5.68)" fill="#34abf3"/><path d="M14.83,29.07h0a2.66,2.66,0,0,1-1.61,1.19c-2.88-.52-5.35-1.69-6.36-4h0a2.46,2.46,0,0,1-.18-1V22.07h0a21.64,21.64,0,0,0,2.5,1.37h0a32.92,32.92,0,0,0,4.2,1.64h0a2.62,2.62,0,0,1,.87.47h0A2.68,2.68,0,0,1,14.83,29.07Z" transform="translate(-5.68)" fill="#34abf3"/><path d="M19.68,37.77h0A2.63,2.63,0,0,1,18.07,39c-2.88-.52-5.35-1.69-6.36-4h0a2.46,2.46,0,0,1-.18-1V30.8h0A21,21,0,0,0,14,32.13h0a32.92,32.92,0,0,0,4.2,1.64h0a2.62,2.62,0,0,1,.87.47h0A2.67,2.67,0,0,1,19.68,37.77Z" transform="translate(-5.68)" fill="#34abf3"/><path d="M19.68,46.28h0a2.66,2.66,0,0,1-1.61,1.19c-2.88-.52-5.35-1.69-6.36-4h0a2.46,2.46,0,0,1-.18-1v-3.2h0A21.25,21.25,0,0,0,14,40.64h0a32.92,32.92,0,0,0,4.2,1.64h0a2.62,2.62,0,0,1,.87.47h0A2.67,2.67,0,0,1,19.68,46.28Z" transform="translate(-5.68)" fill="#34abf3"/><path d="M31.14,12.16h0a21.4,21.4,0,0,1-7.31,1.2h0a24,24,0,0,1-4.4-.4c-4.65-.89-7.95-3.14-7.95-5.78C11.48,3.77,17,1,23.83,1c4.42,0,8.31,1.17,10.49,2.92h0a8.43,8.43,0,0,1,.69.65h0a4.8,4.8,0,0,1,.74,1h0a3.48,3.48,0,0,1,.42,1.61" transform="translate(-5.68)" fill="none" stroke="#074870" stroke-linecap="round" stroke-linejoin="round" stroke-width="2"/><path d="M36.17,12.16h0a3.59,3.59,0,0,1-.68,2h0a6.28,6.28,0,0,1-1,1.06h0a12.17,12.17,0,0,1-4.28,2.19h0a22.41,22.41,0,0,1-6.41.9h0a22.58,22.58,0,0,1-5.24-.59h0a11.81,11.81,0,0,1-6-3h0a4.51,4.51,0,0,1-.9-1.38" transform="translate(-5.68)" fill="none" stroke="#074870" stroke-linecap="round" stroke-linejoin="round" stroke-width="2"/><polyline points="30.49 6.71 30.49 7.18 30.49 10.4 30.49 12.16" fill="none" stroke="#074870" stroke-linecap="round" stroke-linejoin="round" stroke-width="2"/><path d="M33.07,32.46l-.64.34h0a20,20,0,0,1-8.6,1.75h0a20,20,0,0,1-8.6-1.75h0A7.28,7.28,0,0,1,12,30.07h0" transform="translate(-5.68)" fill="none" stroke="#074870" stroke-linecap="round" stroke-linejoin="round" stroke-width="2"/><path d="M12.11,35.29c1.63,2.45,6.26,4.23,11.72,4.23,4.56,0,8.55-1.24,10.69-3.09h0a6.28,6.28,0,0,0,1-1.06l.06-.08h0a3.58,3.58,0,0,0,.62-1.95" transform="translate(-5.68)" fill="none" stroke="#074870" stroke-linecap="round" stroke-linejoin="round" stroke-width="2"/><line x1="30.49" y1="30.4" x2="30.49" y2="33.67" fill="none" stroke="#074870" stroke-linecap="round" stroke-linejoin="round" stroke-width="2"/><path d="M11.48,37.23c0,3.42,5.53,6.18,12.35,6.18h0a19.16,19.16,0,0,0,9.39-2.17" transform="translate(-5.68)" fill="none" stroke="#074870" stroke-linecap="round" stroke-linejoin="round" stroke-width="2"/><path d="M36.17,42.21h0a3.59,3.59,0,0,1-.68,2h0a5.9,5.9,0,0,1-1,1.06c-2.13,1.85-6.12,3.09-10.69,3.09-5.65,0-10.42-1.9-11.88-4.5" transform="translate(-5.68)" fill="none" stroke="#074870" stroke-linecap="round" stroke-linejoin="round" stroke-width="2"/><line x1="30.49" y1="42.21" x2="30.49" y2="33.34" fill="none" stroke="#074870" stroke-linecap="round" stroke-linejoin="round" stroke-width="2"/><path d="M11.48,37.23V34.07h0a5.64,5.64,0,0,0,.63,1.22" transform="translate(-5.68)" fill="none" stroke="#074870" stroke-linecap="round" stroke-linejoin="round" stroke-width="2"/><path d="M36.17,10.4h0a13,13,0,0,1,4.66,2.19h0a8.3,8.3,0,0,1,.69.64h0a4.75,4.75,0,0,1,.73,1h0a3.41,3.41,0,0,1,.43,1.62" transform="translate(-5.68)" fill="none" stroke="#074870" stroke-linecap="round" stroke-linejoin="round" stroke-width="2"/><path d="M18.59,17.75c1.61,2.49,6.26,4.32,11.74,4.32h1a19,19,0,0,0,8-1.94" transform="translate(-5.68)" fill="none" stroke="#074870" stroke-linecap="round" stroke-linejoin="round" stroke-width="2"/><path d="M18.61,22.77h0a9,9,0,0,0,4.53,3.07h0A21.39,21.39,0,0,0,30.32,27h.36a22.55,22.55,0,0,0,4.84-.58h0A13.12,13.12,0,0,0,41,23.91h0a5.9,5.9,0,0,0,1-1.06h0a3.51,3.51,0,0,0,.68-2" transform="translate(-5.68)" fill="none" stroke="#074870" stroke-linecap="round" stroke-linejoin="round" stroke-width="2"/><polyline points="37 15.37 37 15.85 37 20.82" fill="none" stroke="#074870" stroke-linecap="round" stroke-linejoin="round" stroke-width="2"/><path d="M12.61,14.74c-3.56,1.09-5.93,3-5.93,5.33S9.22,24.4,13,25.46h0a22.89,22.89,0,0,0,6.05.79h0a23.6,23.6,0,0,0,4.11-.36h0" transform="translate(-5.68)" fill="none" stroke="#074870" stroke-linecap="round" stroke-linejoin="round" stroke-width="2"/><path d="M7.15,26.68h0A8.72,8.72,0,0,0,12,30.07h0a21.91,21.91,0,0,0,7,1.11c4.56,0,8.55-1.25,10.65-3.11h0a5.91,5.91,0,0,0,1-1h0" transform="translate(-5.68)" fill="none" stroke="#074870" stroke-linecap="round" stroke-linejoin="round" stroke-width="2"/><circle cx="27.83" cy="10.68" r="1" fill="#074870"/></svg>