<svg xmlns="http://www.w3.org/2000/svg" viewBox="0 0 40.01 40.01"><title>compass</title><path d="M13.6,5.36c-.87,6.45-1.73,22.73,10.26,29.37h0a1.76,1.76,0,0,1,.59,2.43,1.8,1.8,0,0,1-1.26.83C15.6,39,3,38,1.09,21.12h0v-.21c0-1.24.11-13.46,10.07-17.41h0a1.77,1.77,0,0,1,2.32.94A1.81,1.81,0,0,1,13.6,5.36Z" fill="#abd9ef"/><path d="M18.36,23l1,4.45h0a3.53,3.53,0,0,0-.22.72c-.1.46-.19.92-.29,1.38-.13.68-.39,1.49-1.06,1.67s-1.32-.44-1.55-1.11A19.74,19.74,0,0,1,15.88,28a1.48,1.48,0,0,0-1.45-1.26c-.34,0-.62.27-1,.32-.78.16-.31-1.79-.46-2.13h0a1.64,1.64,0,0,0-1.08-.82C11,23.83,8,23.73,8.83,22h0a1.7,1.7,0,0,1,1.07-.76h0A9.77,9.77,0,0,1,11.3,21h0a4.17,4.17,0,0,0,1.26-.32l4.44,1,1.07.23Z" fill="#39a0d3"/><path d="M18.36,16.29l-.24,1.07L17,17.61,15.3,18h0a1.77,1.77,0,0,0,.52-.8h0A5.51,5.51,0,0,0,16,16a3.57,3.57,0,0,1,.12-.74h0a2.47,2.47,0,0,1,.1-.29Z" fill="#39a0d3"/><path d="M22.66,17.36v-.2l.69-.43h0a2.51,2.51,0,0,1-.38.7Z" fill="#39a0d3"/><line x1="21.78" y1="25.86" x2="21.49" y2="27.15" fill="none"/><path d="M25,23.78h0A5.55,5.55,0,0,1,24,24h0a7,7,0,0,0-1,.17h0a1.82,1.82,0,0,0-.37.13h0a2,2,0,0,0-.62.47l.4-1.78.23-1.07,1.07-.23Z" fill="#39a0d3"/><polyline points="20.04 8.85 18.51 15.67 18.21 16.98 17.99 17.94 17.03 18.16 15.46 18.51 14.45 18.74 13.28 19 8.9 19.99 13.04 20.92 17.03 21.82 17.99 22.03 18.21 23 19.11 27 20.04 31.13 21.03 26.74 21.29 25.58 21.51 24.59 21.87 22.99 22.08 22.03 23.04 21.82 24.31 21.53 31.18 19.99 23.05 18.16 22.32 18 22.08 17.94 22.04 17.76 21.87 16.98 21.42 14.97" fill="none" stroke="#2a6482" stroke-linecap="round" stroke-linejoin="round" stroke-width="2"/><polygon points="18.21 16.98 17.99 17.94 17.03 18.16 16.13 16.73 15.02 14.97 16.33 15.8 18.21 16.98" fill="none" stroke="#2a6482" stroke-linecap="round" stroke-linejoin="round" stroke-width="2"/><polygon points="18.21 23 15.02 25.01 17.03 21.82 17.99 22.03 18.21 23" fill="none" stroke="#2a6482" stroke-linecap="round" stroke-linejoin="round" stroke-width="2"/><polygon points="25.06 25.01 23.3 23.9 21.87 22.99 22.08 22.03 23.04 21.82 24.24 23.71 25.06 25.01" fill="none" stroke="#2a6482" stroke-linecap="round" stroke-linejoin="round" stroke-width="2"/><polygon points="25.06 14.97 23.05 18.16 22.32 18 22.08 17.94 22.04 17.76 21.87 16.98 25.06 14.97" fill="none" stroke="#2a6482" stroke-linecap="round" stroke-linejoin="round" stroke-width="2"/><path d="M26.46,2.12h0a17.48,17.48,0,0,1,2.25,1h0a19,19,0,1,1-6.63-2" fill="none" stroke="#2a6482" stroke-linecap="round" stroke-linejoin="round" stroke-width="2"/><circle cx="20.07" cy="4.98" r="1" fill="#2a6482"/><circle cx="35.05" cy="20.02" r="1" fill="#2a6482"/><circle cx="20.01" cy="35" r="1" fill="#2a6482"/><circle cx="5.03" cy="19.96" r="1" fill="#2a6482"/></svg>