<svg xmlns="http://www.w3.org/2000/svg" viewBox="0 0 40.01 40"><title>compass</title><path d="M13.6,5.36c-.87,6.45-1.73,22.73,10.26,29.37h0a1.77,1.77,0,0,1,.6,2.42h0a1.8,1.8,0,0,1-1.26.83C15.6,39,3,38,1.09,21.12h0v-.21c0-1.24.11-13.46,10.07-17.41h0a1.77,1.77,0,0,1,2.32.94h0A1.81,1.81,0,0,1,13.6,5.36Z" transform="translate(0 -0.01)" fill="#a4d9fa"/><path d="M18.36,23l1,4.45h0a3.53,3.53,0,0,0-.22.72c-.1.46-.19.92-.29,1.38-.13.68-.39,1.49-1.06,1.67s-1.32-.44-1.55-1.11A19,19,0,0,1,15.88,28a1.48,1.48,0,0,0-1.45-1.26c-.34,0-.62.27-1,.32-.78.16-.31-1.79-.46-2.13h0a1.61,1.61,0,0,0-1.08-.82C11,23.83,8,23.73,8.83,22h0a1.7,1.7,0,0,1,1.07-.76h0A11.07,11.07,0,0,1,11.3,21h0a4.25,4.25,0,0,0,1.26-.32l4.44,1,1.07.23Z" transform="translate(0 -0.01)" fill="#34abf3"/><path d="M18.36,16.29l-.24,1.07L17,17.61,15.3,18h0a1.8,1.8,0,0,0,.52-.8h0A6,6,0,0,0,16,16a3.09,3.09,0,0,1,.12-.74h0a2.47,2.47,0,0,1,.1-.29Z" transform="translate(0 -0.01)" fill="#34abf3"/><path d="M22.66,17.36v-.2l.69-.43h0a2.64,2.64,0,0,1-.38.7Z" transform="translate(0 -0.01)" fill="#34abf3"/><line x1="21.78" y1="25.85" x2="21.49" y2="27.14" fill="none"/><path d="M25,23.78h0A5.76,5.76,0,0,1,24,24h0a6.74,6.74,0,0,0-1,.17h0a1.63,1.63,0,0,0-.37.13h0a1.79,1.79,0,0,0-.62.47l.4-1.78.23-1.07,1.07-.23Z" transform="translate(0 -0.01)" fill="#34abf3"/><polyline points="20.04 8.85 18.51 15.66 18.21 16.98 17.99 17.93 17.03 18.16 15.46 18.5 14.45 18.73 13.28 19 8.9 19.98 13.04 20.91 17.03 21.82 17.99 22.02 18.21 23 19.11 27 20.04 31.13 21.03 26.73 21.29 25.57 21.51 24.59 21.87 22.98 22.08 22.02 23.04 21.82 24.31 21.52 31.18 19.98 23.05 18.16 22.32 18 22.08 17.93 22.04 17.75 21.87 16.98 21.42 14.96" fill="none" stroke="#074870" stroke-linecap="round" stroke-linejoin="round" stroke-width="2"/><polygon points="18.21 16.98 17.99 17.93 17.03 18.16 16.13 16.73 15.02 14.96 16.33 15.79 18.21 16.98" fill="none" stroke="#074870" stroke-linecap="round" stroke-linejoin="round" stroke-width="2"/><polygon points="18.21 23 15.02 25 17.03 21.82 17.99 22.02 18.21 23" fill="none" stroke="#074870" stroke-linecap="round" stroke-linejoin="round" stroke-width="2"/><polygon points="25.06 25 23.3 23.89 21.87 22.98 22.08 22.02 23.04 21.82 24.24 23.7 25.06 25" fill="none" stroke="#074870" stroke-linecap="round" stroke-linejoin="round" stroke-width="2"/><polygon points="25.06 14.96 23.05 18.16 22.32 18 22.08 17.93 22.04 17.75 21.87 16.98 25.06 14.96" fill="none" stroke="#074870" stroke-linecap="round" stroke-linejoin="round" stroke-width="2"/><path d="M26.46,2.12h0a17.33,17.33,0,0,1,2.25,1h0a19,19,0,1,1-6.63-2" transform="translate(0 -0.01)" fill="none" stroke="#074870" stroke-linecap="round" stroke-linejoin="round" stroke-width="2"/><circle cx="20.07" cy="4.97" r="1" fill="#074870"/><circle cx="35.05" cy="20.01" r="1" fill="#074870"/><circle cx="20.01" cy="34.99" r="1" fill="#074870"/><circle cx="5.03" cy="19.95" r="1" fill="#074870"/></svg>