<svg xmlns="http://www.w3.org/2000/svg" viewBox="0 0 42.01 42"><title>globe</title><ellipse cx="34.53" cy="36.1" rx="2.92" ry="3.25" fill="#34abf3"/><ellipse cx="5.37" cy="6.93" rx="3.24" ry="2.91" transform="translate(-2.45 10.88) rotate(-79.03)" fill="#34abf3"/><path d="M31.26,6.49h0a4.1,4.1,0,1,1,4.1,4.1h0a4.05,4.05,0,0,1-2.79-1.1" transform="translate(0 0)" fill="none" stroke="#074870" stroke-linecap="round" stroke-linejoin="round" stroke-width="2"/><circle cx="35.46" cy="35.43" r="4.1" fill="none" stroke="#074870" stroke-linecap="round" stroke-linejoin="round" stroke-width="2"/><path d="M9.52,32.53h0a4.11,4.11,0,1,1-2.79-1.1" transform="translate(0 0)" fill="none" stroke="#074870" stroke-linecap="round" stroke-linejoin="round" stroke-width="2"/><circle cx="6.55" cy="6.49" r="4.1" fill="none" stroke="#074870" stroke-linecap="round" stroke-linejoin="round" stroke-width="2"/><circle cx="21.01" cy="21.01" r="11.66" fill="none" stroke="#074870" stroke-linecap="round" stroke-linejoin="round" stroke-width="2"/><ellipse cx="21" cy="21.01" rx="4.94" ry="11.66" fill="none" stroke="#074870" stroke-linecap="round" stroke-linejoin="round" stroke-width="2"/><ellipse cx="21.01" cy="21.01" rx="11.66" ry="5.65" fill="none" stroke="#074870" stroke-linecap="round" stroke-linejoin="round" stroke-width="2"/><line x1="21.01" y1="9.35" x2="21.01" y2="32.43" fill="none" stroke="#074870" stroke-linecap="round" stroke-linejoin="round" stroke-width="2"/><line x1="22.01" y1="32.43" x2="20.45" y2="32.43" fill="none" stroke="#074870" stroke-linecap="round" stroke-linejoin="round" stroke-width="2"/><path d="M39.3,12.91h0a20,20,0,0,1,.14,15.87" transform="translate(0 0)" fill="none" stroke="#074870" stroke-linecap="round" stroke-linejoin="round" stroke-width="2"/><path d="M13.82,2.34h0a20,20,0,0,1,14.39,0" transform="translate(0 0)" fill="none" stroke="#074870" stroke-linecap="round" stroke-linejoin="round" stroke-width="2"/><path d="M2.57,28.78h0a20,20,0,0,1,.15-15.87" transform="translate(0 0)" fill="none" stroke="#074870" stroke-linecap="round" stroke-linejoin="round" stroke-width="2"/><path d="M28.21,39.58h0A18.22,18.22,0,0,1,21,41h0a20.09,20.09,0,0,1-7.19-1.33" transform="translate(0 0)" fill="none" stroke="#074870" stroke-linecap="round" stroke-linejoin="round" stroke-width="2"/></svg>