<svg xmlns="http://www.w3.org/2000/svg" viewBox="0 0 42.01 36.75"><title>global-reach</title><path d="M27.47,34.84c.72.17,0,1.09-.22,1.35h0a11.09,11.09,0,0,1-3.67,2.24h0a15,15,0,0,1-5,.92h0A20.43,20.43,0,0,1,7.9,37h0a6.42,6.42,0,0,0-2.45-1h0a5.32,5.32,0,0,0-2.77.81h0A1.17,1.17,0,0,1,2,37H2a.88.88,0,0,1-.7-1v0h0A2.36,2.36,0,0,1,2,34.72H2A18.72,18.72,0,0,1,3.84,33h0a4,4,0,0,1,2.59-1.14h0A4.73,4.73,0,0,1,8.81,33c2.88,2.06,6.18,4,9.72,3.75h0a24.32,24.32,0,0,0,4.94-.85c.81-.22,1.61-.46,2.41-.72h0A3.64,3.64,0,0,1,27.47,34.84Z" transform="translate(0 -2.63)" fill="#a4d9fa"/><path d="M30.58,31.84h0a2,2,0,0,1,2.83,0h0a2,2,0,0,1,0,2.83h0" transform="translate(0 -2.63)" fill="none" stroke="#074870" stroke-linecap="round" stroke-linejoin="round" stroke-width="2"/><path d="M21.48,5.45s3,2.26,2.93,9.88S35.82,25.52,35.82,25.52,27.63,27,26,23.87s-7-2-7-2S14.6,12.79,21.48,5.45Z" transform="translate(0 -2.63)" fill="#a4d9fa"/><path d="M1,33.63l.17-.17,6.56-6.55h0a4.61,4.61,0,0,1,1.35-1h0a4.36,4.36,0,0,1,1.7-.43h0a1.61,1.61,0,0,1,.31,0h10.2a1.93,1.93,0,0,1,1.82,2h0a2,2,0,0,1-.54,1.43h0a1.68,1.68,0,0,1-1.28.6H12.43" transform="translate(0 -2.63)" fill="none" stroke="#074870" stroke-linecap="round" stroke-linejoin="round" stroke-width="2"/><path d="M30.62,31.81h0a10.82,10.82,0,0,1-3,2.72h0a10.48,10.48,0,0,1-5.55,1.58h-.3a10.54,10.54,0,0,1-9.43-6.59" transform="translate(0 -2.63)" fill="none" stroke="#074870" stroke-linecap="round" stroke-linejoin="round" stroke-width="2"/><path d="M17.69,15.33h0A11.66,11.66,0,1,1,29.35,27h0c-1.93,0-3.61-2.62-4.41-6.43" transform="translate(0 -2.63)" fill="none" stroke="#074870" stroke-linecap="round" stroke-linejoin="round" stroke-width="2"/><path d="M34.29,15.33h0a25.19,25.19,0,0,1-.53,5.19c-.66,3.13-1.91,5.46-3.4,6.19h0a2.17,2.17,0,0,1-1,.24c-1.93,0-3.61-2.62-4.41-6.43h0a23.57,23.57,0,0,1-.51-4.1V15.29h0A24.85,24.85,0,0,1,25,10.06c.8-3.81,2.48-6.43,4.41-6.43S33,6.25,33.79,10.06h0A25.17,25.17,0,0,1,34.29,15.33Z" transform="translate(0 -2.63)" fill="none" stroke="#074870" stroke-linecap="round" stroke-linejoin="round" stroke-width="2"/><path d="M21,19.29c-2.07-1-3.34-2.42-3.34-4,0-2.36,3-4.39,7.25-5.23h0a23.36,23.36,0,0,1,8.82,0C38,10.94,41,13,41,15.33s-3,4.39-7.24,5.19h0a23.28,23.28,0,0,1-4.41.42" transform="translate(0 -2.63)" fill="none" stroke="#074870" stroke-linecap="round" stroke-linejoin="round" stroke-width="2"/><line x1="29.35" y1="1.04" x2="29.35" y2="24.12" fill="none" stroke="#074870" stroke-linecap="round" stroke-linejoin="round" stroke-width="2"/><line x1="30.36" y1="24.12" x2="28.79" y2="24.12" fill="none" stroke="#074870" stroke-linecap="round" stroke-linejoin="round" stroke-width="2"/><path d="M17.69,15.33S17.35,19,19,21.42" transform="translate(0 -2.63)" fill="none" stroke="#074870" stroke-linecap="round" stroke-linejoin="round" stroke-width="2"/></svg>