<svg xmlns="http://www.w3.org/2000/svg" viewBox="0 0 36.72 38.74"><title>layers</title><path d="M20.92,7.05h0a4.85,4.85,0,0,1,.27,2h0a30.1,30.1,0,0,0,.36,7.22c.56,2.35,2,4.65,4.34,5.42.66.22,1.49.43,1.64,1.11.21.92-1.09,1.6-1.07,2.54h0a9.43,9.43,0,0,0-6.14-2.86h0A11,11,0,0,1,16.77,22c-2-.89-2.81-3.32-2.79-5.49h0a11.38,11.38,0,0,1,1.72-5.89c.87-1.41,2.48-4.09,4.41-4.09h0A.86.86,0,0,1,20.92,7.05Z" transform="translate(-1)" fill="#a4d9fa"/><path d="M13.9,17.69h0a9.6,9.6,0,0,1,0-4.2h0a9.38,9.38,0,0,1,1.28-3h0a9.35,9.35,0,0,1,3-3h0a8.46,8.46,0,0,1,1.52-.72h0a8.63,8.63,0,0,1,1.57-.48h0A9.61,9.61,0,0,1,31.46,10.6h0a9.08,9.08,0,0,1,1.24,3h0a9.26,9.26,0,0,1,0,4.19h0a9.64,9.64,0,0,1-4.29,6h0a8.6,8.6,0,0,1-1.45.74h0a5,5,0,0,1-.65.23" transform="translate(-1)" fill="none" stroke="#074870" stroke-linecap="round" stroke-linejoin="round" stroke-width="2"/><path d="M19.7,17.11h0a3.86,3.86,0,1,1,6.87.56" transform="translate(-1)" fill="none" stroke="#074870" stroke-linecap="round" stroke-linejoin="round" stroke-width="2"/><rect x="16.65" y="1.82" width="4.25" height="5.46" transform="translate(-1.33 7.38) rotate(-22.05)" fill="#074870"/><rect x="10.12" y="8.26" width="4.25" height="5.46" transform="translate(-3.65 17.98) rotate(-67.05)" fill="#074870"/><rect x="32.2" y="17.61" width="4.25" height="5.46" transform="translate(1.21 44.02) rotate(-67.05)" fill="#074870"/><rect x="31.67" y="9.04" width="5.46" height="4.25" transform="translate(-2.68 13.73) rotate(-22.05)" fill="#074870"/><rect x="25.24" y="2.49" width="5.46" height="4.25" transform="translate(11.81 28.57) rotate(-67.05)" fill="#074870"/><path d="M10.55,30.35S7,23.2,16.17,22L13,30.44Z" transform="translate(-1)" fill="#34abf3"/><path d="M16.11,23.57c1.78-.36,1.83,1,2.06,2.31h0a10.13,10.13,0,0,0,1.88,4.36h0a6.75,6.75,0,0,0,1.14,1.36c.42.34,1.25.48,1.51,1h0a.83.83,0,0,1-.12.87h0a3,3,0,0,1-1.32.92h0a5.05,5.05,0,0,1-2,.31S14.35,34,13.35,32c-.82-1.65-.16-4.23.49-5.83h0a4.67,4.67,0,0,1,1.73-2.39h0A1.78,1.78,0,0,1,16.11,23.57Z" transform="translate(-1)" fill="#a4d9fa"/><path d="M26.55,28.19h0a6.47,6.47,0,0,1-.16,1.91h0a6.54,6.54,0,0,1-.26.86h0a6.17,6.17,0,0,1-.65,1.28h0a6.68,6.68,0,0,1-2.13,2.1h0a6.38,6.38,0,0,1-1,.53h0a6.19,6.19,0,0,1-1.11.34h0a6.61,6.61,0,0,1-3,0h0a6.37,6.37,0,0,1-2.13-.9h0A6.6,6.6,0,0,1,14,32.18h0a6.43,6.43,0,0,1-.54-1h0a6.29,6.29,0,0,1-.34-1.12h0a6.9,6.9,0,0,1,0-3h0a7,7,0,0,1,.65-1.7h0a2.82,2.82,0,0,1,.26-.44h0a6.07,6.07,0,0,1,1.08-1.29h0a1.51,1.51,0,0,1,.23-.21h0a4.5,4.5,0,0,1,.83-.6h0A6.44,6.44,0,0,1,18.33,22h0A6.32,6.32,0,0,1,21,22l.34.07h0a6.8,6.8,0,0,1,2.15.91l.11.07h0a6.66,6.66,0,0,1,2,2.06h0a6.38,6.38,0,0,1,.53,1h0a5.56,5.56,0,0,1,.34,1.12h0a4.45,4.45,0,0,1,.12.73h0A1.85,1.85,0,0,1,26.55,28.19Z" transform="translate(-1)" fill="none" stroke="#074870" stroke-linecap="round" stroke-linejoin="round" stroke-width="2"/><circle cx="18.76" cy="28.56" r="2.73" fill="none" stroke="#074870" stroke-linecap="round" stroke-linejoin="round" stroke-width="2"/><rect x="15.07" y="18.74" width="3.01" height="3.87" transform="translate(-7.55 7.73) rotate(-22.05)" fill="#074870"/><path d="M14.05,25.21l-.05.14-.55,1.3h0a.88.88,0,0,1-.32.37h0a.76.76,0,0,1-.73.05l-2.09-.88h0a.81.81,0,0,1-.42-1.05L10,24.8l.4-1h0a.8.8,0,0,1,1-.43h0l2.08.88h0a.79.79,0,0,1,.47.58h0A.71.71,0,0,1,14.05,25.21Z" transform="translate(-1)" fill="#074870"/><rect x="9.95" y="30.25" width="3.87" height="3.01" transform="translate(-12.05 6.78) rotate(-22.05)" fill="#074870"/><rect x="14.52" y="34.87" width="3.87" height="3.01" transform="translate(-24.46 37.34) rotate(-67.05)" fill="#074870"/><path d="M23.91,34.77l.85,2.09h0a.8.8,0,0,1-.44,1L23,38.38h0a.8.8,0,0,1-1-.44l-.85-2.09h0a.81.81,0,0,1,.07-.74h0a.8.8,0,0,1,.37-.31l1.29-.52h0a.79.79,0,0,1,.48,0h0A.8.8,0,0,1,23.91,34.77Z" transform="translate(-1)" fill="#074870"/><path d="M29.63,32l-.26.62-.28.67h0a.8.8,0,0,1-1,.42L26,32.77h0a.78.78,0,0,1-.47-.57h0a.79.79,0,0,1,0-.48L26,30.6l.07-.17h0a.88.88,0,0,1,.32-.37h0a.82.82,0,0,1,.73-.06l2.09.89h0a.8.8,0,0,1,.49,1Z" transform="translate(-1)" fill="#074870"/><rect x="25.7" y="23.87" width="3.87" height="3.01" transform="translate(-8.51 12.23) rotate(-22.05)" fill="#074870"/><rect x="21.12" y="19.24" width="3.87" height="3.01" transform="translate(-6.04 33.89) rotate(-67.05)" fill="#074870"/><path d="M11.84,30.54h0a5.16,5.16,0,1,1-.23-9.66" transform="translate(-1)" fill="none" stroke="#074870" stroke-linecap="round" stroke-linejoin="round" stroke-width="2"/><rect x="6.49" y="18.41" width="2.27" height="2.91" transform="translate(-7.95 4.36) rotate(-22.23)" fill="#074870"/><rect x="2.9" y="21.81" width="2.26" height="2.9" transform="translate(-19.96 17.9) rotate(-67.05)" fill="#074870"/><rect x="2.68" y="27.09" width="2.91" height="2.27" transform="translate(-11.37 3.66) rotate(-22.23)" fill="#074870"/><rect x="5.97" y="30.5" width="2.9" height="2.26" transform="translate(-25.6 26.13) rotate(-67.05)" fill="#074870"/><path d="M31.9,36.1s3.14-3.76,1.22-8.21" transform="translate(-1)" fill="none" stroke="#a4d9fa" stroke-linecap="round" stroke-linejoin="round" stroke-width="2"/><path d="M13,1S5.12,5.33,5.42,14.2" transform="translate(-1)" fill="none" stroke="#a4d9fa" stroke-linecap="round" stroke-linejoin="round" stroke-width="2"/><path d="M2,32.77H2A7.17,7.17,0,0,0,8.13,36.4" transform="translate(-1)" fill="none" stroke="#a4d9fa" stroke-linecap="round" stroke-linejoin="round" stroke-width="2"/></svg>