<svg xmlns="http://www.w3.org/2000/svg" viewBox="0 0 35.58 35.58"><title>puzzle</title><path d="M11.57,1.87c1.06.78.77,3.5.87,4.51.3,3.05,3.19,5.1,4.76,7.74,1.41,2.35,1.76,5.19,2.94,7.66h0a12.75,12.75,0,0,0,10.25,7.08h0a4,4,0,0,1,2.91,1.51c.76,1.46-1.46,2.39-2.58,2.52h0A5.2,5.2,0,0,1,27,31.8l-2.63,2.43h0a.6.6,0,0,1-.84.11l-.07-.06L19.34,31.8h0a5.14,5.14,0,0,0,2.06-2.9h0A2.65,2.65,0,0,0,19,26h-.4c-1.29.14-2.26,1.21-3.09,2.22-.43-1.63-1-3.4-2.36-4.32-.83-.55-1.87-.72-2.71-1.27h0a3.59,3.59,0,0,1-1.6-2.86L6,21.49H6a1.22,1.22,0,0,1-.73.25h0a1.22,1.22,0,0,1-.55-.23L2,19.8l1.64-4.21h0a.76.76,0,0,0-.18-1C2.8,14,.41,12.15.53,11.37.6,10.91,1.84,10,2.17,9.63L3.8,7.8l1.77,2.25h0a.64.64,0,0,0,.85.28h0l2.4-.85h0a.87.87,0,0,0,.44-.26h0a.84.84,0,0,0,.1-.56C9.28,7,8,2.27,10.46,1.68h0A1.29,1.29,0,0,1,11.57,1.87Z" transform="translate(0 0)" fill="#a4d9fa"/><path d="M16.8,13.45h0a7.77,7.77,0,0,0-2.38.49h0a3.52,3.52,0,0,0-1.52,1.58c-.51,1.06.08,3.74-1.27,4.21-.46.16-1.36.42-1.13,1.16,0,0,.77,2.5,3.47,0s0-2.81,0-2.81S15.61,13.69,16.8,13.45Z" transform="translate(0 0)" fill="#34abf3"/><path d="M3.8,8.26l.7.7h0A3.14,3.14,0,0,0,8.93,4.53l-.7-.7,2.24-2.24h0a2,2,0,0,1,2.83,0h0l2.3,2.3.7-.7h0a3.15,3.15,0,0,1,4.5,4.42h0l-.7.7,2.19,2.19h0a2,2,0,0,1,0,2.83h0" transform="translate(0 0)" fill="none" stroke="#074870" stroke-linecap="round" stroke-linejoin="round" stroke-width="2"/><path d="M19.32,14.88h0a3.14,3.14,0,0,0-4.43,4.43l.7.7-2.25,2.25h0a2,2,0,0,1-2.83,0h0L8.32,20.07l-.7.7h0a3.13,3.13,0,0,1-4.43-4.43h0l.7-.7-2.3-2.3h0a2,2,0,0,1,0-2.83h0" transform="translate(0 0)" fill="none" stroke="#074870" stroke-linecap="round" stroke-linejoin="round" stroke-width="2"/><path d="M31.8,27.29l.7.7h0a3.13,3.13,0,0,1-4.43,4.43l-.7-.7L25.07,34h0a2,2,0,0,1-2.83,0h0L20,31.8l.7-.7h0a3.14,3.14,0,0,0-4.43-4.43l-.7.7" transform="translate(0 0)" fill="none" stroke="#074870" stroke-linecap="round" stroke-linejoin="round" stroke-width="2"/><path d="M22.26,13.34h0a2,2,0,0,1,2.83,0h0l2.25,2.25-.7.7h0a3.14,3.14,0,0,0,4.43,4.43l.7-.7L34,22.27h0a2,2,0,0,1,0,2.83h0" transform="translate(0 0)" fill="none" stroke="#074870" stroke-linecap="round" stroke-linejoin="round" stroke-width="2"/><circle cx="13.85" cy="25.1" r="1" fill="#074870"/></svg>