<svg xmlns="http://www.w3.org/2000/svg" viewBox="0 0 34.17 43.08"><title>radar</title><path d="M18.56,17h0a20.94,20.94,0,0,0-1.06-3c-1.2-2.92-3.6-5.75-6.65-3C5.57,15.75.71,32.86,15.57,23.54h0a6.24,6.24,0,0,0,3.18-4.62h0A6.21,6.21,0,0,0,18.56,17Z" transform="translate(-4.45)" fill="#a4d9fa"/><path d="M19.91,18.54h0a29.68,29.68,0,0,0-4.28-7.78c-.49-.64-1.18-1.33-2.05-1.1h0A6.66,6.66,0,0,0,11,11.46c-1.34,1.34.72,3.07,1.6,4a31.18,31.18,0,0,0,2.61,2.4h0A21.81,21.81,0,0,0,17.58,20c1.12.71,3.1.73,2.45-1.12Z" transform="translate(-4.45)" fill="#34abf3"/><path d="M14.89,27.85h0a21.43,21.43,0,0,0-5.47,3.33c-.45.38-.92.89-.73,1.51h0a4.84,4.84,0,0,0,1.41,1.85c1,.92,2.19-.61,2.81-1.28a21.11,21.11,0,0,0,1.65-2h0A15.8,15.8,0,0,0,16,29.54c.48-.83.43-2.26-.88-1.73Z" transform="translate(-4.45)" fill="#34abf3"/><path d="M23.44,26.77h0a9.28,9.28,0,0,0,1.32,2.36c.15.19.36.4.62.33h0a1.94,1.94,0,0,0,.77-.56c.4-.42-.23-.94-.5-1.21s-.52-.49-.79-.72h0a7.43,7.43,0,0,0-.73-.64c-.34-.21-.93-.21-.73.35Z" transform="translate(-4.45)" fill="#34abf3"/><path d="M17.39,34.22h0A12,12,0,0,0,26.48,12l-.38-.15A11.8,11.8,0,0,0,21.55,11h0a11.82,11.82,0,0,0-1.57.1l-.41.06" transform="translate(-4.45)" fill="none" stroke="#074870" stroke-linecap="round" stroke-linejoin="round" stroke-width="2"/><path d="M16.57,12.12h0a12,12,0,0,0-2.26,20.42" transform="translate(-4.45)" fill="none" stroke="#074870" stroke-linecap="round" stroke-linejoin="round" stroke-width="2"/><path d="M29.05,23h0a7.5,7.5,0,0,0-6.95-7.46h-.5" transform="translate(-4.45)" fill="none" stroke="#074870" stroke-linecap="round" stroke-linejoin="round" stroke-width="2"/><path d="M21.55,30.54h0a7.48,7.48,0,0,0,5.73-2.66" transform="translate(-4.45)" fill="none" stroke="#074870" stroke-linecap="round" stroke-linejoin="round" stroke-width="2"/><path d="M20,30.33h0a7.74,7.74,0,0,0,1.59.17" transform="translate(-4.45)" fill="none" stroke="#074870" stroke-linecap="round" stroke-linejoin="round" stroke-width="2"/><path d="M18.45,16.17h0a7.5,7.5,0,0,0-3.71,9.94l0,.06A7.45,7.45,0,0,0,17.1,29" transform="translate(-4.45)" fill="none" stroke="#074870" stroke-linecap="round" stroke-linejoin="round" stroke-width="2"/><circle cx="17.1" cy="23" r="3.27" fill="none" stroke="#074870" stroke-linecap="round" stroke-linejoin="round" stroke-width="2"/><path d="M14.9,37.64h0a16.08,16.08,0,1,0,3.41-30.4" transform="translate(-4.45)" fill="none" stroke="#074870" stroke-linecap="round" stroke-linejoin="round" stroke-width="2"/><path d="M14.83,8.38h0a16.08,16.08,0,0,0-3.06,27.38" transform="translate(-4.45)" fill="none" stroke="#074870" stroke-linecap="round" stroke-linejoin="round" stroke-width="2"/><polyline points="15.78 20 14 16.17 12.12 12.12 10.38 8.38 8.81 5 9.86 1" fill="none" stroke="#074870" stroke-linecap="round" stroke-linejoin="round" stroke-width="2"/><polyline points="9.86 32.52 5.12 38.58 5.7 42.08" fill="none" stroke="#074870" stroke-linecap="round" stroke-linejoin="round" stroke-width="2"/><line x1="12.6" y1="29" x2="9.86" y2="32.52" fill="none" stroke="#074870" stroke-linecap="round" stroke-linejoin="round" stroke-width="2"/><line x1="19.56" y1="25.16" x2="22.82" y2="27.84" fill="none" stroke="#074870" stroke-linecap="round" stroke-linejoin="round" stroke-width="2"/><circle cx="4.7" cy="3" r="1" fill="#074870"/><circle cx="1.12" cy="39.08" r="1" fill="#074870"/></svg>