<svg xmlns="http://www.w3.org/2000/svg" viewBox="0 0 34 34"><title>shield</title><path d="M11.47,16.86s4.47,2.83,9.06,1.64,2.72,1.88,1.22,2.5-13,6.74-15.13,1S4.79,18.22,11.47,16.86Z" fill="#39a0d3"/><path d="M22.25,10.71V11h0a21.22,21.22,0,0,1-.88,2.42h0a41.93,41.93,0,0,1-9.85,3.4h0A65,65,0,0,1,4.71,18h0c.3.78.63,1.55,1,2.3h0a28.48,28.48,0,0,0,2.66,4.27s1.65-.15,4.08-.63h0a45.52,45.52,0,0,0,7-2h0a5.45,5.45,0,0,0,.3,1.12h0a25.9,25.9,0,0,1,1.16,2.51h0a5.78,5.78,0,0,1,.12.57c.25,1.78-.72,3.54-1.78,4.91h0a2.31,2.31,0,0,1-1.4,1h0a1.32,1.32,0,0,1-.78-.14l-.64.63c-.28.25-.57.51-.88.75h0A35.1,35.1,0,0,1,1.69,5.45V.64h0a7.92,7.92,0,0,0,7.88,7.9h0a7.49,7.49,0,0,0,2.21-.33h0a7.87,7.87,0,0,0,4.59-3.6h0a8.59,8.59,0,0,1,1,1h0a3.07,3.07,0,0,1,.2-.5l1,.49h0A10.09,10.09,0,0,1,21.4,7.79h0A3.19,3.19,0,0,1,22.25,10.71Z" fill="#abd9ef"/><path d="M11.47,16.86h0A64.43,64.43,0,0,1,4.71,18h0a28.16,28.16,0,0,1-1.39-4.67h0a20.42,20.42,0,0,1-.49-7.55h0a8.46,8.46,0,0,0,3.32,2l.22,0h0A6.83,6.83,0,0,0,7.25,8h0a12.51,12.51,0,0,0,2.93.1h0a5.55,5.55,0,0,1,1.41,0l.25.05h0a1.47,1.47,0,0,1,.65.35l.15.16h0a2.41,2.41,0,0,1,.19,2.06c-.37,1.72-1,3.39-1.22,5.13A6.94,6.94,0,0,0,11.47,16.86Z" fill="#39a0d3"/><path d="M20.56,21.42h0a8.58,8.58,0,0,0-1.15,1.33h0a7.77,7.77,0,0,1-2,1.79c-.79.47-1.94,1-2.16,2-.3,1.35,1,2.66,1.4,3.88h0a1.52,1.52,0,0,1,0,1.22c-.32.51-1.08.5-1.65.31h0a7.59,7.59,0,0,1-2.67-1.73h0a18.86,18.86,0,0,1-4.48-6.34h0a1.65,1.65,0,0,1-.1-1.51h0A1.67,1.67,0,0,1,9,21.83H9A75.19,75.19,0,0,1,20.56,21.42Z" fill="#39a0d3"/><path d="M15.65,31h0a.14.14,0,0,1,0,.15c-.08.08-.21,0-.31,0h0a21.72,21.72,0,0,1-2.43-1.86h0a30.24,30.24,0,0,1-2.78-2.65h0c-.59-.64-1.16-1.3-1.69-2,0,0,1.65-.15,4.08-.63l.07.19h0a25.88,25.88,0,0,0,1.66,3.68C14.78,28.81,15.81,29.85,15.65,31Z" fill="#39a0d3"/><path d="M17,1h0a7.43,7.43,0,0,1-7.4,7.41h0A7.43,7.43,0,0,1,2.18,1V5.49h0A32.91,32.91,0,0,0,17,33" fill="none" stroke="#2a637f" stroke-linecap="round" stroke-linejoin="round" stroke-width="2"/><path d="M31.8,1.11h0a11.06,11.06,0,0,1-1.55,4.38c-1.37,2.42-4,5.44-9,8h0a41.93,41.93,0,0,1-9.85,3.4h0A63,63,0,0,1,4.71,18" fill="none" stroke="#2a637f" stroke-linecap="round" stroke-linejoin="round" stroke-width="2"/><path d="M31.81,1h0a.14.14,0,0,1,0,.09h0a7.24,7.24,0,0,1-1.56,4.4h0a6.88,6.88,0,0,1-.66.77h0a7.44,7.44,0,0,1-5.22,2.17h0a7.25,7.25,0,0,1-3-.63h0A7.46,7.46,0,0,1,17,1" fill="none" stroke="#2a637f" stroke-linecap="round" stroke-linejoin="round" stroke-width="2"/><path d="M31.73,11.54C31.73,12,23.42,29.48,17,33" fill="none" stroke="#2a637f" stroke-linecap="round" stroke-linejoin="round" stroke-width="2"/><path d="M8.39,24.57s1.65-.15,4.08-.63h0a45.52,45.52,0,0,0,7-2c4.55-1.71,9.26-4.49,11.48-9h0a9.77,9.77,0,0,1,.79-1.46h0" fill="none" stroke="#2a637f" stroke-linecap="round" stroke-linejoin="round" stroke-width="2"/><circle cx="31.81" cy="8.84" r="1" fill="#2a637f"/></svg>