<svg xmlns="http://www.w3.org/2000/svg" viewBox="0 0 35.16 39.22"><title>team</title><path d="M7.32,19.81s4.24-1.5,4.17,10c0,0-.24,5.5-3.24,5.42Z" transform="translate(-2.03)" fill="#a4d9fa"/><path d="M12.06,1.81c-.61,0,.11,3.26.14,3.56h0a12.65,12.65,0,0,1-.13,2.75c-.25,2.34,0,4.71-.42,7-.34,1.67-1.22,3.6-3.24,3.4C4,18.09,8.81,5.76,9.41,6s0-4.17,0-4.17Z" transform="translate(-2.03)" fill="#a4d9fa"/><line x1="4.79" y1="9.84" x2="1" y2="19" fill="none" stroke="#074870" stroke-linecap="round" stroke-linejoin="round" stroke-width="2"/><path d="M8.91,19.67h0a2.11,2.11,0,0,1-2.09-2.09h0V9.84" transform="translate(-2.03)" fill="none" stroke="#074870" stroke-linecap="round" stroke-linejoin="round" stroke-width="2"/><line x1="9.79" y1="7" x2="11.16" y2="7" fill="none" stroke="#074870" stroke-linecap="round" stroke-linejoin="round" stroke-width="2"/><path d="M11.61,1h0a3,3,0,0,0,0,6h0" transform="translate(-2.03)" fill="none" stroke="#074870" stroke-linecap="round" stroke-linejoin="round" stroke-width="2"/><line x1="5.79" y1="34.61" x2="4.79" y2="17.64" fill="none" stroke="#074870" stroke-linecap="round" stroke-linejoin="round" stroke-width="2"/><line x1="14.12" y1="17.58" x2="13.16" y2="34" fill="none" stroke="#074870" stroke-linecap="round" stroke-linejoin="round" stroke-width="2"/><path d="M11.44,27.18v7h0a.43.43,0,0,0,.43.43h2.86a.43.43,0,0,0,.43-.43h0" transform="translate(-2.03)" fill="none" stroke="#074870" stroke-linecap="round" stroke-linejoin="round" stroke-width="2"/><path d="M23.71,19.81s4.24-1.5,4.17,10c0,0-.24,5.5-3.24,5.42Z" transform="translate(-2.03)" fill="#a4d9fa"/><path d="M28.45,1.81c-.61,0,.11,3.26.14,3.56h0a12.65,12.65,0,0,1-.13,2.75c-.25,2.34,0,4.71-.42,7-.34,1.67-1.22,3.6-3.24,3.4-4.4-.43.4-12.76,1-12.56s0-4.17,0-4.17Z" transform="translate(-2.03)" fill="#a4d9fa"/><path d="M28.21,7h1.4a3,3,0,0,1,3,3h0v7.61h0a2.11,2.11,0,0,1-2.09,2.09h0" transform="translate(-2.03)" fill="none" stroke="#074870" stroke-linecap="round" stroke-linejoin="round" stroke-width="2"/><path d="M28,1h0a3,3,0,0,0,0,6" transform="translate(-2.03)" fill="none" stroke="#074870" stroke-linecap="round" stroke-linejoin="round" stroke-width="2"/><line x1="30.24" y1="8.74" x2="34.16" y2="19" fill="none" stroke="#074870" stroke-linecap="round" stroke-linejoin="round" stroke-width="2"/><line x1="30.51" y1="17.58" x2="29.55" y2="34" fill="none" stroke="#074870" stroke-linecap="round" stroke-linejoin="round" stroke-width="2"/><path d="M27.87,26.73v7.45h0a.43.43,0,0,0,.43.43h2.81a.43.43,0,0,0,.43-.43h0" transform="translate(-2.03)" fill="none" stroke="#074870" stroke-linecap="round" stroke-linejoin="round" stroke-width="2"/><path d="M15.32,23.42s4.24-1.5,4.17,10c0,0-.24,5.5-3.24,5.42Z" transform="translate(-2.03)" fill="#a4d9fa"/><path d="M20.06,5.42c-.61,0,.11,3.26.14,3.56h0a12.65,12.65,0,0,1-.13,2.75c-.25,2.34,0,4.71-.42,7-.34,1.67-1.22,3.6-3.24,3.4-4.4-.43.4-12.76,1-12.56s0-4.17,0-4.17Z" transform="translate(-2.03)" fill="#a4d9fa"/><line x1="12.79" y1="13.45" x2="9" y2="22.62" fill="none" stroke="#074870" stroke-linecap="round" stroke-linejoin="round" stroke-width="2"/><path d="M19.82,10.62H21.2a3,3,0,0,1,3,3v7.61h0a2.11,2.11,0,0,1-2.09,2.09h-5.2a2.11,2.11,0,0,1-2.09-2.09h0V13.45" transform="translate(-2.03)" fill="none" stroke="#074870" stroke-linecap="round" stroke-linejoin="round" stroke-width="2"/><path d="M19.61,4.62h0a3,3,0,0,0,0,6" transform="translate(-2.03)" fill="none" stroke="#074870" stroke-linecap="round" stroke-linejoin="round" stroke-width="2"/><line x1="21.85" y1="12.35" x2="25.77" y2="22.62" fill="none" stroke="#074870" stroke-linecap="round" stroke-linejoin="round" stroke-width="2"/><line x1="13.79" y1="38.22" x2="12.79" y2="21.26" fill="none" stroke="#074870" stroke-linecap="round" stroke-linejoin="round" stroke-width="2"/><line x1="22.12" y1="21.19" x2="21.16" y2="37.62" fill="none" stroke="#074870" stroke-linecap="round" stroke-linejoin="round" stroke-width="2"/><path d="M19.44,28.29v9.5h0a.43.43,0,0,0,.43.43h2.86a.43.43,0,0,0,.43-.43h0" transform="translate(-2.03)" fill="none" stroke="#074870" stroke-linecap="round" stroke-linejoin="round" stroke-width="2"/></svg>