<svg xmlns="http://www.w3.org/2000/svg" viewBox="0 0 35.79 42.75"><title>thought</title><path d="M14.65,2.83s3.53.13,2.63,3-5.53,6.88-5.4,13.5,13.6,8,13.6,8,5.94.63,4.61,4-6.84,4-6.84,4,2.92,2.71.88,5.42-8.37,1.58-8.37,1.58V33.89l-4.7-2.56V20.26H4.64S2.79,7.76,14.65,2.83Z" transform="translate(-3.48 0)" fill="#a4d9fa"/><line x1="11.17" y1="24.74" x2="7.58" y2="24.74" fill="none" stroke="#074870" stroke-linecap="round" stroke-linejoin="round" stroke-width="2"/><line x1="7.58" y1="31.33" x2="7.58" y2="31.32" fill="none" stroke="#074870" stroke-linecap="round" stroke-linejoin="round" stroke-width="2"/><path d="M21.42,34.86h0a16.81,16.81,0,0,1-10.36-3.53V20.26H4.64a16.31,16.31,0,0,1-.16-2.21h0A16.78,16.78,0,0,1,16.25,1.76h0a17,17,0,0,1,19.1,25.77h0a7.29,7.29,0,0,0-1.22,4.12v7" transform="translate(-3.48 0)" fill="none" stroke="#074870" stroke-linecap="round" stroke-linejoin="round" stroke-width="2"/><path d="M15.76,41.66V33.89h0A17,17,0,0,0,30.1,32.46" transform="translate(-3.48 0)" fill="none" stroke="#074870" stroke-linecap="round" stroke-linejoin="round" stroke-width="2"/><path d="M10.12,11.69h3.22a2.06,2.06,0,0,1,2.06,2.06h0a2.06,2.06,0,0,1-2.06,2.06" transform="translate(-3.48 0)" fill="none" stroke="#074870" stroke-linecap="round" stroke-linejoin="round" stroke-width="2"/><path d="M23.33,18.5s-2.28-4.58,3.6-5.36l-2,5.41Z" transform="translate(-3.48 0)" fill="#34abf3"/><path d="M26.9,14.15c1.14-.23,1.18.62,1.32,1.48h0a6.51,6.51,0,0,0,1.21,2.8h0a4.68,4.68,0,0,0,.73.87c.27.22.8.31,1,.62h0a.54.54,0,0,1-.08.56h0a1.87,1.87,0,0,1-.85.59h0a3.25,3.25,0,0,1-1.27.2s-3.14-.44-3.79-1.74c-.52-1.06-.1-2.71.31-3.74h0a3.05,3.05,0,0,1,1.1-1.52h0A1.75,1.75,0,0,1,26.9,14.15Z" transform="translate(-3.48 0)" fill="#a4d9fa"/><circle cx="25.76" cy="17.35" r="4.36" fill="none" stroke="#074870" stroke-linecap="round" stroke-linejoin="round" stroke-width="2"/><circle cx="25.76" cy="17.35" r="1.75" fill="#074870"/><rect x="26.23" y="11.07" width="1.93" height="2.48" transform="translate(-6.11 11.11) rotate(-22.05)" fill="#074870"/><rect x="23.26" y="13.99" width="1.93" height="2.48" transform="translate(-2.72 31.6) rotate(-67.05)" fill="#074870"/><rect x="22.95" y="18.42" width="2.48" height="1.93" transform="translate(-8.99 10.5) rotate(-22.05)" fill="#074870"/><rect x="25.88" y="21.4" width="2.48" height="1.93" transform="translate(-7.53 38.62) rotate(-67.05)" fill="#074870"/><path d="M31.9,21.33l.54,1.34h0a.51.51,0,0,1-.27.67h0l-.83.34h0a.51.51,0,0,1-.67-.27h0l-.54-1.34h0a.49.49,0,0,1,0-.47h0a.52.52,0,0,1,.24-.2l.83-.34h0a.55.55,0,0,1,.31,0h0A.5.5,0,0,1,31.9,21.33Z" transform="translate(-3.48 0)" fill="#074870"/><rect x="33.28" y="18.21" width="1.93" height="2.48" transform="translate(-0.5 43.41) rotate(-67.05)" fill="#074870"/><rect x="33.05" y="14.35" width="2.48" height="1.93" transform="translate(-6.72 14) rotate(-22.05)" fill="#074870"/><rect x="30.13" y="11.38" width="2.48" height="1.93" transform="translate(4.29 36.42) rotate(-67.05)" fill="#074870"/><path d="M24.16,18.61h0a3.31,3.31,0,1,1-2.69-6l.2-.08A3.23,3.23,0,0,1,24,12.42" transform="translate(-3.48 0)" fill="none" stroke="#074870" stroke-linecap="round" stroke-linejoin="round" stroke-width="2"/><rect x="20.78" y="10.77" width="1.46" height="1.87" transform="translate(-6.31 9.01) rotate(-22.23)" fill="#074870"/><rect x="18.43" y="13.02" width="1.45" height="1.86" transform="translate(-4.64 26.15) rotate(-67.05)" fill="#074870"/><rect x="18.34" y="16.32" width="1.87" height="1.46" transform="translate(-8.49 8.56) rotate(-22.23)" fill="#074870"/><rect x="20.39" y="18.59" width="1.86" height="1.45" transform="translate(-8.26 31.42) rotate(-67.05)" fill="#074870"/><path d="M30.6,8.54h0a5.22,5.22,0,0,0-5.12.51" transform="translate(-3.48 0)" fill="none" stroke="#074870" stroke-linecap="round" stroke-linejoin="round" stroke-width="2"/><path d="M17.87,20.07h0a4.6,4.6,0,0,0,3.91,2.33" transform="translate(-3.48 0)" fill="none" stroke="#074870" stroke-linecap="round" stroke-linejoin="round" stroke-width="2"/><circle cx="30.77" cy="41.75" r="1" fill="#074870"/></svg>