<svg xmlns="http://www.w3.org/2000/svg" viewBox="0 0 621.68 446.08"><title>CodeWindow-01</title><polyline points="0 446.08 0 45.67 621.68 45.67 621.68 446.08" fill="#f5f8fa"/><rect width="621.68" height="45.67" fill="#414c56"/><path d="M35.68,22.83a8.75,8.75,0,1,1-8.74-8.74A8.74,8.74,0,0,1,35.68,22.83Z" fill="#e1e8ed"/><path d="M68.05,22.83a8.75,8.75,0,1,1-8.75-8.74A8.75,8.75,0,0,1,68.05,22.83Z" fill="#e1e8ed"/><path d="M100.41,22.83a8.75,8.75,0,1,1-8.74-8.74A8.74,8.74,0,0,1,100.41,22.83Z" fill="#e1e8ed"/><rect x="339.07" y="184.78" width="151.1" height="12.84" fill="#4db5cb"/><rect x="35.68" y="65.53" width="86.96" height="12.84" fill="#aab8c2"/><rect x="79.16" y="95.35" width="86.96" height="12.84" fill="#97abc5"/><rect x="122.65" y="125.16" width="86.96" height="12.84" fill="#708baf"/><rect x="122.65" y="154.97" width="127.11" height="12.84" fill="#4db5cb"/><rect x="122.65" y="184.78" width="57.58" height="12.84" fill="#708baf"/><rect x="216.17" y="125.16" width="86.96" height="12.84" fill="#708baf"/><rect x="256.31" y="154.97" width="73.19" height="12.84" fill="#708baf"/><rect x="186.78" y="184.78" width="52.22" height="12.84" fill="#708baf"/><rect x="309.68" y="125.16" width="86.96" height="12.84" fill="#708baf"/><rect x="336.05" y="154.97" width="131.61" height="12.84" fill="#708baf"/><rect x="245.55" y="184.78" width="86.96" height="12.84" fill="#f9d02a"/><rect x="496.72" y="184.78" width="53.59" height="12.84" fill="#708baf"/><rect x="403.2" y="125.16" width="86.96" height="12.84" fill="#fb744f"/><rect x="474.21" y="154.97" width="86.96" height="12.84" fill="#708baf"/><rect x="79.16" y="214.6" width="86.96" height="12.84" fill="#708baf"/><rect x="35.68" y="244.41" width="86.96" height="12.84" fill="#aab8c2"/><rect x="79.16" y="274.22" width="86.96" height="12.84" fill="#97abc5"/><rect x="122.65" y="304.03" width="86.96" height="12.84" fill="#708baf"/><rect x="122.65" y="333.84" width="86.96" height="12.84" fill="#708baf"/><rect x="216.17" y="304.03" width="86.96" height="12.84" fill="#4db5cb"/><rect x="216.17" y="333.84" width="46.82" height="12.84" fill="#fb744f"/><rect x="309.68" y="304.03" width="86.96" height="12.84" fill="#708baf"/><rect x="269.53" y="333.84" width="56.69" height="12.84" fill="#708baf"/><rect x="403.2" y="304.03" width="48.45" height="12.84" fill="#4db5cb"/><rect x="332.78" y="333.84" width="103.05" height="12.84" fill="#f9d02a"/><rect x="458.2" y="304.03" width="125.48" height="12.84" fill="#708baf"/><rect x="442.38" y="333.84" width="72.04" height="12.84" fill="#708baf"/><rect x="79.16" y="363.66" width="86.96" height="12.84" fill="#708baf"/><rect x="173.9" y="95.35" width="120.05" height="12.84" fill="#708baf"/><rect x="173.9" y="214.6" width="85.75" height="12.84" fill="#708baf"/><rect x="301.49" y="95.35" width="102.46" height="12.84" fill="#708baf"/><rect x="267.19" y="214.6" width="102.46" height="12.84" fill="#708baf"/><rect x="173.9" y="274.22" width="120.05" height="12.84" fill="#708baf"/><rect x="173.9" y="363.66" width="120.05" height="12.84" fill="#97abc5"/><rect x="35.68" y="393.47" width="86.96" height="12.84" fill="#aab8c2"/></svg>