<svg xmlns="http://www.w3.org/2000/svg" xmlns:xlink="http://www.w3.org/1999/xlink" viewBox="0 0 1275.54 1235.44"><defs><linearGradient id="a" x1="772.71" y1="1010.48" x2="897.24" y2="1010.48" gradientUnits="userSpaceOnUse"><stop offset="0" stop-color="#0c84cd"/><stop offset="1" stop-color="#414c56"/></linearGradient></defs><title>Umbrella</title><rect x="704.78" y="926.43" width="67.14" height="168.09" fill="#0c84cd"/><rect x="771.92" y="926.43" width="126.07" height="168.09" fill="url(#a)"/><rect x="771.92" y="926.43" width="42.02" height="42.02" fill="#0c84cd"/><rect x="771.92" y="1010.48" width="42.02" height="42.02" fill="#0c84cd"/><rect x="813.94" y="968.46" width="42.02" height="42.02" fill="#0c84cd"/><rect x="813.94" y="1052.5" width="42.02" height="42.02" fill="#0c84cd"/><rect x="855.97" y="1010.48" width="42.02" height="42.02" fill="#0c84cd"/><rect x="897.99" y="926.43" width="42.02" height="42.02" fill="#0c84cd"/><rect x="897.99" y="1052.5" width="42.02" height="42.02" fill="#0c84cd"/><rect x="940.01" y="968.46" width="42.02" height="42.02" fill="#0c84cd"/><rect x="982.03" y="1010.48" width="42.02" height="42.02" fill="#0c84cd"/><rect x="1066.08" y="926.43" width="42.02" height="42.02" fill="#0c84cd"/><rect x="1066.08" y="1052.5" width="42.02" height="42.02" fill="#0c84cd"/><rect x="1150.12" y="968.46" width="42.02" height="42.02" fill="#0c84cd"/><path d="M656.34,872.25a24.25,24.25,0,1,1,48.49,0l-.05,54.15a24.24,24.24,0,1,1-48.48,0Z" fill="#f5f5f5"/><path d="M518.9,1179.42c-15.18,5.07-27.78,2.44-32-10.08-4.25-12.75,5.33-22.19,19.27-26.92,14.34-4.79,27.57-2.55,31.83,10.2C542.42,1165.75,532.41,1174.91,518.9,1179.42ZM510.06,1154c-11.31,3.77-15.78,8.3-14.31,12.71s7.92,5,19.15,1.28c10.92-3.65,15.91-7.93,14.36-12.56C527.87,1151.21,521.59,1150.1,510.06,1154Z" fill="#0c84cd"/><path d="M540.67,1181.66l-.12-.1L529.86,1179l4.16-8.36,14.79,3.69,7.79,6.26L524,1221.14l-9.16-7.37Z" fill="#0c84cd"/><path d="M593.47,1206.5c1.5,15.93-3.92,27.61-17.06,28.85-13.38,1.25-20.4-10.22-21.86-24.87-1.41-15,3.77-27.43,17.16-28.69C585.48,1180.5,592.14,1192.33,593.47,1206.5Zm-26.81,2.84c1.11,11.87,4.51,17.26,9.13,16.82s6.7-6.57,5.59-18.36c-1.08-11.47-4.12-17.29-9-16.84C568,1191.38,565.52,1197.24,566.66,1209.34Z" fill="#0c84cd"/><path d="M598,1181.77l-.11.12L595,1192.47l-8.19-4.48,4.26-14.64,6.56-7.54,39.23,34.13-7.72,8.88Z" fill="#0c84cd"/><path d="M625.92,1130.55c16,.42,26.94,7.19,26.6,20.38-.36,13.44-12.59,19-27.3,18.73-15.12-.39-26.79-7-26.44-20.45C599.14,1135.37,611.68,1130.18,625.92,1130.55Zm-.38,27c11.91.31,17.66-2.42,17.79-7.06s-5.73-7.43-17.57-7.74c-11.51-.3-17.66,2-17.78,6.9C607.86,1154,613.38,1157.19,625.54,1157.51Z" fill="#0c84cd"/><path d="M610.44,1108.71v.16l4.72,9.92-9.12,2-6.4-13.84v-10h52v11.76Z" fill="#0c84cd"/><path d="M625.4,1049.44c16,0,27.12,6.48,27.12,19.68,0,13.44-12.08,19.36-26.8,19.44-15.12,0-27-6.32-27-19.76C598.76,1055,611.16,1049.44,625.4,1049.44Zm.32,27c11.92,0,17.6-2.88,17.6-7.52s-5.92-7.28-17.76-7.28c-11.52,0-17.6,2.48-17.6,7.36C608,1073.36,613.56,1076.4,625.72,1076.4Z" fill="#0c84cd"/><path d="M610.44,1035.92v.16l4.72,9.92-9.12,2-6.4-13.84v-10h52v11.76Z" fill="#0c84cd"/><path d="M625.4,976.64c16,0,27.12,6.48,27.12,19.68,0,13.44-12.08,19.36-26.8,19.44-15.12,0-27-6.32-27-19.76C598.76,982.16,611.16,976.64,625.4,976.64Zm.32,27c11.92,0,17.6-2.88,17.6-7.52s-5.92-7.28-17.76-7.28c-11.52,0-17.6,2.48-17.6,7.36C608,1000.56,613.56,1003.6,625.72,1003.6Z" fill="#0c84cd"/><path d="M610.44,963.12v.16l4.72,9.92-9.12,2-6.4-13.84v-10h52v11.76Z" fill="#0c84cd"/><path d="M625.4,903.85c16,0,27.12,6.48,27.12,19.68,0,13.44-12.08,19.36-26.8,19.44-15.12,0-27-6.32-27-19.76C598.76,909.37,611.16,903.85,625.4,903.85Zm.32,27c11.92,0,17.6-2.88,17.6-7.52S637.4,916,625.56,916c-11.52,0-17.6,2.48-17.6,7.36C608,927.77,613.56,930.81,625.72,930.81Z" fill="#0c84cd"/><path d="M610.44,882.32v.16l4.72,9.92-9.12,2-6.4-13.84v-10h52v11.76Z" fill="#0c84cd"/><path d="M625.4,823c16,0,27.12,6.48,27.12,19.68,0,13.44-12.08,19.36-26.8,19.44-15.12,0-27-6.32-27-19.76C598.76,828.55,611.16,823,625.4,823Zm.32,27c11.92,0,17.6-2.88,17.6-7.52s-5.92-7.28-17.76-7.28c-11.52,0-17.6,2.48-17.6,7.36C608,847,613.56,850,625.72,850Z" fill="#0c84cd"/><path d="M610.44,809.5v.16l4.72,9.92-9.12,2-6.4-13.84v-10h52V809.5Z" fill="#0c84cd"/><path d="M558,1123.17a24.25,24.25,0,1,1,0-48.49l70.37.13a24.25,24.25,0,1,1,0,48.5Z" fill="#f5f5f5"/><path d="M675.46,1123.4a28.92,28.92,0,0,0,29-28.88l.33-168.09a28.72,28.72,0,0,0-29-28.89l-72.63-.29a28.94,28.94,0,0,0-29.08,28.92l-.31,168.07a29,29,0,0,0,28.86,29.07Z" fill="#f5f5f5"/><path d="M558.09,945.57a24.25,24.25,0,0,1,0-48.49l70.38.15a24.24,24.24,0,0,1,0,48.47Z" fill="#f5f5f5"/><path d="M558.06,1004.77a24.24,24.24,0,0,1,0-48.48l70.39.14a24.23,24.23,0,1,1,0,48.45Z" fill="#f5f5f5"/><path d="M558,1064a24.23,24.23,0,1,1,0-48.46l70.39.11a24.25,24.25,0,1,1,0,48.49Z" fill="#f5f5f5"/><path d="M413.32,60.1c0,9.6-3.89,16.28-11.81,16.28s-11.62-7.25-11.67-16.09c0-9.07,3.8-16.17,11.86-16.17C410,44.12,413.32,51.56,413.32,60.1Zm-16.18.19c0,7.16,1.73,10.56,4.51,10.56S406,67.3,406,60.2c0-6.91-1.49-10.56-4.41-10.56C399,49.64,397.14,53,397.14,60.29Z" fill="#fff"/><path d="M426.23,51.13h-.1L420.18,54,419,48.49l8.31-3.84h6v31.2h-7.06Z" fill="#fff"/><path d="M466.6,60.1c0,9.6-3.89,16.28-11.81,16.28-8.07,0-11.62-7.25-11.67-16.09,0-9.07,3.8-16.17,11.86-16.17C463.29,44.12,466.6,51.56,466.6,60.1Zm-16.18.19c0,7.16,1.73,10.56,4.51,10.56s4.37-3.55,4.37-10.65c0-6.91-1.49-10.56-4.42-10.56C452.24,49.64,450.42,53,450.42,60.29Z" fill="#fff"/><path d="M479.51,51.13h-.1l-6,2.83-1.2-5.47,8.3-3.84h6v31.2h-7.05Z" fill="#fff"/><path d="M519.88,60.1c0,9.6-3.89,16.28-11.81,16.28s-11.62-7.25-11.67-16.09c0-9.07,3.8-16.17,11.86-16.17C516.56,44.12,519.88,51.56,519.88,60.1Zm-16.18.19c0,7.16,1.73,10.56,4.51,10.56s4.37-3.55,4.37-10.65c0-6.91-1.49-10.56-4.42-10.56C505.52,49.64,503.7,53,503.7,60.29Z" fill="#fff"/><path d="M532.79,51.13h-.1l-6,2.83-1.2-5.47,8.3-3.84h6v31.2h-7.05Z" fill="#fff"/><path d="M573.16,60.1c0,9.6-3.89,16.28-11.81,16.28-8.07,0-11.62-7.25-11.67-16.09,0-9.07,3.79-16.17,11.86-16.17C569.84,44.12,573.16,51.56,573.16,60.1ZM557,60.29c0,7.16,1.73,10.56,4.51,10.56s4.37-3.55,4.37-10.65c0-6.91-1.49-10.56-4.42-10.56C558.8,49.64,557,53,557,60.29Z" fill="#fff"/><path d="M586.07,51.13H586L580,54l-1.2-5.47,8.3-3.84h6v31.2h-7Z" fill="#fff"/><path d="M626.44,60.1c0,9.6-3.89,16.28-11.81,16.28-8.07,0-11.62-7.25-11.67-16.09,0-9.07,3.79-16.17,11.86-16.17C623.12,44.12,626.44,51.56,626.44,60.1Zm-16.18.19c0,7.16,1.73,10.56,4.51,10.56s4.37-3.55,4.37-10.65c0-6.91-1.49-10.56-4.42-10.56C612.08,49.64,610.26,53,610.26,60.29Z" fill="#fff"/><path d="M639.35,51.13h-.1l-6,2.83-1.2-5.47,8.3-3.84h6v31.2h-7Z" fill="#fff"/><path d="M679.71,60.1c0,9.6-3.88,16.28-11.8,16.28s-11.62-7.25-11.67-16.09c0-9.07,3.79-16.17,11.86-16.17C676.4,44.12,679.71,51.56,679.71,60.1Zm-16.17.19c0,7.16,1.73,10.56,4.51,10.56s4.37-3.55,4.37-10.65c0-6.91-1.49-10.56-4.42-10.56C665.36,49.64,663.54,53,663.54,60.29Z" fill="#fff"/><path d="M692.63,51.13h-.1L686.58,54l-1.2-5.47,8.3-3.84h6v31.2h-7Z" fill="#fff"/><path d="M733,60.1c0,9.6-3.88,16.28-11.8,16.28-8.07,0-11.62-7.25-11.67-16.09,0-9.07,3.79-16.17,11.86-16.17C729.68,44.12,733,51.56,733,60.1Zm-16.17.19c0,7.16,1.73,10.56,4.51,10.56s4.37-3.55,4.37-10.65c0-6.91-1.49-10.56-4.42-10.56C718.64,49.64,716.82,53,716.82,60.29Z" fill="#fff"/><path d="M745.9,51.13h-.09L739.86,54l-1.2-5.47,8.3-3.84h6v31.2H745.9Z" fill="#fff"/><path d="M786.27,60.1c0,9.6-3.88,16.28-11.81,16.28s-11.61-7.25-11.66-16.09c0-9.07,3.79-16.17,11.86-16.17C783,44.12,786.27,51.56,786.27,60.1Zm-16.17.19c0,7.16,1.72,10.56,4.51,10.56S779,67.3,779,60.2c0-6.91-1.49-10.56-4.42-10.56C771.92,49.64,770.1,53,770.1,60.29Z" fill="#fff"/><path d="M799.18,51.13h-.09l-6,2.83-1.2-5.47,8.3-3.84h6v31.2h-7.06Z" fill="#fff"/><path d="M839.55,60.1c0,9.6-3.89,16.28-11.81,16.28s-11.61-7.25-11.66-16.09c0-9.07,3.79-16.17,11.86-16.17C836.24,44.12,839.55,51.56,839.55,60.1Zm-16.17.19c0,7.16,1.72,10.56,4.51,10.56s4.37-3.55,4.37-10.65c0-6.91-1.49-10.56-4.42-10.56C825.2,49.64,823.38,53,823.38,60.29Z" fill="#fff"/><path d="M852.46,51.13h-.09l-6,2.83-1.21-5.47,8.31-3.84h6v31.2h-7.06Z" fill="#fff"/><path d="M892.83,60.1c0,9.6-3.89,16.28-11.81,16.28s-11.61-7.25-11.66-16.09c0-9.07,3.79-16.17,11.85-16.17C889.52,44.12,892.83,51.56,892.83,60.1Zm-16.18.19c0,7.16,1.73,10.56,4.52,10.56s4.37-3.55,4.37-10.65c0-6.91-1.49-10.56-4.42-10.56C878.48,49.64,876.65,53,876.65,60.29Z" fill="#fff"/><path d="M305.55,104.22c0,9.6-3.88,16.27-11.8,16.27s-11.62-7.25-11.67-16.08c0-9.07,3.79-16.18,11.86-16.18C302.24,88.23,305.55,95.67,305.55,104.22Zm-16.17.19c0,7.15,1.73,10.56,4.51,10.56s4.37-3.55,4.37-10.66c0-6.91-1.49-10.56-4.42-10.56C291.2,93.75,289.38,97.11,289.38,104.41Z" fill="#fff"/><path d="M318.47,95.24h-.1l-5.95,2.83-1.2-5.47,8.3-3.84h6V120h-7Z" fill="#fff"/><path d="M358.83,104.22c0,9.6-3.88,16.27-11.81,16.27s-11.61-7.25-11.66-16.08c0-9.07,3.79-16.18,11.86-16.18C355.52,88.23,358.83,95.67,358.83,104.22Zm-16.17.19c0,7.15,1.72,10.56,4.51,10.56s4.37-3.55,4.37-10.66c0-6.91-1.49-10.56-4.42-10.56C344.48,93.75,342.66,97.11,342.66,104.41Z" fill="#fff"/><path d="M371.74,95.24h-.09l-5.95,2.83-1.2-5.47,8.3-3.84h6V120h-7.06Z" fill="#fff"/><path d="M412.11,104.22c0,9.6-3.88,16.27-11.81,16.27s-11.61-7.25-11.66-16.08c0-9.07,3.79-16.18,11.86-16.18C408.8,88.23,412.11,95.67,412.11,104.22Zm-16.17.19c0,7.15,1.72,10.56,4.51,10.56s4.37-3.55,4.37-10.66c0-6.91-1.49-10.56-4.42-10.56C397.76,93.75,395.94,97.11,395.94,104.41Z" fill="#fff"/><path d="M425,95.24h-.09L419,98.07l-1.2-5.47,8.3-3.84h6V120H425Z" fill="#fff"/><path d="M465.39,104.22c0,9.6-3.89,16.27-11.81,16.27s-11.61-7.25-11.66-16.08c0-9.07,3.79-16.18,11.86-16.18C462.08,88.23,465.39,95.67,465.39,104.22Zm-16.17.19c0,7.15,1.72,10.56,4.51,10.56s4.37-3.55,4.37-10.66c0-6.91-1.49-10.56-4.42-10.56C451,93.75,449.22,97.11,449.22,104.41Z" fill="#fff"/><path d="M478.3,95.24h-.09l-6,2.83-1.2-5.47,8.31-3.84h6V120H478.3Z" fill="#fff"/><path d="M518.67,104.22c0,9.6-3.89,16.27-11.81,16.27s-11.61-7.25-11.66-16.08c0-9.07,3.79-16.18,11.85-16.18C515.36,88.23,518.67,95.67,518.67,104.22Zm-16.18.19c0,7.15,1.73,10.56,4.52,10.56s4.37-3.55,4.37-10.66c0-6.91-1.49-10.56-4.42-10.56C504.32,93.75,502.49,97.11,502.49,104.41Z" fill="#fff"/><path d="M531.58,95.24h-.09l-6,2.83-1.2-5.47,8.31-3.84h6V120h-7.06Z" fill="#fff"/><path d="M572,104.22c0,9.6-3.89,16.27-11.81,16.27s-11.61-7.25-11.66-16.08c0-9.07,3.79-16.18,11.85-16.18C568.64,88.23,572,95.67,572,104.22Zm-16.18.19c0,7.15,1.73,10.56,4.52,10.56s4.36-3.55,4.36-10.66c0-6.91-1.48-10.56-4.41-10.56C557.6,93.75,555.77,97.11,555.77,104.41Z" fill="#fff"/><path d="M584.86,95.24h-.09l-6,2.83-1.2-5.47,8.31-3.84h6V120h-7.06Z" fill="#fff"/><path d="M625.23,104.22c0,9.6-3.89,16.27-11.81,16.27s-11.62-7.25-11.66-16.08c0-9.07,3.79-16.18,11.85-16.18C621.92,88.23,625.23,95.67,625.23,104.22Zm-16.18.19c0,7.15,1.73,10.56,4.52,10.56s4.36-3.55,4.36-10.66c0-6.91-1.48-10.56-4.41-10.56C610.88,93.75,609.05,97.11,609.05,104.41Z" fill="#fff"/><path d="M638.14,95.24h-.09l-6,2.83-1.2-5.47,8.31-3.84h6V120h-7.06Z" fill="#fff"/><path d="M678.51,104.22c0,9.6-3.89,16.27-11.81,16.27s-11.62-7.25-11.66-16.08c0-9.07,3.79-16.18,11.85-16.18C675.2,88.23,678.51,95.67,678.51,104.22Zm-16.18.19c0,7.15,1.73,10.56,4.51,10.56s4.37-3.55,4.37-10.66c0-6.91-1.48-10.56-4.41-10.56C664.16,93.75,662.33,97.11,662.33,104.41Z" fill="#fff"/><path d="M691.42,95.24h-.1l-6,2.83-1.2-5.47,8.31-3.84h6V120h-7.06Z" fill="#fff"/><path d="M731.79,104.22c0,9.6-3.89,16.27-11.81,16.27s-11.62-7.25-11.66-16.08c0-9.07,3.79-16.18,11.85-16.18C728.48,88.23,731.79,95.67,731.79,104.22Zm-16.18.19c0,7.15,1.73,10.56,4.51,10.56s4.37-3.55,4.37-10.66c0-6.91-1.49-10.56-4.41-10.56C717.44,93.75,715.61,97.11,715.61,104.41Z" fill="#fff"/><path d="M744.7,95.24h-.1l-6,2.83-1.2-5.47,8.31-3.84h6V120H744.7Z" fill="#fff"/><path d="M785.07,104.22c0,9.6-3.89,16.27-11.81,16.27s-11.62-7.25-11.67-16.08c0-9.07,3.8-16.18,11.86-16.18C781.76,88.23,785.07,95.67,785.07,104.22Zm-16.18.19c0,7.15,1.73,10.56,4.51,10.56s4.37-3.55,4.37-10.66c0-6.91-1.49-10.56-4.41-10.56C770.71,93.75,768.89,97.11,768.89,104.41Z" fill="#fff"/><path d="M798,95.24h-.1l-6,2.83-1.2-5.47L799,88.76h6V120H798Z" fill="#fff"/><path d="M838.35,104.22c0,9.6-3.89,16.27-11.81,16.27s-11.62-7.25-11.67-16.08c0-9.07,3.8-16.18,11.86-16.18C835,88.23,838.35,95.67,838.35,104.22Zm-16.18.19c0,7.15,1.73,10.56,4.51,10.56s4.37-3.55,4.37-10.66c0-6.91-1.49-10.56-4.42-10.56C824,93.75,822.17,97.11,822.17,104.41Z" fill="#fff"/><path d="M851.26,95.24h-.1l-5.95,2.83L844,92.6l8.3-3.84h6V120h-7.06Z" fill="#fff"/><path d="M891.63,104.22c0,9.6-3.89,16.27-11.81,16.27-8.07,0-11.62-7.25-11.67-16.08,0-9.07,3.8-16.18,11.86-16.18C888.32,88.23,891.63,95.67,891.63,104.22Zm-16.18.19c0,7.15,1.73,10.56,4.51,10.56s4.37-3.55,4.37-10.66c0-6.91-1.49-10.56-4.42-10.56C877.27,93.75,875.45,97.11,875.45,104.41Z" fill="#fff"/><path d="M904.54,95.24h-.1l-6,2.83-1.2-5.47,8.3-3.84h6V120h-7.05Z" fill="#fff"/><path d="M944.91,104.22c0,9.6-3.89,16.27-11.81,16.27-8.07,0-11.62-7.25-11.67-16.08,0-9.07,3.79-16.18,11.86-16.18C941.59,88.23,944.91,95.67,944.91,104.22Zm-16.18.19c0,7.15,1.73,10.56,4.51,10.56s4.37-3.55,4.37-10.66c0-6.91-1.49-10.56-4.42-10.56C930.55,93.75,928.73,97.11,928.73,104.41Z" fill="#fff"/><path d="M957.82,95.24h-.1l-6,2.83-1.2-5.47,8.3-3.84h6V120h-7Z" fill="#fff"/><path d="M998.19,104.22c0,9.6-3.89,16.27-11.81,16.27-8.07,0-11.62-7.25-11.67-16.08,0-9.07,3.79-16.18,11.86-16.18C994.87,88.23,998.19,95.67,998.19,104.22Zm-16.18.19c0,7.15,1.73,10.56,4.51,10.56s4.37-3.55,4.37-10.66c0-6.91-1.49-10.56-4.42-10.56C983.83,93.75,982,97.11,982,104.41Z" fill="#fff"/><path d="M225.55,148.34c0,9.6-3.88,16.27-11.8,16.27-8.07,0-11.62-7.25-11.67-16.08,0-9.07,3.79-16.18,11.86-16.18C222.24,132.35,225.55,139.79,225.55,148.34Zm-16.17.19c0,7.15,1.73,10.56,4.51,10.56s4.37-3.55,4.37-10.66c0-6.91-1.49-10.56-4.42-10.56C211.2,137.87,209.38,141.23,209.38,148.53Z" fill="#fff"/><path d="M238.47,139.36h-.1l-6,2.83-1.2-5.47,8.3-3.84h6v31.2h-7.05Z" fill="#fff"/><path d="M278.83,148.34c0,9.6-3.88,16.27-11.81,16.27s-11.61-7.25-11.66-16.08c0-9.07,3.79-16.18,11.86-16.18C275.52,132.35,278.83,139.79,278.83,148.34Zm-16.17.19c0,7.15,1.72,10.56,4.51,10.56s4.37-3.55,4.37-10.66c0-6.91-1.49-10.56-4.42-10.56C264.48,137.87,262.66,141.23,262.66,148.53Z" fill="#fff"/><path d="M291.74,139.36h-.09l-5.95,2.83-1.2-5.47,8.3-3.84h6v31.2h-7.06Z" fill="#fff"/><path d="M332.11,148.34c0,9.6-3.88,16.27-11.81,16.27s-11.61-7.25-11.66-16.08c0-9.07,3.79-16.18,11.86-16.18C328.8,132.35,332.11,139.79,332.11,148.34Zm-16.17.19c0,7.15,1.72,10.56,4.51,10.56s4.37-3.55,4.37-10.66c0-6.91-1.49-10.56-4.42-10.56C317.76,137.87,315.94,141.23,315.94,148.53Z" fill="#fff"/><path d="M345,139.36h-.09L339,142.19l-1.2-5.47,8.3-3.84h6v31.2H345Z" fill="#fff"/><path d="M385.39,148.34c0,9.6-3.89,16.27-11.81,16.27s-11.61-7.25-11.66-16.08c0-9.07,3.79-16.18,11.86-16.18C382.08,132.35,385.39,139.79,385.39,148.34Zm-16.17.19c0,7.15,1.72,10.56,4.51,10.56s4.37-3.55,4.37-10.66c0-6.91-1.49-10.56-4.42-10.56C371,137.87,369.22,141.23,369.22,148.53Z" fill="#fff"/><path d="M398.3,139.36h-.09l-6,2.83-1.2-5.47,8.31-3.84h6v31.2H398.3Z" fill="#fff"/><path d="M438.67,148.34c0,9.6-3.89,16.27-11.81,16.27s-11.61-7.25-11.66-16.08c0-9.07,3.79-16.18,11.85-16.18C435.36,132.35,438.67,139.79,438.67,148.34Zm-16.18.19c0,7.15,1.73,10.56,4.52,10.56s4.37-3.55,4.37-10.66c0-6.91-1.49-10.56-4.42-10.56C424.32,137.87,422.49,141.23,422.49,148.53Z" fill="#fff"/><path d="M451.58,139.36h-.09l-6,2.83-1.2-5.47,8.31-3.84h6v31.2h-7.06Z" fill="#fff"/><path d="M492,148.34c0,9.6-3.89,16.27-11.81,16.27s-11.61-7.25-11.66-16.08c0-9.07,3.79-16.18,11.85-16.18C488.64,132.35,492,139.79,492,148.34Zm-16.18.19c0,7.15,1.73,10.56,4.52,10.56s4.36-3.55,4.36-10.66c0-6.91-1.48-10.56-4.41-10.56C477.6,137.87,475.77,141.23,475.77,148.53Z" fill="#fff"/><path d="M504.86,139.36h-.09l-6,2.83-1.2-5.47,8.31-3.84h6v31.2h-7.06Z" fill="#fff"/><path d="M545.23,148.34c0,9.6-3.89,16.27-11.81,16.27s-11.62-7.25-11.66-16.08c0-9.07,3.79-16.18,11.85-16.18C541.92,132.35,545.23,139.79,545.23,148.34Zm-16.18.19c0,7.15,1.73,10.56,4.52,10.56s4.36-3.55,4.36-10.66c0-6.91-1.48-10.56-4.41-10.56C530.88,137.87,529.05,141.23,529.05,148.53Z" fill="#fff"/><path d="M558.14,139.36h-.09l-6,2.83-1.2-5.47,8.31-3.84h6v31.2h-7.06Z" fill="#fff"/><path d="M598.51,148.34c0,9.6-3.89,16.27-11.81,16.27s-11.62-7.25-11.66-16.08c0-9.07,3.79-16.18,11.85-16.18C595.2,132.35,598.51,139.79,598.51,148.34Zm-16.18.19c0,7.15,1.73,10.56,4.51,10.56s4.37-3.55,4.37-10.66c0-6.91-1.48-10.56-4.41-10.56C584.16,137.87,582.33,141.23,582.33,148.53Z" fill="#fff"/><path d="M611.42,139.36h-.1l-6,2.83-1.2-5.47,8.31-3.84h6v31.2h-7.06Z" fill="#fff"/><path d="M651.79,148.34c0,9.6-3.89,16.27-11.81,16.27s-11.62-7.25-11.66-16.08c0-9.07,3.79-16.18,11.85-16.18C648.48,132.35,651.79,139.79,651.79,148.34Zm-16.18.19c0,7.15,1.73,10.56,4.51,10.56s4.37-3.55,4.37-10.66c0-6.91-1.49-10.56-4.41-10.56C637.44,137.87,635.61,141.23,635.61,148.53Z" fill="#fff"/><path d="M664.7,139.36h-.1l-6,2.83-1.2-5.47,8.31-3.84h6v31.2H664.7Z" fill="#fff"/><path d="M705.07,148.34c0,9.6-3.89,16.27-11.81,16.27s-11.62-7.25-11.67-16.08c0-9.07,3.8-16.18,11.86-16.18C701.76,132.35,705.07,139.79,705.07,148.34Zm-16.18.19c0,7.15,1.73,10.56,4.51,10.56s4.37-3.55,4.37-10.66c0-6.91-1.49-10.56-4.41-10.56C690.71,137.87,688.89,141.23,688.89,148.53Z" fill="#fff"/><path d="M718,139.36h-.1l-6,2.83-1.2-5.47,8.31-3.84h6v31.2H718Z" fill="#fff"/><path d="M758.35,148.34c0,9.6-3.89,16.27-11.81,16.27s-11.62-7.25-11.67-16.08c0-9.07,3.8-16.18,11.86-16.18C755,132.35,758.35,139.79,758.35,148.34Zm-16.18.19c0,7.15,1.73,10.56,4.51,10.56s4.37-3.55,4.37-10.66c0-6.91-1.49-10.56-4.42-10.56C744,137.87,742.17,141.23,742.17,148.53Z" fill="#fff"/><path d="M771.26,139.36h-.1l-5.95,2.83-1.2-5.47,8.3-3.84h6v31.2h-7.06Z" fill="#fff"/><path d="M811.63,148.34c0,9.6-3.89,16.27-11.81,16.27-8.07,0-11.62-7.25-11.67-16.08,0-9.07,3.8-16.18,11.86-16.18C808.32,132.35,811.63,139.79,811.63,148.34Zm-16.18.19c0,7.15,1.73,10.56,4.51,10.56s4.37-3.55,4.37-10.66c0-6.91-1.49-10.56-4.42-10.56C797.27,137.87,795.45,141.23,795.45,148.53Z" fill="#fff"/><path d="M824.54,139.36h-.1l-6,2.83-1.2-5.47,8.3-3.84h6v31.2h-7.05Z" fill="#fff"/><path d="M864.91,148.34c0,9.6-3.89,16.27-11.81,16.27-8.07,0-11.62-7.25-11.67-16.08,0-9.07,3.79-16.18,11.86-16.18C861.59,132.35,864.91,139.79,864.91,148.34Zm-16.18.19c0,7.15,1.73,10.56,4.51,10.56s4.37-3.55,4.37-10.66c0-6.91-1.49-10.56-4.42-10.56C850.55,137.87,848.73,141.23,848.73,148.53Z" fill="#fff"/><path d="M877.82,139.36h-.1l-6,2.83-1.2-5.47,8.3-3.84h6v31.2h-7Z" fill="#fff"/><path d="M918.19,148.34c0,9.6-3.89,16.27-11.81,16.27-8.07,0-11.62-7.25-11.67-16.08,0-9.07,3.79-16.18,11.86-16.18C914.87,132.35,918.19,139.79,918.19,148.34Zm-16.18.19c0,7.15,1.73,10.56,4.51,10.56s4.37-3.55,4.37-10.66c0-6.91-1.49-10.56-4.42-10.56C903.83,137.87,902,141.23,902,148.53Z" fill="#fff"/><path d="M931.1,139.36H931l-6,2.83-1.2-5.47,8.3-3.84h6v31.2h-7Z" fill="#fff"/><path d="M971.46,148.34c0,9.6-3.88,16.27-11.8,16.27S948,157.36,948,148.53c0-9.07,3.79-16.18,11.86-16.18C968.15,132.35,971.46,139.79,971.46,148.34Zm-16.17.19c0,7.15,1.73,10.56,4.51,10.56s4.37-3.55,4.37-10.66c0-6.91-1.49-10.56-4.42-10.56C957.11,137.87,955.29,141.23,955.29,148.53Z" fill="#fff"/><path d="M984.38,139.36h-.1l-5.95,2.83-1.2-5.47,8.3-3.84h6v31.2h-7Z" fill="#fff"/><path d="M1024.74,148.34c0,9.6-3.88,16.27-11.8,16.27-8.07,0-11.62-7.25-11.67-16.08,0-9.07,3.79-16.18,11.86-16.18C1021.43,132.35,1024.74,139.79,1024.74,148.34Zm-16.17.19c0,7.15,1.73,10.56,4.51,10.56s4.37-3.55,4.37-10.66c0-6.91-1.49-10.56-4.42-10.56C1010.39,137.87,1008.57,141.23,1008.57,148.53Z" fill="#fff"/><path d="M1037.65,139.36h-.09l-6,2.83-1.2-5.47,8.3-3.84h6v31.2h-7.06Z" fill="#fff"/><path d="M1078,148.34c0,9.6-3.89,16.27-11.81,16.27s-11.61-7.25-11.66-16.08c0-9.07,3.79-16.18,11.86-16.18C1074.71,132.35,1078,139.79,1078,148.34Zm-16.17.19c0,7.15,1.72,10.56,4.51,10.56s4.37-3.55,4.37-10.66c0-6.91-1.49-10.56-4.42-10.56C1063.67,137.87,1061.85,141.23,1061.85,148.53Z" fill="#fff"/><path d="M129.83,183.48h-.1l-5.95,2.83-1.2-5.47,8.3-3.84h6v31.2h-7Z" fill="#fff"/><path d="M170.19,192.45c0,9.6-3.88,16.28-11.8,16.28s-11.62-7.25-11.67-16.08c0-9.08,3.79-16.18,11.86-16.18C166.88,176.47,170.19,183.91,170.19,192.45Zm-16.17.2c0,7.15,1.73,10.56,4.51,10.56s4.37-3.56,4.37-10.66c0-6.91-1.49-10.56-4.42-10.56C155.84,182,154,185.35,154,192.65Z" fill="#fff"/><path d="M183.1,183.48H183l-5.95,2.83-1.2-5.47,8.3-3.84h6v31.2H183.1Z" fill="#fff"/><path d="M223.47,192.45c0,9.6-3.88,16.28-11.81,16.28s-11.61-7.25-11.66-16.08c0-9.08,3.79-16.18,11.86-16.18C220.16,176.47,223.47,183.91,223.47,192.45Zm-16.17.2c0,7.15,1.72,10.56,4.51,10.56s4.37-3.56,4.37-10.66c0-6.91-1.49-10.56-4.42-10.56C209.12,182,207.3,185.35,207.3,192.65Z" fill="#fff"/><path d="M236.38,183.48h-.09l-5.95,2.83-1.2-5.47,8.3-3.84h6v31.2h-7.06Z" fill="#fff"/><path d="M276.75,192.45c0,9.6-3.89,16.28-11.81,16.28s-11.61-7.25-11.66-16.08c0-9.08,3.79-16.18,11.86-16.18C273.44,176.47,276.75,183.91,276.75,192.45Zm-16.17.2c0,7.15,1.72,10.56,4.51,10.56s4.37-3.56,4.37-10.66c0-6.91-1.49-10.56-4.42-10.56C262.4,182,260.58,185.35,260.58,192.65Z" fill="#fff"/><path d="M289.66,183.48h-.09l-5.95,2.83-1.2-5.47,8.3-3.84h6v31.2h-7.06Z" fill="#fff"/><path d="M330,192.45c0,9.6-3.89,16.28-11.81,16.28s-11.61-7.25-11.66-16.08c0-9.08,3.79-16.18,11.86-16.18C326.72,176.47,330,183.91,330,192.45Zm-16.17.2c0,7.15,1.72,10.56,4.51,10.56s4.37-3.56,4.37-10.66c0-6.91-1.49-10.56-4.42-10.56C315.68,182,313.86,185.35,313.86,192.65Z" fill="#fff"/><path d="M342.94,183.48h-.09l-6,2.83-1.2-5.47L344,177h6v31.2h-7.06Z" fill="#fff"/><path d="M383.31,192.45c0,9.6-3.89,16.28-11.81,16.28s-11.61-7.25-11.66-16.08c0-9.08,3.79-16.18,11.85-16.18C380,176.47,383.31,183.91,383.31,192.45Zm-16.18.2c0,7.15,1.73,10.56,4.52,10.56s4.36-3.56,4.36-10.66c0-6.91-1.48-10.56-4.41-10.56C369,182,367.13,185.35,367.13,192.65Z" fill="#fff"/><path d="M396.22,183.48h-.09l-6,2.83-1.2-5.47,8.31-3.84h6v31.2h-7.06Z" fill="#fff"/><path d="M436.59,192.45c0,9.6-3.89,16.28-11.81,16.28s-11.61-7.25-11.66-16.08c0-9.08,3.79-16.18,11.85-16.18C433.28,176.47,436.59,183.91,436.59,192.45Zm-16.18.2c0,7.15,1.73,10.56,4.52,10.56s4.36-3.56,4.36-10.66c0-6.91-1.48-10.56-4.41-10.56C422.24,182,420.41,185.35,420.41,192.65Z" fill="#fff"/><path d="M449.5,183.48h-.09l-6,2.83-1.2-5.47,8.31-3.84h6v31.2H449.5Z" fill="#fff"/><path d="M489.87,192.45c0,9.6-3.89,16.28-11.81,16.28s-11.62-7.25-11.66-16.08c0-9.08,3.79-16.18,11.85-16.18C486.56,176.47,489.87,183.91,489.87,192.45Zm-16.18.2c0,7.15,1.73,10.56,4.52,10.56s4.36-3.56,4.36-10.66c0-6.91-1.48-10.56-4.41-10.56C475.52,182,473.69,185.35,473.69,192.65Z" fill="#fff"/><path d="M502.78,183.48h-.1l-5.95,2.83-1.2-5.47,8.31-3.84h6v31.2h-7.06Z" fill="#fff"/><path d="M543.15,192.45c0,9.6-3.89,16.28-11.81,16.28s-11.62-7.25-11.66-16.08c0-9.08,3.79-16.18,11.85-16.18C539.84,176.47,543.15,183.91,543.15,192.45Zm-16.18.2c0,7.15,1.73,10.56,4.51,10.56s4.37-3.56,4.37-10.66c0-6.91-1.49-10.56-4.41-10.56C528.8,182,527,185.35,527,192.65Z" fill="#fff"/><path d="M556.06,183.48H556l-6,2.83-1.2-5.47,8.31-3.84h6v31.2h-7.06Z" fill="#fff"/><path d="M596.43,192.45c0,9.6-3.89,16.28-11.81,16.28S573,201.48,573,192.65c0-9.08,3.79-16.18,11.85-16.18C593.12,176.47,596.43,183.91,596.43,192.45Zm-16.18.2c0,7.15,1.73,10.56,4.51,10.56s4.37-3.56,4.37-10.66c0-6.91-1.49-10.56-4.41-10.56C582.08,182,580.25,185.35,580.25,192.65Z" fill="#fff"/><path d="M609.34,183.48h-.1l-6,2.83-1.2-5.47L610.4,177h6v31.2h-7.06Z" fill="#fff"/><path d="M649.71,192.45c0,9.6-3.89,16.28-11.81,16.28s-11.62-7.25-11.67-16.08c0-9.08,3.8-16.18,11.86-16.18C646.4,176.47,649.71,183.91,649.71,192.45Zm-16.18.2c0,7.15,1.73,10.56,4.51,10.56s4.37-3.56,4.37-10.66c0-6.91-1.49-10.56-4.41-10.56C635.35,182,633.53,185.35,633.53,192.65Z" fill="#fff"/><path d="M662.62,183.48h-.1l-5.95,2.83-1.2-5.47,8.3-3.84h6v31.2h-7Z" fill="#fff"/><path d="M703,192.45c0,9.6-3.89,16.28-11.81,16.28s-11.62-7.25-11.67-16.08c0-9.08,3.8-16.18,11.86-16.18C699.68,176.47,703,183.91,703,192.45Zm-16.18.2c0,7.15,1.73,10.56,4.51,10.56s4.37-3.56,4.37-10.66c0-6.91-1.49-10.56-4.42-10.56C688.63,182,686.81,185.35,686.81,192.65Z" fill="#fff"/><path d="M715.9,183.48h-.1l-5.95,2.83-1.2-5.47L717,177h6v31.2H715.9Z" fill="#fff"/><path d="M756.27,192.45c0,9.6-3.89,16.28-11.81,16.28-8.07,0-11.62-7.25-11.67-16.08,0-9.08,3.8-16.18,11.86-16.18C753,176.47,756.27,183.91,756.27,192.45Zm-16.18.2c0,7.15,1.73,10.56,4.51,10.56s4.37-3.56,4.37-10.66c0-6.91-1.49-10.56-4.42-10.56C741.91,182,740.09,185.35,740.09,192.65Z" fill="#fff"/><path d="M769.18,183.48h-.1l-6,2.83-1.2-5.47,8.3-3.84h6v31.2h-7.05Z" fill="#fff"/><path d="M809.55,192.45c0,9.6-3.89,16.28-11.81,16.28-8.07,0-11.62-7.25-11.67-16.08,0-9.08,3.79-16.18,11.86-16.18C806.23,176.47,809.55,183.91,809.55,192.45Zm-16.18.2c0,7.15,1.73,10.56,4.51,10.56s4.37-3.56,4.37-10.66c0-6.91-1.49-10.56-4.42-10.56C795.19,182,793.37,185.35,793.37,192.65Z" fill="#fff"/><path d="M822.46,183.48h-.1l-6,2.83-1.2-5.47,8.3-3.84h6v31.2h-7Z" fill="#fff"/><path d="M862.83,192.45c0,9.6-3.89,16.28-11.81,16.28s-11.62-7.25-11.67-16.08c0-9.08,3.79-16.18,11.86-16.18C859.51,176.47,862.83,183.91,862.83,192.45Zm-16.18.2c0,7.15,1.73,10.56,4.51,10.56s4.37-3.56,4.37-10.66c0-6.91-1.49-10.56-4.42-10.56C848.47,182,846.65,185.35,846.65,192.65Z" fill="#fff"/><path d="M875.74,183.48h-.1l-5.95,2.83-1.2-5.47,8.3-3.84h6v31.2h-7Z" fill="#fff"/><path d="M916.1,192.45c0,9.6-3.88,16.28-11.8,16.28s-11.62-7.25-11.67-16.08c0-9.08,3.79-16.18,11.86-16.18C912.79,176.47,916.1,183.91,916.1,192.45Zm-16.17.2c0,7.15,1.73,10.56,4.51,10.56s4.37-3.56,4.37-10.66c0-6.91-1.49-10.56-4.42-10.56C901.75,182,899.93,185.35,899.93,192.65Z" fill="#fff"/><path d="M929,183.48h-.1L923,186.31l-1.2-5.47,8.3-3.84h6v31.2H929Z" fill="#fff"/><path d="M969.38,192.45c0,9.6-3.88,16.28-11.81,16.28s-11.61-7.25-11.66-16.08c0-9.08,3.79-16.18,11.86-16.18C966.07,176.47,969.38,183.91,969.38,192.45Zm-16.17.2c0,7.15,1.72,10.56,4.51,10.56s4.37-3.56,4.37-10.66c0-6.91-1.49-10.56-4.42-10.56C955,182,953.21,185.35,953.21,192.65Z" fill="#fff"/><path d="M982.29,183.48h-.09l-6,2.83-1.2-5.47,8.3-3.84h6v31.2h-7.06Z" fill="#fff"/><path d="M1022.66,192.45c0,9.6-3.88,16.28-11.81,16.28s-11.61-7.25-11.66-16.08c0-9.08,3.79-16.18,11.86-16.18C1019.35,176.47,1022.66,183.91,1022.66,192.45Zm-16.17.2c0,7.15,1.72,10.56,4.51,10.56s4.37-3.56,4.37-10.66c0-6.91-1.49-10.56-4.42-10.56C1008.31,182,1006.49,185.35,1006.49,192.65Z" fill="#fff"/><path d="M1035.57,183.48h-.09l-6,2.83-1.2-5.47,8.3-3.84h6v31.2h-7.06Z" fill="#fff"/><path d="M1075.94,192.45c0,9.6-3.89,16.28-11.81,16.28s-11.61-7.25-11.66-16.08c0-9.08,3.79-16.18,11.86-16.18C1072.63,176.47,1075.94,183.91,1075.94,192.45Zm-16.17.2c0,7.15,1.72,10.56,4.51,10.56s4.37-3.56,4.37-10.66c0-6.91-1.49-10.56-4.42-10.56C1061.59,182,1059.77,185.35,1059.77,192.65Z" fill="#fff"/><path d="M1088.85,183.48h-.09l-6,2.83-1.2-5.47,8.31-3.84h6v31.2h-7.06Z" fill="#fff"/><path d="M1129.22,192.45c0,9.6-3.89,16.28-11.81,16.28s-11.61-7.25-11.66-16.08c0-9.08,3.79-16.18,11.86-16.18C1125.91,176.47,1129.22,183.91,1129.22,192.45Zm-16.17.2c0,7.15,1.72,10.56,4.51,10.56s4.37-3.56,4.37-10.66c0-6.91-1.49-10.56-4.42-10.56C1114.87,182,1113.05,185.35,1113.05,192.65Z" fill="#fff"/><path d="M99.51,227.59h-.1l-6,2.83L92.26,225l8.31-3.84h6v31.2H99.51Z" fill="#fff"/><path d="M139.88,236.57c0,9.6-3.89,16.27-11.81,16.27s-11.62-7.25-11.66-16.08c0-9.07,3.79-16.18,11.85-16.18C136.57,220.58,139.88,228,139.88,236.57Zm-16.18.19c0,7.15,1.73,10.56,4.51,10.56s4.37-3.55,4.37-10.65c0-6.92-1.49-10.57-4.41-10.57C125.53,226.1,123.7,229.46,123.7,236.76Z" fill="#fff"/><path d="M152.79,227.59h-.1l-5.95,2.83-1.2-5.47,8.31-3.84h6v31.2h-7.06Z" fill="#fff"/><path d="M193.16,236.57c0,9.6-3.89,16.27-11.81,16.27s-11.62-7.25-11.67-16.08c0-9.07,3.8-16.18,11.86-16.18C189.85,220.58,193.16,228,193.16,236.57Zm-16.18.19c0,7.15,1.73,10.56,4.51,10.56s4.37-3.55,4.37-10.65c0-6.92-1.49-10.57-4.41-10.57C178.81,226.1,177,229.46,177,236.76Z" fill="#fff"/><path d="M206.07,227.59H206L200,230.42l-1.2-5.47,8.3-3.84h6v31.2h-7.06Z" fill="#fff"/><path d="M246.44,236.57c0,9.6-3.89,16.27-11.81,16.27S223,245.59,223,236.76c0-9.07,3.8-16.18,11.86-16.18C243.13,220.58,246.44,228,246.44,236.57Zm-16.18.19c0,7.15,1.73,10.56,4.51,10.56s4.37-3.55,4.37-10.65c0-6.92-1.49-10.57-4.41-10.57C232.08,226.1,230.26,229.46,230.26,236.76Z" fill="#fff"/><path d="M259.35,227.59h-.1l-5.95,2.83L252.1,225l8.3-3.84h6v31.2h-7.06Z" fill="#fff"/><path d="M299.72,236.57c0,9.6-3.89,16.27-11.81,16.27-8.07,0-11.62-7.25-11.67-16.08,0-9.07,3.8-16.18,11.86-16.18C296.41,220.58,299.72,228,299.72,236.57Zm-16.18.19c0,7.15,1.73,10.56,4.51,10.56s4.37-3.55,4.37-10.65c0-6.92-1.49-10.57-4.42-10.57C285.36,226.1,283.54,229.46,283.54,236.76Z" fill="#fff"/><path d="M312.63,227.59h-.1l-5.95,2.83-1.2-5.47,8.3-3.84h6v31.2h-7.05Z" fill="#fff"/><path d="M353,236.57c0,9.6-3.89,16.27-11.81,16.27s-11.62-7.25-11.67-16.08c0-9.07,3.8-16.18,11.86-16.18C349.68,220.58,353,228,353,236.57Zm-16.18.19c0,7.15,1.73,10.56,4.51,10.56s4.37-3.55,4.37-10.65c0-6.92-1.49-10.57-4.42-10.57C338.64,226.1,336.82,229.46,336.82,236.76Z" fill="#fff"/><path d="M365.91,227.59h-.1l-5.95,2.83-1.2-5.47,8.3-3.84h6v31.2h-7Z" fill="#fff"/><path d="M406.28,236.57c0,9.6-3.89,16.27-11.81,16.27-8.07,0-11.62-7.25-11.67-16.08,0-9.07,3.79-16.18,11.86-16.18C403,220.58,406.28,228,406.28,236.57Zm-16.18.19c0,7.15,1.73,10.56,4.51,10.56s4.37-3.55,4.37-10.65c0-6.92-1.49-10.57-4.42-10.57C391.92,226.1,390.1,229.46,390.1,236.76Z" fill="#fff"/><path d="M419.19,227.59h-.1l-5.95,2.83-1.2-5.47,8.3-3.84h6v31.2h-7.05Z" fill="#fff"/><path d="M459.56,236.57c0,9.6-3.89,16.27-11.81,16.27s-11.62-7.25-11.67-16.08c0-9.07,3.79-16.18,11.86-16.18C456.24,220.58,459.56,228,459.56,236.57Zm-16.18.19c0,7.15,1.73,10.56,4.51,10.56s4.37-3.55,4.37-10.65c0-6.92-1.49-10.57-4.42-10.57C445.2,226.1,443.38,229.46,443.38,236.76Z" fill="#fff"/><path d="M472.47,227.59h-.1l-5.95,2.83-1.2-5.47,8.3-3.84h6v31.2h-7Z" fill="#fff"/><path d="M512.83,236.57c0,9.6-3.88,16.27-11.8,16.27s-11.62-7.25-11.67-16.08c0-9.07,3.79-16.18,11.86-16.18C509.52,220.58,512.83,228,512.83,236.57Zm-16.17.19c0,7.15,1.73,10.56,4.51,10.56s4.37-3.55,4.37-10.65c0-6.92-1.49-10.57-4.42-10.57C498.48,226.1,496.66,229.46,496.66,236.76Z" fill="#fff"/><path d="M525.75,227.59h-.1l-5.95,2.83L518.5,225l8.3-3.84h6v31.2h-7Z" fill="#fff"/><path d="M566.11,236.57c0,9.6-3.88,16.27-11.81,16.27s-11.61-7.25-11.66-16.08c0-9.07,3.79-16.18,11.86-16.18C562.8,220.58,566.11,228,566.11,236.57Zm-16.17.19c0,7.15,1.72,10.56,4.51,10.56s4.37-3.55,4.37-10.65c0-6.92-1.49-10.57-4.42-10.57C551.76,226.1,549.94,229.46,549.94,236.76Z" fill="#fff"/><path d="M579,227.59h-.09L573,230.42l-1.2-5.47,8.3-3.84h6v31.2H579Z" fill="#fff"/><path d="M619.39,236.57c0,9.6-3.89,16.27-11.81,16.27s-11.61-7.25-11.66-16.08c0-9.07,3.79-16.18,11.86-16.18C616.08,220.58,619.39,228,619.39,236.57Zm-16.17.19c0,7.15,1.72,10.56,4.51,10.56s4.37-3.55,4.37-10.65c0-6.92-1.49-10.57-4.42-10.57C605,226.1,603.22,229.46,603.22,236.76Z" fill="#fff"/><path d="M632.3,227.59h-.09l-6,2.83-1.2-5.47,8.31-3.84h6v31.2H632.3Z" fill="#fff"/><path d="M672.67,236.57c0,9.6-3.89,16.27-11.81,16.27s-11.61-7.25-11.66-16.08c0-9.07,3.79-16.18,11.86-16.18C669.36,220.58,672.67,228,672.67,236.57Zm-16.17.19c0,7.15,1.72,10.56,4.51,10.56s4.37-3.55,4.37-10.65c0-6.92-1.49-10.57-4.42-10.57C658.32,226.1,656.5,229.46,656.5,236.76Z" fill="#fff"/><path d="M685.58,227.59h-.09l-6,2.83-1.2-5.47,8.31-3.84h6v31.2h-7.06Z" fill="#fff"/><path d="M726,236.57c0,9.6-3.89,16.27-11.81,16.27s-11.61-7.25-11.66-16.08c0-9.07,3.79-16.18,11.86-16.18C722.64,220.58,726,228,726,236.57Zm-16.18.19c0,7.15,1.73,10.56,4.52,10.56s4.37-3.55,4.37-10.65c0-6.92-1.49-10.57-4.42-10.57C711.6,226.1,709.77,229.46,709.77,236.76Z" fill="#fff"/><path d="M738.86,227.59h-.09l-6,2.83-1.2-5.47,8.31-3.84h6v31.2h-7.06Z" fill="#fff"/><path d="M779.23,236.57c0,9.6-3.89,16.27-11.81,16.27s-11.61-7.25-11.66-16.08c0-9.07,3.79-16.18,11.85-16.18C775.92,220.58,779.23,228,779.23,236.57Zm-16.18.19c0,7.15,1.73,10.56,4.52,10.56s4.36-3.55,4.36-10.65c0-6.92-1.48-10.57-4.41-10.57C764.88,226.1,763.05,229.46,763.05,236.76Z" fill="#fff"/><path d="M792.14,227.59h-.09l-6,2.83-1.2-5.47,8.31-3.84h6v31.2h-7.06Z" fill="#fff"/><path d="M832.51,236.57c0,9.6-3.89,16.27-11.81,16.27s-11.62-7.25-11.66-16.08c0-9.07,3.79-16.18,11.85-16.18C829.2,220.58,832.51,228,832.51,236.57Zm-16.18.19c0,7.15,1.73,10.56,4.52,10.56s4.36-3.55,4.36-10.65c0-6.92-1.48-10.57-4.41-10.57C818.16,226.1,816.33,229.46,816.33,236.76Z" fill="#fff"/><path d="M845.42,227.59h-.1l-6,2.83-1.2-5.47,8.31-3.84h6v31.2h-7.06Z" fill="#fff"/><path d="M885.79,236.57c0,9.6-3.89,16.27-11.81,16.27s-11.62-7.25-11.66-16.08c0-9.07,3.79-16.18,11.85-16.18C882.48,220.58,885.79,228,885.79,236.57Zm-16.18.19c0,7.15,1.73,10.56,4.51,10.56s4.37-3.55,4.37-10.65c0-6.92-1.49-10.57-4.41-10.57C871.44,226.1,869.61,229.46,869.61,236.76Z" fill="#fff"/><path d="M898.7,227.59h-.1l-6,2.83-1.2-5.47,8.31-3.84h6v31.2H898.7Z" fill="#fff"/><path d="M939.07,236.57c0,9.6-3.89,16.27-11.81,16.27s-11.62-7.25-11.67-16.08c0-9.07,3.8-16.18,11.86-16.18C935.76,220.58,939.07,228,939.07,236.57Zm-16.18.19c0,7.15,1.73,10.56,4.51,10.56s4.37-3.55,4.37-10.65c0-6.92-1.49-10.57-4.41-10.57C924.72,226.1,922.89,229.46,922.89,236.76Z" fill="#fff"/><path d="M952,227.59h-.1l-6,2.83-1.2-5.47,8.31-3.84h6v31.2H952Z" fill="#fff"/><path d="M992.35,236.57c0,9.6-3.89,16.27-11.81,16.27s-11.62-7.25-11.67-16.08c0-9.07,3.8-16.18,11.86-16.18C989,220.58,992.35,228,992.35,236.57Zm-16.18.19c0,7.15,1.73,10.56,4.51,10.56s4.37-3.55,4.37-10.65c0-6.92-1.49-10.57-4.41-10.57C978,226.1,976.17,229.46,976.17,236.76Z" fill="#fff"/><path d="M1005.26,227.59h-.1l-5.95,2.83L998,225l8.3-3.84h6v31.2h-7.06Z" fill="#fff"/><path d="M1045.63,236.57c0,9.6-3.89,16.27-11.81,16.27s-11.62-7.25-11.67-16.08c0-9.07,3.8-16.18,11.86-16.18C1042.32,220.58,1045.63,228,1045.63,236.57Zm-16.18.19c0,7.15,1.73,10.56,4.51,10.56s4.37-3.55,4.37-10.65c0-6.92-1.49-10.57-4.42-10.57C1031.27,226.1,1029.45,229.46,1029.45,236.76Z" fill="#fff"/><path d="M1058.54,227.59h-.1l-6,2.83-1.2-5.47,8.3-3.84h6v31.2h-7Z" fill="#fff"/><path d="M1098.91,236.57c0,9.6-3.89,16.27-11.81,16.27s-11.62-7.25-11.67-16.08c0-9.07,3.79-16.18,11.86-16.18C1095.59,220.58,1098.91,228,1098.91,236.57Zm-16.18.19c0,7.15,1.73,10.56,4.51,10.56s4.37-3.55,4.37-10.65c0-6.92-1.49-10.57-4.42-10.57C1084.55,226.1,1082.73,229.46,1082.73,236.76Z" fill="#fff"/><path d="M1111.82,227.59h-.1l-6,2.83-1.2-5.47,8.3-3.84h6v31.2h-7Z" fill="#fff"/><path d="M1152.19,236.57c0,9.6-3.89,16.27-11.81,16.27-8.07,0-11.62-7.25-11.67-16.08,0-9.07,3.79-16.18,11.86-16.18C1148.87,220.58,1152.19,228,1152.19,236.57Zm-16.18.19c0,7.15,1.73,10.56,4.51,10.56s4.37-3.55,4.37-10.65c0-6.92-1.49-10.57-4.42-10.57C1137.83,226.1,1136,229.46,1136,236.76Z" fill="#fff"/><path d="M1165.1,227.59h-.1l-6,2.83-1.2-5.47,8.3-3.84h6v31.2h-7.05Z" fill="#fff"/><path d="M65.51,271.71h-.1l-5.95,2.83-1.2-5.47,8.31-3.84h6v31.2H65.51Z" fill="#fff"/><path d="M105.88,280.69c0,9.6-3.89,16.27-11.81,16.27s-11.62-7.25-11.66-16.08c0-9.07,3.79-16.18,11.85-16.18C102.57,264.7,105.88,272.14,105.88,280.69Zm-16.18.19c0,7.15,1.73,10.56,4.51,10.56s4.37-3.55,4.37-10.66c0-6.91-1.49-10.56-4.41-10.56C91.53,270.22,89.7,273.58,89.7,280.88Z" fill="#fff"/><path d="M118.79,271.71h-.1l-6,2.83-1.2-5.47,8.31-3.84h6v31.2h-7.06Z" fill="#fff"/><path d="M159.16,280.69c0,9.6-3.89,16.27-11.81,16.27s-11.62-7.25-11.67-16.08c0-9.07,3.8-16.18,11.86-16.18C155.85,264.7,159.16,272.14,159.16,280.69Zm-16.18.19c0,7.15,1.73,10.56,4.51,10.56s4.37-3.55,4.37-10.66c0-6.91-1.49-10.56-4.41-10.56C144.81,270.22,143,273.58,143,280.88Z" fill="#fff"/><path d="M172.07,271.71H172L166,274.54l-1.2-5.47,8.3-3.84h6v31.2h-7.06Z" fill="#fff"/><path d="M212.44,280.69c0,9.6-3.89,16.27-11.81,16.27S189,289.71,189,280.88c0-9.07,3.8-16.18,11.86-16.18C209.13,264.7,212.44,272.14,212.44,280.69Zm-16.18.19c0,7.15,1.73,10.56,4.51,10.56s4.37-3.55,4.37-10.66c0-6.91-1.49-10.56-4.41-10.56C198.08,270.22,196.26,273.58,196.26,280.88Z" fill="#fff"/><path d="M225.35,271.71h-.1l-5.95,2.83-1.2-5.47,8.3-3.84h6v31.2h-7.06Z" fill="#fff"/><path d="M265.72,280.69c0,9.6-3.89,16.27-11.81,16.27-8.07,0-11.62-7.25-11.67-16.08,0-9.07,3.8-16.18,11.86-16.18C262.41,264.7,265.72,272.14,265.72,280.69Zm-16.18.19c0,7.15,1.73,10.56,4.51,10.56s4.37-3.55,4.37-10.66c0-6.91-1.49-10.56-4.42-10.56C251.36,270.22,249.54,273.58,249.54,280.88Z" fill="#fff"/><path d="M278.63,271.71h-.1l-5.95,2.83-1.2-5.47,8.3-3.84h6v31.2h-7.05Z" fill="#fff"/><path d="M319,280.69c0,9.6-3.89,16.27-11.81,16.27s-11.62-7.25-11.67-16.08c0-9.07,3.8-16.18,11.86-16.18C315.68,264.7,319,272.14,319,280.69Zm-16.18.19c0,7.15,1.73,10.56,4.51,10.56s4.37-3.55,4.37-10.66c0-6.91-1.49-10.56-4.42-10.56C304.64,270.22,302.82,273.58,302.82,280.88Z" fill="#fff"/><path d="M331.91,271.71h-.1l-5.95,2.83-1.2-5.47,8.3-3.84h6v31.2h-7Z" fill="#fff"/><path d="M372.28,280.69c0,9.6-3.89,16.27-11.81,16.27-8.07,0-11.62-7.25-11.67-16.08,0-9.07,3.79-16.18,11.86-16.18C369,264.7,372.28,272.14,372.28,280.69Zm-16.18.19c0,7.15,1.73,10.56,4.51,10.56s4.37-3.55,4.37-10.66c0-6.91-1.49-10.56-4.42-10.56C357.92,270.22,356.1,273.58,356.1,280.88Z" fill="#fff"/><path d="M385.19,271.71h-.1l-5.95,2.83-1.2-5.47,8.3-3.84h6v31.2h-7.05Z" fill="#fff"/><path d="M425.56,280.69c0,9.6-3.89,16.27-11.81,16.27s-11.62-7.25-11.67-16.08c0-9.07,3.79-16.18,11.86-16.18C422.24,264.7,425.56,272.14,425.56,280.69Zm-16.18.19c0,7.15,1.73,10.56,4.51,10.56s4.37-3.55,4.37-10.66c0-6.91-1.49-10.56-4.42-10.56C411.2,270.22,409.38,273.58,409.38,280.88Z" fill="#fff"/><path d="M438.47,271.71h-.1l-5.95,2.83-1.2-5.47,8.3-3.84h6v31.2h-7Z" fill="#fff"/><path d="M478.83,280.69c0,9.6-3.88,16.27-11.8,16.27s-11.62-7.25-11.67-16.08c0-9.07,3.79-16.18,11.86-16.18C475.52,264.7,478.83,272.14,478.83,280.69Zm-16.17.19c0,7.15,1.73,10.56,4.51,10.56s4.37-3.55,4.37-10.66c0-6.91-1.49-10.56-4.42-10.56C464.48,270.22,462.66,273.58,462.66,280.88Z" fill="#fff"/><path d="M491.75,271.71h-.1l-5.95,2.83-1.2-5.47,8.3-3.84h6v31.2h-7.05Z" fill="#fff"/><path d="M532.11,280.69c0,9.6-3.88,16.27-11.81,16.27s-11.61-7.25-11.66-16.08c0-9.07,3.79-16.18,11.86-16.18C528.8,264.7,532.11,272.14,532.11,280.69Zm-16.17.19c0,7.15,1.72,10.56,4.51,10.56s4.37-3.55,4.37-10.66c0-6.91-1.49-10.56-4.42-10.56C517.76,270.22,515.94,273.58,515.94,280.88Z" fill="#fff"/><path d="M545,271.71h-.09L539,274.54l-1.2-5.47,8.3-3.84h6v31.2H545Z" fill="#fff"/><path d="M585.39,280.69c0,9.6-3.89,16.27-11.81,16.27s-11.61-7.25-11.66-16.08c0-9.07,3.79-16.18,11.86-16.18C582.08,264.7,585.39,272.14,585.39,280.69Zm-16.17.19c0,7.15,1.72,10.56,4.51,10.56s4.37-3.55,4.37-10.66c0-6.91-1.49-10.56-4.42-10.56C571,270.22,569.22,273.58,569.22,280.88Z" fill="#fff"/><path d="M598.3,271.71h-.09l-6,2.83-1.2-5.47,8.31-3.84h6v31.2H598.3Z" fill="#fff"/><path d="M638.67,280.69c0,9.6-3.89,16.27-11.81,16.27s-11.61-7.25-11.66-16.08c0-9.07,3.79-16.18,11.86-16.18C635.36,264.7,638.67,272.14,638.67,280.69Zm-16.17.19c0,7.15,1.72,10.56,4.51,10.56s4.37-3.55,4.37-10.66c0-6.91-1.49-10.56-4.42-10.56C624.32,270.22,622.5,273.58,622.5,280.88Z" fill="#fff"/><path d="M651.58,271.71h-.09l-6,2.83-1.2-5.47,8.31-3.84h6v31.2h-7.06Z" fill="#fff"/><path d="M692,280.69c0,9.6-3.89,16.27-11.81,16.27s-11.61-7.25-11.66-16.08c0-9.07,3.79-16.18,11.86-16.18C688.64,264.7,692,272.14,692,280.69Zm-16.18.19c0,7.15,1.73,10.56,4.52,10.56s4.37-3.55,4.37-10.66c0-6.91-1.49-10.56-4.42-10.56C677.6,270.22,675.77,273.58,675.77,280.88Z" fill="#fff"/><path d="M704.86,271.71h-.09l-6,2.83-1.2-5.47,8.31-3.84h6v31.2h-7.06Z" fill="#fff"/><path d="M745.23,280.69c0,9.6-3.89,16.27-11.81,16.27s-11.61-7.25-11.66-16.08c0-9.07,3.79-16.18,11.85-16.18C741.92,264.7,745.23,272.14,745.23,280.69Zm-16.18.19c0,7.15,1.73,10.56,4.52,10.56s4.36-3.55,4.36-10.66c0-6.91-1.48-10.56-4.41-10.56C730.88,270.22,729.05,273.58,729.05,280.88Z" fill="#fff"/><path d="M758.14,271.71h-.09l-6,2.83-1.2-5.47,8.31-3.84h6v31.2h-7.06Z" fill="#fff"/><path d="M798.51,280.69c0,9.6-3.89,16.27-11.81,16.27s-11.62-7.25-11.66-16.08c0-9.07,3.79-16.18,11.85-16.18C795.2,264.7,798.51,272.14,798.51,280.69Zm-16.18.19c0,7.15,1.73,10.56,4.52,10.56s4.36-3.55,4.36-10.66c0-6.91-1.48-10.56-4.41-10.56C784.16,270.22,782.33,273.58,782.33,280.88Z" fill="#fff"/><path d="M811.42,271.71h-.1l-6,2.83-1.2-5.47,8.31-3.84h6v31.2h-7.06Z" fill="#fff"/><path d="M851.79,280.69c0,9.6-3.89,16.27-11.81,16.27s-11.62-7.25-11.66-16.08c0-9.07,3.79-16.18,11.85-16.18C848.48,264.7,851.79,272.14,851.79,280.69Zm-16.18.19c0,7.15,1.73,10.56,4.51,10.56s4.37-3.55,4.37-10.66c0-6.91-1.49-10.56-4.41-10.56C837.44,270.22,835.61,273.58,835.61,280.88Z" fill="#fff"/><path d="M864.7,271.71h-.1l-6,2.83-1.2-5.47,8.31-3.84h6v31.2H864.7Z" fill="#fff"/><path d="M905.07,280.69c0,9.6-3.89,16.27-11.81,16.27s-11.62-7.25-11.67-16.08c0-9.07,3.8-16.18,11.86-16.18C901.76,264.7,905.07,272.14,905.07,280.69Zm-16.18.19c0,7.15,1.73,10.56,4.51,10.56s4.37-3.55,4.37-10.66c0-6.91-1.49-10.56-4.41-10.56C890.72,270.22,888.89,273.58,888.89,280.88Z" fill="#fff"/><path d="M918,271.71h-.1l-6,2.83-1.2-5.47,8.31-3.84h6v31.2H918Z" fill="#fff"/><path d="M958.35,280.69c0,9.6-3.89,16.27-11.81,16.27s-11.62-7.25-11.67-16.08c0-9.07,3.8-16.18,11.86-16.18C955,264.7,958.35,272.14,958.35,280.69Zm-16.18.19c0,7.15,1.73,10.56,4.51,10.56s4.37-3.55,4.37-10.66c0-6.91-1.49-10.56-4.41-10.56C944,270.22,942.17,273.58,942.17,280.88Z" fill="#fff"/><path d="M971.26,271.71h-.1l-5.95,2.83-1.2-5.47,8.31-3.84h6v31.2h-7.06Z" fill="#fff"/><path d="M1011.63,280.69c0,9.6-3.89,16.27-11.81,16.27-8.07,0-11.62-7.25-11.67-16.08,0-9.07,3.8-16.18,11.86-16.18C1008.32,264.7,1011.63,272.14,1011.63,280.69Zm-16.18.19c0,7.15,1.73,10.56,4.51,10.56s4.37-3.55,4.37-10.66c0-6.91-1.49-10.56-4.42-10.56C997.27,270.22,995.45,273.58,995.45,280.88Z" fill="#fff"/><path d="M1024.54,271.71h-.1l-6,2.83-1.2-5.47,8.3-3.84h6v31.2h-7Z" fill="#fff"/><path d="M1064.91,280.69c0,9.6-3.89,16.27-11.81,16.27s-11.62-7.25-11.67-16.08c0-9.07,3.79-16.18,11.86-16.18C1061.59,264.7,1064.91,272.14,1064.91,280.69Zm-16.18.19c0,7.15,1.73,10.56,4.51,10.56s4.37-3.55,4.37-10.66c0-6.91-1.49-10.56-4.42-10.56C1050.55,270.22,1048.73,273.58,1048.73,280.88Z" fill="#fff"/><path d="M1077.82,271.71h-.1l-6,2.83-1.2-5.47,8.3-3.84h6v31.2h-7Z" fill="#fff"/><path d="M1118.19,280.69c0,9.6-3.89,16.27-11.81,16.27-8.07,0-11.62-7.25-11.67-16.08,0-9.07,3.79-16.18,11.86-16.18C1114.87,264.7,1118.19,272.14,1118.19,280.69Zm-16.18.19c0,7.15,1.73,10.56,4.51,10.56s4.37-3.55,4.37-10.66c0-6.91-1.49-10.56-4.42-10.56C1103.83,270.22,1102,273.58,1102,280.88Z" fill="#fff"/><path d="M1131.1,271.71h-.1l-6,2.83-1.2-5.47,8.3-3.84h6v31.2h-7.05Z" fill="#fff"/><path d="M1171.46,280.69c0,9.6-3.88,16.27-11.8,16.27-8.07,0-11.62-7.25-11.67-16.08,0-9.07,3.79-16.18,11.86-16.18C1168.15,264.7,1171.46,272.14,1171.46,280.69Zm-16.17.19c0,7.15,1.73,10.56,4.51,10.56s4.37-3.55,4.37-10.66c0-6.91-1.49-10.56-4.42-10.56C1157.11,270.22,1155.29,273.58,1155.29,280.88Z" fill="#fff"/><path d="M1184.38,271.71h-.1l-6,2.83-1.2-5.47,8.3-3.84h6v31.2h-7Z" fill="#fff"/><path d="M1224.74,280.69c0,9.6-3.88,16.27-11.8,16.27-8.07,0-11.62-7.25-11.67-16.08,0-9.07,3.79-16.18,11.86-16.18C1221.43,264.7,1224.74,272.14,1224.74,280.69Zm-16.17.19c0,7.15,1.73,10.56,4.51,10.56s4.37-3.55,4.37-10.66c0-6.91-1.49-10.56-4.42-10.56C1210.39,270.22,1208.57,273.58,1208.57,280.88Z" fill="#fff"/><path d="M37.24,315.83h-.1l-5.95,2.83L30,313.19l8.31-3.84h6v31.2H37.24Z" fill="#fff"/><path d="M77.61,324.8c0,9.6-3.89,16.28-11.81,16.28S54.18,333.83,54.13,325c0-9.08,3.8-16.18,11.86-16.18C74.3,308.82,77.61,316.26,77.61,324.8Zm-16.18.2c0,7.15,1.73,10.56,4.51,10.56s4.37-3.56,4.37-10.66c0-6.91-1.49-10.56-4.41-10.56C63.25,314.34,61.43,317.7,61.43,325Z" fill="#fff"/><path d="M90.52,315.83h-.1l-6,2.83-1.2-5.47,8.31-3.84h6v31.2H90.52Z" fill="#fff"/><path d="M130.89,324.8c0,9.6-3.89,16.28-11.81,16.28s-11.62-7.25-11.67-16.08c0-9.08,3.8-16.18,11.86-16.18C127.58,308.82,130.89,316.26,130.89,324.8Zm-16.18.2c0,7.15,1.73,10.56,4.51,10.56s4.37-3.56,4.37-10.66c0-6.91-1.49-10.56-4.42-10.56C116.53,314.34,114.71,317.7,114.71,325Z" fill="#fff"/><path d="M143.8,315.83h-.1l-5.95,2.83-1.2-5.47,8.3-3.84h6v31.2h-7Z" fill="#fff"/><path d="M184.17,324.8c0,9.6-3.89,16.28-11.81,16.28-8.07,0-11.62-7.25-11.67-16.08,0-9.08,3.8-16.18,11.86-16.18C180.85,308.82,184.17,316.26,184.17,324.8ZM168,325c0,7.15,1.73,10.56,4.51,10.56s4.37-3.56,4.37-10.66c0-6.91-1.49-10.56-4.42-10.56C169.81,314.34,168,317.7,168,325Z" fill="#fff"/><path d="M197.08,315.83H197L191,318.66l-1.2-5.47,8.3-3.84h6v31.2h-7Z" fill="#fff"/><path d="M237.45,324.8c0,9.6-3.89,16.28-11.81,16.28S214,333.83,214,325c0-9.08,3.79-16.18,11.86-16.18C234.13,308.82,237.45,316.26,237.45,324.8Zm-16.18.2c0,7.15,1.73,10.56,4.51,10.56s4.37-3.56,4.37-10.66c0-6.91-1.49-10.56-4.42-10.56C223.09,314.34,221.27,317.7,221.27,325Z" fill="#fff"/><path d="M250.36,315.83h-.1l-5.95,2.83-1.2-5.47,8.3-3.84h6v31.2h-7.05Z" fill="#fff"/><path d="M290.73,324.8c0,9.6-3.89,16.28-11.81,16.28-8.07,0-11.62-7.25-11.67-16.08,0-9.08,3.79-16.18,11.86-16.18C287.41,308.82,290.73,316.26,290.73,324.8Zm-16.18.2c0,7.15,1.73,10.56,4.51,10.56s4.37-3.56,4.37-10.66c0-6.91-1.49-10.56-4.42-10.56C276.37,314.34,274.55,317.7,274.55,325Z" fill="#fff"/><path d="M303.64,315.83h-.1l-6,2.83-1.2-5.47,8.3-3.84h6v31.2h-7.05Z" fill="#fff"/><path d="M344,324.8c0,9.6-3.88,16.28-11.8,16.28s-11.62-7.25-11.67-16.08c0-9.08,3.79-16.18,11.86-16.18C340.69,308.82,344,316.26,344,324.8Zm-16.17.2c0,7.15,1.73,10.56,4.51,10.56s4.37-3.56,4.37-10.66c0-6.91-1.49-10.56-4.42-10.56C329.65,314.34,327.83,317.7,327.83,325Z" fill="#fff"/><path d="M356.92,315.83h-.1l-5.95,2.83-1.2-5.47,8.3-3.84h6v31.2h-7.05Z" fill="#fff"/><path d="M397.28,324.8c0,9.6-3.88,16.28-11.8,16.28-8.07,0-11.62-7.25-11.67-16.08,0-9.08,3.79-16.18,11.86-16.18C394,308.82,397.28,316.26,397.28,324.8Zm-16.17.2c0,7.15,1.73,10.56,4.51,10.56S390,332,390,324.9c0-6.91-1.49-10.56-4.42-10.56C382.93,314.34,381.11,317.7,381.11,325Z" fill="#fff"/><path d="M410.19,315.83h-.09l-6,2.83-1.2-5.47,8.3-3.84h6v31.2h-7.06Z" fill="#fff"/><path d="M450.56,324.8c0,9.6-3.88,16.28-11.81,16.28s-11.61-7.25-11.66-16.08c0-9.08,3.79-16.18,11.86-16.18C447.25,308.82,450.56,316.26,450.56,324.8Zm-16.17.2c0,7.15,1.72,10.56,4.51,10.56s4.37-3.56,4.37-10.66c0-6.91-1.49-10.56-4.42-10.56C436.21,314.34,434.39,317.7,434.39,325Z" fill="#fff"/><path d="M463.47,315.83h-.09l-5.95,2.83-1.2-5.47,8.3-3.84h6v31.2h-7.06Z" fill="#fff"/><path d="M503.84,324.8c0,9.6-3.89,16.28-11.81,16.28s-11.61-7.25-11.66-16.08c0-9.08,3.79-16.18,11.86-16.18C500.53,308.82,503.84,316.26,503.84,324.8Zm-16.17.2c0,7.15,1.72,10.56,4.51,10.56s4.37-3.56,4.37-10.66c0-6.91-1.49-10.56-4.42-10.56C489.49,314.34,487.67,317.7,487.67,325Z" fill="#fff"/><path d="M516.75,315.83h-.09l-5.95,2.83-1.21-5.47,8.31-3.84h6v31.2h-7.06Z" fill="#fff"/><path d="M557.12,324.8c0,9.6-3.89,16.28-11.81,16.28S533.7,333.83,533.65,325c0-9.08,3.79-16.18,11.85-16.18C553.81,308.82,557.12,316.26,557.12,324.8Zm-16.18.2c0,7.15,1.73,10.56,4.52,10.56s4.37-3.56,4.37-10.66c0-6.91-1.49-10.56-4.42-10.56C542.77,314.34,540.94,317.7,540.94,325Z" fill="#fff"/><path d="M570,315.83h-.09l-6,2.83-1.2-5.47,8.31-3.84h6v31.2H570Z" fill="#fff"/><path d="M610.4,324.8c0,9.6-3.89,16.28-11.81,16.28S587,333.83,586.93,325c0-9.08,3.79-16.18,11.85-16.18C607.09,308.82,610.4,316.26,610.4,324.8Zm-16.18.2c0,7.15,1.73,10.56,4.52,10.56s4.37-3.56,4.37-10.66c0-6.91-1.49-10.56-4.42-10.56C596.05,314.34,594.22,317.7,594.22,325Z" fill="#fff"/><path d="M623.31,315.83h-.09l-6,2.83-1.2-5.47,8.31-3.84h6v31.2h-7.06Z" fill="#fff"/><path d="M663.68,324.8c0,9.6-3.89,16.28-11.81,16.28s-11.62-7.25-11.66-16.08c0-9.08,3.79-16.18,11.85-16.18C660.37,308.82,663.68,316.26,663.68,324.8Zm-16.18.2c0,7.15,1.73,10.56,4.52,10.56s4.36-3.56,4.36-10.66c0-6.91-1.48-10.56-4.41-10.56C649.33,314.34,647.5,317.7,647.5,325Z" fill="#fff"/><path d="M676.59,315.83h-.09l-6,2.83-1.2-5.47,8.31-3.84h6v31.2h-7.06Z" fill="#fff"/><path d="M717,324.8c0,9.6-3.89,16.28-11.81,16.28s-11.62-7.25-11.66-16.08c0-9.08,3.79-16.18,11.85-16.18C713.65,308.82,717,316.26,717,324.8Zm-16.18.2c0,7.15,1.73,10.56,4.52,10.56s4.36-3.56,4.36-10.66c0-6.91-1.48-10.56-4.41-10.56C702.61,314.34,700.78,317.7,700.78,325Z" fill="#fff"/><path d="M729.87,315.83h-.1l-5.95,2.83-1.2-5.47,8.31-3.84h6v31.2h-7.06Z" fill="#fff"/><path d="M770.24,324.8c0,9.6-3.89,16.28-11.81,16.28s-11.62-7.25-11.66-16.08c0-9.08,3.79-16.18,11.85-16.18C766.93,308.82,770.24,316.26,770.24,324.8Zm-16.18.2c0,7.15,1.73,10.56,4.51,10.56s4.37-3.56,4.37-10.66c0-6.91-1.49-10.56-4.41-10.56C755.89,314.34,754.06,317.7,754.06,325Z" fill="#fff"/><path d="M783.15,315.83h-.1l-5.95,2.83-1.2-5.47,8.31-3.84h6v31.2h-7.06Z" fill="#fff"/><path d="M823.52,324.8c0,9.6-3.89,16.28-11.81,16.28S800.09,333.83,800,325c0-9.08,3.8-16.18,11.86-16.18C820.21,308.82,823.52,316.26,823.52,324.8Zm-16.18.2c0,7.15,1.73,10.56,4.51,10.56s4.37-3.56,4.37-10.66c0-6.91-1.49-10.56-4.41-10.56C809.17,314.34,807.34,317.7,807.34,325Z" fill="#fff"/><path d="M836.43,315.83h-.1l-6,2.83-1.2-5.47,8.31-3.84h6v31.2h-7.06Z" fill="#fff"/><path d="M876.8,324.8c0,9.6-3.89,16.28-11.81,16.28-8.07,0-11.62-7.25-11.67-16.08,0-9.08,3.8-16.18,11.86-16.18C873.49,308.82,876.8,316.26,876.8,324.8Zm-16.18.2c0,7.15,1.73,10.56,4.51,10.56s4.37-3.56,4.37-10.66c0-6.91-1.49-10.56-4.41-10.56C862.44,314.34,860.62,317.7,860.62,325Z" fill="#fff"/><path d="M889.71,315.83h-.1l-6,2.83-1.2-5.47,8.3-3.84h6v31.2h-7.06Z" fill="#fff"/><path d="M930.08,324.8c0,9.6-3.89,16.28-11.81,16.28S906.65,333.83,906.6,325c0-9.08,3.8-16.18,11.86-16.18C926.77,308.82,930.08,316.26,930.08,324.8Zm-16.18.2c0,7.15,1.73,10.56,4.51,10.56s4.37-3.56,4.37-10.66c0-6.91-1.49-10.56-4.42-10.56C915.72,314.34,913.9,317.7,913.9,325Z" fill="#fff"/><path d="M943,315.83h-.1l-5.95,2.83-1.2-5.47,8.3-3.84h6v31.2h-7Z" fill="#fff"/><path d="M983.36,324.8c0,9.6-3.89,16.28-11.81,16.28s-11.62-7.25-11.67-16.08c0-9.08,3.79-16.18,11.86-16.18C980,308.82,983.36,316.26,983.36,324.8Zm-16.18.2c0,7.15,1.73,10.56,4.51,10.56s4.37-3.56,4.37-10.66c0-6.91-1.49-10.56-4.42-10.56C969,314.34,967.18,317.7,967.18,325Z" fill="#fff"/><path d="M996.27,315.83h-.1l-5.95,2.83-1.2-5.47,8.3-3.84h6v31.2h-7.05Z" fill="#fff"/><path d="M1036.64,324.8c0,9.6-3.89,16.28-11.81,16.28s-11.62-7.25-11.67-16.08c0-9.08,3.79-16.18,11.86-16.18C1033.32,308.82,1036.64,316.26,1036.64,324.8Zm-16.18.2c0,7.15,1.73,10.56,4.51,10.56s4.37-3.56,4.37-10.66c0-6.91-1.49-10.56-4.42-10.56C1022.28,314.34,1020.46,317.7,1020.46,325Z" fill="#fff"/><path d="M1049.55,315.83h-.1l-6,2.83-1.2-5.47,8.3-3.84h6v31.2h-7Z" fill="#fff"/><path d="M1089.92,324.8c0,9.6-3.89,16.28-11.81,16.28s-11.62-7.25-11.67-16.08c0-9.08,3.79-16.18,11.86-16.18C1086.6,308.82,1089.92,316.26,1089.92,324.8Zm-16.18.2c0,7.15,1.73,10.56,4.51,10.56s4.37-3.56,4.37-10.66c0-6.91-1.49-10.56-4.42-10.56C1075.56,314.34,1073.74,317.7,1073.74,325Z" fill="#fff"/><path d="M1102.83,315.83h-.1l-6,2.83-1.2-5.47,8.3-3.84h6v31.2h-7.05Z" fill="#fff"/><path d="M1143.19,324.8c0,9.6-3.88,16.28-11.81,16.28s-11.61-7.25-11.66-16.08c0-9.08,3.79-16.18,11.86-16.18C1139.88,308.82,1143.19,316.26,1143.19,324.8ZM1127,325c0,7.15,1.73,10.56,4.51,10.56s4.37-3.56,4.37-10.66c0-6.91-1.49-10.56-4.42-10.56C1128.84,314.34,1127,317.7,1127,325Z" fill="#fff"/><path d="M1156.11,315.83h-.1l-6,2.83-1.2-5.47,8.3-3.84h6v31.2h-7.05Z" fill="#fff"/><path d="M1196.47,324.8c0,9.6-3.88,16.28-11.81,16.28S1173.05,333.83,1173,325c0-9.08,3.79-16.18,11.86-16.18C1193.16,308.82,1196.47,316.26,1196.47,324.8Zm-16.17.2c0,7.15,1.72,10.56,4.51,10.56s4.37-3.56,4.37-10.66c0-6.91-1.49-10.56-4.42-10.56C1182.12,314.34,1180.3,317.7,1180.3,325Z" fill="#fff"/><path d="M1209.38,315.83h-.09l-6,2.83-1.2-5.47,8.3-3.84h6v31.2h-7.06Z" fill="#fff"/><path d="M1249.75,324.8c0,9.6-3.88,16.28-11.81,16.28s-11.61-7.25-11.66-16.08c0-9.08,3.79-16.18,11.86-16.18C1246.44,308.82,1249.75,316.26,1249.75,324.8Zm-16.17.2c0,7.15,1.72,10.56,4.51,10.56s4.37-3.56,4.37-10.66c0-6.91-1.49-10.56-4.42-10.56C1235.4,314.34,1233.58,317.7,1233.58,325Z" fill="#fff"/><path d="M9.74,359.94H9.65L3.7,362.78,2.5,357.3l8.3-3.84h6v31.21H9.74Z" fill="#fff"/><path d="M50.11,368.92c0,9.6-3.88,16.27-11.81,16.27s-11.61-7.25-11.66-16.08c0-9.07,3.79-16.17,11.86-16.17C46.8,352.94,50.11,360.38,50.11,368.92Zm-16.17.19c0,7.16,1.72,10.56,4.51,10.56s4.37-3.55,4.37-10.65c0-6.92-1.49-10.56-4.42-10.56C35.76,358.46,33.94,361.82,33.94,369.11Z" fill="#fff"/><path d="M63,359.94h-.09l-6,2.84-1.2-5.48,8.3-3.84h6v31.21H63Z" fill="#fff"/><path d="M103.39,368.92c0,9.6-3.89,16.27-11.81,16.27S80,377.94,79.92,369.11c0-9.07,3.79-16.17,11.86-16.17C100.08,352.94,103.39,360.38,103.39,368.92Zm-16.17.19c0,7.16,1.72,10.56,4.51,10.56S96.1,376.12,96.1,369c0-6.92-1.49-10.56-4.42-10.56C89,358.46,87.22,361.82,87.22,369.11Z" fill="#fff"/><path d="M116.3,359.94h-.09l-6,2.84-1.2-5.48,8.31-3.84h6v31.21H116.3Z" fill="#fff"/><path d="M156.67,368.92c0,9.6-3.89,16.27-11.81,16.27s-11.61-7.25-11.66-16.08c0-9.07,3.79-16.17,11.85-16.17C153.36,352.94,156.67,360.38,156.67,368.92Zm-16.18.19c0,7.16,1.73,10.56,4.52,10.56s4.36-3.55,4.36-10.65c0-6.92-1.48-10.56-4.41-10.56C142.32,358.46,140.49,361.82,140.49,369.11Z" fill="#fff"/><path d="M169.58,359.94h-.09l-6,2.84-1.2-5.48,8.31-3.84h6v31.21h-7.06Z" fill="#fff"/><path d="M210,368.92c0,9.6-3.89,16.27-11.81,16.27s-11.61-7.25-11.66-16.08c0-9.07,3.79-16.17,11.85-16.17C206.64,352.94,210,360.38,210,368.92Zm-16.18.19c0,7.16,1.73,10.56,4.52,10.56s4.36-3.55,4.36-10.65c0-6.92-1.48-10.56-4.41-10.56C195.6,358.46,193.77,361.82,193.77,369.11Z" fill="#fff"/><path d="M222.86,359.94h-.09l-6,2.84-1.2-5.48,8.31-3.84h6v31.21h-7.06Z" fill="#fff"/><path d="M263.23,368.92c0,9.6-3.89,16.27-11.81,16.27s-11.62-7.25-11.66-16.08c0-9.07,3.79-16.17,11.85-16.17C259.92,352.94,263.23,360.38,263.23,368.92Zm-16.18.19c0,7.16,1.73,10.56,4.52,10.56s4.36-3.55,4.36-10.65c0-6.92-1.48-10.56-4.41-10.56C248.88,358.46,247.05,361.82,247.05,369.11Z" fill="#fff"/><path d="M276.14,359.94h-.09l-6,2.84-1.2-5.48,8.31-3.84h6v31.21h-7.06Z" fill="#fff"/><path d="M316.51,368.92c0,9.6-3.89,16.27-11.81,16.27s-11.62-7.25-11.66-16.08c0-9.07,3.79-16.17,11.85-16.17C313.2,352.94,316.51,360.38,316.51,368.92Zm-16.18.19c0,7.16,1.73,10.56,4.51,10.56s4.37-3.55,4.37-10.65c0-6.92-1.48-10.56-4.41-10.56C302.16,358.46,300.33,361.82,300.33,369.11Z" fill="#fff"/><path d="M329.42,359.94h-.1l-5.95,2.84-1.2-5.48,8.31-3.84h6v31.21h-7.06Z" fill="#fff"/><path d="M369.79,368.92c0,9.6-3.89,16.27-11.81,16.27s-11.62-7.25-11.66-16.08c0-9.07,3.79-16.17,11.85-16.17C366.48,352.94,369.79,360.38,369.79,368.92Zm-16.18.19c0,7.16,1.73,10.56,4.51,10.56s4.37-3.55,4.37-10.65c0-6.92-1.49-10.56-4.41-10.56C355.44,358.46,353.61,361.82,353.61,369.11Z" fill="#fff"/><path d="M382.7,359.94h-.1l-6,2.84-1.2-5.48,8.31-3.84h6v31.21H382.7Z" fill="#fff"/><path d="M423.07,368.92c0,9.6-3.89,16.27-11.81,16.27s-11.62-7.25-11.67-16.08c0-9.07,3.8-16.17,11.86-16.17C419.76,352.94,423.07,360.38,423.07,368.92Zm-16.18.19c0,7.16,1.73,10.56,4.51,10.56s4.37-3.55,4.37-10.65c0-6.92-1.49-10.56-4.41-10.56C408.71,358.46,406.89,361.82,406.89,369.11Z" fill="#fff"/><path d="M436,359.94h-.1l-5.95,2.84-1.2-5.48,8.31-3.84h6v31.21H436Z" fill="#fff"/><path d="M476.35,368.92c0,9.6-3.89,16.27-11.81,16.27-8.07,0-11.62-7.25-11.67-16.08,0-9.07,3.8-16.17,11.86-16.17C473,352.94,476.35,360.38,476.35,368.92Zm-16.18.19c0,7.16,1.73,10.56,4.51,10.56s4.37-3.55,4.37-10.65c0-6.92-1.49-10.56-4.42-10.56C462,358.46,460.17,361.82,460.17,369.11Z" fill="#fff"/><path d="M489.26,359.94h-.1l-6,2.84L482,357.3l8.3-3.84h6v31.21h-7.05Z" fill="#fff"/><path d="M529.63,368.92c0,9.6-3.89,16.27-11.81,16.27-8.07,0-11.62-7.25-11.67-16.08,0-9.07,3.8-16.17,11.86-16.17C526.31,352.94,529.63,360.38,529.63,368.92Zm-16.18.19c0,7.16,1.73,10.56,4.51,10.56s4.37-3.55,4.37-10.65c0-6.92-1.49-10.56-4.42-10.56C515.27,358.46,513.45,361.82,513.45,369.11Z" fill="#fff"/><path d="M542.54,359.94h-.1l-6,2.84-1.2-5.48,8.3-3.84h6v31.21h-7.05Z" fill="#fff"/><path d="M582.91,368.92c0,9.6-3.89,16.27-11.81,16.27-8.07,0-11.62-7.25-11.67-16.08,0-9.07,3.79-16.17,11.86-16.17C579.59,352.94,582.91,360.38,582.91,368.92Zm-16.18.19c0,7.16,1.73,10.56,4.51,10.56s4.37-3.55,4.37-10.65c0-6.92-1.49-10.56-4.42-10.56C568.55,358.46,566.73,361.82,566.73,369.11Z" fill="#fff"/><path d="M595.82,359.94h-.1l-6,2.84-1.2-5.48,8.3-3.84h6v31.21h-7Z" fill="#fff"/><path d="M636.19,368.92c0,9.6-3.89,16.27-11.81,16.27-8.07,0-11.62-7.25-11.67-16.08,0-9.07,3.79-16.17,11.86-16.17C632.87,352.94,636.19,360.38,636.19,368.92Zm-16.18.19c0,7.16,1.73,10.56,4.51,10.56s4.37-3.55,4.37-10.65c0-6.92-1.49-10.56-4.42-10.56C621.83,358.46,620,361.82,620,369.11Z" fill="#fff"/><path d="M649.1,359.94H649l-6,2.84-1.2-5.48,8.3-3.84h6v31.21h-7Z" fill="#fff"/><path d="M689.46,368.92c0,9.6-3.88,16.27-11.8,16.27S666,377.94,666,369.11c0-9.07,3.79-16.17,11.86-16.17C686.15,352.94,689.46,360.38,689.46,368.92Zm-16.17.19c0,7.16,1.73,10.56,4.51,10.56s4.37-3.55,4.37-10.65c0-6.92-1.49-10.56-4.42-10.56C675.11,358.46,673.29,361.82,673.29,369.11Z" fill="#fff"/><path d="M702.38,359.94h-.1l-5.95,2.84-1.2-5.48,8.3-3.84h6v31.21h-7Z" fill="#fff"/><path d="M742.74,368.92c0,9.6-3.88,16.27-11.8,16.27-8.07,0-11.62-7.25-11.67-16.08,0-9.07,3.79-16.17,11.86-16.17C739.43,352.94,742.74,360.38,742.74,368.92Zm-16.17.19c0,7.16,1.73,10.56,4.51,10.56s4.37-3.55,4.37-10.65c0-6.92-1.49-10.56-4.42-10.56C728.39,358.46,726.57,361.82,726.57,369.11Z" fill="#fff"/><path d="M755.65,359.94h-.09l-5.95,2.84-1.2-5.48,8.3-3.84h6v31.21h-7.06Z" fill="#fff"/><path d="M796,368.92c0,9.6-3.88,16.27-11.81,16.27s-11.61-7.25-11.66-16.08c0-9.07,3.79-16.17,11.86-16.17C792.71,352.94,796,360.38,796,368.92Zm-16.17.19c0,7.16,1.72,10.56,4.51,10.56s4.37-3.55,4.37-10.65c0-6.92-1.49-10.56-4.42-10.56C781.67,358.46,779.85,361.82,779.85,369.11Z" fill="#fff"/><path d="M808.93,359.94h-.09l-6,2.84-1.2-5.48,8.3-3.84h6v31.21h-7.06Z" fill="#fff"/><path d="M849.3,368.92c0,9.6-3.89,16.27-11.81,16.27s-11.61-7.25-11.66-16.08c0-9.07,3.79-16.17,11.86-16.17C846,352.94,849.3,360.38,849.3,368.92Zm-16.17.19c0,7.16,1.72,10.56,4.51,10.56S842,376.12,842,369c0-6.92-1.49-10.56-4.42-10.56C835,358.46,833.13,361.82,833.13,369.11Z" fill="#fff"/><path d="M862.21,359.94h-.09l-6,2.84L855,357.3l8.31-3.84h6v31.21h-7.06Z" fill="#fff"/><path d="M902.58,368.92c0,9.6-3.89,16.27-11.81,16.27s-11.61-7.25-11.66-16.08c0-9.07,3.79-16.17,11.86-16.17C899.27,352.94,902.58,360.38,902.58,368.92Zm-16.18.19c0,7.16,1.73,10.56,4.52,10.56s4.37-3.55,4.37-10.65c0-6.92-1.49-10.56-4.42-10.56C888.23,358.46,886.4,361.82,886.4,369.11Z" fill="#fff"/><path d="M915.49,359.94h-.09l-6,2.84-1.2-5.48,8.31-3.84h6v31.21h-7.06Z" fill="#fff"/><path d="M955.86,368.92c0,9.6-3.89,16.27-11.81,16.27s-11.61-7.25-11.66-16.08c0-9.07,3.79-16.17,11.85-16.17C952.55,352.94,955.86,360.38,955.86,368.92Zm-16.18.19c0,7.16,1.73,10.56,4.52,10.56s4.37-3.55,4.37-10.65c0-6.92-1.49-10.56-4.42-10.56C941.51,358.46,939.68,361.82,939.68,369.11Z" fill="#fff"/><path d="M968.77,359.94h-.09l-6,2.84-1.2-5.48,8.31-3.84h6v31.21h-7.06Z" fill="#fff"/><path d="M1009.14,368.92c0,9.6-3.89,16.27-11.81,16.27s-11.62-7.25-11.66-16.08c0-9.07,3.79-16.17,11.85-16.17C1005.83,352.94,1009.14,360.38,1009.14,368.92Zm-16.18.19c0,7.16,1.73,10.56,4.52,10.56s4.36-3.55,4.36-10.65c0-6.92-1.48-10.56-4.41-10.56C994.79,358.46,993,361.82,993,369.11Z" fill="#fff"/><path d="M1022.05,359.94H1022l-6,2.84-1.2-5.48,8.31-3.84h6v31.21h-7.06Z" fill="#fff"/><path d="M1062.42,368.92c0,9.6-3.89,16.27-11.81,16.27S1039,377.94,1039,369.11c0-9.07,3.79-16.17,11.85-16.17C1059.11,352.94,1062.42,360.38,1062.42,368.92Zm-16.18.19c0,7.16,1.73,10.56,4.51,10.56s4.37-3.55,4.37-10.65c0-6.92-1.49-10.56-4.41-10.56C1048.07,358.46,1046.24,361.82,1046.24,369.11Z" fill="#fff"/><path d="M1075.33,359.94h-.1l-6,2.84-1.2-5.48,8.31-3.84h6v31.21h-7.06Z" fill="#fff"/><path d="M1115.7,368.92c0,9.6-3.89,16.27-11.81,16.27s-11.62-7.25-11.67-16.08c0-9.07,3.8-16.17,11.86-16.17C1112.39,352.94,1115.7,360.38,1115.7,368.92Zm-16.18.19c0,7.16,1.73,10.56,4.51,10.56s4.37-3.55,4.37-10.65c0-6.92-1.49-10.56-4.41-10.56C1101.35,358.46,1099.52,361.82,1099.52,369.11Z" fill="#fff"/><path d="M1128.61,359.94h-.1l-6,2.84-1.2-5.48,8.31-3.84h6v31.21h-7.06Z" fill="#fff"/><path d="M1169,368.92c0,9.6-3.89,16.27-11.81,16.27s-11.62-7.25-11.67-16.08c0-9.07,3.8-16.17,11.86-16.17C1165.67,352.94,1169,360.38,1169,368.92Zm-16.18.19c0,7.16,1.73,10.56,4.51,10.56s4.37-3.55,4.37-10.65c0-6.92-1.49-10.56-4.41-10.56C1154.63,358.46,1152.8,361.82,1152.8,369.11Z" fill="#fff"/><path d="M1181.89,359.94h-.1l-6,2.84-1.2-5.48,8.31-3.84h6v31.21h-7.06Z" fill="#fff"/><path d="M1222.26,368.92c0,9.6-3.89,16.27-11.81,16.27-8.07,0-11.62-7.25-11.67-16.08,0-9.07,3.8-16.17,11.86-16.17C1219,352.94,1222.26,360.38,1222.26,368.92Zm-16.18.19c0,7.16,1.73,10.56,4.51,10.56S1215,376.12,1215,369c0-6.92-1.49-10.56-4.41-10.56C1207.9,358.46,1206.08,361.82,1206.08,369.11Z" fill="#fff"/><path d="M1235.17,359.94h-.1l-6,2.84-1.2-5.48,8.3-3.84h6v31.21h-7Z" fill="#fff"/><path d="M1275.54,368.92c0,9.6-3.89,16.27-11.81,16.27s-11.62-7.25-11.67-16.08c0-9.07,3.8-16.17,11.86-16.17C1272.22,352.94,1275.54,360.38,1275.54,368.92Zm-16.18.19c0,7.16,1.73,10.56,4.51,10.56s4.37-3.55,4.37-10.65c0-6.92-1.49-10.56-4.42-10.56C1261.18,358.46,1259.36,361.82,1259.36,369.11Z" fill="#fff"/><path d="M23.47,415.16c0,9.6-3.88,16.28-11.81,16.28S.05,424.19,0,415.35c0-9.07,3.79-16.17,11.86-16.17C20.16,399.18,23.47,406.62,23.47,415.16Zm-16.17.19c0,7.16,1.72,10.56,4.51,10.56s4.37-3.55,4.37-10.65c0-6.91-1.49-10.56-4.42-10.56C9.12,404.7,7.3,408.06,7.3,415.35Z" fill="#fff"/><path d="M36.38,406.19h-.09L30.34,409l-1.2-5.48,8.3-3.84h6v31.21H36.38Z" fill="#fff"/><path d="M9.74,448.18H9.65L3.7,451l-1.2-5.47,8.3-3.84h6v31.2H9.74Z" fill="#fff"/><path d="M392.23,448.18h-.1L386.18,451l-1.2-5.47,8.3-3.84h6v31.2h-7Z" fill="#fff"/><path d="M878.2,448.18h-.1l-6,2.83-1.2-5.47,8.31-3.84h6v31.2H878.2Z" fill="#fff"/><path d="M1262.93,448.18h-.1l-5.95,2.83-1.2-5.47,8.31-3.84h6v31.2h-7.06Z" fill="#fff"/><path d="M356.23,406.19h-.1L350.18,409l-1.2-5.47,8.3-3.85h6v31.21h-7Z" fill="#fff"/><path d="M396.6,415.16c0,9.6-3.89,16.28-11.81,16.28-8.07,0-11.62-7.25-11.67-16.09,0-9.07,3.79-16.17,11.86-16.17C393.28,399.18,396.6,406.62,396.6,415.16Zm-16.18.19c0,7.16,1.73,10.56,4.51,10.56s4.37-3.55,4.37-10.65c0-6.91-1.49-10.56-4.42-10.56C382.24,404.7,380.42,408.06,380.42,415.35Z" fill="#fff"/><path d="M409.51,406.19h-.1l-6,2.83-1.2-5.47,8.3-3.85h6v31.21h-7.05Z" fill="#fff"/><path d="M449.87,415.16c0,9.6-3.88,16.28-11.8,16.28s-11.62-7.25-11.67-16.09c0-9.07,3.79-16.17,11.86-16.17C446.56,399.18,449.87,406.62,449.87,415.16Zm-16.17.19c0,7.16,1.73,10.56,4.51,10.56s4.37-3.55,4.37-10.65c0-6.91-1.49-10.56-4.42-10.56C435.52,404.7,433.7,408.06,433.7,415.35Z" fill="#fff"/><path d="M834.2,406.19h-.09l-6,2.83-1.2-5.47,8.31-3.85h6v31.21H834.2Z" fill="#fff"/><path d="M874.57,415.16c0,9.6-3.89,16.28-11.81,16.28s-11.61-7.25-11.66-16.09c0-9.07,3.79-16.17,11.86-16.17C871.26,399.18,874.57,406.62,874.57,415.16Zm-16.18.19c0,7.16,1.73,10.56,4.52,10.56s4.37-3.55,4.37-10.65c0-6.91-1.49-10.56-4.42-10.56C860.22,404.7,858.39,408.06,858.39,415.35Z" fill="#fff"/><path d="M887.48,406.19h-.09l-6,2.83-1.2-5.47,8.31-3.85h6v31.21h-7.06Z" fill="#fff"/><path d="M927.85,415.16c0,9.6-3.89,16.28-11.81,16.28s-11.62-7.25-11.66-16.09c0-9.07,3.79-16.17,11.85-16.17C924.54,399.18,927.85,406.62,927.85,415.16Zm-16.18.19c0,7.16,1.73,10.56,4.52,10.56s4.36-3.55,4.36-10.65c0-6.91-1.48-10.56-4.41-10.56C913.5,404.7,911.67,408.06,911.67,415.35Z" fill="#fff"/><path d="M1250,415.16c0,9.6-3.89,16.28-11.81,16.28s-11.62-7.25-11.66-16.09c0-9.07,3.79-16.17,11.85-16.17C1246.71,399.18,1250,406.62,1250,415.16Zm-16.18.19c0,7.16,1.73,10.56,4.51,10.56s4.37-3.55,4.37-10.65c0-6.91-1.49-10.56-4.41-10.56C1235.67,404.7,1233.84,408.06,1233.84,415.35Z" fill="#fff"/><path d="M1262.93,406.19h-.1l-5.95,2.83-1.2-5.47,8.31-3.85h6v31.21h-7.06Z" fill="#fff"/><path d="M521.32,16c0,9.6-3.89,16.27-11.81,16.27-8.07,0-11.62-7.25-11.67-16.08C497.84,7.1,501.64,0,509.7,0,518,0,521.32,7.44,521.32,16Zm-16.18.19c0,7.15,1.73,10.56,4.51,10.56S514,23.19,514,16.08c0-6.91-1.49-10.56-4.41-10.56C507,5.52,505.14,8.88,505.14,16.18Z" fill="#fff"/><path d="M534.23,7h-.1l-6,2.83L527,4.37,535.29.53h6v31.2h-7.06Z" fill="#fff"/><path d="M574.6,16c0,9.6-3.89,16.27-11.81,16.27S551.17,25,551.12,16.18C551.12,7.1,554.92,0,563,0,571.29,0,574.6,7.44,574.6,16Zm-16.18.19c0,7.15,1.73,10.56,4.51,10.56s4.37-3.55,4.37-10.66c0-6.91-1.49-10.56-4.42-10.56C560.24,5.52,558.42,8.88,558.42,16.18Z" fill="#fff"/><path d="M587.51,7h-.1l-5.95,2.83-1.2-5.47,8.3-3.84h6v31.2h-7Z" fill="#fff"/><path d="M627.88,16c0,9.6-3.89,16.27-11.81,16.27-8.07,0-11.62-7.25-11.67-16.08C604.4,7.1,608.2,0,616.26,0,624.56,0,627.88,7.44,627.88,16Zm-16.18.19c0,7.15,1.73,10.56,4.51,10.56s4.37-3.55,4.37-10.66c0-6.91-1.49-10.56-4.42-10.56C613.52,5.52,611.7,8.88,611.7,16.18Z" fill="#fff"/><path d="M640.79,7h-.1l-6,2.83-1.2-5.47,8.3-3.84h6v31.2h-7.05Z" fill="#fff"/><path d="M681.16,16c0,9.6-3.89,16.27-11.81,16.27-8.07,0-11.62-7.25-11.67-16.08C657.68,7.1,661.47,0,669.54,0,677.84,0,681.16,7.44,681.16,16ZM665,16.18c0,7.15,1.73,10.56,4.51,10.56s4.37-3.55,4.37-10.66c0-6.91-1.49-10.56-4.42-10.56C666.8,5.52,665,8.88,665,16.18Z" fill="#fff"/><path d="M694.07,7H694l-6,2.83-1.2-5.47,8.3-3.84h6v31.2h-7Z" fill="#fff"/><path d="M734.44,16c0,9.6-3.89,16.27-11.81,16.27C714.56,32.26,711,25,711,16.18,711,7.1,714.75,0,722.82,0,731.12,0,734.44,7.44,734.44,16Zm-16.18.19c0,7.15,1.73,10.56,4.51,10.56s4.37-3.55,4.37-10.66c0-6.91-1.49-10.56-4.42-10.56C720.08,5.52,718.26,8.88,718.26,16.18Z" fill="#fff"/><path d="M615.33,781.81v.1l2.83,6-5.47,1.2-3.84-8.31v-6h31.2v7.06Z" fill="#f5f5f5"/><path d="M624.31,746.23c9.6,0,16.27,3.89,16.27,11.81,0,8.07-7.25,11.62-16.08,11.67-9.08,0-16.18-3.79-16.18-11.86C608.32,749.55,615.76,746.23,624.31,746.23Zm.19,16.18c7.15,0,10.56-1.73,10.56-4.51s-3.55-4.37-10.66-4.37c-6.91,0-10.56,1.49-10.56,4.42C613.84,760.59,617.2,762.41,624.5,762.41Z" fill="#f5f5f5"/><path d="M615.33,738.13v.09l2.83,6-5.47,1.2-3.84-8.31v-6h31.2v7.06Z" fill="#f5f5f5"/><path d="M624.31,702.56c9.6,0,16.27,3.89,16.27,11.81S633.33,726,624.5,726c-9.08,0-16.18-3.79-16.18-11.85C608.32,705.87,615.76,702.56,624.31,702.56Zm.19,16.18c7.15,0,10.56-1.73,10.56-4.51s-3.55-4.37-10.66-4.37c-6.91,0-10.56,1.49-10.56,4.41C613.84,716.91,617.2,718.74,624.5,718.74Z" fill="#f5f5f5"/><path d="M615.33,694.45v.09l2.83,6-5.47,1.2-3.84-8.3v-6h31.2v7.06Z" fill="#f5f5f5"/><path d="M624.31,658.85c9.6,0,16.27,3.89,16.27,11.81,0,8.07-7.25,11.62-16.08,11.67-9.08,0-16.18-3.8-16.18-11.86C608.32,662.16,615.76,658.85,624.31,658.85ZM624.5,675c7.15,0,10.56-1.73,10.56-4.51s-3.55-4.37-10.66-4.37c-6.91,0-10.56,1.49-10.56,4.42C613.84,673.21,617.2,675,624.5,675Z" fill="#f5f5f5"/><path d="M615.33,650.75v.1l2.83,5.95-5.47,1.2-3.84-8.31v-6h31.2v7.06Z" fill="#f5f5f5"/><path d="M624.31,615.2c9.6,0,16.27,3.88,16.27,11.8,0,8.07-7.25,11.62-16.08,11.67-9.08,0-16.18-3.79-16.18-11.86C608.32,618.51,615.76,615.2,624.31,615.2Zm.19,16.17c7.15,0,10.56-1.73,10.56-4.51s-3.55-4.37-10.66-4.37c-6.91,0-10.56,1.49-10.56,4.42C613.84,629.55,617.2,631.37,624.5,631.37Z" fill="#f5f5f5"/><path d="M615.33,607.08v.1l2.83,6-5.47,1.2-3.84-8.3v-6h31.2v7.05Z" fill="#f5f5f5"/><path d="M624.31,571.5c9.6,0,16.27,3.89,16.27,11.81S633.33,594.92,624.5,595c-9.08,0-16.18-3.79-16.18-11.86C608.32,574.81,615.76,571.5,624.31,571.5Zm.19,16.17c7.15,0,10.56-1.72,10.56-4.51s-3.55-4.37-10.66-4.37c-6.91,0-10.56,1.49-10.56,4.42C613.84,585.85,617.2,587.67,624.5,587.67Z" fill="#f5f5f5"/><path d="M615.33,563.38v.1l2.83,5.95-5.47,1.2-3.84-8.3v-6h31.2v7Z" fill="#f5f5f5"/><path d="M624.31,527.84c9.6,0,16.27,3.88,16.27,11.8,0,8.07-7.25,11.62-16.08,11.67-9.08,0-16.18-3.79-16.18-11.86C608.32,531.15,615.76,527.84,624.31,527.84ZM624.5,544c7.15,0,10.56-1.73,10.56-4.51s-3.55-4.37-10.66-4.37c-6.91,0-10.56,1.49-10.56,4.42C613.84,542.19,617.2,544,624.5,544Z" fill="#f5f5f5"/><path d="M615.33,519.7v.1l2.83,6-5.47,1.2-3.84-8.31v-6h31.2v7.06Z" fill="#f5f5f5"/><path d="M624.31,484.13c9.6,0,16.27,3.89,16.27,11.81s-7.25,11.62-16.08,11.67c-9.08,0-16.18-3.8-16.18-11.86C608.32,487.44,615.76,484.13,624.31,484.13Zm.19,16.18c7.15,0,10.56-1.73,10.56-4.51s-3.55-4.37-10.66-4.37c-6.91,0-10.56,1.49-10.56,4.41C613.84,498.48,617.2,500.31,624.5,500.31Z" fill="#f5f5f5"/><path d="M615.33,476v.09l2.83,6-5.47,1.2L608.85,475v-6h31.2V476Z" fill="#f5f5f5"/><path d="M624.31,440.45c9.6,0,16.27,3.89,16.27,11.81s-7.25,11.61-16.08,11.66c-9.08,0-16.18-3.79-16.18-11.85C608.32,443.76,615.76,440.45,624.31,440.45Zm.19,16.18c7.15,0,10.56-1.73,10.56-4.52s-3.55-4.36-10.66-4.36c-6.91,0-10.56,1.48-10.56,4.41C613.84,454.8,617.2,456.63,624.5,456.63Z" fill="#f5f5f5"/><path d="M615.33,432.35v.1l2.83,5.95-5.47,1.2-3.84-8.3v-6h31.2v7.05Z" fill="#f5f5f5"/><path d="M624.31,396.76c9.6,0,16.27,3.89,16.27,11.81s-7.25,11.62-16.08,11.67c-9.08,0-16.18-3.79-16.18-11.86C608.32,400.08,615.76,396.76,624.31,396.76Zm.19,16.18c7.15,0,10.56-1.73,10.56-4.51s-3.55-4.37-10.66-4.37c-6.91,0-10.56,1.49-10.56,4.42C613.84,411.12,617.2,412.94,624.5,412.94Z" fill="#f5f5f5"/></svg>