<svg xmlns="http://www.w3.org/2000/svg" xmlns:xlink="http://www.w3.org/1999/xlink" viewBox="0 0 964.11 767.48"><defs><linearGradient id="a" x1="212.15" y1="138.49" x2="359.48" y2="138.49" gradientUnits="userSpaceOnUse"><stop offset="0" stop-color="#e1e8ed"/><stop offset="1" stop-color="#e1e8ed" stop-opacity="0"/></linearGradient></defs><title>Male_Computer_Modified</title><path d="M419.77,199.06c-10-11.16-35.16-4.94-44.23-.36s-3.71,15.75,3.82,12.58,20.3-8.13,27.48-1C413.25,216.56,428,208.23,419.77,199.06Z" fill="#e1e8ed"/><path d="M426.84,208c-11.81-9.25-35.48,1.25-43.62,7.33s-.91,16.16,5.95,11.72,18.58-11.53,26.88-5.8C423.46,226.36,436.55,215.59,426.84,208Z" fill="#e1e8ed"/><path d="M682.22,148.35c-10.86-47.71-69-31.75-59.63,9.49,32.33,142.1-17.33,213-174.47,64.72l-19.91,28.72C672.44,494.57,714.76,291.35,682.22,148.35Z" fill="#85949f"/><path d="M448.12,222.56l-19.91,28.72s-7.85-5.74-18.63-14.35-5-27.92-6.44-36.8-18.05-8.76-26.21-8.31-9.43-11.89.65-13.13,35.77,1.43,41.51,15.29S435.88,213,448.12,222.56Z" fill="#e1e8ed"/><path d="M433.75,238.71a6.81,6.81,0,0,1-5.93,7.56l-25,3a6.79,6.79,0,0,1-1.64-13.48l25-3A6.79,6.79,0,0,1,433.75,238.71Z" fill="#e1e8ed"/><path d="M913.6,493.74c0-19.74-20.2-63.93-109.64-63.93-215.83,0-329.67,45.08-204.77,306l27.58-.92c-89.32-297,135.69-199.58,229.67-205.41C895.11,527.06,913.6,513.48,913.6,493.74Z" fill="#85949f"/><path d="M602,745.82c-2.42,4.57-17.56,9.65-24.2,5.94s-16.36,4.16-4.71,11.36,32.58,3.71,37.67-2.64c0,2.55-.05,5.49-.05,5.49l20.11.17-1.93-20.09Z" fill="#85949f"/><path d="M913.6,493.74c0-19.74-37.91-63.93-109.64-63.93-220.51,0-344.3,46.94-249.16,306l27.59-.92C485.59,443.75,791.44,533.5,856.44,529.46,895.11,527.06,913.6,513.48,913.6,493.74Z" fill="#657786"/><path d="M555.14,745.82c-2.42,4.57-17.55,9.65-24.2,5.94s-16.36,4.16-4.71,11.36,32.58,3.71,37.67-2.64c0,2.55,0,5.49,0,5.49l20.11.17L582,746.05Z" fill="#657786"/><path d="M606.45,47.88c-6.49-12.45-25.9-32.15-47-25.24-18.61,6.1-28.86,15.17-30.5,30.82s-2.07,29.05-2.07,29.05l10.18-3.34s1.05,5.65,1.58,8,2.52,2.73,5.16,2.74a5,5,0,0,0-2.54,5.52c.68,3.26,3,4.37,3.84,5.47,21,26.82,54.6,44.19,77.5,56.93l54.85-58.92C645.89,98.92,621.13,76,606.45,47.88Z" fill="#e1e8ed"/><path d="M537.32,57.57a4.37,4.37,0,1,0,4.26-4.45A4.37,4.37,0,0,0,537.32,57.57Z" fill="#657786"/><path d="M546.9,54.43A4.37,4.37,0,1,0,551.17,50,4.37,4.37,0,0,0,546.9,54.43Z" fill="#657786"/><path d="M587.46,18.09c-3.61-8.91-15.88-12.18-24-6.7s-16.57,5.95-17.41,1.26c-5.29,8.83,1.21,20,10.22,22.05s28.41-4.33,31.83-5.8c0,5.34,13.27,20.9,18.3,19C611.5,36.71,601.24,14.08,587.46,18.09Z" fill="#657786"/><path d="M677.44,98.92l-54.85,58.92C707.27,206.73,742.07,301.23,719,463.35c67.23,13.16,145.12,30.39,194.57,30.39C950,300,895.75,100.77,677.44,98.92Z" fill="#657786"/><path d="M751.77,160c-10.86-47.71-69-31.75-59.64,9.49,32.33,142.1-23.32,251.38-254.86,144.64L421,345C719.63,512.67,784.3,303,751.77,160Z" fill="#657786"/><path d="M964.11,549.09a29,29,0,0,1-29,29H698.34a29,29,0,0,1-29-29h0a29,29,0,0,1,29-29H935.09a29,29,0,0,1,29,29Z" fill="#85949f"/><rect x="784.96" y="578.12" width="49.5" height="34.18" fill="#85949f"/><rect x="797.93" y="612.29" width="23.57" height="93.9" fill="#e1e8ed"/><path d="M425,331.89a6.8,6.8,0,0,1-5,8.22l-24.45,6.08A6.79,6.79,0,0,1,392.3,333l24.45-6.08A6.8,6.8,0,0,1,425,331.89Z" fill="#e1e8ed"/><path d="M437.27,314.1,421,345s-8.49-4.73-20.25-12-8.38-27.09-10.88-35.73-19-6.49-27-5-10.81-10.64-1-13.1,35.67-3,43.06,10.1S424,306.09,437.27,314.1Z" fill="#e1e8ed"/><path d="M406.26,294.25c-11.31-9.85-35.5-.61-43.94,5.05s-1.76,16.08,5.32,12,19.16-10.55,27.16-4.39C401.92,312.41,415.56,302.34,406.26,294.25Z" fill="#e1e8ed"/><path d="M414.37,302.25c-12.85-7.74-35.06,5.58-42.39,12.61s1.06,16.15,7.33,10.9,17-13.71,26-9C413.26,320.89,424.93,308.6,414.37,302.25Z" fill="#e1e8ed"/><rect x="667.74" y="703.83" width="15.47" height="29.86" fill="#e1e8ed"/><rect x="802.48" y="703.83" width="15.47" height="29.86" fill="#e1e8ed"/><polygon points="797.93 706.19 683.21 718.76 683.21 703.84 797.93 683.93 797.93 706.19" fill="#e1e8ed"/><path d="M691.19,751.77a15.72,15.72,0,1,1-15.72-15.72A15.71,15.71,0,0,1,691.19,751.77Z" fill="#85949f"/><path d="M825.93,751.77a15.72,15.72,0,1,1-15.71-15.72A15.71,15.71,0,0,1,825.93,751.77Z" fill="#85949f"/><rect x="936.22" y="703.83" width="15.47" height="29.86" fill="#e1e8ed"/><polygon points="821.5 706.19 936.22 718.76 936.22 703.84 821.5 683.93 821.5 706.19" fill="#e1e8ed"/><path d="M928.24,751.77A15.72,15.72,0,1,0,944,736.05,15.71,15.71,0,0,0,928.24,751.77Z" fill="#85949f"/><rect y="361.25" width="431.38" height="23.57" fill="#e1e8ed"/><rect x="245.55" y="331.39" width="15.71" height="29.86" fill="#657786"/><rect x="300.87" y="269.4" width="17.29" height="141.44" transform="translate(-80.4 583.93) rotate(-79.71)" fill="#e1e8ed"/><rect x="308.8" y="384.82" width="33.05" height="382.66" fill="#657786"/><rect x="39.54" y="384.82" width="38.26" height="382.66" fill="#657786"/><rect x="182.69" width="29.46" height="276.98" fill="#aab8c2"/><path d="M165.6,22.39V254.58L182.69,277V0Z" fill="#657786"/><path d="M212.15,22.39V254.58L359.48,277V0Z" opacity="0.51" fill="url(#a)"/><polygon points="214.12 361.25 80.5 361.25 129.89 171.49 165.6 171.49 165.6 189.17 143.55 189.17 103.37 343.57 214.12 343.57 214.12 361.25" fill="#657786"/></svg>