<svg xmlns="http://www.w3.org/2000/svg" viewBox="0 0 210.43 277.26"><title>Male_Controller</title><rect x="160.03" y="190.47" width="124.42" height="3.13" transform="translate(-64.28 344.91) rotate(-72.19)" fill="#aab8c2"/><path d="M246,131.75a4.16,4.16,0,1,0-5.23,2.69,4.15,4.15,0,0,0,5.23-2.69" transform="translate(-35.72)" fill="#657786"/><rect x="153.08" y="137.31" width="3.13" height="127.37" transform="translate(-116 105.46) rotate(-30.3)" fill="#aab8c2"/><path d="M117.71,146a4.16,4.16,0,1,0,1.5-5.68A4.16,4.16,0,0,0,117.71,146Z" transform="translate(-35.72)" fill="#657786"/><path d="M196.07,122.51a4.23,4.23,0,1,1-4.23-4.22A4.23,4.23,0,0,1,196.07,122.51Z" transform="translate(-35.72)" fill="#aab8c2"/><rect x="157.37" y="129.99" width="3.13" height="124.42" fill="#aab8c2"/><path d="M190.5,127.55a4.16,4.16,0,1,0,4.16-4.16A4.16,4.16,0,0,0,190.5,127.55Z" transform="translate(-35.72)" fill="#657786"/><path d="M186,116.38c6.8,0,15.71,1.91,15.71,10.8,0,3.27-2.86,3.09-2.94.37-.08-3.16-1.62-5.27-5-6.16-1.25-.33-2.3-.3-2.76.83s1.88,3,2.43,3.57c1.11,1.11-.25,3.53-2.38,1.85-1.31-1-4.54-3.28-6.19-4.6S183.68,116.39,186,116.38Z" transform="translate(-35.72)" fill="#e1e8ed"/><path d="M118.44,45.34c-1.27-7.11-27.45,8.25-21.61,19C109,86.85,122.52,119.59,184.9,123l1.14-6.66C134,107.54,123.51,73.85,118.44,45.34Z" transform="translate(-35.72)" fill="#657786"/><path d="M93.53,38.61c1-4.51,2.63-19.24,2.63-19.24l3,.09S98,15.91,96.32,11.84,91.19,6.13,85.72,6c-6.2-.19-10.16,5.1-10.75,10.34-.4,3.58-3.29,16.43-5.21,21.42C66.79,45.44,92.19,44.67,93.53,38.61Z" transform="translate(-35.72)" fill="#e1e8ed"/><path d="M94.4,13.59a1.23,1.23,0,0,1-.87,1.5A1.21,1.21,0,0,1,92,14.23a1.22,1.22,0,1,1,2.36-.64Z" transform="translate(-35.72)" fill="#657786"/><path d="M91.58,13.5a1.22,1.22,0,1,1-1.5-.86A1.21,1.21,0,0,1,91.58,13.5Z" transform="translate(-35.72)" fill="#657786"/><path d="M87.62,0c2.42,1.84,2.43,5.75.19,7.3S81,9.21,77.89,9.08c.6,1.46-1.33,7.18-2.92,7.21-2.61-2.5-2.3-9.82,1.92-10.25a4.88,4.88,0,0,1,5.82-4.47c2.81.61,5.19-.19,4.91-1.57" transform="translate(-35.72)" fill="#657786"/><path d="M104.05,148.21a733,733,0,0,1-9.31,121.71l-6.61-.27c-1.64-31.2-7.71-69.95-17.48-119.78C66.58,129.12,104,126.16,104.05,148.21Z" transform="translate(-35.72)" fill="#657786"/><path d="M94.88,272.32c.57,1.1,4.2,2.34,5.79,1.45s5,.73,2.24,2.45-8.94,1.13-10.15-.4c0,.61,0,1.32,0,1.32H88l.48-4.81Z" transform="translate(-35.72)" fill="#657786"/><path d="M78.61,148.21c-5.3,49.87-13.92,85.6-19.52,121.71l-6.61-.27c-1.64-31.2-3-71.57-7.28-119.78C43.31,128.81,80.93,126.28,78.61,148.21Z" transform="translate(-35.72)" fill="#657786"/><path d="M59,272.32c.57,1.1,4.19,2.34,5.79,1.45s5,.73,2.23,2.45-8.93,1.13-10.14-.4v1.32H52.06l.49-4.81Z" transform="translate(-35.72)" fill="#657786"/><path d="M40.26,40.08c8.37-4.43,77.42-6.72,78.18,5.26.86,13.69-4.53,60.54-11.33,102.87h-66C42.44,93.3,29,46.06,40.26,40.08Z" transform="translate(-35.72)" fill="#657786"/><path d="M40,58.78c-2-20,23.14-23.14,24.32-3.68,2.5,40.94-.53,61.28,50.81,80.82l-1.16,7.44C49.17,131.71,44.31,101.42,40,58.78Z" transform="translate(-35.72)" fill="#657786"/><path d="M120,134.55a1.09,1.09,0,0,0-1.27-1.76l-3.14,2.28a1.09,1.09,0,0,0-.23,1.52,1.08,1.08,0,0,0,1.51.24Z" transform="translate(-35.72)" fill="#fff"/><path d="M121.64,145.89a1.11,1.11,0,0,0,1.25-.91,1.09,1.09,0,0,0-.91-1.24l-3-.48a1.09,1.09,0,0,0-.34,2.15Z" transform="translate(-35.72)" fill="#e1e8ed"/><path d="M115,144.84a1.29,1.29,0,0,1-1.08-1.48l1.16-7.44a1.29,1.29,0,0,1,1.48-1.08l4.73.74a1.29,1.29,0,0,1,1.08,1.48l-1.16,7.45a1.3,1.3,0,0,1-1.48,1.08Z" transform="translate(-35.72)" fill="#e1e8ed"/><path d="M122.87,138a1.08,1.08,0,1,0,.34-2.14l-3-.48a1.08,1.08,0,0,0-1.24.9,1.1,1.1,0,0,0,.91,1.25Z" transform="translate(-35.72)" fill="#e1e8ed"/><path d="M122.46,140.64a1.08,1.08,0,0,0,1.25-.9,1.1,1.1,0,0,0-.91-1.25l-3-.47a1.08,1.08,0,0,0-1.24.9,1.09,1.09,0,0,0,.91,1.25Z" transform="translate(-35.72)" fill="#e1e8ed"/><path d="M122.05,143.26a1.08,1.08,0,1,0,.34-2.14l-3-.48a1.08,1.08,0,0,0-.34,2.14Z" transform="translate(-35.72)" fill="#e1e8ed"/><path d="M235.85,277.26H153.46V239a14,14,0,0,1,14-14h54.35a14,14,0,0,1,14,14v38.24" transform="translate(-35.72)" fill="#aab8c2"/><path d="M-513.44,277.89" transform="translate(-35.72)" fill="#f9d02a"/><path d="M810.83,277.89" transform="translate(-35.72)" fill="#f9d02a"/></svg>