<svg xmlns="http://www.w3.org/2000/svg" viewBox="0 0 371.21 371.19"><title>eye</title><path d="M136.56,131.62,136.2,270m-6.86-6.88.33-124.67" fill="#becbdb"/><line x1="135.12" y1="137.85" x2="131.11" y2="132.27" fill="#becbdb"/><line x1="131.11" y1="269.39" x2="135.12" y2="263.8" fill="#becbdb"/><line x1="135.12" y1="269.39" x2="131.11" y2="263.8" fill="#becbdb"/><path d="M185.57,19.46A166.13,166.13,0,1,1,19.45,185.59,166.13,166.13,0,0,1,185.57,19.46ZM76,185.59A109.57,109.57,0,1,0,185.57,76,109.56,109.56,0,0,0,76,185.59Z" fill="#f5f8fa"/><path d="M185.6,371.19C83.26,371.19,0,287.93,0,185.59S83.26,0,185.6,0,371.21,83.25,371.21,185.59,287.94,371.19,185.6,371.19Zm0-369C84.47,2.19,2.19,84.46,2.19,185.59S84.47,369,185.6,369,369,286.72,369,185.59,286.73,2.19,185.6,2.19Z" fill="#2a3137"/><path d="M323.43,278.34A166.14,166.14,0,1,1,185.58,19.46V76a109.57,109.57,0,1,0,90.91,170.73Z" fill="#aab8c2"/><path d="M102.69,329.58A166.15,166.15,0,0,1,185.6,19.46V76a109.58,109.58,0,0,0-54.68,204.54Z" fill="#414c56"/><circle cx="185.6" cy="185.59" r="98.3" transform="translate(-76.87 185.6) rotate(-45)" fill="#0c84cd"/><ellipse cx="185.6" cy="185.59" rx="74.25" ry="41.8" fill="#fff"/><path d="M185.6,150.06a35.62,35.62,0,1,0,35.62,35.62A35.61,35.61,0,0,0,185.6,150.06Z" fill="#0c84cd"/><path d="M185.6,157.59a28.1,28.1,0,1,0,28.1,28.09A28.09,28.09,0,0,0,185.6,157.59Z" fill="#63295c"/><path d="M185.6,157.59a28.1,28.1,0,1,0,28.1,28.09A28.09,28.09,0,0,0,185.6,157.59Z" fill="#0c84cd"/><path d="M198,168.41a4.9,4.9,0,1,0,4.9,4.9A4.9,4.9,0,0,0,198,168.41Z" fill="#fff"/></svg>