<svg xmlns="http://www.w3.org/2000/svg" xmlns:xlink="http://www.w3.org/1999/xlink" viewBox="0 0 2386.75 1184.38"><defs><linearGradient id="a" x1="1831.47" y1="591.87" x2="2364" y2="591.87" gradientUnits="userSpaceOnUse"><stop offset="0" stop-color="#f5f8fa"/><stop offset="1" stop-color="#aab8c2"/></linearGradient><linearGradient id="b" x1="930.93" y1="854" x2="1127.78" y2="657.14" gradientTransform="translate(854.74 -460.73) rotate(45)" xlink:href="#a"/><linearGradient id="c" x1="904.54" y1="382.34" x2="1953.1" y2="382.34" gradientTransform="translate(681.16 -879.79) rotate(45)" xlink:href="#a"/><linearGradient id="d" x1="904.54" y1="592.19" x2="1953.1" y2="592.19" xlink:href="#a"/><linearGradient id="e" x1="904.54" y1="865.19" x2="1953.1" y2="865.19" gradientTransform="translate(1041.27 -783.47) rotate(45)" xlink:href="#a"/></defs><title>InfinityWhite</title><path d="M187,110.52" fill="#f5f8fa"/><path d="M173.49,128.64" fill="#f5f8fa"/><path d="M592.19,1184.38C265.15,1184.38,0,919.26,0,592.19S265.12,0,592.19,0a590.49,590.49,0,0,1,418.74,173.45L774,410.39a255.42,255.42,0,0,0-181.8-75.31c-142.09,0-257.11,115-257.11,257.11s115,257.11,257.11,257.11A255.42,255.42,0,0,0,774,774l236.94,236.94A590.47,590.47,0,0,1,592.19,1184.38Z" fill="#f5f8fa"/><polygon points="1010.93 1010.93 773.99 773.99 1375.17 172.81 1612.12 409.75 1010.93 1010.93 1010.93 1010.93" fill="#f5f8fa"/><polygon points="1375.18 1010.93 773.99 409.75 1010.93 172.81 1612.12 773.99 1375.18 1010.93 1375.18 1010.93" fill="url(#a)"/><rect x="854.74" y="633.86" width="257.56" height="335.08" transform="translate(-278.61 930.18) rotate(-45)" fill="url(#b)"/><rect x="1273.81" y="214.8" width="257.56" height="335.08" transform="translate(140.45 1103.76) rotate(-45)" fill="url(#c)"/><path d="M1794.56,1184.38a590.51,590.51,0,0,1-418.75-173.45l237-236.94a255.42,255.42,0,0,0,181.8,75.31c333.9,0,342.18-514.22,0-514.22a255.42,255.42,0,0,0-181.8,75.31l-237-236.94A590.51,590.51,0,0,1,1794.55,0h0c327,0,592.19,265.12,592.19,592.19s-265.12,592.19-592.19,592.19Z" fill="url(#d)"/><rect x="1298.83" y="826.62" width="335.08" height="77.14" transform="translate(-182.29 1290.29) rotate(-45)" fill="url(#e)"/><polygon points="1585.64 612.78 1603.54 984.8 1214.75 983.66 1585.64 612.78" fill="#f5f8fa"/></svg>