<svg xmlns="http://www.w3.org/2000/svg" viewBox="0 0 363.01 268"><title>Two People Meeting</title><path d="M126.32,76.28c10.5,34.87,18,48.48,50.39,70.95l6.38-6.37c-26.94-27.24-28.87-42.45-40.46-84.54C140.65,49.17,121.34,59.76,126.32,76.28Z" transform="translate(0 0)" fill="#414c56"/><path d="M176.71,149.43a1.57,1.57,0,0,1,0-2.2l6.38-6.37a1.55,1.55,0,0,1,2.2,0l4,4a1.54,1.54,0,0,1,0,2.2L183,153.48a1.55,1.55,0,0,1-2.2,0Z" transform="translate(0 0)" fill="#e1e8ed"/><path d="M188.76,143a1.3,1.3,0,0,0,0-2.6h-4.64a1.3,1.3,0,0,0,0,2.6Z" transform="translate(0 0)" fill="#e1e8ed"/><path d="M185,157.68a1.3,1.3,0,0,0,1.84-1.84l-4.15-4.14a1.3,1.3,0,0,0-1.84,1.84Z" transform="translate(0 0)" fill="#e1e8ed"/><path d="M191.7,151a1.3,1.3,0,1,0,1.84-1.83L189.4,145a1.32,1.32,0,0,0-1.84,0,1.3,1.3,0,0,0,0,1.84Z" transform="translate(0 0)" fill="#e1e8ed"/><path d="M189.45,153.19a1.3,1.3,0,0,0,1.85-1.83l-4.15-4.14a1.3,1.3,0,1,0-1.84,1.83Z" transform="translate(0 0)" fill="#e1e8ed"/><path d="M187.2,155.44A1.3,1.3,0,0,0,189,153.6l-4.14-4.14a1.3,1.3,0,0,0-1.84,1.83Z" transform="translate(0 0)" fill="#e1e8ed"/><path d="M130.36,44.84c2.57-3.7,6.19-13.59,7-20.13l2.92.12s-1.1-3.47-2.69-7.45-4.95-5.61-10.28-5.83c-6-.24-9.94,4.88-10.56,10C116.3,25,110,30.3,106.41,34.09,100.87,40,126.91,49.81,130.36,44.84Z" transform="translate(0 0)" fill="#e1e8ed"/><path d="M135.68,19.07a1.19,1.19,0,0,1-.85,1.45,1.19,1.19,0,0,1-.61-2.3A1.2,1.2,0,0,1,135.68,19.07Z" transform="translate(0 0)" fill="#414c56"/><path d="M132.94,19a1.19,1.19,0,1,1-1.46-.86A1.2,1.2,0,0,1,132.94,19Z" transform="translate(0 0)" fill="#414c56"/><path d="M118.69,11.56a4.73,4.73,0,0,1,5.7-4.3c2.74.62,5.07-.15,4.8-1.49,2.35,1.81,2.32,5.62.13,7.11s-6.62,1.81-9.68,1.65c.56,1.43-1.36,7-2.91,7C114.21,19.07,114.57,11.94,118.69,11.56Z" transform="translate(0 0)" fill="#414c56"/><path d="M99.45,133c-4.61,34.23-14.34,83.47-17.69,127.89l-6.45-.25c-4.16-36.36-6.38-82.42-3.32-128.3C73.36,111.74,102.31,111.65,99.45,133Z" transform="translate(0 0)" fill="#414c56"/><path d="M81.66,263.19c.56,1.07,4.09,2.27,5.64,1.41s4.91.71,2.18,2.39-8.7,1.1-9.88-.39v1.28H74.9l.48-4.68Z" transform="translate(0 0)" fill="#414c56"/><path d="M71.74,133c-8.08,54-33.84,97-62.36,124l-5.54-3.29c23-34.7,42.56-82.94,40.45-121.37C43.16,111.72,74.93,111.7,71.74,133Z" transform="translate(0 0)" fill="#414c56"/><path d="M8.18,259c0,1.2,2.51,3.95,4.29,3.93s4,3,.78,3.13-8.18-3.18-8.51-5c-.28.53-.61,1.13-.61,1.13L0,259.89,2.65,256Z" transform="translate(0 0)" fill="#414c56"/><path d="M87.62,25c21.42,5.84,50.53,21.2,54.52,29.72,5.67,12.1-33.51,46.72-40.1,96.35L39.09,146.3C39.79,102.91,69.22,20,87.62,25Z" transform="translate(0 0)" fill="#414c56"/><path d="M22.29,153.35a1.3,1.3,0,1,0,1.84-1.83l-3.26-3.29A1.3,1.3,0,0,0,19,150.07Z" transform="translate(0 0)" fill="#e1e8ed"/><path d="M9.2,157.51a1.3,1.3,0,1,0,2.6,0v-3.77a1.3,1.3,0,0,0-1.29-1.31,1.31,1.31,0,0,0-1.31,1.3Z" transform="translate(0 0)" fill="#e1e8ed"/><path d="M9.21,149.39a1.55,1.55,0,0,1,1.55-1.55h9a1.55,1.55,0,0,1,1.55,1.56v5.72a1.54,1.54,0,0,1-1.55,1.55h-9a1.56,1.56,0,0,1-1.55-1.55Z" transform="translate(0 0)" fill="#e1e8ed"/><path d="M18.72,157.54a1.3,1.3,0,0,0,2.6,0v-3.78a1.3,1.3,0,0,0-2.6,0Z" transform="translate(0 0)" fill="#e1e8ed"/><path d="M15.55,157.53a1.3,1.3,0,0,0,2.6,0v-3.78a1.3,1.3,0,1,0-2.6,0Z" transform="translate(0 0)" fill="#e1e8ed"/><path d="M12.37,157.52a1.3,1.3,0,1,0,2.6,0v-3.77a1.3,1.3,0,1,0-2.6,0Z" transform="translate(0 0)" fill="#e1e8ed"/><path d="M83.29,25.13C26.83,44.51,6.24,124.5,10.76,147.84h9c1.8-26.92,24.48-81.44,64.39-95.16C94.81,49,92,22.15,83.29,25.13Z" transform="translate(0 0)" fill="#414c56"/><polygon points="242.94 99.84 206.71 135.32 211.11 139.84 249.2 104.89 258.74 89.23 251.92 83.49 242.94 99.84" fill="#e1e8ed" fill-rule="evenodd"/><polygon points="267.93 50.23 246.28 92.12 255.5 97.44 276.39 60.41 267.93 50.23" fill="#414c56"/><path d="M207,136.05a1.05,1.05,0,0,1-1.07,1l-3.44,0a1.06,1.06,0,1,1,0-2.12l3.44,0A1.05,1.05,0,0,1,207,136.05Z" transform="translate(0 0)" fill="#e1e8ed"/><path d="M211.09,141.37a1.08,1.08,0,0,0,0-1.53l-4.4-4.52a1.09,1.09,0,0,0-1.54,0l-2.34,2.28a1.08,1.08,0,0,0,0,1.53l4.4,4.52a1.09,1.09,0,0,0,1.54,0Z" transform="translate(0 0)" fill="#e1e8ed"/><path d="M204.26,137.58a1,1,0,0,0-1.43,0l-3.13,3.05a1,1,0,1,0,1.4,1.43l3.12-3.05A1,1,0,0,0,204.26,137.58Z" transform="translate(0 0)" fill="#e1e8ed"/><path d="M205.76,139.13a1,1,0,0,0-1.42,0l-3.13,3a1,1,0,1,0,1.4,1.43l3.12-3A1,1,0,0,0,205.76,139.13Z" transform="translate(0 0)" fill="#e1e8ed"/><path d="M207.27,140.68a1,1,0,0,0-1.42,0l-3.13,3.05a1,1,0,1,0,1.39,1.43l3.13-3.05A1,1,0,0,0,207.27,140.68Z" transform="translate(0 0)" fill="#e1e8ed"/><path d="M208.78,142.23a1,1,0,0,0-1.42,0l-3.13,3.05a1,1,0,1,0,1.39,1.43l3.13-3A1,1,0,0,0,208.78,142.23Z" transform="translate(0 0)" fill="#e1e8ed"/><path d="M311.23,183.38c3.61,7.27,48,78.22,48,78.22l-1-7.55c-7.13-10.82-14.32-27.82-18.42-41.07s-6-16.29-7.66-18.38-7.75-11.22-7.75-11.22Z" transform="translate(0 0)" fill="#e1e8ed" fill-rule="evenodd"/><path d="M355.64,249.87a5.09,5.09,0,0,1,3.71.19c.45,3.14,3.66,10.23,3.66,10.23l-.92.49Z" transform="translate(0 0)" fill="#414c56"/><polygon points="359.28 261.6 353.33 265.46 358.03 259.56 359.28 261.6" fill="#414c56"/><path d="M301,182.47c-.24,8.12,4.3,82.39,4.3,82.39l2.62-7.16c-1.19-12.9.48-31.29,3.11-44.9s2.39-17.19,1.91-19.82-2.39-10.51-2.39-10.51Z" transform="translate(0 0)" fill="#e1e8ed" fill-rule="evenodd"/><path d="M307.58,252.8a5.1,5.1,0,0,1,3.18,1.91c-1.07,3-1.59,10.75-1.59,10.75h-1Z" transform="translate(0 0)" fill="#414c56"/><polygon points="305.27 264.86 298.2 265.46 305.12 262.47 305.27 264.86" fill="#414c56"/><path d="M323.14,110.88c2.59,4.6,9.93,7.59,12.74,20.33s-6.67,56.22-6.67,56.22l-28.58.33s2.43-67.46,3.71-75.32S321.73,108.39,323.14,110.88Z" transform="translate(0 0)" fill="#414c56"/><path d="M269.79,49.26c2.44-1.39,8.51-4.83,11.28-6.42,20.57,15.3,18.21,59.37,42.51,68.4l-20.46,11.7c-.79-7.62-14.64-28.78-22.35-39.25C277,83.79,271.72,56.5,269.79,49.26Z" transform="translate(0 0)" fill="#0c84cd"/><path d="M262.39,1.6C257,4,246.67,14.88,245.9,21.14c-.49,3.89,5.89,9.68,9.34,10.89S269-1.24,262.39,1.6Z" transform="translate(0 0)" fill="#414c56"/><path d="M273.26,33c10.93-9,6-23.71.3-28.24C269,1.13,264.93,1.4,262,2.56c-4.81,1.9-13.47,15-13.47,15l2.71.23s-1.12,6.46.47,9.76c3.82,7.91,11.52,7,21.2,19.86,3.44,4.56,4.08-.16,4-2.19C273.14,39.84,270.36,35.41,273.26,33Z" transform="translate(0 0)" fill="#e1e8ed"/><path d="M261.21,3.31c-1.9,4.73,4,8.89,9.12,14,5.35,5.24-2.76,17.19-7.25,19.43l20.36-1.46c4.17-13.5-3.73-30.74-9.9-34-5.45-2.84-12.58-1-17.73,6.64C257.37,6.48,258,5.9,261.21,3.31Z" transform="translate(0 0)" fill="#414c56"/><path d="M255.59,10.74a1.43,1.43,0,1,0,2-.36A1.42,1.42,0,0,0,255.59,10.74Z" transform="translate(0 0)" fill="#414c56"/><path d="M258.74,11.75a1.43,1.43,0,1,0,2-.36A1.43,1.43,0,0,0,258.74,11.75Z" transform="translate(0 0)" fill="#414c56"/><polygon points="270.35 48.95 273.52 54.8 279.54 74.45 275.49 53.48 278.29 44.41 270.35 48.95" fill="#e1e8ed"/><path d="M281.07,42.84l-2.78,1.57.12,31.45-8.62-26.6-1.86,1s7.45,24.18,3.69,29.44c1.91,3,5.48,5.25,9.15,4,8,11.5,18,34.77,21.84,42,2.79-1.61,23.23-13.29,26.95-15.42-14.65-1.76-28.39-30.91-34.83-49.43C286.21,50,281.07,42.84,281.07,42.84Z" transform="translate(0 0)" fill="#414c56"/><polygon points="279.75 73.22 279.6 73.17 284.17 57.88 279.82 55.5 279.94 55.42 283.75 53 279.85 44.77 279.99 44.7 283.96 53.06 283.9 53.1 280.14 55.49 284.36 57.8 284.35 57.87 279.75 73.22" fill="#0c84cd"/><polygon points="353.94 120.83 329.85 78.27 310.68 64.21 307 69.75 325.47 82.87 348.58 124.17 353.94 120.83" fill="#e1e8ed"/><path d="M281.06,42.82c3.36-1.92,44,28.86,44,28.86l-5,10.6S292.83,61,290.59,59.22,277.69,44.75,281.06,42.82Z" transform="translate(0 0)" fill="#414c56"/><path d="M349.36,124.05a1.06,1.06,0,0,1,.79,1.28l-.77,3.35a1.06,1.06,0,0,1-2.07-.48l.78-3.35A1.06,1.06,0,0,1,349.36,124.05Z" transform="translate(0 0)" fill="#e1e8ed"/><path d="M355.43,121.18a1.09,1.09,0,0,0-1.49-.35l-5.36,3.34a1.09,1.09,0,0,0-.34,1.5l1.73,2.77a1.08,1.08,0,0,0,1.49.35l5.35-3.34a1.09,1.09,0,0,0,.35-1.5Z" transform="translate(0 0)" fill="#e1e8ed"/><path d="M351.77,127.32a1.06,1.06,0,1,1,1.79-1.12l1.15,1.83a1.06,1.06,0,0,1-1.8,1.12Z" transform="translate(0 0)" fill="#e1e8ed"/><path d="M350,128.44a1.06,1.06,0,1,1,1.8-1.12l1.14,1.83a1.06,1.06,0,0,1-1.8,1.13Z" transform="translate(0 0)" fill="#e1e8ed"/><path d="M353.9,124.74a1.06,1.06,0,0,1,1.46.34l1.15,1.83a1.08,1.08,0,0,1-.34,1.46,1.06,1.06,0,0,1-1.46-.34l-1.15-1.83A1.07,1.07,0,0,1,353.9,124.74Z" transform="translate(0 0)" fill="#e1e8ed"/><path d="M355.36,125.08a1.06,1.06,0,0,1,1.8-1.13l1.14,1.83a1.06,1.06,0,0,1-1.79,1.13Z" transform="translate(0 0)" fill="#e1e8ed"/></svg>