<svg xmlns="http://www.w3.org/2000/svg" viewBox="0 0 714.65 441.25"><title>puzzle</title><polygon points="149.83 235.71 155.29 233.19 160.82 227.68 146.87 224.17 141.63 230.29 149.83 235.71" fill="#e1e8ed"/><path d="M650.92,245.44c4.44,9,59.1,97.18,59.1,97.18l-1.26-9.37c-8.77-13.43-17.59-34.54-22.59-51s-7.34-20.21-9.38-22.82-9.54-13.94-9.54-13.94Z" fill="#e1e8ed" fill-rule="evenodd"/><path d="M705.58,328.07s2.64-.89,4.59.25c.55,3.9,4.48,12.69,4.48,12.69l-1.14.6Z" fill="#657786"/><polygon points="710.02 342.62 702.63 347.36 708.48 340.08 710.02 342.62" fill="#657786"/><path d="M638.22,244.27c-.34,10,4.87,102.09,4.87,102.09l3.29-8.86c-1.41-16,.77-38.76,4.09-55.61s3.06-21.28,2.48-24.54-2.9-13-2.9-13Z" fill="#e1e8ed" fill-rule="evenodd"/><path d="M646,331.43s2.75.46,3.93,2.39c-1.35,3.69-2,13.3-2,13.3h-1.28Z" fill="#657786"/><polygon points="643.09 346.36 634.33 347.06 642.92 343.39 643.09 346.36" fill="#657786"/><polygon points="591.01 94.17 530.37 110.44 534.09 117.31 594.76 101.72 606.95 95.11 605.71 86.02 591.01 94.17" fill="#e1e8ed" fill-rule="evenodd"/><path d="M666.08,155.69c3.19,5.71,12.26,9.47,15.67,25.26s-8.57,69.61-8.57,69.61l-35.41.25s3.38-83.56,5-93.29S664.35,152.6,666.08,155.69Z" fill="#657786"/><polygon points="649.22 58.87 598.4 87.8 604.32 98.78 648.79 75.27 649.22 58.87" fill="#657786"/><path d="M651.82,59c3.48,0,12.12.09,16.07.1,12.59,29.16-17.26,75,3.22,99.72l-29.19-.13c3.87-8.66,2.12-39.94.33-55.95C638.11,100.47,649.41,68,651.82,59Z" fill="#2a3137"/><path d="M661.18,1.46C654.23,3.84,640.52,16.37,639,24c-1,4.76,6.36,12.51,10.52,14.34S669.61-1.44,661.18,1.46Z" fill="#657786"/><path d="M669.31,40.66c14.35-10.09,12-28.08,5.36-34.22-5.34-4.95-10.33-5-14.09-3.84-6.12,1.89-18.05,17.25-18.05,17.25l3.33.54s-2,7.88-.34,12.1c4,10.13,8.35,6.66,10.78,26.42.86,7,4.47,2.36,5.62.13C659.85,48,665.5,43.34,669.31,40.66Z" fill="#e1e8ed"/><path d="M659.56,3.46c-2.79,5.66,4.05,11.34,10,18.08,6.11,7-5,21-10.79,23.33L684,45c6.43-16.3-1.71-38.33-9-42.89-6.46-4-15.43-2.48-22.52,6.52C654.52,7,655.34,6.35,659.56,3.46Z" fill="#657786"/><path d="M651.91,12.1a1.78,1.78,0,1,0,2.49-.26A1.77,1.77,0,0,0,651.91,12.1Z" fill="#657786"/><path d="M655.71,13.64a1.78,1.78,0,1,0,2.49-.25A1.78,1.78,0,0,0,655.71,13.64Z" fill="#657786"/><polygon points="652.61 58.99 652.38 67.24 646.67 92.05 655.31 67.06 663.94 59.04 652.61 58.99" fill="#e1e8ed"/><path d="M670.55,86.85c-3.26,24.07-7,63.61,7.61,74.58l-38.47-.17c.33-10.08,4-41.25,2.56-58.53-4.68-1-7.12-5.59-7.31-10,7.28-3.31,14.28-33.87,14.28-33.87l2.6.12-7.24,33.87L663.94,59h9.38C673.32,62.66,671.92,76.69,670.55,86.85Z" fill="#657786"/><path d="M576.12,141.87a1.32,1.32,0,0,1-1.64.88l-4.08-1.21a1.31,1.31,0,1,1,.75-2.52l4.08,1.21A1.32,1.32,0,0,1,576.12,141.87Z" fill="#fff"/><polygon points="579.76 147.76 634.22 121.2 653.04 98.56 646.47 93.59 628.86 115.44 576.03 140.89 579.76 147.76" fill="#e1e8ed"/><path d="M677.77,70.33c-10.51,15.34-36.42,46.26-36.42,46.26l-11.42-7.69s35.25-44.71,37.6-47.39C673.1,55.17,683.52,61.94,677.77,70.33Z" fill="#657786"/><path d="M575.23,140.23a1.18,1.18,0,0,1,.8.66l3.73,6.87c-.58.58-8.55,2.74-9.92,3.21s-8.8-.29-9.87-.41,1.13-2.62,2.56-2.8c2.47-.31,7.15-1.24,7.15-1.24Z" fill="#fff"/><path d="M530.45,111.41a1.31,1.31,0,0,1-1.63.89l-4.09-1.21a1.32,1.32,0,0,1-.88-1.64,1.31,1.31,0,0,1,1.63-.88l4.08,1.21A1.31,1.31,0,0,1,530.45,111.41Z" fill="#fff"/><path d="M529.56,109.78a1.15,1.15,0,0,1,.81.66l3.72,6.87c-.58.58-8.55,2.74-9.91,3.21s-8.8-.29-9.87-.41,1.13-2.62,2.55-2.8c2.48-.31,7.16-1.25,7.16-1.25Z" fill="#fff"/><path d="M482.22,95.15c-23.17-5.59-16.64-16.52,3.73-20.28h0c12.18-2,23.07-6.26,29.92-12.37,14.06-12.57,5.78-28-18-34.61-23.53-6.58-54.06-2.26-68.71,9.86-7.16,5.74-9.26,12.35-6.88,18.79v0c3.33,10.52-12.34,18.68-32.5,11.17h0l-119.2-43L178.84,78.74h0C163.18,88,180.35,96.38,203.24,95.5v0a125.89,125.89,0,0,1,41.7,5.39c28.13,8.87,39.33,25.71,24.42,37.7-15.22,12.2-51.32,14.52-80,5.06-13.6-4.49-22.86-10.79-27.09-17.41h0c-7.69-10.89-30.79-15.33-43-4.25L38.48,195,184.85,236c24.53,6.88,14.57,21-9.83,25.88h0c-14.68,2.69-28.7,8.44-38.88,16.82-21.63,17.78-17.94,40.78,9.09,51.1,27.4,10.45,67.28,3.5,88.23-15.32,9.85-8.65,13.56-18.44,11.83-27.24h0c-2.11-14.62,17.35-25.54,39.79-15.79,0,0,0,0,0,0l145.79,63.44,96.5-78.09,0,0c14.69-11.84-7.21-22.44-32.43-21.49a125.19,125.19,0,0,1-47.38-7c-32-10-45.82-29.33-31.49-42.48,14.05-12.92,50.33-15.26,81.68-5.39,15.2,4.77,26.58,11.58,33,18.86l0,0c11.61,12.35,38.12,17.52,47.11,4.77h0l52-73.94Z" fill="#f5f8fa" stroke="#0c84cd" stroke-miterlimit="10" stroke-width="4"/><path d="M58.81,108.24c.86-.63,2.68-1.87,2.68-1.87S55,99.78,51.24,96.85s-5.45,3.07-10.35,6.5c-5.56,3.89-2,16.41-1,20.57.89,3.5,2.33,10.77.45,15.83l21.84-.68C63.09,132.38,62,113.6,58.81,108.24Z" fill="#e1e8ed"/><path d="M84.52,432.51c1,1.9,7.22,4.06,10,2.55s8.69,1.27,3.84,4.21-15.41,1.92-17.49-.73c0,1.06,0,2.28,0,2.28H72.54l.86-8.3Z" fill="#657786"/><path d="M91.49,273.9c-2.65-30.31-43.19-30.59-36.73-.75,10.11,46.72,18.15,106,19.08,153.28h10C92.94,378,95.68,322,91.49,273.9Z" fill="#657786"/><path d="M13.45,431.22c.56,2.06,6.21,5.46,9.23,4.56s8.23,3,2.88,4.91-15.47-1.31-17-4.33c-.21,1-.47,2.22-.47,2.22L0,436.86l2.57-7.94Z" fill="#657786"/><path d="M53.12,277.5c3.7-30.21-35.9-38.88-35.77-8.36.21,47.81.89,108.15-13.1,153.91l9.81,2.08C37.83,384.77,47.26,325.44,53.12,277.5Z" fill="#657786"/><path d="M104.52,143.23C95,130.2,19.2,132,9.86,141c-15.27,14.75,7.06,35.36.24,133.3l89.4,6.22C106,187.86,109.74,150.36,104.52,143.23Z" fill="#657786"/><path d="M56.62,107.92a94.11,94.11,0,0,0-5.38-11.07c-.15-2.51-3.51-8.15-7.15-9,.44,3.26-7.37,3.91-11.56,11.13-4,7,4.65,16.84,7.57,25.88,1,3.1,11.35-1,11.93-4.21S49.23,106.87,50.1,104s3.68.4,5.52,4.19C56.05,108.09,56.23,108,56.62,107.92Z" fill="#657786"/><path d="M112.51,154.43c4,72.08,9.14,84.67,29.24,74l10.75,7.12c-15.15,17.86-52.31,40.91-71.13-73.18C76.77,134.45,111.19,130.52,112.51,154.43Z" fill="#657786"/><path d="M159.31,227.63a1.64,1.64,0,1,0-2.76-1.79l-3.2,4.92a1.64,1.64,0,0,0,.49,2.27,1.62,1.62,0,0,0,2.27-.48Z" fill="#e1e8ed"/></svg>