<svg xmlns="http://www.w3.org/2000/svg" viewBox="0 0 2391.07 2350.01"><title>rocket</title><path d="M540.79,1842.75a106.41,106.41,0,1,1-106.41-106.41A106.42,106.42,0,0,1,540.79,1842.75Z" fill="#e1e8ed"/><path d="M331.45,2035.81A106.41,106.41,0,1,1,225,1929.4,106.41,106.41,0,0,1,331.45,2035.81Z" fill="#e1e8ed"/><circle cx="2293.96" cy="2252.9" r="97.11" transform="translate(-97.13 4402.44) rotate(-86.44)" fill="#e1e8ed"/><path d="M2138.7,2125a70.36,70.36,0,1,0,70.36-70.36A70.36,70.36,0,0,0,2138.7,2125Z" fill="#e1e8ed"/><path d="M2010.77,2002.86a93.62,93.62,0,1,0,93.62-93.62A93.63,93.63,0,0,0,2010.77,2002.86Z" fill="#e1e8ed"/><path d="M1972.39,1979.6a37.8,37.8,0,1,0,37.8-37.8A37.79,37.79,0,0,0,1972.39,1979.6Z" fill="#e1e8ed"/><path d="M1917.34,1976.11a28.5,28.5,0,1,0,28.49-28.5A28.5,28.5,0,0,0,1917.34,1976.11Z" fill="#e1e8ed"/><path d="M1901.45,1922.61a28.49,28.49,0,1,0,28.49-28.49A28.49,28.49,0,0,0,1901.45,1922.61Z" fill="#e1e8ed"/><path d="M1850.28,1822.59a72.69,72.69,0,1,0,72.68-72.68A72.68,72.68,0,0,0,1850.28,1822.59Z" fill="#e1e8ed"/><path d="M1732.81,1697a90.14,90.14,0,1,0,90.14-90.13A90.14,90.14,0,0,0,1732.81,1697Z" fill="#e1e8ed"/><path d="M1579.3,1693.5a77.34,77.34,0,1,0,77.34-77.34A77.34,77.34,0,0,0,1579.3,1693.5Z" fill="#e1e8ed"/><path d="M1485.09,1748.16a55.25,55.25,0,1,0,55.24-55.24A55.24,55.24,0,0,0,1485.09,1748.16Z" fill="#e1e8ed"/><path d="M1465.32,1848.18a55.25,55.25,0,1,0,55.25-55.24A55.25,55.25,0,0,0,1465.32,1848.18Z" fill="#e1e8ed"/><path d="M1507.19,1941.22a55.24,55.24,0,1,0,55.24-55.24A55.24,55.24,0,0,0,1507.19,1941.22Z" fill="#e1e8ed"/><path d="M1589.76,1929.59a45.94,45.94,0,1,0,45.94-45.94A45.94,45.94,0,0,0,1589.76,1929.59Z" fill="#e1e8ed"/><path d="M1976.29,1983.1c-45.46-5.23-53.39-57.31-48.56-126.2,6.69-95.55-126.59-172.67-248.51-161.74-98.35,8.82-144.89,55.53-158,120.47-11.63,57.37,10.86,121.72,56.6,133.36,17.69,4.49,55.54,6.35,70.55-6.21,13.35-11.16,9.31-31.79,5.9-43.13,46-29.63,106.14,17.2,106.14,66.28,0,97-97.15,126.1-171,126.1-111.65,0-207.07-109.91-251.7-262.46-50-171-90-426-102.34-637.57-16.28-278-31.4-400-31.4-577h-36.62c0,177-15.12,299-31.4,577-12.4,211.56-52.34,466.49-102.34,637.45C989,1982,917.19,2074.52,805.54,2074.52c-73.82,0-171-25.55-171-151.16,0-154.68,176.77-146.52,176.77-65.11,0,38.38-54.65,43-54.65,8.15,0-20.93-20.25,1.48-27.92,7-15.91,11.42-3.11,53.5,61.64,53.5,47.2,0,80.83-21.51,80.83-104.08,0-66.26-80.82-118.82-179.17-127.64-121.92-10.93-255.21,66.19-248.51,161.74,4.83,68.89-3.14,120.57-48.56,126.2C163.57,2011.78-5.84,2214,77.34,2349.85Q167,2349,256.79,2349H2114.5q89.73,0,179.46.84C2377.14,2214,2131.36,2000.93,1976.29,1983.1Z" fill="#e1e8ed"/><path d="M395,1980.37a37.8,37.8,0,1,1-37.8-37.8A37.8,37.8,0,0,1,395,1980.37Z" fill="#e1e8ed"/><path d="M449.31,1974.55a28.5,28.5,0,1,1-28.5-28.49A28.5,28.5,0,0,1,449.31,1974.55Z" fill="#e1e8ed"/><path d="M542,1743.51a28.49,28.49,0,1,1-28.49-28.5A28.48,28.48,0,0,1,542,1743.51Z" fill="#e1e8ed"/><circle cx="587.89" cy="1703.19" r="62.22" transform="matrix(1, -0.01, 0.01, 1, -23, 8.11)" fill="#e1e8ed"/><path d="M164,2145.13a66.87,66.87,0,1,1-66.87-66.87A66.88,66.88,0,0,1,164,2145.13Z" fill="#e1e8ed"/><path d="M951.72,1842.75a62.22,62.22,0,1,1-62.22-62.22A62.22,62.22,0,0,1,951.72,1842.75Z" fill="#e1e8ed"/><path d="M872.64,1914.08a37.42,37.42,0,1,1-37.42-37.41A37.42,37.42,0,0,1,872.64,1914.08Z" fill="#e1e8ed"/><path d="M807.51,1928a23.46,23.46,0,1,1-23.46-23.45A23.46,23.46,0,0,1,807.51,1928Z" fill="#e1e8ed"/><path d="M792,1693.5a77.34,77.34,0,1,1-77.34-77.34A77.34,77.34,0,0,1,792,1693.5Z" fill="#e1e8ed"/><path d="M154.68,2272.67a77.34,77.34,0,1,1-77.34-77.34A77.34,77.34,0,0,1,154.68,2272.67Z" fill="#e1e8ed"/><path d="M1002.51,1653.57a137.43,137.43,0,1,1-137.43-137.43A137.43,137.43,0,0,1,1002.51,1653.57Z" fill="#e1e8ed"/><path d="M769.91,1903.23a36.64,36.64,0,1,1-36.64-36.64A36.64,36.64,0,0,1,769.91,1903.23Z" fill="#e1e8ed"/><path d="M771.84,1862.14A23.84,23.84,0,1,1,748,1838.29,23.84,23.84,0,0,1,771.84,1862.14Z" fill="#e1e8ed"/><path d="M1223.63,1490.88c33.76,249.8,105.35,519.52,175,588.36,71.9,71,136.26,47.59,192.08,26.66,139.82-52.44,272.13,83.73,226.78,240.73H523.17c-52.33-90.71,97.69-258.17,198.86-212.82s224.23,18.69,283.55-75.51,99.05-282.33,127-452.12c-14,191.88-58.36,521-18.5,523.8s60.71-236.93,68.31-369.4c13.19,137.61,23.78,297.88,58.15,293.07S1241.72,1799.37,1223.63,1490.88Z" fill="#aab8c2"/><path d="M1423.09,2125.76a70.95,70.95,0,1,0,70.94-71A70.94,70.94,0,0,0,1423.09,2125.76Z" fill="#aab8c2"/><path d="M739.25,2153.67A47.68,47.68,0,1,0,786.93,2106,47.68,47.68,0,0,0,739.25,2153.67Z" fill="#aab8c2"/><path d="M562.47,2106a100,100,0,1,0,100-100A100,100,0,0,0,562.47,2106Z" fill="#aab8c2"/><path d="M481.06,2187.39a76.76,76.76,0,1,0,76.76-76.75A76.76,76.76,0,0,0,481.06,2187.39Z" fill="#aab8c2"/><path d="M462.7,2286.15a60.48,60.48,0,1,0,60.47-60.47A60.47,60.47,0,0,0,462.7,2286.15Z" fill="#aab8c2"/><path d="M1558,2117.62a41.87,41.87,0,1,0,41.87-41.87A41.88,41.88,0,0,0,1558,2117.62Z" fill="#aab8c2"/><circle cx="1720.82" cy="2112.96" r="86.06" fill="#aab8c2"/><path d="M1770.83,2188.56a27.91,27.91,0,1,0,27.91-27.91A27.9,27.9,0,0,0,1770.83,2188.56Z" fill="#aab8c2"/><path d="M1745.42,2274.52a72.11,72.11,0,1,0,72.11-72.11A72.11,72.11,0,0,0,1745.42,2274.52Z" fill="#aab8c2"/><path d="M1253,826.36c20.65,4.1,33.62,10,33.62,16.36,0,12-45.82,21.71-102.33,21.71S1082,854.71,1082,842.72c0-6.38,13-12.26,33.62-16.36-28.09,4.92-46.28,12.79-46.28,21.65,0,14.91,51.48,27,115,27s115-12.09,115-27C1299.29,839.15,1281.09,831.28,1253,826.36Z" fill="#0c84cd"/><path d="M1288.84,1019.67c31.43,6.24,51.17,15.19,51.17,24.89,0,18.25-69.72,33-155.72,33s-155.73-14.79-155.73-33c0-9.7,19.74-18.65,51.16-24.89-42.75,7.49-70.43,19.46-70.43,32.95,0,22.69,78.35,41.08,175,41.08s175-18.39,175-41.08C1359.29,1039.13,1331.6,1027.16,1288.84,1019.67Z" fill="#0c84cd"/><polygon points="1127.72 443.3 1028.94 488.77 1028.94 416.23 1105.01 292.13 1127.72 443.3" fill="#657786"/><polygon points="1243.57 443.3 1342.36 488.77 1342.36 416.23 1266.29 292.13 1243.57 443.3" fill="#657786"/><path d="M1185.65,0c-124.13,151.82-72.91,393.2-57.93,443.3h115.85C1258.56,393.2,1309.77,151.82,1185.65,0Z" fill="#e1e8ed"/><path d="M1105,292.13a724.19,724.19,0,0,0,9.86,93.55h141.56a724.19,724.19,0,0,0,9.86-93.55Z" fill="#2a3137"/><path d="M1185.65,0a315.69,315.69,0,0,0-39.28,61.69h78.55A315.64,315.64,0,0,0,1185.65,0Z" fill="#2a3137"/><path d="M1185.65,241.63a50.86,50.86,0,1,1,50.57-50.86A50.77,50.77,0,0,1,1185.65,241.63Z" fill="#2a3137"/><path d="M1228,190.77a42.36,42.36,0,1,1-42.36-42.65A42.51,42.51,0,0,1,1228,190.77Z" fill="#aab8c2"/><polygon points="1228.01 443.3 1185.65 443.3 1143.29 443.3 1127.72 478.65 1185.65 478.65 1243.57 478.65 1228.01 443.3" fill="#2a3137"/><path d="M1185.65,492h-40.09c0,123.38,40.09,263,40.09,263s40.09-139.58,40.09-263Z" fill="#aab8c2"/><path d="M1185.65,492h-22c0,52.46,22,111.8,22,111.8s22-59.34,22-111.8Z" fill="#fff"/></svg>