<svg xmlns="http://www.w3.org/2000/svg" xmlns:xlink="http://www.w3.org/1999/xlink" viewBox="0 0 2782.21 2331.1"><defs><clipPath id="a"><path d="M1997.82,790.94c170.35-138.5,801.73-638.26,801.73-638.26V2597H-.45V2421.51Z" fill="none"/></clipPath><clipPath id="c"><rect x="-0.45" width="2800" height="2600" fill="none"/></clipPath><linearGradient id="d" x1="1307.49" y1="1625.75" x2="1158.58" y2="1476.84" gradientUnits="userSpaceOnUse"><stop offset="0" stop-color="#fff"/><stop offset="1" stop-color="#657786"/></linearGradient></defs><title>rail_connect_m_colored</title><g clip-path="url(#a)"><rect x="2675.74" y="432.84" width="457.52" height="15.78" transform="translate(539.07 2182.89) rotate(-45)" fill="#aab8c2"/><rect x="2896.61" y="211.97" width="15.78" height="457.52" transform="translate(539.18 2183.03) rotate(-45)" fill="#aab8c2"/><rect x="2730.91" y="251.69" width="347.19" height="31.57" fill="#aab8c2"/><rect x="2328.55" y="432.84" width="457.52" height="15.78" transform="translate(437.51 1937.57) rotate(-45.01)" fill="#aab8c2"/><rect x="2549.42" y="211.97" width="15.79" height="457.52" transform="translate(437.34 1937.33) rotate(-45)" fill="#aab8c2"/><polygon points="2730.91 251.69 2746.69 251.69 2746.69 630.11 2730.91 630.11 2715.12 630.11 2715.12 251.69 2730.91 251.69" fill="#aab8c2"/><rect x="2383.72" y="251.69" width="347.19" height="31.57" fill="#aab8c2"/><rect x="2702.8" y="239.03" width="56.21" height="56.21" fill="#aab8c2"/><rect x="1981.36" y="432.84" width="457.52" height="15.79" transform="translate(335.85 1692.13) rotate(-45.01)" fill="#aab8c2"/><rect x="2202.23" y="211.97" width="15.79" height="457.52" transform="translate(335.6 1691.75) rotate(-45)" fill="#aab8c2"/><polygon points="2383.72 251.69 2399.5 251.69 2399.5 630.11 2383.72 630.11 2367.93 630.11 2367.93 251.69 2383.72 251.69" fill="#aab8c2"/><rect x="2036.52" y="251.69" width="347.19" height="31.57" fill="#aab8c2"/><rect x="2355.61" y="239.03" width="56.21" height="56.21" fill="#aab8c2"/><polygon points="2036.52 251.69 2052.3 251.69 2052.3 630.11 2036.52 630.11 2020.74 630.11 2020.74 251.69 2036.52 251.69" fill="#aab8c2"/><rect x="2008.42" y="239.03" width="56.21" height="56.21" fill="#aab8c2"/><rect x="-101.8" y="2167.56" width="457.52" height="15.78" transform="translate(-1501.15 727.02) rotate(-45)" fill="#aab8c2"/><rect x="119.07" y="1946.69" width="15.78" height="457.52" transform="translate(-1501.15 727.02) rotate(-45)" fill="#aab8c2"/><polygon points="300.56 1986.4 316.34 1986.4 316.34 2364.83 300.56 2364.83 284.77 2364.83 284.77 1986.4 300.56 1986.4" fill="#aab8c2"/><rect x="-46.64" y="1986.4" width="347.19" height="31.57" fill="#aab8c2"/><rect x="2675.74" y="2167.56" width="457.52" height="15.78" transform="translate(-687.56 2690.99) rotate(-45)" fill="#aab8c2"/><rect x="2896.61" y="1946.69" width="15.78" height="457.52" transform="translate(-687.52 2691.27) rotate(-45)" fill="#aab8c2"/><rect x="2730.91" y="1986.4" width="347.19" height="31.57" fill="#aab8c2"/><rect x="2328.55" y="2167.56" width="457.52" height="15.78" transform="translate(-789.23 2445.77) rotate(-45.01)" fill="#aab8c2"/><rect x="2549.42" y="1946.69" width="15.79" height="457.52" transform="translate(-789.25 2445.47) rotate(-45)" fill="#aab8c2"/><polygon points="2730.91 1986.4 2746.69 1986.4 2746.69 2364.83 2730.91 2364.83 2715.12 2364.83 2715.12 1986.4 2730.91 1986.4" fill="#aab8c2"/><rect x="2702.8" y="2321.03" width="56.21" height="56.21" fill="#aab8c2"/><rect x="2383.72" y="1986.4" width="347.19" height="31.57" fill="#aab8c2"/><rect x="1981.36" y="2167.56" width="457.52" height="15.79" transform="translate(-890.94 2200.38) rotate(-45.01)" fill="#aab8c2"/><rect x="2202.23" y="1946.69" width="15.79" height="457.52" transform="translate(-890.95 2199.82) rotate(-45)" fill="#aab8c2"/><polygon points="2383.72 1986.4 2399.5 1986.4 2399.5 2364.83 2383.72 2364.83 2367.93 2364.83 2367.93 1986.4 2383.72 1986.4" fill="#aab8c2"/><rect x="2355.61" y="2321.03" width="56.21" height="56.21" fill="#aab8c2"/><rect x="2036.52" y="1986.4" width="347.19" height="31.57" fill="#aab8c2"/><rect x="1634.16" y="2167.56" width="457.52" height="15.78" transform="translate(-992.65 1954.59) rotate(-45)" fill="#aab8c2"/><rect x="1855.03" y="1946.69" width="15.79" height="457.52" transform="translate(-992.65 1954.59) rotate(-45)" fill="#aab8c2"/><polygon points="2036.52 1986.4 2052.3 1986.4 2052.3 2364.83 2036.52 2364.83 2020.74 2364.83 2020.74 1986.4 2036.52 1986.4" fill="#aab8c2"/><rect x="2008.42" y="2321.03" width="56.21" height="56.21" fill="#aab8c2"/><rect x="1689.33" y="1986.4" width="347.19" height="31.57" fill="#aab8c2"/><polygon points="1689.33 1986.4 1705.11 1986.4 1705.11 2364.83 1689.33 2364.83 1673.54 2364.83 1673.54 1986.4 1689.33 1986.4" fill="#aab8c2"/><rect x="1661.22" y="2321.03" width="56.21" height="56.21" fill="#aab8c2"/><rect x="592.58" y="2167.56" width="457.52" height="15.78" transform="translate(-1297.73 1218) rotate(-45)" fill="#aab8c2"/><rect x="813.45" y="1946.69" width="15.78" height="457.52" transform="translate(-1297.77 1218.1) rotate(-45)" fill="#aab8c2"/><polygon points="994.94 1986.4 1010.73 1986.4 1010.73 2364.83 994.94 2364.83 979.16 2364.83 979.16 1986.4 994.94 1986.4" fill="#aab8c2"/><rect x="966.84" y="2321.03" width="56.21" height="56.21" fill="#aab8c2"/><rect x="647.75" y="1986.4" width="347.19" height="31.57" fill="#aab8c2"/><rect x="245.39" y="2167.56" width="457.52" height="15.78" transform="translate(-1399.46 972.54) rotate(-45)" fill="#aab8c2"/><rect x="466.26" y="1946.69" width="15.78" height="457.52" transform="translate(-1399.45 972.53) rotate(-45)" fill="#aab8c2"/><polygon points="647.75 1986.4 663.53 1986.4 663.53 2364.83 647.75 2364.83 631.96 2364.83 631.96 1986.4 647.75 1986.4" fill="#aab8c2"/><rect x="619.64" y="2321.03" width="56.21" height="56.21" fill="#aab8c2"/><rect x="300.56" y="1986.4" width="347.19" height="31.57" fill="#aab8c2"/><polygon points="300.56 1986.4 316.34 1986.4 316.34 2364.83 300.56 2364.83 284.77 2364.83 284.77 1986.4 300.56 1986.4" fill="#aab8c2"/><rect x="272.45" y="2321.03" width="56.21" height="56.21" fill="#aab8c2"/><rect x="-46.64" y="1986.4" width="347.19" height="31.57" fill="#aab8c2"/><rect x="-101.8" y="1820.7" width="457.52" height="15.78" transform="translate(-1255.88 625.42) rotate(-45)" fill="#aab8c2"/><rect x="119.07" y="1599.83" width="15.78" height="457.52" transform="translate(-1255.88 625.42) rotate(-45)" fill="#aab8c2"/><polygon points="300.56 1639.55 316.34 1639.55 316.34 2017.97 300.56 2017.97 284.77 2017.97 284.77 1639.55 300.56 1639.55" fill="#aab8c2"/><rect x="-46.64" y="1639.54" width="347.19" height="31.57" fill="#aab8c2"/><rect x="2730.91" y="1986.4" width="347.19" height="31.57" fill="#aab8c2"/><rect x="2675.74" y="1820.7" width="457.52" height="15.78" transform="translate(-442.3 2589.39) rotate(-45)" fill="#aab8c2"/><rect x="2896.61" y="1599.83" width="15.78" height="457.52" transform="translate(-442.23 2589.66) rotate(-45)" fill="#aab8c2"/><rect x="2730.91" y="1639.54" width="347.19" height="31.57" fill="#aab8c2"/><rect x="2383.72" y="1986.4" width="347.19" height="31.57" fill="#aab8c2"/><rect x="2328.55" y="1820.7" width="457.52" height="15.78" transform="translate(-543.94 2344.15) rotate(-45.01)" fill="#aab8c2"/><rect x="2549.42" y="1599.83" width="15.78" height="457.52" transform="translate(-543.99 2343.87) rotate(-45)" fill="#aab8c2"/><polygon points="2730.91 1639.55 2746.69 1639.55 2746.69 2017.97 2730.91 2017.97 2715.12 2017.97 2715.12 1639.55 2730.91 1639.55" fill="#aab8c2"/><rect x="2702.8" y="1974.17" width="56.21" height="56.21" fill="#aab8c2"/><rect x="2383.72" y="1639.54" width="347.19" height="31.57" fill="#aab8c2"/><rect x="2036.52" y="1986.4" width="347.19" height="31.57" fill="#aab8c2"/><rect x="1981.36" y="1820.7" width="457.52" height="15.79" transform="translate(-645.64 2098.76) rotate(-45.01)" fill="#aab8c2"/><rect x="2202.23" y="1599.83" width="15.79" height="457.52" transform="translate(-645.69 2098.24) rotate(-45)" fill="#aab8c2"/><polygon points="2383.72 1639.55 2399.5 1639.55 2399.5 2017.97 2383.72 2017.97 2367.93 2017.97 2367.93 1639.55 2383.72 1639.55" fill="#aab8c2"/><rect x="2355.61" y="1974.17" width="56.21" height="56.21" fill="#aab8c2"/><rect x="2036.52" y="1639.54" width="347.19" height="31.57" fill="#aab8c2"/><rect x="1689.33" y="1986.4" width="347.19" height="31.57" fill="#aab8c2"/><rect x="1634.16" y="1820.7" width="457.52" height="15.78" transform="translate(-747.37 1852.99) rotate(-45)" fill="#aab8c2"/><rect x="1855.03" y="1599.83" width="15.78" height="457.52" transform="translate(-747.37 1852.99) rotate(-45)" fill="#aab8c2"/><polygon points="2036.52 1639.55 2052.3 1639.55 2052.3 2017.97 2036.52 2017.97 2020.74 2017.97 2020.74 1639.55 2036.52 1639.55" fill="#aab8c2"/><rect x="2008.42" y="1974.17" width="56.21" height="56.21" fill="#aab8c2"/><rect x="1689.33" y="1639.54" width="347.19" height="31.57" fill="#aab8c2"/><polygon points="1689.33 1639.55 1705.11 1639.55 1705.11 2017.97 1689.33 2017.97 1673.54 2017.97 1673.54 1639.55 1689.33 1639.55" fill="#aab8c2"/><rect x="1661.22" y="1974.17" width="56.21" height="56.21" fill="#aab8c2"/><rect x="647.75" y="1986.4" width="347.19" height="31.57" fill="#aab8c2"/><rect x="592.58" y="1820.7" width="457.52" height="15.78" transform="translate(-1052.46 1116.4) rotate(-45)" fill="#aab8c2"/><rect x="813.45" y="1599.83" width="15.78" height="457.52" transform="translate(-1052.49 1116.49) rotate(-45)" fill="#aab8c2"/><polygon points="994.94 1639.55 1010.73 1639.55 1010.73 2017.97 994.94 2017.97 979.16 2017.97 979.16 1639.55 994.94 1639.55" fill="#aab8c2"/><rect x="966.84" y="1974.17" width="56.21" height="56.21" fill="#aab8c2"/><rect x="647.75" y="1639.54" width="347.19" height="31.57" fill="#aab8c2"/><rect x="300.56" y="1986.4" width="347.19" height="31.57" fill="#aab8c2"/><rect x="245.39" y="1820.7" width="457.52" height="15.78" transform="translate(-1154.18 870.94) rotate(-45)" fill="#aab8c2"/><rect x="466.26" y="1599.83" width="15.78" height="457.52" transform="translate(-1154.17 870.92) rotate(-45)" fill="#aab8c2"/><polygon points="647.75 1639.55 663.53 1639.55 663.53 2017.97 647.75 2017.97 631.96 2017.97 631.96 1639.55 647.75 1639.55" fill="#aab8c2"/><rect x="619.64" y="1974.17" width="56.21" height="56.21" fill="#aab8c2"/><rect x="300.56" y="1639.54" width="347.19" height="31.57" fill="#aab8c2"/><polygon points="300.56 1639.55 316.34 1639.55 316.34 2017.97 300.56 2017.97 284.77 2017.97 284.77 1639.55 300.56 1639.55" fill="#aab8c2"/><rect x="272.45" y="1974.17" width="56.21" height="56.21" fill="#aab8c2"/><rect x="-46.64" y="1639.54" width="347.19" height="31.57" fill="#aab8c2"/><rect x="-101.8" y="1473.84" width="457.52" height="15.78" transform="translate(-1010.6 523.81) rotate(-45)" fill="#aab8c2"/><rect x="119.07" y="1252.97" width="15.78" height="457.52" transform="translate(-1010.6 523.81) rotate(-45)" fill="#aab8c2"/><polygon points="300.56 1292.69 316.34 1292.69 316.34 1671.11 300.56 1671.11 284.77 1671.11 284.77 1292.69 300.56 1292.69" fill="#aab8c2"/><rect x="-46.64" y="1292.69" width="347.19" height="31.57" fill="#aab8c2"/><rect x="2730.91" y="1639.54" width="347.19" height="31.57" fill="#aab8c2"/><rect x="2675.74" y="1473.84" width="457.52" height="15.78" transform="translate(-197.03 2487.8) rotate(-45)" fill="#aab8c2"/><rect x="2896.61" y="1252.97" width="15.78" height="457.52" transform="translate(-196.95 2488.05) rotate(-45)" fill="#aab8c2"/><rect x="2730.91" y="1292.69" width="347.19" height="31.57" fill="#aab8c2"/><rect x="2383.72" y="1639.54" width="347.19" height="31.57" fill="#aab8c2"/><rect x="2328.55" y="1473.84" width="457.52" height="15.78" transform="translate(-298.65 2242.54) rotate(-45.01)" fill="#aab8c2"/><rect x="2549.42" y="1252.97" width="15.79" height="457.52" transform="translate(-298.72 2242.28) rotate(-45)" fill="#aab8c2"/><polygon points="2730.91 1292.69 2746.69 1292.69 2746.69 1671.11 2730.91 1671.11 2715.12 1671.11 2715.12 1292.69 2730.91 1292.69" fill="#aab8c2"/><rect x="2702.8" y="1627.31" width="56.21" height="56.21" fill="#aab8c2"/><rect x="2383.72" y="1292.69" width="347.19" height="31.57" fill="#aab8c2"/><rect x="2036.52" y="1639.54" width="347.19" height="31.57" fill="#aab8c2"/><rect x="1981.36" y="1473.84" width="457.52" height="15.79" transform="translate(-400.34 1997.13) rotate(-45.01)" fill="#aab8c2"/><rect x="2202.23" y="1252.97" width="15.79" height="457.52" transform="translate(-400.44 1996.66) rotate(-45)" fill="#aab8c2"/><polygon points="2383.72 1292.69 2399.5 1292.69 2399.5 1671.11 2383.72 1671.11 2367.93 1671.11 2367.93 1292.69 2383.72 1292.69" fill="#aab8c2"/><rect x="2355.61" y="1627.31" width="56.21" height="56.21" fill="#aab8c2"/><rect x="2036.52" y="1292.69" width="347.19" height="31.57" fill="#aab8c2"/><rect x="1689.33" y="1639.54" width="347.19" height="31.57" fill="#aab8c2"/><rect x="1634.16" y="1473.84" width="457.52" height="15.78" transform="translate(-502.09 1751.38) rotate(-45)" fill="#aab8c2"/><rect x="1855.03" y="1252.97" width="15.78" height="457.52" transform="translate(-502.09 1751.38) rotate(-45)" fill="#aab8c2"/><polygon points="2036.52 1292.69 2052.3 1292.69 2052.3 1671.11 2036.52 1671.11 2020.74 1671.11 2020.74 1292.69 2036.52 1292.69" fill="#aab8c2"/><rect x="2008.42" y="1627.31" width="56.21" height="56.21" fill="#aab8c2"/><rect x="1689.33" y="1292.69" width="347.19" height="31.57" fill="#aab8c2"/><polygon points="1689.33 1292.69 1705.11 1292.69 1705.11 1671.11 1689.33 1671.11 1673.54 1671.11 1673.54 1292.69 1689.33 1292.69" fill="#aab8c2"/><rect x="1661.22" y="1627.31" width="56.21" height="56.21" fill="#aab8c2"/><rect x="647.75" y="1639.54" width="347.19" height="31.57" fill="#aab8c2"/><rect x="592.58" y="1473.84" width="457.52" height="15.78" transform="translate(-807.19 1014.8) rotate(-45)" fill="#aab8c2"/><rect x="813.45" y="1252.97" width="15.78" height="457.52" transform="translate(-807.21 1014.88) rotate(-45)" fill="#aab8c2"/><polygon points="994.94 1292.69 1010.73 1292.69 1010.73 1671.11 994.94 1671.11 979.16 1671.11 979.16 1292.69 994.94 1292.69" fill="#aab8c2"/><rect x="966.84" y="1627.31" width="56.21" height="56.21" fill="#aab8c2"/><rect x="647.75" y="1292.69" width="347.19" height="31.57" fill="#aab8c2"/><rect x="300.56" y="1639.54" width="347.19" height="31.57" fill="#aab8c2"/><rect x="245.39" y="1473.84" width="457.52" height="15.78" transform="translate(-908.9 769.33) rotate(-45)" fill="#aab8c2"/><rect x="466.26" y="1252.97" width="15.78" height="457.52" transform="translate(-908.9 769.32) rotate(-45)" fill="#aab8c2"/><polygon points="647.75 1292.69 663.53 1292.69 663.53 1671.11 647.75 1671.11 631.96 1671.11 631.96 1292.69 647.75 1292.69" fill="#aab8c2"/><rect x="619.64" y="1627.31" width="56.21" height="56.21" fill="#aab8c2"/><rect x="300.56" y="1292.69" width="347.19" height="31.57" fill="#aab8c2"/><polygon points="300.56 1292.69 316.34 1292.69 316.34 1671.11 300.56 1671.11 284.77 1671.11 284.77 1292.69 300.56 1292.69" fill="#aab8c2"/><rect x="272.45" y="1627.31" width="56.21" height="56.21" fill="#aab8c2"/><rect x="-46.64" y="1292.69" width="347.19" height="31.57" fill="#aab8c2"/><rect x="-101.8" y="1126.98" width="457.52" height="15.78" transform="translate(-765.32 422.21) rotate(-45)" fill="#aab8c2"/><rect x="119.07" y="906.11" width="15.78" height="457.52" transform="translate(-765.32 422.21) rotate(-45)" fill="#aab8c2"/><polygon points="300.56 945.83 316.34 945.83 316.34 1324.25 300.56 1324.25 284.77 1324.25 284.77 945.83 300.56 945.83" fill="#aab8c2"/><rect x="-46.64" y="945.83" width="347.19" height="31.57" fill="#aab8c2"/><rect x="2730.91" y="1292.69" width="347.19" height="31.57" fill="#aab8c2"/><rect x="2675.74" y="1126.98" width="457.52" height="15.78" transform="translate(48.24 2386.2) rotate(-45)" fill="#aab8c2"/><rect x="2896.61" y="906.11" width="15.78" height="457.52" transform="translate(48.34 2386.43) rotate(-45)" fill="#aab8c2"/><rect x="2730.91" y="945.83" width="347.19" height="31.57" fill="#aab8c2"/><rect x="2383.72" y="1292.69" width="347.19" height="31.57" fill="#aab8c2"/><rect x="2328.55" y="1126.98" width="457.52" height="15.78" transform="translate(-53.37 2140.92) rotate(-45.01)" fill="#aab8c2"/><rect x="2549.42" y="906.11" width="15.79" height="457.52" transform="translate(-53.46 2140.69) rotate(-45)" fill="#aab8c2"/><polygon points="2730.91 945.83 2746.69 945.83 2746.69 1324.25 2730.91 1324.25 2715.12 1324.25 2715.12 945.83 2730.91 945.83" fill="#aab8c2"/><rect x="2702.8" y="1280.45" width="56.21" height="56.21" fill="#aab8c2"/><rect x="2383.72" y="945.83" width="347.19" height="31.57" fill="#aab8c2"/><rect x="2036.52" y="1292.69" width="347.19" height="31.57" fill="#aab8c2"/><rect x="1981.36" y="1126.98" width="457.52" height="15.79" transform="translate(-155.05 1895.5) rotate(-45.01)" fill="#aab8c2"/><rect x="2202.23" y="906.11" width="15.79" height="457.52" transform="translate(-155.18 1895.08) rotate(-45)" fill="#aab8c2"/><polygon points="2383.72 945.83 2399.5 945.83 2399.5 1324.25 2383.72 1324.25 2367.93 1324.25 2367.93 945.83 2383.72 945.83" fill="#aab8c2"/><rect x="2355.61" y="1280.45" width="56.21" height="56.21" fill="#aab8c2"/><rect x="2036.52" y="945.83" width="347.19" height="31.57" fill="#aab8c2"/><rect x="1689.33" y="1292.69" width="347.19" height="31.57" fill="#aab8c2"/><rect x="1634.16" y="1126.98" width="457.52" height="15.78" transform="translate(-256.82 1649.78) rotate(-45)" fill="#aab8c2"/><rect x="1855.03" y="906.11" width="15.78" height="457.52" transform="translate(-256.82 1649.78) rotate(-45)" fill="#aab8c2"/><polygon points="2036.52 945.83 2052.3 945.83 2052.3 1324.25 2036.52 1324.25 2020.74 1324.25 2020.74 945.83 2036.52 945.83" fill="#aab8c2"/><rect x="2008.42" y="1280.45" width="56.21" height="56.21" fill="#aab8c2"/><rect x="1689.33" y="945.83" width="347.19" height="31.57" fill="#aab8c2"/><polygon points="1689.33 945.83 1705.11 945.83 1705.11 1324.25 1689.33 1324.25 1673.54 1324.25 1673.54 945.83 1689.33 945.83" fill="#aab8c2"/><rect x="1661.22" y="1280.45" width="56.21" height="56.21" fill="#aab8c2"/><rect x="647.75" y="1292.69" width="347.19" height="31.57" fill="#aab8c2"/><rect x="592.58" y="1126.98" width="457.52" height="15.78" transform="translate(-561.91 913.21) rotate(-45)" fill="#aab8c2"/><rect x="813.45" y="906.11" width="15.78" height="457.52" transform="translate(-561.93 913.27) rotate(-45)" fill="#aab8c2"/><polygon points="994.94 945.83 1010.73 945.83 1010.73 1324.25 994.94 1324.25 979.16 1324.25 979.16 945.83 994.94 945.83" fill="#aab8c2"/><rect x="966.84" y="1280.45" width="56.21" height="56.21" fill="#aab8c2"/><rect x="647.75" y="945.83" width="347.19" height="31.57" fill="#aab8c2"/><rect x="300.56" y="1292.69" width="347.19" height="31.57" fill="#aab8c2"/><rect x="245.39" y="1126.98" width="457.52" height="15.78" transform="translate(-663.62 667.73) rotate(-45)" fill="#aab8c2"/><rect x="466.26" y="906.11" width="15.78" height="457.52" transform="translate(-663.62 667.72) rotate(-45)" fill="#aab8c2"/><polygon points="647.75 945.83 663.53 945.83 663.53 1324.25 647.75 1324.25 631.96 1324.25 631.96 945.83 647.75 945.83" fill="#aab8c2"/><rect x="619.64" y="1280.45" width="56.21" height="56.21" fill="#aab8c2"/><rect x="300.56" y="945.83" width="347.19" height="31.57" fill="#aab8c2"/><polygon points="300.56 945.83 316.34 945.83 316.34 1324.25 300.56 1324.25 284.77 1324.25 284.77 945.83 300.56 945.83" fill="#aab8c2"/><rect x="272.45" y="1280.45" width="56.21" height="56.21" fill="#aab8c2"/><rect x="-46.64" y="945.83" width="347.19" height="31.57" fill="#aab8c2"/><rect x="-101.8" y="780.12" width="457.52" height="15.78" transform="translate(-520.05 320.61) rotate(-45)" fill="#aab8c2"/><rect x="119.07" y="559.25" width="15.78" height="457.52" transform="translate(-520.04 320.59) rotate(-45)" fill="#aab8c2"/><polygon points="300.56 598.97 316.34 598.97 316.34 977.4 300.56 977.4 284.77 977.4 284.77 598.97 300.56 598.97" fill="#aab8c2"/><rect x="-46.64" y="598.97" width="347.19" height="31.57" fill="#aab8c2"/><rect x="2730.91" y="945.83" width="347.19" height="31.57" fill="#aab8c2"/><rect x="2675.74" y="780.12" width="457.52" height="15.78" transform="translate(293.51 2284.61) rotate(-45)" fill="#aab8c2"/><rect x="2896.61" y="559.25" width="15.78" height="457.52" transform="translate(293.59 2284.76) rotate(-45)" fill="#aab8c2"/><rect x="2730.91" y="598.97" width="347.19" height="31.57" fill="#aab8c2"/><rect x="2383.72" y="945.83" width="347.19" height="31.57" fill="#aab8c2"/><rect x="2328.55" y="780.12" width="457.52" height="15.78" transform="translate(191.92 2039.31) rotate(-45.01)" fill="#aab8c2"/><rect x="2549.42" y="559.25" width="15.79" height="457.52" transform="translate(191.78 2039.04) rotate(-45)" fill="#aab8c2"/><polygon points="2730.91 598.97 2746.69 598.97 2746.69 977.4 2730.91 977.4 2715.12 977.4 2715.12 598.97 2730.91 598.97" fill="#aab8c2"/><rect x="2702.8" y="933.6" width="56.21" height="56.21" fill="#aab8c2"/><rect x="2383.72" y="598.97" width="347.19" height="31.57" fill="#aab8c2"/><rect x="2702.8" y="586.31" width="56.21" height="56.21" fill="#aab8c2"/><rect x="2036.52" y="945.83" width="347.19" height="31.57" fill="#aab8c2"/><rect x="1981.36" y="780.12" width="457.52" height="15.79" transform="translate(90.25 1793.88) rotate(-45.01)" fill="#aab8c2"/><rect x="2202.23" y="559.25" width="15.79" height="457.52" transform="translate(90.05 1793.45) rotate(-45)" fill="#aab8c2"/><polygon points="2383.72 598.97 2399.5 598.97 2399.5 977.4 2383.72 977.4 2367.93 977.4 2367.93 598.97 2383.72 598.97" fill="#aab8c2"/><rect x="2355.61" y="933.6" width="56.21" height="56.21" fill="#aab8c2"/><rect x="2036.52" y="598.97" width="347.19" height="31.57" fill="#aab8c2"/><rect x="2355.61" y="586.31" width="56.21" height="56.21" fill="#aab8c2"/><rect x="1689.33" y="945.83" width="347.19" height="31.57" fill="#aab8c2"/><rect x="1634.16" y="780.12" width="457.52" height="15.78" transform="translate(-11.54 1548.18) rotate(-45)" fill="#aab8c2"/><rect x="1855.03" y="559.25" width="15.78" height="457.52" transform="translate(-11.56 1548.13) rotate(-45)" fill="#aab8c2"/><polygon points="2036.52 598.97 2052.3 598.97 2052.3 977.4 2036.52 977.4 2020.74 977.4 2020.74 598.97 2036.52 598.97" fill="#aab8c2"/><rect x="2008.42" y="933.6" width="56.21" height="56.21" fill="#aab8c2"/><rect x="1689.33" y="598.97" width="347.19" height="31.57" fill="#aab8c2"/><rect x="2008.42" y="586.31" width="56.21" height="56.21" fill="#aab8c2"/><polygon points="1689.33 598.97 1705.11 598.97 1705.11 977.4 1689.33 977.4 1673.54 977.4 1673.54 598.97 1689.33 598.97" fill="#aab8c2"/><rect x="1661.22" y="933.6" width="56.21" height="56.21" fill="#aab8c2"/><rect x="1661.22" y="586.31" width="56.21" height="56.21" fill="#aab8c2"/><rect x="647.75" y="945.83" width="347.19" height="31.57" fill="#aab8c2"/><rect x="592.58" y="780.12" width="457.52" height="15.78" transform="translate(-316.64 811.61) rotate(-45)" fill="#aab8c2"/><rect x="813.45" y="559.25" width="15.78" height="457.52" transform="translate(-316.64 811.63) rotate(-45)" fill="#aab8c2"/><polygon points="994.94 598.97 1010.73 598.97 1010.73 977.4 994.94 977.4 979.16 977.4 979.16 598.97 994.94 598.97" fill="#aab8c2"/><rect x="966.84" y="933.6" width="56.21" height="56.21" fill="#aab8c2"/><rect x="647.75" y="598.97" width="347.19" height="31.57" fill="#aab8c2"/><rect x="966.84" y="586.31" width="56.21" height="56.21" fill="#aab8c2"/><rect x="300.56" y="945.83" width="347.19" height="31.57" fill="#aab8c2"/><rect x="245.39" y="780.12" width="457.52" height="15.78" transform="translate(-418.35 566.12) rotate(-45)" fill="#aab8c2"/><rect x="466.26" y="559.25" width="15.78" height="457.52" transform="translate(-418.34 566.1) rotate(-45)" fill="#aab8c2"/><polygon points="647.75 598.97 663.53 598.97 663.53 977.4 647.75 977.4 631.96 977.4 631.96 598.97 647.75 598.97" fill="#aab8c2"/><rect x="619.64" y="933.6" width="56.21" height="56.21" fill="#aab8c2"/><rect x="300.56" y="598.97" width="347.19" height="31.57" fill="#aab8c2"/><rect x="619.64" y="586.31" width="56.21" height="56.21" fill="#aab8c2"/><polygon points="300.56 598.97 316.34 598.97 316.34 977.4 300.56 977.4 284.77 977.4 284.77 598.97 300.56 598.97" fill="#aab8c2"/><rect x="272.45" y="933.6" width="56.21" height="56.21" fill="#aab8c2"/><rect x="272.45" y="586.31" width="56.21" height="56.21" fill="#aab8c2"/></g><g clip-path="url(#a)"><rect x="2629.33" y="385.73" width="457.52" height="15.78" transform="translate(558.79 2136.27) rotate(-45)" fill="#fff"/><rect x="2850.19" y="164.86" width="15.78" height="457.52" transform="translate(558.89 2136.41) rotate(-45)" fill="#fff"/><rect x="2684.49" y="204.58" width="347.19" height="31.57" fill="#fff"/><rect x="2282.13" y="385.73" width="457.52" height="15.78" transform="translate(457.22 1890.94) rotate(-45.01)" fill="#fff"/><rect x="2503" y="164.86" width="15.79" height="457.52" transform="translate(457.06 1890.71) rotate(-45)" fill="#fff"/><polygon points="2684.49 204.58 2700.27 204.58 2700.27 583 2684.49 583 2668.71 583 2668.71 204.58 2684.49 204.58" fill="#fff"/><rect x="2337.3" y="204.58" width="347.19" height="31.57" fill="#fff"/><rect x="2656.38" y="191.92" width="56.21" height="56.21" fill="#e1e8ed"/><rect x="1934.94" y="385.73" width="457.52" height="15.79" transform="translate(355.57 1645.5) rotate(-45.01)" fill="#fff"/><rect x="2155.81" y="164.86" width="15.79" height="457.52" transform="translate(355.31 1645.13) rotate(-45)" fill="#fff"/><polygon points="2337.3 204.58 2353.08 204.58 2353.08 583 2337.3 583 2321.51 583 2321.51 204.58 2337.3 204.58" fill="#fff"/><rect x="1990.1" y="204.58" width="347.19" height="31.57" fill="#fff"/><rect x="2309.19" y="191.92" width="56.21" height="56.21" fill="#e1e8ed"/><polygon points="1990.1 204.58 2005.89 204.58 2005.89 583 1990.1 583 1974.32 583 1974.32 204.58 1990.1 204.58" fill="#fff"/><rect x="1962" y="191.92" width="56.21" height="56.21" fill="#e1e8ed"/><polygon points="247.88 2319.02 236.72 2307.86 -86.8 2628.38 -75.64 2639.54 247.88 2319.02" fill="#fff"/><polygon points="236.72 2639.54 247.88 2628.38 -75.64 2307.86 -86.8 2319.02 236.72 2639.54" fill="#fff"/><polygon points="254.14 2286.15 269.92 2286.15 269.92 2661.58 254.14 2661.58 238.35 2661.58 238.35 2286.15 254.14 2286.15" fill="#fff"/><rect x="-93.06" y="2286.15" width="347.19" height="31.57" fill="#fff"/><polygon points="3025.42 2319.02 3014.26 2307.86 2690.75 2628.38 2701.91 2639.54 3025.42 2319.02" fill="#fff"/><polygon points="3014.26 2639.54 3025.42 2628.38 2701.91 2307.86 2690.75 2319.02 3014.26 2639.54" fill="#fff"/><rect x="2684.49" y="2286.15" width="347.19" height="31.57" fill="#fff"/><polygon points="2678.23 2319.02 2667.07 2307.86 2343.55 2628.38 2354.72 2639.54 2678.23 2319.02" fill="#fff"/><polygon points="2667.07 2639.54 2678.23 2628.38 2354.72 2307.86 2343.55 2319.02 2667.07 2639.54" fill="#fff"/><polygon points="2684.49 2286.15 2700.27 2286.15 2700.27 2661.58 2684.49 2661.58 2668.71 2661.58 2668.71 2286.15 2684.49 2286.15" fill="#fff"/><rect x="2337.3" y="2286.15" width="347.19" height="31.57" fill="#fff"/><polygon points="2331.04 2319.02 2319.88 2307.86 1996.36 2628.38 2007.52 2639.54 2331.04 2319.02" fill="#fff"/><polygon points="2319.88 2639.54 2331.04 2628.38 2007.52 2307.86 1996.36 2319.02 2319.88 2639.54" fill="#fff"/><polygon points="2337.3 2286.15 2353.08 2286.15 2353.08 2661.58 2337.3 2661.58 2321.51 2661.58 2321.51 2286.15 2337.3 2286.15" fill="#fff"/><rect x="1990.1" y="2286.15" width="347.19" height="31.57" fill="#fff"/><polygon points="1983.85 2319.02 1972.68 2307.86 1649.17 2628.38 1660.33 2639.54 1983.85 2319.02" fill="#fff"/><polygon points="1972.68 2639.54 1983.85 2628.38 1660.33 2307.86 1649.17 2319.02 1972.68 2639.54" fill="#fff"/><polygon points="1990.1 2286.15 2005.89 2286.15 2005.89 2661.58 1990.1 2661.58 1974.32 2661.58 1974.32 2286.15 1990.1 2286.15" fill="#fff"/><rect x="1642.91" y="2286.15" width="347.19" height="31.57" fill="#fff"/><polygon points="1642.91 2286.15 1658.69 2286.15 1658.69 2661.58 1642.91 2661.58 1627.12 2661.58 1627.12 2286.15 1642.91 2286.15" fill="#fff"/><polygon points="942.26 2319.02 931.1 2307.86 607.59 2628.38 618.75 2639.54 942.26 2319.02" fill="#fff"/><polygon points="931.1 2639.54 942.26 2628.38 618.75 2307.86 607.59 2319.02 931.1 2639.54" fill="#fff"/><polygon points="948.52 2286.15 964.31 2286.15 964.31 2661.58 948.52 2661.58 932.74 2661.58 932.74 2286.15 948.52 2286.15" fill="#fff"/><rect x="601.33" y="2286.15" width="347.19" height="31.57" fill="#fff"/><polygon points="595.07 2319.02 583.91 2307.86 260.39 2628.38 271.56 2639.54 595.07 2319.02" fill="#fff"/><polygon points="583.91 2639.54 595.07 2628.38 271.56 2307.86 260.39 2319.02 583.91 2639.54" fill="#fff"/><polygon points="601.33 2286.15 617.11 2286.15 617.11 2661.58 601.33 2661.58 585.54 2661.58 585.54 2286.15 601.33 2286.15" fill="#fff"/><rect x="254.14" y="2286.15" width="347.19" height="31.57" fill="#fff"/><polygon points="254.14 2286.15 269.92 2286.15 269.92 2661.58 254.14 2661.58 238.35 2661.58 238.35 2286.15 254.14 2286.15" fill="#fff"/><rect x="-93.06" y="2286.15" width="347.19" height="31.57" fill="#fff"/><rect x="-148.22" y="2120.45" width="457.52" height="15.78" transform="translate(-1481.44 680.4) rotate(-45)" fill="#fff"/><rect x="72.65" y="1899.58" width="15.78" height="457.52" transform="translate(-1481.43 680.39) rotate(-45)" fill="#fff"/><polygon points="254.14 1939.3 269.92 1939.3 269.92 2317.72 254.14 2317.72 238.35 2317.72 238.35 1939.3 254.14 1939.3" fill="#fff"/><rect x="-93.06" y="1939.3" width="347.19" height="31.57" fill="#fff"/><rect x="2684.49" y="2286.15" width="347.19" height="31.57" fill="#fff"/><rect x="2629.33" y="2120.45" width="457.52" height="15.78" transform="translate(-667.85 2644.35) rotate(-45)" fill="#fff"/><rect x="2850.19" y="1899.58" width="15.78" height="457.52" transform="translate(-667.81 2644.65) rotate(-45)" fill="#fff"/><rect x="2684.49" y="1939.3" width="347.19" height="31.57" fill="#fff"/><rect x="2337.3" y="2286.15" width="347.19" height="31.57" fill="#fff"/><rect x="2282.13" y="2120.45" width="457.52" height="15.78" transform="translate(-769.52 2399.13) rotate(-45)" fill="#fff"/><rect x="2503" y="1899.58" width="15.79" height="457.52" transform="translate(-769.54 2398.85) rotate(-45)" fill="#fff"/><polygon points="2684.49 1939.3 2700.27 1939.3 2700.27 2317.72 2684.49 2317.72 2668.71 2317.72 2668.71 1939.3 2684.49 1939.3" fill="#fff"/><rect x="2656.38" y="2273.92" width="56.21" height="56.21" fill="#e1e8ed"/><rect x="2337.3" y="1939.3" width="347.19" height="31.57" fill="#fff"/><rect x="1990.1" y="2286.15" width="347.19" height="31.57" fill="#fff"/><rect x="1934.94" y="2120.45" width="457.52" height="15.79" transform="translate(-871.23 2153.74) rotate(-45.01)" fill="#fff"/><rect x="2155.81" y="1899.58" width="15.79" height="457.52" transform="translate(-871.23 2153.21) rotate(-45)" fill="#fff"/><polygon points="2337.3 1939.3 2353.08 1939.3 2353.08 2317.72 2337.3 2317.72 2321.51 2317.72 2321.51 1939.3 2337.3 1939.3" fill="#fff"/><rect x="2309.19" y="2273.92" width="56.21" height="56.21" fill="#e1e8ed"/><rect x="1990.1" y="1939.3" width="347.19" height="31.57" fill="#fff"/><rect x="1642.91" y="2286.15" width="347.19" height="31.57" fill="#fff"/><rect x="1587.75" y="2120.45" width="457.52" height="15.78" transform="translate(-972.93 1907.97) rotate(-45)" fill="#fff"/><rect x="1808.61" y="1899.58" width="15.78" height="457.52" transform="translate(-972.93 1907.95) rotate(-45)" fill="#fff"/><polygon points="1990.1 1939.3 2005.89 1939.3 2005.89 2317.72 1990.1 2317.72 1974.32 2317.72 1974.32 1939.3 1990.1 1939.3" fill="#fff"/><rect x="1962" y="2273.92" width="56.21" height="56.21" fill="#e1e8ed"/><rect x="1642.91" y="1939.3" width="347.19" height="31.57" fill="#fff"/><polygon points="1642.91 1939.3 1658.69 1939.3 1658.69 2317.72 1642.91 2317.72 1627.12 2317.72 1627.12 1939.3 1642.91 1939.3" fill="#fff"/><rect x="1614.8" y="2273.92" width="56.21" height="56.21" fill="#e1e8ed"/><rect x="601.33" y="2286.15" width="347.19" height="31.57" fill="#fff"/><rect x="546.17" y="2120.45" width="457.52" height="15.78" transform="translate(-1278.02 1171.38) rotate(-45)" fill="#fff"/><rect x="767.03" y="1899.58" width="15.78" height="457.52" transform="translate(-1278.05 1171.46) rotate(-45)" fill="#fff"/><polygon points="948.52 1939.3 964.31 1939.3 964.31 2317.72 948.52 2317.72 932.74 2317.72 932.74 1939.3 948.52 1939.3" fill="#fff"/><rect x="920.42" y="2273.92" width="56.21" height="56.21" fill="#e1e8ed"/><rect x="601.33" y="1939.3" width="347.19" height="31.57" fill="#fff"/><rect x="254.14" y="2286.15" width="347.19" height="31.57" fill="#fff"/><rect x="198.97" y="2120.45" width="457.52" height="15.78" transform="translate(-1379.73 925.9) rotate(-45)" fill="#fff"/><rect x="419.84" y="1899.58" width="15.78" height="457.52" transform="translate(-1379.74 925.91) rotate(-45)" fill="#fff"/><polygon points="601.33 1939.3 617.11 1939.3 617.11 2317.72 601.33 2317.72 585.54 2317.72 585.54 1939.3 601.33 1939.3" fill="#fff"/><rect x="573.22" y="2273.92" width="56.21" height="56.21" fill="#e1e8ed"/><rect x="254.14" y="1939.3" width="347.19" height="31.57" fill="#fff"/><polygon points="254.14 1939.3 269.92 1939.3 269.92 2317.72 254.14 2317.72 238.35 2317.72 238.35 1939.3 254.14 1939.3" fill="#fff"/><rect x="226.03" y="2273.92" width="56.21" height="56.21" fill="#e1e8ed"/><rect x="-93.06" y="1939.3" width="347.19" height="31.57" fill="#fff"/><rect x="-148.22" y="1773.59" width="457.52" height="15.78" transform="translate(-1236.16 578.79) rotate(-45)" fill="#fff"/><rect x="72.65" y="1552.72" width="15.78" height="457.52" transform="translate(-1236.16 578.79) rotate(-45)" fill="#fff"/><polygon points="254.14 1592.44 269.92 1592.44 269.92 1970.86 254.14 1970.86 238.35 1970.86 238.35 1592.44 254.14 1592.44" fill="#fff"/><rect x="-93.06" y="1592.44" width="347.19" height="31.57" fill="#fff"/><rect x="2684.49" y="1939.3" width="347.19" height="31.57" fill="#fff"/><rect x="2629.33" y="1773.59" width="457.52" height="15.78" transform="translate(-422.58 2542.76) rotate(-45)" fill="#fff"/><rect x="2850.19" y="1552.72" width="15.78" height="457.52" transform="translate(-422.52 2543.04) rotate(-45)" fill="#fff"/><rect x="2684.49" y="1592.44" width="347.19" height="31.57" fill="#fff"/><rect x="2337.3" y="1939.3" width="347.19" height="31.57" fill="#fff"/><rect x="2282.13" y="1773.59" width="457.52" height="15.78" transform="translate(-524.23 2297.51) rotate(-45)" fill="#fff"/><rect x="2503" y="1552.72" width="15.79" height="457.52" transform="translate(-524.28 2297.25) rotate(-45)" fill="#fff"/><polygon points="2684.49 1592.44 2700.27 1592.44 2700.27 1970.86 2684.49 1970.86 2668.71 1970.86 2668.71 1592.44 2684.49 1592.44" fill="#fff"/><rect x="2656.38" y="1927.06" width="56.21" height="56.21" fill="#e1e8ed"/><rect x="2337.3" y="1592.44" width="347.19" height="31.57" fill="#fff"/><rect x="1990.1" y="1939.3" width="347.19" height="31.57" fill="#fff"/><rect x="1934.94" y="1773.59" width="457.52" height="15.79" transform="translate(-625.93 2052.11) rotate(-45.01)" fill="#fff"/><rect x="2155.81" y="1552.72" width="15.79" height="457.52" transform="translate(-625.98 2051.63) rotate(-45)" fill="#fff"/><polygon points="2337.3 1592.44 2353.08 1592.44 2353.08 1970.86 2337.3 1970.86 2321.51 1970.86 2321.51 1592.44 2337.3 1592.44" fill="#fff"/><rect x="2309.19" y="1927.06" width="56.21" height="56.21" fill="#e1e8ed"/><rect x="1990.1" y="1592.44" width="347.19" height="31.57" fill="#fff"/><rect x="1642.91" y="1939.3" width="347.19" height="31.57" fill="#fff"/><rect x="1587.75" y="1773.59" width="457.52" height="15.78" transform="translate(-727.66 1806.36) rotate(-45)" fill="#fff"/><rect x="1808.61" y="1552.72" width="15.78" height="457.52" transform="translate(-727.66 1806.35) rotate(-45)" fill="#fff"/><polygon points="1990.1 1592.44 2005.89 1592.44 2005.89 1970.86 1990.1 1970.86 1974.32 1970.86 1974.32 1592.44 1990.1 1592.44" fill="#fff"/><rect x="1962" y="1927.06" width="56.21" height="56.21" fill="#e1e8ed"/><rect x="1642.91" y="1592.44" width="347.19" height="31.57" fill="#fff"/><polygon points="1642.91 1592.44 1658.69 1592.44 1658.69 1970.86 1642.91 1970.86 1627.12 1970.86 1627.12 1592.44 1642.91 1592.44" fill="#fff"/><rect x="1614.8" y="1927.06" width="56.21" height="56.21" fill="#e1e8ed"/><rect x="601.33" y="1939.3" width="347.19" height="31.57" fill="#fff"/><rect x="546.17" y="1773.59" width="457.52" height="15.78" transform="translate(-1032.74 1069.78) rotate(-45)" fill="#fff"/><rect x="767.03" y="1552.72" width="15.78" height="457.52" transform="translate(-1032.77 1069.85) rotate(-45)" fill="#fff"/><polygon points="948.52 1592.44 964.31 1592.44 964.31 1970.86 948.52 1970.86 932.74 1970.86 932.74 1592.44 948.52 1592.44" fill="#fff"/><rect x="920.42" y="1927.06" width="56.21" height="56.21" fill="#e1e8ed"/><rect x="601.33" y="1592.44" width="347.19" height="31.57" fill="#fff"/><rect x="254.14" y="1939.3" width="347.19" height="31.57" fill="#fff"/><rect x="198.97" y="1773.59" width="457.52" height="15.78" transform="translate(-1134.46 824.3) rotate(-45)" fill="#fff"/><rect x="419.84" y="1552.72" width="15.78" height="457.52" transform="translate(-1134.46 824.31) rotate(-45)" fill="#fff"/><polygon points="601.33 1592.44 617.11 1592.44 617.11 1970.86 601.33 1970.86 585.54 1970.86 585.54 1592.44 601.33 1592.44" fill="#fff"/><rect x="573.22" y="1927.06" width="56.21" height="56.21" fill="#e1e8ed"/><rect x="254.14" y="1592.44" width="347.19" height="31.57" fill="#fff"/><polygon points="254.14 1592.44 269.92 1592.44 269.92 1970.86 254.14 1970.86 238.35 1970.86 238.35 1592.44 254.14 1592.44" fill="#fff"/><rect x="226.03" y="1927.06" width="56.21" height="56.21" fill="#e1e8ed"/><rect x="-93.06" y="1592.44" width="347.19" height="31.57" fill="#fff"/><rect x="-148.22" y="1426.73" width="457.52" height="15.78" transform="translate(-990.89 477.19) rotate(-45)" fill="#fff"/><rect x="72.65" y="1205.86" width="15.78" height="457.52" transform="translate(-990.88 477.19) rotate(-45)" fill="#fff"/><polygon points="254.14 1245.58 269.92 1245.58 269.92 1624.01 254.14 1624.01 238.35 1624.01 238.35 1245.58 254.14 1245.58" fill="#fff"/><rect x="-93.06" y="1245.58" width="347.19" height="31.57" fill="#fff"/><rect x="2684.49" y="1592.44" width="347.19" height="31.57" fill="#fff"/><rect x="2629.33" y="1426.73" width="457.52" height="15.78" transform="translate(-177.32 2441.16) rotate(-45)" fill="#fff"/><rect x="2850.19" y="1205.86" width="15.78" height="457.52" transform="translate(-177.23 2441.42) rotate(-45)" fill="#fff"/><rect x="2684.49" y="1245.58" width="347.19" height="31.57" fill="#fff"/><rect x="2337.3" y="1592.44" width="347.19" height="31.57" fill="#fff"/><rect x="2282.13" y="1426.73" width="457.52" height="15.78" transform="translate(-278.94 2195.9) rotate(-45)" fill="#fff"/><rect x="2503" y="1205.86" width="15.79" height="457.52" transform="translate(-279.01 2195.66) rotate(-45)" fill="#fff"/><polygon points="2684.49 1245.58 2700.27 1245.58 2700.27 1624.01 2684.49 1624.01 2668.71 1624.01 2668.71 1245.58 2684.49 1245.58" fill="#fff"/><rect x="2656.38" y="1580.21" width="56.21" height="56.21" fill="#e1e8ed"/><rect x="2337.3" y="1245.58" width="347.19" height="31.57" fill="#fff"/><rect x="1990.1" y="1592.44" width="347.19" height="31.57" fill="#fff"/><rect x="1934.94" y="1426.73" width="457.52" height="15.79" transform="translate(-380.63 1950.49) rotate(-45.01)" fill="#fff"/><rect x="2155.81" y="1205.86" width="15.79" height="457.52" transform="translate(-380.72 1950.04) rotate(-45)" fill="#fff"/><polygon points="2337.3 1245.58 2353.08 1245.58 2353.08 1624.01 2337.3 1624.01 2321.51 1624.01 2321.51 1245.58 2337.3 1245.58" fill="#fff"/><rect x="2309.19" y="1580.21" width="56.21" height="56.21" fill="#e1e8ed"/><rect x="1990.1" y="1245.58" width="347.19" height="31.57" fill="#fff"/><rect x="1642.91" y="1592.44" width="347.19" height="31.57" fill="#fff"/><rect x="1587.75" y="1426.73" width="457.52" height="15.78" transform="translate(-482.38 1704.76) rotate(-45)" fill="#fff"/><rect x="1808.61" y="1205.86" width="15.78" height="457.52" transform="translate(-482.38 1704.75) rotate(-45)" fill="#fff"/><polygon points="1990.1 1245.58 2005.89 1245.58 2005.89 1624.01 1990.1 1624.01 1974.32 1624.01 1974.32 1245.58 1990.1 1245.58" fill="#fff"/><rect x="1962" y="1580.21" width="56.21" height="56.21" fill="#e1e8ed"/><rect x="1642.91" y="1245.58" width="347.19" height="31.57" fill="#fff"/><polygon points="1642.91 1245.58 1658.69 1245.58 1658.69 1624.01 1642.91 1624.01 1627.12 1624.01 1627.12 1245.58 1642.91 1245.58" fill="#fff"/><rect x="1614.8" y="1580.21" width="56.21" height="56.21" fill="#e1e8ed"/><rect x="601.33" y="1592.44" width="347.19" height="31.57" fill="#fff"/><rect x="546.17" y="1426.73" width="457.52" height="15.78" transform="translate(-787.47 968.18) rotate(-45)" fill="#fff"/><rect x="767.03" y="1205.86" width="15.78" height="457.52" transform="translate(-787.49 968.25) rotate(-45)" fill="#fff"/><polygon points="948.52 1245.58 964.31 1245.58 964.31 1624.01 948.52 1624.01 932.74 1624.01 932.74 1245.58 948.52 1245.58" fill="#fff"/><rect x="920.42" y="1580.21" width="56.21" height="56.21" fill="#e1e8ed"/><rect x="601.33" y="1245.58" width="347.19" height="31.57" fill="#fff"/><rect x="254.14" y="1592.44" width="347.19" height="31.57" fill="#fff"/><rect x="198.97" y="1426.73" width="457.52" height="15.78" transform="translate(-889.18 722.7) rotate(-45)" fill="#fff"/><rect x="419.84" y="1205.86" width="15.78" height="457.52" transform="translate(-889.18 722.7) rotate(-45)" fill="#fff"/><polygon points="601.33 1245.58 617.11 1245.58 617.11 1624.01 601.33 1624.01 585.54 1624.01 585.54 1245.58 601.33 1245.58" fill="#fff"/><rect x="573.22" y="1580.21" width="56.21" height="56.21" fill="#e1e8ed"/><rect x="254.14" y="1245.58" width="347.19" height="31.57" fill="#fff"/><polygon points="254.14 1245.58 269.92 1245.58 269.92 1624.01 254.14 1624.01 238.35 1624.01 238.35 1245.58 254.14 1245.58" fill="#fff"/><rect x="226.03" y="1580.21" width="56.21" height="56.21" fill="#e1e8ed"/><rect x="-93.06" y="1245.58" width="347.19" height="31.57" fill="#fff"/><rect x="-148.22" y="1079.87" width="457.52" height="15.78" transform="translate(-745.61 375.59) rotate(-45)" fill="#fff"/><rect x="72.65" y="859.01" width="15.78" height="457.52" transform="translate(-745.61 375.58) rotate(-45)" fill="#fff"/><polygon points="254.14 898.72 269.92 898.72 269.92 1277.15 254.14 1277.15 238.35 1277.15 238.35 898.72 254.14 898.72" fill="#fff"/><rect x="-93.06" y="898.72" width="347.19" height="31.57" fill="#fff"/><rect x="2684.49" y="1245.58" width="347.19" height="31.57" fill="#fff"/><rect x="2629.33" y="1079.87" width="457.52" height="15.78" transform="translate(67.95 2339.57) rotate(-45)" fill="#fff"/><rect x="2850.19" y="859.01" width="15.78" height="457.52" transform="translate(68.05 2339.81) rotate(-45)" fill="#fff"/><rect x="2684.49" y="898.72" width="347.19" height="31.57" fill="#fff"/><rect x="2337.3" y="1245.58" width="347.19" height="31.57" fill="#fff"/><rect x="2282.13" y="1079.87" width="457.52" height="15.78" transform="translate(-33.66 2094.29) rotate(-45)" fill="#fff"/><rect x="2503" y="859.01" width="15.79" height="457.52" transform="translate(-33.74 2094.07) rotate(-45)" fill="#fff"/><polygon points="2684.49 898.72 2700.27 898.72 2700.27 1277.15 2684.49 1277.15 2668.71 1277.15 2668.71 898.72 2684.49 898.72" fill="#fff"/><rect x="2656.38" y="1233.35" width="56.21" height="56.21" fill="#e1e8ed"/><rect x="2337.3" y="898.72" width="347.19" height="31.57" fill="#fff"/><rect x="1990.1" y="1245.58" width="347.19" height="31.57" fill="#fff"/><rect x="1934.94" y="1079.87" width="457.52" height="15.79" transform="translate(-135.34 1848.86) rotate(-45.01)" fill="#fff"/><rect x="2155.81" y="859.01" width="15.79" height="457.52" transform="translate(-135.47 1848.46) rotate(-45)" fill="#fff"/><polygon points="2337.3 898.72 2353.08 898.72 2353.08 1277.15 2337.3 1277.15 2321.51 1277.15 2321.51 898.72 2337.3 898.72" fill="#fff"/><rect x="2309.19" y="1233.35" width="56.21" height="56.21" fill="#e1e8ed"/><rect x="1990.1" y="898.72" width="347.19" height="31.57" fill="#fff"/><rect x="1642.91" y="1245.58" width="347.19" height="31.57" fill="#fff"/><rect x="1587.75" y="1079.87" width="457.52" height="15.78" transform="translate(-237.1 1603.16) rotate(-45)" fill="#fff"/><rect x="1808.61" y="859.01" width="15.78" height="457.52" transform="translate(-237.1 1603.15) rotate(-45)" fill="#fff"/><polygon points="1990.1 898.72 2005.89 898.72 2005.89 1277.15 1990.1 1277.15 1974.32 1277.15 1974.32 898.72 1990.1 898.72" fill="#fff"/><rect x="1962" y="1233.35" width="56.21" height="56.21" fill="#e1e8ed"/><rect x="1642.91" y="898.72" width="347.19" height="31.57" fill="#fff"/><polygon points="1642.91 898.72 1658.69 898.72 1658.69 1277.15 1642.91 1277.15 1627.12 1277.15 1627.12 898.72 1642.91 898.72" fill="#fff"/><rect x="1614.8" y="1233.35" width="56.21" height="56.21" fill="#e1e8ed"/><rect x="601.33" y="1245.58" width="347.19" height="31.57" fill="#fff"/><rect x="546.17" y="1079.87" width="457.52" height="15.78" transform="translate(-542.2 866.58) rotate(-45)" fill="#fff"/><rect x="767.03" y="859.01" width="15.78" height="457.52" transform="translate(-542.21 866.64) rotate(-45)" fill="#fff"/><polygon points="948.52 898.72 964.31 898.72 964.31 1277.15 948.52 1277.15 932.74 1277.15 932.74 898.72 948.52 898.72" fill="#fff"/><rect x="920.42" y="1233.35" width="56.21" height="56.21" fill="#e1e8ed"/><rect x="601.33" y="898.72" width="347.19" height="31.57" fill="#fff"/><rect x="254.14" y="1245.58" width="347.19" height="31.57" fill="#fff"/><rect x="198.97" y="1079.87" width="457.52" height="15.78" transform="translate(-643.91 621.1) rotate(-45)" fill="#fff"/><rect x="419.84" y="859.01" width="15.78" height="457.52" transform="translate(-643.91 621.1) rotate(-45)" fill="#fff"/><polygon points="601.33 898.72 617.11 898.72 617.11 1277.15 601.33 1277.15 585.54 1277.15 585.54 898.72 601.33 898.72" fill="#fff"/><rect x="573.22" y="1233.35" width="56.21" height="56.21" fill="#e1e8ed"/><rect x="254.14" y="898.72" width="347.19" height="31.57" fill="#fff"/><polygon points="254.14 898.72 269.92 898.72 269.92 1277.15 254.14 1277.15 238.35 1277.15 238.35 898.72 254.14 898.72" fill="#fff"/><rect x="226.03" y="1233.35" width="56.21" height="56.21" fill="#e1e8ed"/><rect x="-93.06" y="898.72" width="347.19" height="31.57" fill="#fff"/><rect x="-148.22" y="733.02" width="457.52" height="15.78" transform="translate(-500.33 273.98) rotate(-45)" fill="#fff"/><rect x="72.65" y="512.15" width="15.78" height="457.52" transform="translate(-500.32 273.97) rotate(-45)" fill="#fff"/><polygon points="254.14 551.86 269.92 551.86 269.92 930.29 254.14 930.29 238.35 930.29 238.35 551.86 254.14 551.86" fill="#fff"/><rect x="-93.06" y="551.86" width="347.19" height="31.57" fill="#fff"/><rect x="2684.49" y="898.72" width="347.19" height="31.57" fill="#fff"/><rect x="2629.33" y="733.02" width="457.52" height="15.78" transform="translate(313.21 2237.98) rotate(-45)" fill="#fff"/><rect x="2850.19" y="512.15" width="15.78" height="457.52" transform="translate(313.31 2238.15) rotate(-45)" fill="#fff"/><rect x="2684.49" y="551.86" width="347.19" height="31.57" fill="#fff"/><rect x="2337.3" y="898.72" width="347.19" height="31.57" fill="#fff"/><rect x="2282.13" y="733.02" width="457.52" height="15.78" transform="translate(211.63 1992.67) rotate(-45)" fill="#fff"/><rect x="2503" y="512.15" width="15.79" height="457.52" transform="translate(211.5 1992.43) rotate(-45)" fill="#fff"/><polygon points="2684.49 551.86 2700.27 551.86 2700.27 930.29 2684.49 930.29 2668.71 930.29 2668.71 551.86 2684.49 551.86" fill="#fff"/><rect x="2656.38" y="886.49" width="56.21" height="56.21" fill="#e1e8ed"/><rect x="2337.3" y="551.86" width="347.19" height="31.57" fill="#fff"/><rect x="2656.38" y="539.21" width="56.21" height="56.21" fill="#e1e8ed"/><rect x="1990.1" y="898.72" width="347.19" height="31.57" fill="#fff"/><rect x="1934.94" y="733.02" width="457.52" height="15.79" transform="translate(109.96 1747.24) rotate(-45.01)" fill="#fff"/><rect x="2155.81" y="512.15" width="15.79" height="457.52" transform="translate(109.77 1746.84) rotate(-45)" fill="#fff"/><polygon points="2337.3 551.86 2353.08 551.86 2353.08 930.29 2337.3 930.29 2321.51 930.29 2321.51 551.86 2337.3 551.86" fill="#fff"/><rect x="2309.19" y="886.49" width="56.21" height="56.21" fill="#e1e8ed"/><rect x="1990.1" y="551.86" width="347.19" height="31.57" fill="#fff"/><rect x="2309.19" y="539.21" width="56.21" height="56.21" fill="#e1e8ed"/><rect x="1642.91" y="898.72" width="347.19" height="31.57" fill="#fff"/><rect x="1587.75" y="733.02" width="457.52" height="15.78" transform="translate(8.18 1501.55) rotate(-45)" fill="#fff"/><rect x="1808.61" y="512.15" width="15.78" height="457.52" transform="translate(8.16 1501.51) rotate(-45)" fill="#fff"/><polygon points="1990.1 551.86 2005.89 551.86 2005.89 930.29 1990.1 930.29 1974.32 930.29 1974.32 551.86 1990.1 551.86" fill="#fff"/><rect x="1962" y="886.49" width="56.21" height="56.21" fill="#e1e8ed"/><rect x="1642.91" y="551.86" width="347.19" height="31.57" fill="#fff"/><rect x="1962" y="539.21" width="56.21" height="56.21" fill="#e1e8ed"/><polygon points="1642.91 551.86 1658.69 551.86 1658.69 930.29 1642.91 930.29 1627.12 930.29 1627.12 551.86 1642.91 551.86" fill="#fff"/><rect x="1614.8" y="886.49" width="56.21" height="56.21" fill="#e1e8ed"/><rect x="1614.8" y="539.21" width="56.21" height="56.21" fill="#e1e8ed"/><rect x="601.33" y="898.72" width="347.19" height="31.57" fill="#fff"/><rect x="546.17" y="733.02" width="457.52" height="15.78" transform="translate(-296.93 764.99) rotate(-45)" fill="#fff"/><rect x="767.03" y="512.15" width="15.78" height="457.52" transform="translate(-296.93 765.01) rotate(-45)" fill="#fff"/><polygon points="948.52 551.86 964.31 551.86 964.31 930.29 948.52 930.29 932.74 930.29 932.74 551.86 948.52 551.86" fill="#fff"/><rect x="920.42" y="886.49" width="56.21" height="56.21" fill="#e1e8ed"/><rect x="601.33" y="551.86" width="347.19" height="31.57" fill="#fff"/><rect x="920.42" y="539.21" width="56.21" height="56.21" fill="#e1e8ed"/><rect x="254.14" y="898.72" width="347.19" height="31.57" fill="#fff"/><rect x="198.97" y="733.02" width="457.52" height="15.78" transform="translate(-398.63 519.49) rotate(-45)" fill="#fff"/><rect x="419.84" y="512.15" width="15.78" height="457.52" transform="translate(-398.63 519.48) rotate(-45)" fill="#fff"/><polygon points="601.33 551.86 617.11 551.86 617.11 930.29 601.33 930.29 585.54 930.29 585.54 551.86 601.33 551.86" fill="#fff"/><rect x="573.22" y="886.49" width="56.21" height="56.21" fill="#e1e8ed"/><rect x="254.14" y="551.86" width="347.19" height="31.57" fill="#fff"/><rect x="573.22" y="539.21" width="56.21" height="56.21" fill="#e1e8ed"/><polygon points="254.14 551.86 269.92 551.86 269.92 930.29 254.14 930.29 238.35 930.29 238.35 551.86 254.14 551.86" fill="#fff"/><rect x="226.03" y="886.49" width="56.21" height="56.21" fill="#e1e8ed"/><rect x="226.03" y="539.21" width="56.21" height="56.21" fill="#e1e8ed"/></g><g clip-path="url(#c)"><polygon points="-98.13 2482.71 -88.7 2494.37 953.5 1651.19 944.06 1639.54 -98.13 2482.71" fill="#fff"/><polygon points="941.76 1636.76 896.26 1632.33 894.81 1647.28 955.07 1653.15 955.07 1653.13 941.76 1636.71 941.76 1636.76" fill="#fff"/><polygon points="868.46 1723.49 875.07 1663.31 860.14 1661.67 855.14 1707.1 809.65 1702.66 808.19 1717.62 868.46 1723.49" fill="#fff"/><path d="M845.67,1728.39a20.78,20.78,0,1,0,3.19-29A20.65,20.65,0,0,0,845.67,1728.39Z" fill="#e1e8ed"/><polygon points="781.84 1793.83 788.46 1733.64 773.52 1732 768.53 1777.43 723.04 1773 721.58 1787.96 781.84 1793.83" fill="#fff"/><path d="M759.05,1798.73a20.78,20.78,0,1,0,3.19-29A20.66,20.66,0,0,0,759.05,1798.73Z" fill="#e1e8ed"/><polygon points="695.23 1864.16 701.85 1803.98 686.91 1802.34 681.91 1847.77 636.42 1843.34 634.97 1858.29 695.23 1864.16" fill="#fff"/><path d="M672.44,1869.07a20.79,20.79,0,1,0,3.19-29A20.66,20.66,0,0,0,672.44,1869.07Z" fill="#e1e8ed"/><polygon points="608.62 1934.5 615.23 1874.32 600.3 1872.68 595.3 1918.11 549.81 1913.68 548.35 1928.63 608.62 1934.5" fill="#fff"/><path d="M585.82,1939.41a20.79,20.79,0,1,0,3.2-29A20.67,20.67,0,0,0,585.82,1939.41Z" fill="#e1e8ed"/><polygon points="522 2004.84 528.62 1944.66 513.68 1943.02 508.69 1988.45 463.2 1984.02 461.74 1998.97 522 2004.84" fill="#fff"/><path d="M499.21,2009.74a20.78,20.78,0,1,0,3.19-29A20.67,20.67,0,0,0,499.21,2009.74Z" fill="#e1e8ed"/><polygon points="435.39 2075.18 442 2014.99 427.07 2013.35 422.07 2058.78 376.58 2054.35 375.13 2069.31 435.39 2075.18" fill="#fff"/><path d="M412.6,2080.08a20.78,20.78,0,1,0,3.19-29A20.66,20.66,0,0,0,412.6,2080.08Z" fill="#e1e8ed"/><polygon points="348.77 2145.51 355.39 2085.33 340.45 2083.69 335.46 2129.12 289.97 2124.69 288.51 2139.64 348.77 2145.51" fill="#fff"/><path d="M326,2150.42a20.79,20.79,0,1,0,3.19-29A20.66,20.66,0,0,0,326,2150.42Z" fill="#e1e8ed"/><polygon points="262.16 2215.85 268.78 2155.67 253.84 2154.03 248.85 2199.46 203.35 2195.03 201.9 2209.98 262.16 2215.85" fill="#fff"/><path d="M239.37,2220.76a20.79,20.79,0,1,0,3.19-29A20.65,20.65,0,0,0,239.37,2220.76Z" fill="#e1e8ed"/><polygon points="175.54 2286.19 182.16 2226.01 167.23 2224.37 162.23 2269.8 116.74 2265.36 115.28 2280.32 175.54 2286.19" fill="#fff"/><path d="M152.75,2291.1a20.79,20.79,0,1,0,3.2-29A20.67,20.67,0,0,0,152.75,2291.1Z" fill="#e1e8ed"/><polygon points="88.93 2356.53 95.55 2296.35 80.61 2294.7 75.62 2340.14 30.13 2335.7 28.67 2350.66 88.93 2356.53" fill="#fff"/><path d="M66.14,2361.43a20.78,20.78,0,1,0,3.19-29A20.67,20.67,0,0,0,66.14,2361.43Z" fill="#e1e8ed"/><path d="M932.28,1658.06a20.67,20.67,0,0,0,29.08,2.83L935.51,1629l0,0A20.66,20.66,0,0,0,932.28,1658.06Z" fill="#e1e8ed"/><rect x="-271.22" y="2018.42" width="1341.83" height="30" transform="translate(-1191.04 705.22) rotate(-39.02)" fill="#fff"/><polygon points="1637.87 1075.71 1647.3 1087.37 2845.5 118.19 2836.05 106.54 1637.87 1075.71" fill="#fff"/><polygon points="2677.76 229.76 2632.26 225.33 2630.81 240.28 2691.07 246.15 2691.07 246.13 2677.76 229.71 2677.76 229.76" fill="#fff"/><polygon points="2604.46 316.49 2611.07 256.31 2596.14 254.67 2591.14 300.1 2545.65 295.66 2544.19 310.62 2604.46 316.49" fill="#fff"/><path d="M2581.67,321.39a20.78,20.78,0,1,0,3.19-29A20.65,20.65,0,0,0,2581.67,321.39Z" fill="#e1e8ed"/><polygon points="2517.84 386.82 2524.46 326.64 2509.52 325 2504.53 370.43 2459.04 366 2457.58 380.96 2517.84 386.82" fill="#fff"/><path d="M2495.05,391.73a20.78,20.78,0,1,0,3.19-29A20.66,20.66,0,0,0,2495.05,391.73Z" fill="#e1e8ed"/><polygon points="2431.23 457.16 2437.84 396.98 2422.91 395.34 2417.91 440.77 2372.42 436.34 2370.97 451.29 2431.23 457.16" fill="#fff"/><path d="M2408.44,462.07a20.79,20.79,0,1,0,3.19-29A20.66,20.66,0,0,0,2408.44,462.07Z" fill="#e1e8ed"/><polygon points="2777.69 175.81 2784.3 115.63 2769.37 113.99 2764.37 159.42 2718.88 154.99 2717.42 169.94 2777.69 175.81" fill="#fff"/><path d="M2754.9,180.72a20.78,20.78,0,1,0,3.19-29A20.65,20.65,0,0,0,2754.9,180.72Z" fill="#e1e8ed"/><polygon points="2691.07 246.15 2697.69 185.97 2682.75 184.33 2677.76 229.76 2632.27 225.33 2630.81 240.28 2691.07 246.15" fill="#fff"/><path d="M2668.28,251.05a20.78,20.78,0,1,0,3.19-29A20.66,20.66,0,0,0,2668.28,251.05Z" fill="#e1e8ed"/><polygon points="2344.62 527.5 2351.23 467.32 2336.3 465.68 2331.3 511.11 2285.81 506.68 2284.35 521.63 2344.62 527.5" fill="#fff"/><path d="M2321.82,532.41a20.79,20.79,0,1,0,3.2-29A20.67,20.67,0,0,0,2321.82,532.41Z" fill="#e1e8ed"/><polygon points="2258 597.84 2264.62 537.66 2249.68 536.02 2244.69 581.45 2199.2 577.01 2197.74 591.97 2258 597.84" fill="#fff"/><path d="M2235.21,602.74a20.78,20.78,0,1,0,3.19-29A20.67,20.67,0,0,0,2235.21,602.74Z" fill="#e1e8ed"/><polygon points="2171.39 668.18 2178 608 2163.07 606.35 2158.07 651.78 2112.58 647.35 2111.13 662.31 2171.39 668.18" fill="#fff"/><path d="M2148.6,673.08a20.78,20.78,0,1,0,3.19-29A20.66,20.66,0,0,0,2148.6,673.08Z" fill="#e1e8ed"/><polygon points="2084.77 738.51 2091.39 678.33 2076.45 676.69 2071.46 722.12 2025.97 717.69 2024.51 732.64 2084.77 738.51" fill="#fff"/><path d="M2062,743.42a20.79,20.79,0,1,0,3.19-29A20.66,20.66,0,0,0,2062,743.42Z" fill="#e1e8ed"/><polygon points="1998.16 808.85 2004.78 748.67 1989.84 747.03 1984.85 792.46 1939.36 788.03 1937.9 802.98 1998.16 808.85" fill="#fff"/><path d="M1975.37,813.76a20.79,20.79,0,1,0,3.19-29A20.65,20.65,0,0,0,1975.37,813.76Z" fill="#e1e8ed"/><polygon points="1911.55 879.19 1918.16 819.01 1903.23 817.37 1898.23 862.8 1852.74 858.36 1851.28 873.32 1911.55 879.19" fill="#fff"/><path d="M1888.75,884.1a20.79,20.79,0,1,0,3.2-29A20.67,20.67,0,0,0,1888.75,884.1Z" fill="#e1e8ed"/><polygon points="1824.93 949.53 1831.55 889.35 1816.61 887.7 1811.62 933.13 1766.13 928.7 1764.67 943.66 1824.93 949.53" fill="#fff"/><path d="M1802.14,954.43a20.78,20.78,0,1,0,3.19-29A20.67,20.67,0,0,0,1802.14,954.43Z" fill="#e1e8ed"/><polygon points="1738.32 1019.87 1744.93 959.68 1730 958.04 1725 1003.47 1679.51 999.04 1678.06 1014 1738.32 1019.87" fill="#fff"/><path d="M1715.53,1024.77a20.78,20.78,0,1,0,3.19-29A20.66,20.66,0,0,0,1715.53,1024.77Z" fill="#e1e8ed"/><polygon points="1605 1037.17 1623.89 1060.48 2822.39 89.67 2803.5 63.36 1605 1037.17" fill="#fff"/></g><path d="M1416.69,1666.21a60,60,0,1,1-84.85-84.85l81.47-81.47a60,60,0,1,1,84.85,84.85Z" fill="#657786"/><path d="M1290.19,1666.21a60,60,0,1,1-84.85-84.85l81.46-81.47a60,60,0,0,1,84.86,84.85Z" fill="#657786"/><path d="M1163.69,1666.21a60,60,0,1,1-84.85-84.85l81.46-81.47a60,60,0,0,1,84.86,84.85Z" fill="#657786"/><path d="M1450.35,1283.22a63.93,63.93,0,1,0-96.37,84l103.42,118.21a49.41,49.41,0,0,1,12.15,32.63v31a38.44,38.44,0,0,1-38.46,38.64H1301.58a231.06,231.06,0,0,0-231,231.25v55.41h340.63l123.75-136.35a241.36,241.36,0,0,0,62.62-162.58V1518.4A174.23,174.23,0,0,0,1555,1404Z" fill="url(#d)"/><polygon points="1301.53 1371.8 1308.14 1311.62 1293.21 1309.98 1288.21 1355.41 1242.72 1350.98 1241.26 1365.93 1301.53 1371.8" fill="#2a3137"/><polygon points="1214.91 1442.14 1221.53 1381.96 1206.59 1380.32 1201.6 1425.74 1156.11 1421.32 1154.65 1436.27 1214.91 1442.14" fill="#2a3137"/><polygon points="1128.3 1512.47 1134.91 1452.3 1119.98 1450.65 1114.99 1496.08 1069.49 1491.65 1068.04 1506.61 1128.3 1512.47" fill="#2a3137"/><polygon points="1041.69 1582.81 1048.3 1522.63 1033.37 1520.99 1028.37 1566.42 982.88 1561.99 981.42 1576.94 1041.69 1582.81" fill="#2a3137"/><polygon points="1374.83 1285.02 1374.83 1285.07 1329.33 1280.64 1327.88 1295.59 1388.14 1301.46 1388.14 1301.44 1374.83 1285.02" fill="#2a3137"/><polygon points="946.75 1591.33 941.76 1636.71 955.07 1653.13 961.69 1592.97 946.75 1591.33" fill="#2a3137"/><rect x="849.27" y="1356.92" width="892.73" height="15" transform="translate(-570 1120.08) rotate(-39.02)" fill="#2a3137"/><polygon points="1124.18 1427.01 911.5 1599.36 930.39 1622.67 1623.82 1060.43 1604.93 1037.12 1124.18 1427.01 1124.18 1427.01" fill="#2a3137"/><polygon points="1634.71 1073.67 1634.67 1074.06 1589.17 1069.63 1587.72 1084.58 1647.98 1090.45 1648.02 1090.1 1634.71 1073.67" fill="#2a3137"/><polygon points="1561.37 1160.78 1567.98 1100.61 1553.05 1098.97 1548.06 1144.39 1502.56 1139.96 1501.11 1154.92 1561.37 1160.78" fill="#2a3137"/><polygon points="1474.76 1231.12 1481.37 1170.94 1466.43 1169.3 1461.44 1214.73 1415.95 1210.3 1414.49 1225.26 1474.76 1231.12" fill="#2a3137"/><polygon points="1394.76 1241.28 1379.82 1239.64 1374.83 1285.02 1388.14 1301.44 1394.76 1241.28" fill="#2a3137"/><path d="M1278.74,1376.7a20.78,20.78,0,1,0,3.19-29A20.66,20.66,0,0,0,1278.74,1376.7Z" fill="#2a3137"/><path d="M1192.12,1447a20.78,20.78,0,1,0,3.19-29A20.66,20.66,0,0,0,1192.12,1447Z" fill="#2a3137"/><path d="M1105.51,1517.38a20.79,20.79,0,1,0,3.19-29A20.66,20.66,0,0,0,1105.51,1517.38Z" fill="#2a3137"/><path d="M1018.9,1587.72a20.78,20.78,0,1,0,3.19-29A20.65,20.65,0,0,0,1018.9,1587.72Z" fill="#2a3137"/><path d="M932.28,1658.06a20.79,20.79,0,1,0,3.19-29A20.67,20.67,0,0,0,932.28,1658.06Z" fill="#2a3137"/><path d="M1538.58,1165.69a20.78,20.78,0,1,0,3.19-29A20.66,20.66,0,0,0,1538.58,1165.69Z" fill="#2a3137"/><path d="M1452,1236a20.78,20.78,0,1,0,3.18-29A20.65,20.65,0,0,0,1452,1236Z" fill="#2a3137"/><path d="M1625.19,1095.35a20.78,20.78,0,1,0,3.19-29A20.66,20.66,0,0,0,1625.19,1095.35Z" fill="#2a3137"/><path d="M1365.35,1306.37a20.79,20.79,0,1,0,3.19-29A20.67,20.67,0,0,0,1365.35,1306.37Z" fill="#2a3137"/><rect x="1026.61" y="1874.86" width="426.05" height="722.14" fill="#e1e8ed"/><path d="M1360.59,1305a74.52,74.52,0,0,0-94.7,46.21L1085.34,1875h157.57l163.82-475.26A74.56,74.56,0,0,0,1360.59,1305Z" fill="#fff"/><path d="M1351,2011a26.91,26.91,0,1,0-27.1-26.92A27,27,0,0,0,1351,2011Z" fill="#fff"/><path d="M1351.6,2120.31a26.91,26.91,0,1,0-27.1-26.91A27,27,0,0,0,1351.6,2120.31Z" fill="#fff"/><path d="M1352.26,2229.67a26.91,26.91,0,1,0-27.1-26.92A27,27,0,0,0,1352.26,2229.67Z" fill="#fff"/><path d="M543.1,1823.42c2.15.88,7.29-1.75,10-4.88,2.26-2.56,8.06-2.67,4.88,2.56-4,6.49-10.15,10.6-13.72,9.87l1.59,1.87-6.88,5.82-5.09-7.47Z" fill="#fff"/><path d="M382.18,1572.33c47.46-18.61,107.88-42.64,160.45-63.32l-2.58-14.08c-56.81,12.64-114.09,23.8-166.32,34.81C352.45,1534.23,359.35,1581.28,382.18,1572.33Z" fill="#fff"/><path d="M541.05,1496.36a2.41,2.41,0,0,0,3.35-.61l4.43-6.42a2.41,2.41,0,0,0-.61-3.35h0a2.41,2.41,0,0,0-3.34.62l-4.43,6.42A2.41,2.41,0,0,0,541.05,1496.36Z" fill="#fff"/><path d="M550.2,1495.45a2.4,2.4,0,0,0,.86,4.73l4.82-.88a2.4,2.4,0,1,0-.86-4.73Z" fill="#fff"/><path d="M549.34,1490.66a2.41,2.41,0,0,0,.87,4.74l13.73-2.52a2.41,2.41,0,0,0-.87-4.74Z" fill="#fff"/><path d="M549.14,1503a2.39,2.39,0,0,0,2.8,1.93l4.82-.89a2.4,2.4,0,1,0-.87-4.72l-4.83.87A2.42,2.42,0,0,0,549.14,1503Z" fill="#fff"/><path d="M551.94,1504.92a2.41,2.41,0,0,0,.86,4.74l4.82-.89a2.41,2.41,0,0,0-.86-4.74Z" fill="#fff"/><path d="M545.51,1511a2.48,2.48,0,0,1-2.88-2l-2.58-14.08a2.47,2.47,0,0,1,2-2.87l7.3-1.35a2.48,2.48,0,0,1,2.87,2l2.59,14.08a2.49,2.49,0,0,1-2,2.88Z" fill="#fff"/><path d="M362.72,1689.21C485,1707.79,510,1751.72,540.36,1819.87c-2.43,2.05-.05,0-9.47,8-39.59-62.81-82.27-86.09-182.29-83.9C309.12,1744.79,323.81,1683.29,362.72,1689.21Z" fill="#fff"/><path d="M507.76,1853c2.05,1.09,7.43-1,10.48-3.82,2.51-2.31,8.29-1.82,4.59,3.06-4.6,6-11.2,9.49-14.67,8.39.64.95,1.39,2,1.39,2l-7.44,5.07-4.29-8Z" fill="#fff"/><path d="M335.46,1698.16c119.66,31.13,146.81,80.12,169.94,151-2.62,1.79,0,0-10.25,6.94-32.87-66.57-67.82-96-167.53-104.11C288.26,1748.81,297.37,1688.26,335.46,1698.16Z" fill="#fff"/><path d="M418.89,1491.51c-4.74-5.43-11.91-8-20.47-5.41-9.71,3-12.39,7.14-11.17,19,.68,6.45-21.3,20-28.89,24.55l34.38,24.78c.88-.58,31.95-23.28,29.89-51.15l4.67-1.42S423.63,1496.93,418.89,1491.51Z" fill="#fff"/><path d="M416.84,1495.25a2,2,0,1,1-2.78-.55A2,2,0,0,1,416.84,1495.25Z" fill="#657786"/><path d="M412.43,1496.6a2,2,0,1,1-2.77-.54A2,2,0,0,1,412.43,1496.6Z" fill="#657786"/><path d="M386.7,1491.1c-.83-3.7,2.41-7.53,6.27-7.57s6.72-1.8,5.93-3.52c3.72,1.67,4.12,6.79,1.66,9.47s-10.2,5-11.64,5.3c1.21,1.72.41,9.77-1.67,10.29C383.1,1502.58,381.33,1492.92,386.7,1491.1Z" fill="#657786"/><path d="M413.42,1536.07c-7,44.44-56,92.74-5.09,155.57,0,0-30,31.46-59.82,39.23-8.27,2.15-29.63-2.92-37.81-.37-22.75,7.09-40.5,34.78-92.16,4.72,5.36-15.53,24.86-37.71,36.67-50-10.05,3.4-35.64,23.53-47.25,44.39-12.5-6.95-25-36.23-30.28-49.14,6.37-5,21.16-10,32.53-13.8,56.77-19.1,51-69.12,84.47-101.38,19.16-18.48,39.43-33.91,65.55-40.66C372.74,1521.41,415.14,1525.13,413.42,1536.07Z" fill="#fff"/><path d="M498.63,1684.09l4.89-1.38Z" fill="none"/><path d="M491.47,1689.71l4.47,3.94,5.33,5.71a2.41,2.41,0,0,0,3.52-3.28l-5.33-5.71-2-2.57a2.34,2.34,0,0,1,1.2-3.71L488.32,1687Z" fill="#657786"/><path d="M515.65,1674.27l-13.84,1.93-10,1.33-3.48,9.49,10.31-2.93,4.89-1.38L517,1678.9a2.41,2.41,0,0,0-1.31-4.63Z" fill="#fff"/><path d="M358.49,1566.54c0,62.79,43.41,112.21,131.86,125.38l5.58-17.51c-76.52-28.62-105.66-53.22-98.09-106.37C402.6,1534.62,358.49,1534.88,358.49,1566.54Z" fill="#fff"/><path d="M408.05,1550.69c.49-7.19,5.1-6.57,4.65-.16-3.79,53.93-68.17-66-137.53-10.3L256,1531.4s6.58-14.09,9.37-18.9C341.1,1475.26,405.39,1589.32,408.05,1550.69Z" fill="#657786"/><polygon points="407.36 1539.94 413.19 1540.3 415.07 1550.6 405.44 1550.72 407.36 1539.94" fill="#657786"/><path d="M438.13,1958.65a19,19,0,1,1-26.77-2.83A19,19,0,0,1,438.13,1958.65Z" fill="#fff"/><path d="M429.15,1965.91a7.49,7.49,0,1,1-10.53-1.11A7.49,7.49,0,0,1,429.15,1965.91Z" fill="#fff"/><path d="M471.51,1931.65a19,19,0,1,1-26.76-2.83A19,19,0,0,1,471.51,1931.65Z" fill="#fff"/><path d="M462.54,1938.91A7.49,7.49,0,1,1,452,1937.8,7.48,7.48,0,0,1,462.54,1938.91Z" fill="#fff"/><path d="M651.94,1785.72a19,19,0,1,1-26.76-2.83A19,19,0,0,1,651.94,1785.72Z" fill="#fff"/><path d="M643,1793a7.49,7.49,0,1,1-10.53-1.11A7.48,7.48,0,0,1,643,1793Z" fill="#fff"/><path d="M685.33,1758.72a19,19,0,1,1-26.77-2.83A19,19,0,0,1,685.33,1758.72Z" fill="#fff"/><path d="M676.35,1766a7.49,7.49,0,1,1-10.53-1.11A7.49,7.49,0,0,1,676.35,1766Z" fill="#fff"/><path d="M306.34,1826.14a17.55,17.55,0,0,1,5.67-26.69l51.33-26.17a10.48,10.48,0,0,1,12.91,2.74l66.18,81.73-66.74,54Z" fill="#e1e8ed"/><rect x="323.52" y="1843.19" width="431.22" height="21.02" transform="translate(-1046.34 752.28) rotate(-39)" fill="#e1e8ed"/><path d="M509.7,1680.85a10.45,10.45,0,0,0-5.36,16.66l24.14,29.81a29.78,29.78,0,0,1-4.41,41.9l-69.45,56.24a29.8,29.8,0,0,1-41.91-4.41l-28.54-35.25a9,9,0,0,0-12.64-1.33l-70,56.7a29.78,29.78,0,0,0-4.4,41.9l34.19,42.24L372,1975.54,449,1913.13,587.9,1800.7l105.18-85.17-40.66-50.22-3.4-4.2a29.81,29.81,0,0,0-31-10Z" fill="#fff"/></svg>